G04 Layer_Color=128*
%FSLAX44Y44*%
%MOMM*%
G71*
G01*
G75*
%ADD24R,1.1000X1.7000*%
%ADD28R,1.7000X1.1000*%
%ADD30C,0.2000*%
G04:AMPARAMS|DCode=40|XSize=5.5mm|YSize=2mm|CornerRadius=0.25mm|HoleSize=0mm|Usage=FLASHONLY|Rotation=0.000|XOffset=0mm|YOffset=0mm|HoleType=Round|Shape=RoundedRectangle|*
%AMROUNDEDRECTD40*
21,1,5.5000,1.5000,0,0,0.0*
21,1,5.0000,2.0000,0,0,0.0*
1,1,0.5000,2.5000,-0.7500*
1,1,0.5000,-2.5000,-0.7500*
1,1,0.5000,-2.5000,0.7500*
1,1,0.5000,2.5000,0.7500*
%
%ADD40ROUNDEDRECTD40*%
D24*
X57950Y298450D02*
D03*
X30950D02*
D03*
X552450Y463550D02*
D03*
X525450D02*
D03*
X496900D02*
D03*
X469900D02*
D03*
X450850Y533400D02*
D03*
X423850D02*
D03*
X191300Y622300D02*
D03*
X164300D02*
D03*
X153200Y400050D02*
D03*
X126200D02*
D03*
X133350Y457200D02*
D03*
X106350D02*
D03*
X337350D02*
D03*
X310350D02*
D03*
X450850Y508000D02*
D03*
X423850D02*
D03*
X407200Y120650D02*
D03*
X380200D02*
D03*
X337350Y57150D02*
D03*
X310350D02*
D03*
D28*
X247650Y526250D02*
D03*
Y553250D02*
D03*
X273050Y526250D02*
D03*
Y553250D02*
D03*
X222250Y526250D02*
D03*
Y553250D02*
D03*
X139700Y534200D02*
D03*
Y507200D02*
D03*
X342900Y534200D02*
D03*
Y507200D02*
D03*
X349250Y597700D02*
D03*
Y570700D02*
D03*
X241300Y640550D02*
D03*
Y667550D02*
D03*
X266700Y640550D02*
D03*
Y667550D02*
D03*
X571500Y527050D02*
D03*
Y500050D02*
D03*
X797000Y620350D02*
D03*
Y593350D02*
D03*
X552650Y614350D02*
D03*
Y587350D02*
D03*
X822000Y620350D02*
D03*
Y593350D02*
D03*
X527650Y614350D02*
D03*
Y587350D02*
D03*
X847000Y620350D02*
D03*
Y593350D02*
D03*
X502650Y614350D02*
D03*
Y587350D02*
D03*
X872000Y620350D02*
D03*
Y593350D02*
D03*
X477650Y587350D02*
D03*
Y614350D02*
D03*
X897000Y620350D02*
D03*
Y593350D02*
D03*
X576650Y614850D02*
D03*
Y587850D02*
D03*
X139700Y596100D02*
D03*
Y623100D02*
D03*
Y578650D02*
D03*
Y551650D02*
D03*
D30*
X878000Y-150D02*
X1000000Y121850D01*
X692000Y-150D02*
X878000D01*
X617000Y74850D02*
X692000Y-150D01*
X393000Y74850D02*
X617000D01*
X377000Y58850D02*
X393000Y74850D01*
X318150Y0D02*
X377000Y58850D01*
X172850Y0D02*
X318150D01*
X0Y172850D02*
X172850Y0D01*
X0Y172850D02*
Y815850D01*
X1000000D01*
Y121850D02*
Y815850D01*
D40*
X267250Y457200D02*
D03*
X174750D02*
D03*
M02*
