M48
;Layer_Color=9474304
;FILE_FORMAT=4:4
METRIC,LZ
;TYPE=PLATED
T1F00S00C0.3000
T3F00S00C0.8500
T4F00S00C0.9000
T5F00S00C1.0000
T7F00S00C1.4000
%
T01
X0069215Y00117602
X0068Y00298958
X005072Y00148049
X005342Y00097536
X0040513Y0010795
X00436076Y00185462
X0010635Y00351238
X00054356Y0031115
X000356Y00509564
X00011684Y00715264
X00221Y0070685
X00227495Y00639407
X00218186Y0059922
X0020955Y005842
Y005715
X00237521Y00578756
X0026515Y00601312
X00277368Y00600202
X0027515Y0059212
X0032282Y005977
X00322072Y005707
X00323088Y00527304
X0032131Y0051435
X00323088Y0046355
X0035005Y00455352
X00366014Y00409194
X00413512
X00461772Y00421132
X00476497Y00415798
X00503174
X00492Y0040185
X00478Y0038585
X0052705Y00418592
X00511814Y00444246
X00493776Y00477774
X00532986Y00486664
X00528508Y00556768
X0051275Y00566166
X00500634Y0056007
X0049275Y00572262
X00478Y0054285
X00471424Y00520192
X0046863Y00504444
X00433832Y00512826
X0042291Y005588
X00368046Y005977
X00299466Y00630174
X0029591Y00678598
X00284036Y00689928
X0028988Y005363
X00262342Y00540364
X0025019Y00516636
X00265Y0048885
X00225207Y00490129
X00221Y0048185
X00211Y0048485
X00221Y0046485
X00231999Y00458849
X00290898Y00440182
X001532Y0041275
X0015247Y005072
X00174028
X001524Y005342
X00155Y0055085
X00167Y0056585
X00175Y0055985
X00175987Y00587097
X0018288Y00605219
X00191262Y006096
X00176784Y00623316
X00161Y0063785
X00206561Y00535364
X00516921Y0059985
X00539242Y00603916
X00465836Y00696976
X00589534Y0058785
X005842Y0052705
X00550672
X0054864Y0049276
X00546884Y00401066
X00693Y0043885
X00680974Y0047625
X00738378Y0047244
X00774192Y00495046
X0076454Y0054285
X00791972Y00546354
X00806Y0054438
X00816Y0053213
X0082804Y00546354
X0084Y005461
X00832104Y00572262
X00848106
X00798127
X00768
X00755142Y00606552
X00709Y00602656
Y00641518
X00738632Y0053485
X00731774Y00408178
X00784Y00418592
X008285Y00409702
X00824Y00433324
X00823307Y00467614
X00832Y00492786
X0085Y0048145
X00881634Y00466852
X0087757Y0051085
X00913638Y00423926
X00776Y0037084
X00829387Y0067935
X0086465Y0072285
X00909828Y0062035
T03
X0016Y0076235
X0021
T04
X0095Y0079285
X009754
X008001Y007874
X007747
X007493
Y00762
X007747
X008001
X007239
Y007874
X006985
Y00762
X006406Y0077985
X006152
X005898
X005644
X00539
X005136
T05
X00038Y0076535
X00063
X00088
Y0079835
X00063
X00038
T07
X0063Y0014585
X0068
X008
X0085
Y0027085
X008
X0068
X0063
X00402388Y00185462
X00367033Y00150106
X00292Y0007685
X00256645Y00041494
X00203612Y00165238
X0017975Y0018885
X00168256Y00129883
X00144394Y00153495
X002535Y0026285
X00278645Y00238495
X00288855Y00298205
X00314Y0027385
X00165112Y00351238
X00091362Y00277239
X00056006Y00241883
X00200467Y00386594
M30
