G04*
G04 #@! TF.GenerationSoftware,Altium Limited,Altium Designer,18.1.7 (191)*
G04*
G04 Layer_Physical_Order=1*
G04 Layer_Color=255*
%FSLAX44Y44*%
%MOMM*%
G71*
G01*
G75*
%ADD12C,0.2000*%
%ADD18C,0.5000*%
%ADD19R,1.1000X1.7000*%
%ADD20R,1.7000X1.1000*%
%ADD21O,1.7500X0.5500*%
%ADD22O,0.5500X1.7500*%
%ADD23O,1.8000X0.3000*%
%ADD24O,0.3000X1.8000*%
%ADD25R,2.0000X1.0000*%
%ADD26O,2.0000X0.6000*%
%ADD27R,1.5000X1.4000*%
%ADD28R,1.5000X1.9000*%
%ADD29R,0.4000X1.3500*%
%ADD31R,5.4000X5.4000*%
%ADD32R,0.2200X0.8100*%
%ADD33R,0.8100X0.2200*%
%ADD34R,1.5250X0.6500*%
%ADD35R,2.8000X1.4000*%
%ADD36R,1.2000X1.4000*%
%ADD37R,1.4000X1.2000*%
%ADD70C,1.0000*%
%ADD71C,1.5240*%
%ADD72C,1.6000*%
%ADD73C,1.7780*%
%ADD74C,2.0000*%
%ADD75C,1.8000*%
%ADD76C,1.5000*%
%ADD77R,1.5000X1.5000*%
%ADD78C,1.4500*%
%ADD79O,2.0000X3.0000*%
%ADD80O,3.0000X2.0000*%
%ADD81R,1.5000X1.5000*%
%ADD82C,0.6000*%
%ADD83C,1.3000*%
G36*
X423740Y895460D02*
Y904460D01*
X418740D01*
X418740Y895460D01*
X423740D01*
D02*
G37*
G36*
X436740Y890460D02*
Y909460D01*
X423740D01*
Y890460D01*
X436740D01*
D02*
G37*
G36*
X482740Y909460D02*
Y890460D01*
X495740D01*
Y909460D01*
X482740D01*
D02*
G37*
G36*
X495740Y904460D02*
Y895460D01*
X500740D01*
X500740Y904460D01*
X495740D01*
D02*
G37*
D12*
X894500Y687880D02*
Y731100D01*
X891540Y734060D02*
X894500Y731100D01*
X883920Y688340D02*
Y726440D01*
Y688340D02*
X889000Y683260D01*
X617640Y432220D02*
X751249D01*
X612140Y426720D02*
X617640Y432220D01*
X607060Y426720D02*
X612140D01*
X729510Y508530D02*
Y587298D01*
X723900Y502920D02*
X729510Y508530D01*
X647728Y502920D02*
X723900D01*
X646222Y504420D02*
X646228D01*
X647728Y502920D01*
X640222Y510420D02*
X646222Y504420D01*
X627680Y510420D02*
X640222D01*
X644778Y500920D02*
X649909Y495789D01*
X725559D01*
X640222Y500920D02*
X644778D01*
X639722Y500420D02*
X640222Y500920D01*
X725559Y495789D02*
X734060Y504290D01*
Y586898D01*
X737560Y496540D02*
Y582620D01*
X741060Y493683D02*
Y573726D01*
X744560Y490560D02*
Y572277D01*
X730940Y489920D02*
X737560Y496540D01*
X732797Y485420D02*
X741060Y493683D01*
X734420Y480420D02*
X744560Y490560D01*
X729510Y587298D02*
X841033Y698820D01*
X734060Y586898D02*
X805022Y657860D01*
X772030Y513080D02*
X815340D01*
X720490Y461540D02*
X772030Y513080D01*
X161345Y534413D02*
X170310Y525448D01*
X176810Y518413D02*
X182810D01*
X170310Y524913D02*
X176810Y518413D01*
X170310Y524913D02*
Y525448D01*
X160810Y534413D02*
X161345D01*
X226060Y465893D02*
X253988Y437965D01*
X226060Y465893D02*
Y485140D01*
X599440Y594360D02*
Y616810D01*
X627680Y594360D02*
X681675D01*
X485352Y632248D02*
X487680Y629920D01*
Y612140D02*
Y629920D01*
X485323Y609783D02*
X487680Y612140D01*
X495153Y619613D01*
X471229Y609783D02*
X485323D01*
X607060Y437965D02*
X764540D01*
X600680Y415320D02*
Y468420D01*
X595680Y410160D02*
Y468420D01*
X600680Y415320D02*
X693840Y322160D01*
X595680Y410160D02*
X714640Y291200D01*
X745209Y455289D02*
X802020D01*
X744220Y456277D02*
X745209Y455289D01*
X727366Y449580D02*
X741075Y463288D01*
X874520Y360632D02*
Y382789D01*
X866948Y353060D02*
X874520Y360632D01*
X858520Y336080D02*
Y382789D01*
X777240Y327660D02*
X802640Y353060D01*
X737870Y327660D02*
X777240D01*
X698500D02*
X704884D01*
X716860Y322160D02*
X741480Y346780D01*
X693840Y322160D02*
X716860D01*
X694375Y382789D02*
Y411480D01*
Y382789D02*
X704884Y372280D01*
X751249Y432220D02*
X751840Y431629D01*
X787820Y655507D02*
Y762578D01*
X717932Y585619D02*
X787820Y655507D01*
X717932Y573152D02*
Y585619D01*
X627680Y520420D02*
X665200D01*
X758811Y639431D02*
Y645757D01*
X644800Y525420D02*
X758811Y639431D01*
X627680Y525420D02*
X644800D01*
X808228Y670966D02*
Y681359D01*
X721432Y584169D02*
X808228Y670966D01*
X721432Y555376D02*
Y584169D01*
X681475Y515420D02*
X721432Y555376D01*
X627680Y515420D02*
X681475D01*
X876500Y415630D02*
X882520Y409610D01*
Y382789D02*
Y409610D01*
X858520Y382789D02*
Y411480D01*
X800470Y689117D02*
X808228Y681359D01*
X787820Y762578D02*
X853942Y828700D01*
X800470Y709030D02*
X805180Y713740D01*
X800470Y689117D02*
Y709030D01*
X795020Y681640D02*
Y756920D01*
X853270Y713740D02*
X917220Y777690D01*
X805180Y713740D02*
X853270D01*
X977760Y828840D02*
X990860Y815740D01*
X949960Y711200D02*
X979480Y681680D01*
Y448620D02*
Y681680D01*
X938149Y407289D02*
X979480Y448620D01*
X977900Y688210D02*
X982980Y683130D01*
Y444500D02*
Y683130D01*
X937769Y399289D02*
X982980Y444500D01*
X985360Y717916D02*
X987100Y716176D01*
Y441000D02*
Y716176D01*
X911860Y365760D02*
X987100Y441000D01*
X850520Y382789D02*
Y401320D01*
X894500Y687880D02*
X899160Y683219D01*
X929378Y657860D02*
X945840Y641398D01*
X747181Y579801D02*
X825239Y657860D01*
X828040Y675640D02*
X957580D01*
X843300Y698820D02*
X921720Y777240D01*
X878840Y754380D02*
X883920D01*
X853440Y779780D02*
X878840Y754380D01*
X853440Y779780D02*
Y817880D01*
X853942Y828700D02*
X867091D01*
X845820Y777240D02*
X876300Y746760D01*
X845820Y777240D02*
Y808723D01*
X815340Y863600D02*
X847560Y831380D01*
X797560Y863600D02*
X815340D01*
X758811Y855980D02*
Y865492D01*
X752663Y871640D02*
X758811Y865492D01*
X401320Y618960D02*
Y725820D01*
X373410Y591049D02*
X401320Y618960D01*
X381000Y612270D02*
Y726440D01*
X342130Y591049D02*
X373410D01*
X329408Y578328D02*
X342130Y591049D01*
X286860Y578328D02*
X329408D01*
X889000Y645160D02*
X937129D01*
X817489D02*
X889000D01*
X937129D02*
X942340Y639949D01*
X748630Y576301D02*
X817489Y645160D01*
X826506Y666328D02*
X941492D01*
X786507Y626328D02*
X826506Y666328D01*
X781268Y626328D02*
X786507D01*
X941492Y666328D02*
X957580Y650240D01*
X810260Y657860D02*
X828040Y675640D01*
X789940Y777240D02*
Y885364D01*
X790488Y885912D01*
X774700Y901700D02*
X790488Y885912D01*
X810260Y855980D02*
X840740Y825500D01*
X797560Y855980D02*
X810260D01*
X767080Y665480D02*
Y868031D01*
X756271Y878840D02*
X767080Y868031D01*
X774700Y671570D02*
Y871220D01*
X759460Y886460D02*
X774700Y871220D01*
X554990Y895350D02*
X768350D01*
X483730Y824090D02*
X554990Y895350D01*
X417970Y824090D02*
X483730D01*
X782320Y661678D02*
Y881380D01*
X768350Y895350D02*
X782320Y881380D01*
X553720Y901700D02*
X774700D01*
X480860Y828840D02*
X553720Y901700D01*
X420195Y828840D02*
X480860D01*
X388620Y723537D02*
X391523Y726440D01*
X388620Y618960D02*
Y723537D01*
X350588Y606328D02*
X363220Y618960D01*
X304860Y606328D02*
X350588D01*
X365058Y596328D02*
X381000Y612270D01*
X304860Y596328D02*
X365058D01*
X322740Y733900D02*
X416850D01*
X378394Y737928D02*
X417772D01*
X367394Y748928D02*
X378394Y737928D01*
X767080Y665480D02*
X769620Y662940D01*
Y660400D02*
Y662940D01*
X811470Y698820D02*
X841033D01*
X737560Y582620D02*
X781268Y626328D01*
X805022Y657860D02*
X810260D01*
X304860Y601329D02*
X365109D01*
X370840Y607060D01*
Y726440D01*
X372088Y831392D02*
Y843778D01*
X841033Y698820D02*
X843300D01*
X786131Y415289D02*
X802020D01*
X777240Y424180D02*
X786131Y415289D01*
X780540Y407289D02*
X802020D01*
X764540Y423289D02*
X780540Y407289D01*
X788291Y423289D02*
X802020D01*
X779951Y431629D02*
X788291Y423289D01*
X761829Y431629D02*
X779951D01*
X752180Y421980D02*
X761829Y431629D01*
X752180Y357480D02*
Y421980D01*
X751840Y431374D02*
Y431629D01*
X217480Y458160D02*
Y478480D01*
Y458160D02*
X248920Y426720D01*
X741480Y346780D02*
X752180Y357480D01*
X151889Y611329D02*
X193860D01*
X105410Y564850D02*
X151889Y611329D01*
X281940Y666328D02*
X302260Y686648D01*
Y711200D01*
X360435Y888600D02*
X420195Y828840D01*
X441960Y838200D02*
X466240Y862480D01*
Y872960D01*
X365960Y876100D02*
X417970Y824090D01*
X354410Y876100D02*
X365960D01*
X359588Y888600D02*
X360435D01*
X770135Y280200D02*
X788715Y261620D01*
X847560Y325120D02*
X858520Y336080D01*
X876500Y283828D02*
X934720Y342048D01*
Y370840D01*
X915020Y423289D02*
X934720D01*
X835660Y302260D02*
Y357410D01*
X842520Y364270D01*
Y382789D01*
X834520Y372240D02*
Y382789D01*
X812800Y297180D02*
X830580Y314960D01*
Y368300D02*
X834520Y372240D01*
X830580Y314960D02*
Y368300D01*
X104062Y283589D02*
X169210Y218440D01*
X370840D01*
X391160D02*
X734060D01*
X769620Y254000D01*
X269345Y47845D02*
X342485D01*
X441960Y147320D01*
X701040D01*
X805180Y251460D01*
Y274320D02*
Y301050D01*
X826520Y322390D01*
Y382789D01*
X818520Y358780D02*
Y382789D01*
X779780Y320040D02*
X818520Y358780D01*
X379733Y156456D02*
Y242573D01*
X457200Y320040D01*
X743135D02*
X779780D01*
X482600Y411480D02*
X495990Y398090D01*
Y316277D02*
Y398090D01*
X762000Y399289D02*
X802020D01*
X858520Y411480D02*
X858520Y411480D01*
X541020Y487700D02*
X546887D01*
X549608Y490420D01*
X558680D01*
X473756Y495420D02*
X558680D01*
X160533Y439933D02*
X163073D01*
X152400Y431800D02*
X160533Y439933D01*
X241860Y714920D02*
Y715480D01*
Y689329D02*
Y714920D01*
X241300Y715480D02*
X256540Y730720D01*
Y748928D01*
X248548Y756920D02*
X256540Y748928D01*
X182032Y756920D02*
X248548D01*
X170180Y745068D02*
X182032Y756920D01*
X170180Y685800D02*
Y745068D01*
X291160Y474980D02*
X306900D01*
X279400Y490220D02*
X279625D01*
X264160Y474980D02*
X279400Y490220D01*
X236220Y502920D02*
X264160Y474980D01*
X287820Y509025D02*
X304700D01*
X279625Y490220D02*
X307340D01*
X260820Y509025D02*
X279625Y490220D01*
X260820Y509025D02*
Y534200D01*
X259080Y535940D02*
X260820Y534200D01*
X333210Y651329D02*
X333210Y651329D01*
Y683301D01*
X333210Y627850D02*
Y651329D01*
X316689Y611329D02*
X333210Y627850D01*
X304860Y611329D02*
X316689D01*
X316238Y666328D02*
X333210Y683301D01*
X85335Y419100D02*
X134620Y468385D01*
X65260Y419100D02*
X85335D01*
X47460Y436900D02*
X65260Y419100D01*
X259080Y597083D02*
X271780Y609783D01*
Y597083D02*
Y609783D01*
Y597083D02*
X271860Y597003D01*
X208280Y671329D02*
X214310D01*
X193860D02*
X208280D01*
X193860Y596328D02*
X204295D01*
X213280Y605313D01*
Y666328D01*
X208280Y671329D02*
X213280Y666328D01*
X257250Y556260D02*
X259080D01*
X251860Y561650D02*
X257250Y556260D01*
X251860Y561650D02*
Y578328D01*
X360210Y683301D02*
Y700418D01*
Y651329D02*
Y683301D01*
Y651329D02*
X360210Y651329D01*
X304860Y666328D02*
X316238D01*
X304860Y636328D02*
X322580D01*
X214310Y671329D02*
X215741Y672760D01*
X248920D01*
X266360Y688828D02*
X266860Y689329D01*
X266360Y672760D02*
Y688828D01*
X261860Y676038D02*
Y689329D01*
X260860Y675038D02*
X261860Y676038D01*
X260860Y670482D02*
Y675038D01*
Y670482D02*
X261860Y669482D01*
Y639508D02*
Y669482D01*
X281940Y647700D02*
Y666328D01*
X249340Y615100D02*
X281940Y647700D01*
X217660Y742480D02*
X217660Y742480D01*
X192450Y742480D02*
X217660D01*
X192450Y715480D02*
X193860Y714070D01*
Y671329D02*
Y714070D01*
X266860Y710560D02*
X271780Y715480D01*
X266860Y689329D02*
Y710560D01*
X271860Y742320D02*
X292100D01*
X217660Y742480D02*
X241300D01*
Y715480D02*
X241860Y714920D01*
Y578328D02*
Y612728D01*
X233751Y611399D02*
X261860Y639508D01*
X233751Y601329D02*
Y611399D01*
X226060Y609600D02*
X256860Y640400D01*
X226060Y597083D02*
Y609600D01*
X245960Y611878D02*
X249182Y615100D01*
X245960Y579229D02*
Y611878D01*
X241860Y612728D02*
X271860Y642728D01*
X256860Y640400D02*
Y689329D01*
X271860Y642728D02*
Y665480D01*
X249182Y615100D02*
X249340D01*
X245960Y579229D02*
X246860Y578328D01*
X802020Y447289D02*
X822711D01*
X784889Y439289D02*
X802020D01*
X741075Y463288D02*
X802020D01*
X613562Y449580D02*
X727366D01*
X605680Y457462D02*
X613562Y449580D01*
X605680Y457462D02*
Y468420D01*
X610680Y459660D02*
Y468420D01*
Y459660D02*
X615800Y454540D01*
X741680Y471288D02*
X802020D01*
X724932Y454540D02*
X741680Y471288D01*
X615800Y454540D02*
X724932D01*
X615680Y463210D02*
Y468420D01*
Y463210D02*
X620850Y458040D01*
X743789Y479288D02*
X802020D01*
X722540Y458040D02*
X743789Y479288D01*
X620850Y458040D02*
X722540D01*
X818520Y495789D02*
Y509900D01*
X815340Y513080D02*
X818520Y509900D01*
X622300Y461540D02*
X720490D01*
X620680Y463160D02*
X622300Y461540D01*
X620680Y463160D02*
Y468420D01*
X929300Y605200D02*
X942340Y592160D01*
Y494529D02*
Y592160D01*
X927100Y479288D02*
X942340Y494529D01*
X842520Y495789D02*
Y535771D01*
X635508Y475420D02*
X638489Y472440D01*
X627680Y475420D02*
X635508D01*
X627680Y480420D02*
X734420D01*
X627680Y485420D02*
X732797D01*
X326588Y888600D02*
X341910D01*
X354410Y876100D01*
X716280Y830580D02*
X750004D01*
X756494Y824090D01*
X703580Y843280D02*
X716280Y830580D01*
X802640Y618960D02*
X815880Y632200D01*
X829300D01*
X811470Y725820D02*
X850281D01*
X917220Y777690D02*
Y820140D01*
X908520Y828840D02*
X917220Y820140D01*
X894080Y828840D02*
X908520D01*
X747135Y579801D02*
X747181D01*
X741060Y573726D02*
X747135Y579801D01*
X748585Y576301D02*
X748630D01*
X744560Y572277D02*
X748585Y576301D01*
X952500Y624840D02*
X957580D01*
X945840Y631500D02*
X952500Y624840D01*
X945840Y631500D02*
Y641398D01*
X942340Y614680D02*
Y639949D01*
Y614680D02*
X957580Y599440D01*
X627680Y530420D02*
X639640D01*
X647700Y411480D02*
X649440Y413220D01*
X704884Y372280D02*
X716480D01*
X669200Y280200D02*
X691108D01*
X743135Y263075D02*
Y280200D01*
X472851Y509025D02*
X495385D01*
X940896Y431289D02*
X946670Y437063D01*
X476231Y531490D02*
X494740D01*
X915020Y431289D02*
X940896D01*
X561340Y548640D02*
X565680Y544300D01*
X894080Y801840D02*
X911720D01*
X565680Y537420D02*
Y544300D01*
X929889Y447289D02*
X946620Y464020D01*
X915020Y447289D02*
X929889D01*
X474609Y632248D02*
X485352D01*
X574995Y558800D02*
X575680Y558115D01*
Y537420D02*
Y558115D01*
X233751Y787400D02*
X271860D01*
X449740Y899960D02*
X469740D01*
Y888246D02*
Y899960D01*
Y888246D02*
X484740Y873245D01*
Y872960D02*
Y873245D01*
X449740Y887960D02*
Y899960D01*
X434740Y872960D02*
X449740Y887960D01*
X434740Y872960D02*
X446740D01*
X843300Y738820D02*
X868361D01*
X894080Y828840D02*
X895820Y830580D01*
X909320D01*
X947420Y868680D01*
Y891140D01*
X867091Y828700D02*
Y836211D01*
X922020Y891140D01*
X867091Y801700D02*
X893940D01*
X894080Y801840D01*
X904299Y632200D02*
X929300D01*
X879300D02*
X904299D01*
X854300D02*
X879300D01*
X829300D02*
X854300D01*
X548560Y505420D02*
X558680D01*
X570680Y537420D02*
Y553085D01*
X471229Y597083D02*
X500380D01*
X471229Y584383D02*
X495153D01*
X549115Y530420D01*
X558680D01*
X471229Y571683D02*
X500197D01*
X546460Y525420D01*
X558680D01*
X543840Y520420D02*
X558680D01*
X500380Y563880D02*
X543840Y520420D01*
X461043Y563880D02*
X500380D01*
X453240Y571683D02*
X461043Y563880D01*
X453240Y571683D02*
Y591049D01*
X434507Y609783D02*
X453240Y591049D01*
X416989Y609783D02*
X434507D01*
X558180Y515920D02*
X558680Y515420D01*
X540720Y515920D02*
X558180D01*
X499990Y556650D02*
X540720Y515920D01*
X459919Y556650D02*
X499990D01*
X446740Y569829D02*
X459919Y556650D01*
X446740Y569829D02*
Y583929D01*
X433586Y597083D02*
X446740Y583929D01*
X416989Y597083D02*
X433586D01*
X497840Y548640D02*
X546060Y500420D01*
X457200Y548640D02*
X497840D01*
X439420Y566420D02*
X457200Y548640D01*
X439420Y566420D02*
Y576763D01*
X431800Y584383D02*
X439420Y576763D01*
X416989Y584383D02*
X431800D01*
X373563Y571683D02*
X416989D01*
X391523Y470925D02*
X418611D01*
X424397Y632248D02*
X447609D01*
X416989Y624840D02*
X424397Y632248D01*
X416989Y609783D02*
Y624840D01*
X431800Y531490D02*
X449231D01*
X418611Y518301D02*
X431800Y531490D01*
X418611Y509025D02*
Y518301D01*
X472851Y496325D02*
X473756Y495420D01*
X550545Y485420D02*
X558680D01*
X545545Y480420D02*
X550545Y485420D01*
X488557Y480420D02*
X545545D01*
X485352Y483625D02*
X488557Y480420D01*
X472851Y483625D02*
X485352D01*
X553525Y480420D02*
X558680D01*
X544030Y470925D02*
X553525Y480420D01*
X472851Y470925D02*
X544030D01*
X462280Y464820D02*
X556260D01*
X457200Y469900D02*
X462280Y464820D01*
X457200Y469900D02*
Y500682D01*
X448857Y509025D02*
X457200Y500682D01*
X418611Y509025D02*
X448857D01*
X565680Y461540D02*
Y468420D01*
X562353Y458213D02*
X565680Y461540D01*
X458747Y458213D02*
X562353D01*
X452120Y464840D02*
X458747Y458213D01*
X452120Y464840D02*
Y487680D01*
X443475Y496325D02*
X452120Y487680D01*
X418611Y496325D02*
X443475D01*
X570680Y457120D02*
Y468420D01*
X565680Y452120D02*
X570680Y457120D01*
X454660Y452120D02*
X565680D01*
X444500Y462280D02*
X454660Y452120D01*
X444500Y462280D02*
Y476005D01*
X436880Y483625D02*
X444500Y476005D01*
X418611Y483625D02*
X436880D01*
X575680Y319555D02*
Y468420D01*
Y319555D02*
X580389Y314846D01*
X580680Y342500D02*
Y468420D01*
Y342500D02*
X594360Y328820D01*
Y289405D02*
Y328820D01*
X580389Y275434D02*
X594360Y289405D01*
X585680Y351580D02*
Y468420D01*
Y351580D02*
X601980Y335280D01*
Y257611D02*
Y335280D01*
X580389Y236020D02*
X601980Y257611D01*
X527420Y314846D02*
X553389D01*
X525990Y316277D02*
X527420Y314846D01*
X527420Y275434D02*
X553389D01*
X525990Y276863D02*
X527420Y275434D01*
Y236020D02*
X553389D01*
X525990Y237450D02*
X527420Y236020D01*
X495990Y237450D02*
Y276863D01*
Y316277D01*
X500380Y597083D02*
X528503Y568960D01*
X554805D01*
X570680Y553085D01*
X686045Y706750D02*
Y720400D01*
X672545Y733900D02*
X686045Y720400D01*
X740510Y706750D02*
Y717916D01*
X756494Y733900D01*
X751510Y680750D02*
X758811Y673449D01*
Y645757D02*
Y673449D01*
X729510Y648057D02*
Y680750D01*
Y648057D02*
X731810Y645757D01*
X697045Y650707D02*
Y680750D01*
Y650707D02*
X701995Y645757D01*
X675045Y645807D02*
Y680750D01*
X674995Y645757D02*
X675045Y645807D01*
X756494Y733900D02*
Y824090D01*
X672545Y733900D02*
Y760175D01*
X692190Y779820D01*
Y798428D01*
X680720Y809898D02*
X692190Y798428D01*
X680720Y809898D02*
Y843280D01*
X629920Y741680D02*
X680720Y792480D01*
X657860Y779158D02*
Y792480D01*
X604507D02*
X635000D01*
X699545Y733900D02*
Y753335D01*
X729494Y733900D02*
Y752821D01*
X605680Y537420D02*
Y618960D01*
X546887Y677753D02*
X605680Y618960D01*
X590680Y537420D02*
Y570177D01*
X411929Y748928D02*
X590680Y570177D01*
X585680Y537420D02*
Y570020D01*
X417772Y737928D02*
X585680Y570020D01*
X358530Y748928D02*
X367394D01*
X314960Y741680D02*
X322740Y733900D01*
X314960Y741680D02*
Y793972D01*
X359588Y838600D01*
X580680Y537420D02*
Y570070D01*
X558680Y467240D02*
Y475420D01*
X556260Y464820D02*
X558680Y467240D01*
X590680Y407628D02*
Y468420D01*
Y407628D02*
X718108Y280200D01*
X760671Y280200D02*
X770135D01*
X749671Y291200D02*
X760671Y280200D01*
X714640Y291200D02*
X749671D01*
X701040Y346780D02*
X716480D01*
Y372280D02*
X741480D01*
X719200Y248533D02*
Y279108D01*
X718108Y280200D02*
X719200Y279108D01*
X788715Y261620D02*
X854292D01*
X876500Y283828D01*
X858520Y495789D02*
Y520700D01*
X863240Y525420D01*
X866520Y495789D02*
Y514688D01*
X874520Y495789D02*
Y559980D01*
X829300Y605200D02*
X874520Y559980D01*
X882520Y495789D02*
Y576980D01*
X854300Y605200D02*
X882520Y576980D01*
X890520Y495789D02*
Y593980D01*
X879300Y605200D02*
X890520Y593980D01*
X898520Y495789D02*
Y599421D01*
X904299Y605200D01*
X915020Y479288D02*
X927100D01*
X921720Y777240D02*
X962660D01*
X975360Y789940D01*
X850520Y495789D02*
Y520478D01*
X858520Y528478D01*
Y548251D01*
X841470Y565301D02*
X858520Y548251D01*
X782120Y538302D02*
X811470D01*
X782120Y565301D02*
X811470D01*
X755120Y538302D02*
Y565301D01*
Y519534D02*
Y538302D01*
X180595Y787000D02*
X193439Y799844D01*
Y824090D01*
X180595Y787000D02*
X206351D01*
X206750Y787400D01*
X70439Y824090D02*
X156070D01*
X153595Y787000D02*
Y813995D01*
X319038Y851100D02*
X331766D01*
X344266Y863600D01*
X359588D01*
X156070Y824090D02*
X183080Y851100D01*
X314088D01*
X326588Y863600D01*
X153595Y813995D02*
X187200Y847600D01*
X315538D01*
X319038Y851100D01*
X326588Y838600D02*
X338220D01*
X436080Y748928D02*
Y767400D01*
X331530Y748928D02*
X359842Y777240D01*
X384929Y748928D02*
Y758309D01*
X403860Y777240D01*
X359842D02*
X403860D01*
X426240D01*
X338220Y838600D02*
X350720Y851100D01*
X364766D01*
X372088Y843778D01*
Y831392D02*
X426240Y777240D01*
X436080Y767400D01*
X182221Y646328D02*
X193860D01*
X122330Y706220D02*
X182221Y646328D01*
X163721Y641329D02*
X193860D01*
X121830Y683220D02*
X163721Y641329D01*
X72830Y683220D02*
X94830D01*
X72830Y683219D02*
X72830Y683220D01*
X76830Y706220D02*
X95330D01*
X73830Y709219D02*
X76830Y706220D01*
X43830Y684220D02*
Y709219D01*
X42830Y683219D02*
X43830Y684220D01*
X42830Y661678D02*
Y683219D01*
X25960Y582050D02*
Y603000D01*
X45960Y623000D01*
X63500D01*
X18960D02*
Y643800D01*
X25960Y569350D02*
X47870D01*
X15819Y556650D02*
X25960D01*
X10160Y562310D02*
X15819Y556650D01*
X10160Y562310D02*
Y579120D01*
X13090Y582050D01*
X25960D01*
Y543950D02*
X40640D01*
X47870Y551180D01*
Y569350D01*
X47460Y436900D02*
Y462300D01*
Y487700D01*
X74460D02*
Y515833D01*
X53340Y536953D02*
X74460Y515833D01*
X53340Y536953D02*
Y564350D01*
X58340Y569350D01*
X75960D01*
X61350Y556650D02*
X75960D01*
X58420Y553720D02*
X61350Y556650D01*
X58420Y539110D02*
Y553720D01*
Y539110D02*
X86360Y511170D01*
Y474200D02*
Y511170D01*
X74460Y462300D02*
X86360Y474200D01*
X74460Y436900D02*
X88880D01*
X99060Y447080D01*
Y535940D01*
X91050Y543950D02*
X99060Y535940D01*
X75960Y543950D02*
X91050D01*
X75960Y582050D02*
X95610D01*
X105410Y591850D01*
X100909Y569350D02*
X105410Y564850D01*
X75960Y569350D02*
X100909D01*
X75960Y556650D02*
X123042D01*
X172720Y606328D01*
X193860D01*
X172670Y601329D02*
X193860D01*
X124492Y553150D02*
X172670Y601329D01*
X100250Y553150D02*
X124492D01*
X91050Y543950D02*
X100250Y553150D01*
X179768Y596328D02*
X193860D01*
X172720Y589280D02*
X179768Y596328D01*
X125810Y541563D02*
X153660D01*
X160810Y534413D01*
X182810Y518413D02*
X210585D01*
X214310Y514688D01*
X182810Y534413D02*
X207034D01*
X214310Y541689D01*
X125810Y514563D02*
X156960D01*
X160810Y518413D01*
X214310Y541689D02*
X216860Y544239D01*
Y578328D01*
X221860Y557920D02*
Y578328D01*
X220980Y497840D02*
X228600Y505460D01*
X181383Y497840D02*
X220980D01*
X160810Y518413D02*
X181383Y497840D01*
X160810Y534413D02*
Y556260D01*
X211860Y565014D02*
Y578328D01*
X207034Y560188D02*
X211860Y565014D01*
X226860Y565620D02*
Y578328D01*
Y565620D02*
X236220Y556260D01*
X228600Y505460D02*
Y551180D01*
X221860Y557920D02*
X228600Y551180D01*
X236220Y502920D02*
Y556260D01*
X246380Y537420D02*
Y551050D01*
X231860Y565570D02*
Y578328D01*
Y565570D02*
X246380Y551050D01*
X236860Y566793D02*
X270253Y533400D01*
X319240D01*
X236860Y566793D02*
Y578328D01*
X256860D02*
Y594863D01*
X259080Y597083D01*
X261860Y578328D02*
Y594303D01*
X259080Y597083D02*
X261860Y594303D01*
X271860Y578328D02*
Y597003D01*
X281860Y578328D02*
Y587003D01*
X271860Y597003D02*
X281860Y587003D01*
X266860Y566260D02*
Y578328D01*
Y566260D02*
X279970Y553150D01*
X284480D02*
Y553720D01*
X279970Y553150D02*
X284480D01*
X276860Y567808D02*
Y578328D01*
Y567808D02*
X284480Y560188D01*
X319710D01*
X416850Y733900D02*
X580680Y570070D01*
X346240Y515033D02*
Y533400D01*
X346710Y560188D02*
Y578650D01*
X170180Y678180D02*
Y685800D01*
Y678180D02*
X182032Y666328D01*
X193860D01*
X179412Y661329D02*
X193860D01*
X160020Y680720D02*
X179412Y661329D01*
X153612Y636328D02*
X153660D01*
X193860D01*
X216860Y689329D02*
Y707860D01*
X276860Y689329D02*
Y698500D01*
X289560Y711200D01*
X915020Y439289D02*
X934589D01*
X874560Y325120D02*
X894080D01*
X949960Y815340D02*
X960120Y805180D01*
X915020Y407289D02*
X938149D01*
X949960Y711200D02*
Y739140D01*
X915020Y399289D02*
X937769D01*
X977900Y688210D02*
Y727538D01*
X985360Y734998D01*
X960120Y805180D02*
X982980D01*
X985360Y802800D01*
Y734998D02*
Y802800D01*
X898520Y371480D02*
Y382789D01*
Y371480D02*
X904240Y365760D01*
X911860D01*
X890520Y366780D02*
Y382789D01*
Y366780D02*
X899160Y358140D01*
X961860Y828840D02*
X977760D01*
X949960Y840740D02*
X961860Y828840D01*
X866520Y363600D02*
Y382789D01*
X447029Y852860D02*
X459740Y865571D01*
X444500Y852860D02*
X447029D01*
X459740Y865571D02*
Y872960D01*
X430240Y838600D02*
X444500Y852860D01*
X269240Y152400D02*
X302260Y119380D01*
X198120Y152400D02*
X269240D01*
X81280Y269240D02*
X198120Y152400D01*
X81280Y269240D02*
Y386593D01*
X148846Y454159D01*
X546100Y510420D02*
X558680D01*
X546100Y507880D02*
X548560Y505420D01*
X546100Y507880D02*
Y510420D01*
X546060Y500420D02*
X558680D01*
X253988Y437965D02*
X568960D01*
X248920Y426720D02*
X568960D01*
X627680Y500420D02*
X639722D01*
X627680Y490420D02*
X639722D01*
X640222Y489920D01*
X730940D01*
X627680Y495420D02*
X642500D01*
X665200Y520420D02*
X670140Y525360D01*
Y525780D01*
X670560D02*
X717932Y573152D01*
X670140Y525780D02*
X670560D01*
X635000Y391160D02*
Y398780D01*
Y391160D02*
X698500Y327660D01*
X275740Y335109D02*
X480130D01*
X213167Y392944D02*
X217905D01*
X275740Y335109D01*
X899160Y358140D02*
X911860D01*
X990860Y437140D01*
Y815740D01*
X595680Y537420D02*
Y570180D01*
X600680Y537420D02*
Y570260D01*
X531135Y639660D02*
X531280D01*
X600680Y570260D01*
X529685Y636160D02*
X529700D01*
X595680Y570180D01*
X571090Y645160D02*
X599440Y616810D01*
X533413Y645160D02*
X571090D01*
X681675Y594360D02*
X697370Y610055D01*
Y629920D01*
X701995Y645757D02*
X702870Y644882D01*
Y593650D02*
Y644882D01*
X639640Y530420D02*
X702870Y593650D01*
X708660Y629920D02*
X711833D01*
X727670Y645757D01*
X731810D01*
X674995Y645757D02*
X690832Y629920D01*
X697370D01*
X553720Y886460D02*
X759460D01*
X425439Y808723D02*
X434596Y817880D01*
X485140D01*
X553720Y886460D01*
X487680Y812800D02*
X553720Y878840D01*
X756271D01*
X491223Y808723D02*
X554140Y871640D01*
X752663D01*
X442568Y812800D02*
X487680D01*
X431800Y802032D02*
X442568Y812800D01*
X441960Y802640D02*
X448043Y808723D01*
X491223D01*
X447460Y800362D02*
Y800520D01*
X449580Y802640D01*
X436880Y789940D02*
X437038D01*
X447460Y800362D01*
X449580Y802640D02*
X493230D01*
X554190Y863600D01*
X747845D01*
X825239Y657860D02*
X929378D01*
X546887Y677753D02*
Y682460D01*
X513550Y657245D02*
Y682460D01*
Y657245D02*
X531135Y639660D01*
X580225Y652755D02*
Y682460D01*
Y652755D02*
X610680Y622300D01*
Y537420D02*
Y622300D01*
X613562Y682460D02*
X615680Y680342D01*
X620680Y537420D02*
Y656240D01*
X646900Y682460D01*
X615680Y537420D02*
Y680342D01*
X513550Y709460D02*
X546887D01*
X580225D02*
X612140D01*
X463080Y702765D02*
X529685Y636160D01*
X463080Y702765D02*
Y748928D01*
X513550Y709460D02*
Y723158D01*
X543213Y752821D02*
X564848D01*
X604507Y792480D01*
X513550Y723158D02*
X526992Y736600D01*
X636740Y709460D02*
X646900D01*
X629920Y716280D02*
X636740Y709460D01*
X602780Y718820D02*
X612140Y709460D01*
X596900Y718820D02*
X602780D01*
X596900Y742480D02*
X626580Y772160D01*
X650862D01*
X657860Y779158D01*
D18*
X498240Y895460D02*
X497319Y897399D01*
X495234Y897908D01*
X493522Y896613D01*
X493463Y894428D01*
X495146Y893031D01*
X497284Y893493D01*
X498240Y895460D01*
X426240Y895460D02*
X425014Y897611D01*
X426238Y895350D02*
X426240Y895460D01*
X425014Y897611D02*
X424740Y897751D01*
Y893169D02*
X426238Y895350D01*
X424740Y897751D02*
X422371Y897552D01*
X421240Y895460D01*
X422371Y893368D01*
X424740Y893169D01*
X426240Y904460D02*
X425421Y906310D01*
X422877Y906806D01*
X421260Y904780D01*
X422309Y902410D01*
X424896Y902243D01*
X426240Y904460D01*
X498240Y904460D02*
X496752Y906746D01*
X494059Y906310D01*
X493272Y904060D01*
X494728Y902174D01*
X497104Y902365D01*
X498240Y904460D01*
X472740Y839310D02*
Y872960D01*
D19*
X756494Y733900D02*
D03*
X729494D02*
D03*
X264160Y474980D02*
D03*
X291160D02*
D03*
X260820Y509025D02*
D03*
X287820D02*
D03*
X95330Y706220D02*
D03*
X122330D02*
D03*
X770135Y280200D02*
D03*
X743135D02*
D03*
X718108Y280200D02*
D03*
X691108D02*
D03*
X45960Y623000D02*
D03*
X18960D02*
D03*
X206750Y787400D02*
D03*
X233751D02*
D03*
X874560Y325120D02*
D03*
X847560D02*
D03*
X319710Y560188D02*
D03*
X346710D02*
D03*
X94830Y683220D02*
D03*
X121830D02*
D03*
X346240Y533400D02*
D03*
X319240D02*
D03*
X74460Y487700D02*
D03*
X47460D02*
D03*
X74460Y462300D02*
D03*
X47460D02*
D03*
X74460Y436900D02*
D03*
X47460D02*
D03*
X782120Y565301D02*
D03*
X755120D02*
D03*
X153595Y787000D02*
D03*
X180595D02*
D03*
X782120Y538302D02*
D03*
X755120D02*
D03*
X580389Y314846D02*
D03*
X553389D02*
D03*
X553389Y275434D02*
D03*
X580389D02*
D03*
X699545Y733900D02*
D03*
X672545D02*
D03*
X476231Y531490D02*
D03*
X449231D02*
D03*
X474609Y632248D02*
D03*
X447609D02*
D03*
X674995Y645757D02*
D03*
X701995D02*
D03*
X731810Y645757D02*
D03*
X758811D02*
D03*
X580389Y236020D02*
D03*
X553389D02*
D03*
X463080Y748928D02*
D03*
X436080D02*
D03*
X411929D02*
D03*
X384929D02*
D03*
X358530Y748928D02*
D03*
X331530D02*
D03*
X360210Y683301D02*
D03*
X333210D02*
D03*
X333210Y651329D02*
D03*
X360210D02*
D03*
D20*
X646900Y682460D02*
D03*
Y709460D02*
D03*
X192450Y715480D02*
D03*
Y742480D02*
D03*
X271780Y715480D02*
D03*
Y742480D02*
D03*
X241300Y715480D02*
D03*
Y742480D02*
D03*
X105410Y591850D02*
D03*
Y564850D02*
D03*
X811470Y698820D02*
D03*
Y725820D02*
D03*
X612140Y709460D02*
D03*
Y682460D02*
D03*
X580225Y709460D02*
D03*
Y682460D02*
D03*
X546887Y709460D02*
D03*
Y682460D02*
D03*
X513550Y709460D02*
D03*
Y682460D02*
D03*
X894080Y801840D02*
D03*
Y828840D02*
D03*
X867091Y801700D02*
D03*
Y828700D02*
D03*
X829300Y632200D02*
D03*
Y605200D02*
D03*
X854300Y632200D02*
D03*
Y605200D02*
D03*
X879300Y632200D02*
D03*
Y605200D02*
D03*
X904299Y632200D02*
D03*
Y605200D02*
D03*
X929300Y632200D02*
D03*
Y605200D02*
D03*
X214310Y514688D02*
D03*
Y541689D02*
D03*
X125810Y514563D02*
D03*
Y541563D02*
D03*
D21*
X915020Y479288D02*
D03*
Y471288D02*
D03*
Y447289D02*
D03*
Y439289D02*
D03*
Y463288D02*
D03*
Y455289D02*
D03*
Y431289D02*
D03*
Y407289D02*
D03*
Y399289D02*
D03*
Y423289D02*
D03*
Y415289D02*
D03*
X802020Y479288D02*
D03*
Y471288D02*
D03*
Y463288D02*
D03*
Y439289D02*
D03*
Y431289D02*
D03*
Y455289D02*
D03*
Y447289D02*
D03*
Y423289D02*
D03*
Y407289D02*
D03*
Y399289D02*
D03*
Y415289D02*
D03*
D22*
X890520Y495789D02*
D03*
X898520D02*
D03*
X874520D02*
D03*
X882520D02*
D03*
X858520D02*
D03*
X866520D02*
D03*
X842520D02*
D03*
X850520D02*
D03*
X866520Y382789D02*
D03*
X874520D02*
D03*
X850520D02*
D03*
X858520D02*
D03*
X890520D02*
D03*
X898520D02*
D03*
X882520D02*
D03*
X826520Y495789D02*
D03*
X834520D02*
D03*
X818520D02*
D03*
Y382789D02*
D03*
X826520D02*
D03*
X834520D02*
D03*
X842520D02*
D03*
D23*
X193860Y596328D02*
D03*
Y601329D02*
D03*
Y606328D02*
D03*
Y611329D02*
D03*
Y616328D02*
D03*
Y621329D02*
D03*
Y626328D02*
D03*
Y631329D02*
D03*
Y636328D02*
D03*
Y641329D02*
D03*
Y646328D02*
D03*
Y651329D02*
D03*
Y656328D02*
D03*
Y661329D02*
D03*
Y666328D02*
D03*
Y671329D02*
D03*
X304860D02*
D03*
Y666328D02*
D03*
Y661329D02*
D03*
Y656328D02*
D03*
Y651329D02*
D03*
Y646328D02*
D03*
Y641329D02*
D03*
Y636328D02*
D03*
Y631329D02*
D03*
Y626328D02*
D03*
Y621329D02*
D03*
Y616328D02*
D03*
Y611329D02*
D03*
Y606328D02*
D03*
Y601329D02*
D03*
Y596328D02*
D03*
D24*
X211860Y689329D02*
D03*
X216860D02*
D03*
X221860D02*
D03*
X226860D02*
D03*
X231860D02*
D03*
X236860D02*
D03*
X241860D02*
D03*
X246860D02*
D03*
X251860D02*
D03*
X256860D02*
D03*
X261860D02*
D03*
X266860D02*
D03*
X271860D02*
D03*
X276860D02*
D03*
X281860D02*
D03*
X286860D02*
D03*
Y578328D02*
D03*
X281860D02*
D03*
X276860D02*
D03*
X271860D02*
D03*
X266860D02*
D03*
X261860D02*
D03*
X256860D02*
D03*
X251860D02*
D03*
X246860D02*
D03*
X241860D02*
D03*
X236860D02*
D03*
X231860D02*
D03*
X226860D02*
D03*
X221860D02*
D03*
X216860D02*
D03*
X211860D02*
D03*
D25*
X909300Y738820D02*
D03*
Y698820D02*
D03*
X843300D02*
D03*
Y738820D02*
D03*
D26*
X75960Y543950D02*
D03*
Y556650D02*
D03*
Y569350D02*
D03*
Y582050D02*
D03*
X25960Y543950D02*
D03*
Y556650D02*
D03*
Y569350D02*
D03*
Y582050D02*
D03*
D27*
X741480Y346780D02*
D03*
X716480D02*
D03*
X741480Y372280D02*
D03*
X716480D02*
D03*
D28*
X469740Y899960D02*
D03*
X449740D02*
D03*
D29*
X472740Y872960D02*
D03*
X453240D02*
D03*
X459740D02*
D03*
X446740D02*
D03*
X466240D02*
D03*
D31*
X593180Y502920D02*
D03*
D32*
X620680Y468420D02*
D03*
X615680D02*
D03*
X610680D02*
D03*
X605680D02*
D03*
X600680D02*
D03*
X595680D02*
D03*
X590680D02*
D03*
X585680D02*
D03*
X580680D02*
D03*
X575680D02*
D03*
X570680D02*
D03*
X565680D02*
D03*
Y537420D02*
D03*
X570680D02*
D03*
X575680D02*
D03*
X580680D02*
D03*
X585680D02*
D03*
X590680D02*
D03*
X595680D02*
D03*
X600680D02*
D03*
X605680D02*
D03*
X610680D02*
D03*
X615680D02*
D03*
X620680D02*
D03*
D33*
X558680Y475420D02*
D03*
Y480420D02*
D03*
Y485420D02*
D03*
Y490420D02*
D03*
Y495420D02*
D03*
Y500420D02*
D03*
Y505420D02*
D03*
Y510420D02*
D03*
Y515420D02*
D03*
Y520420D02*
D03*
Y525420D02*
D03*
Y530420D02*
D03*
X627680D02*
D03*
Y525420D02*
D03*
Y520420D02*
D03*
Y515420D02*
D03*
Y510420D02*
D03*
Y505420D02*
D03*
Y500420D02*
D03*
Y495420D02*
D03*
Y490420D02*
D03*
Y485420D02*
D03*
Y480420D02*
D03*
Y475420D02*
D03*
D34*
X418611Y509025D02*
D03*
Y496325D02*
D03*
Y483625D02*
D03*
Y470925D02*
D03*
X472851D02*
D03*
Y483625D02*
D03*
Y496325D02*
D03*
Y509025D02*
D03*
X416989Y609783D02*
D03*
Y597083D02*
D03*
Y584383D02*
D03*
Y571683D02*
D03*
X471229D02*
D03*
Y584383D02*
D03*
Y597083D02*
D03*
Y609783D02*
D03*
D35*
X740510Y706750D02*
D03*
X686045D02*
D03*
D36*
X43830Y709219D02*
D03*
X73830D02*
D03*
X42830Y683219D02*
D03*
X72830D02*
D03*
X841470Y565301D02*
D03*
X811470D02*
D03*
X841470Y538302D02*
D03*
X811470D02*
D03*
X525990Y316277D02*
D03*
X495990D02*
D03*
X525990Y276863D02*
D03*
X495990D02*
D03*
Y237450D02*
D03*
X525990D02*
D03*
X751510Y680750D02*
D03*
X729510D02*
D03*
X697045D02*
D03*
X675045D02*
D03*
D37*
X182810Y518413D02*
D03*
X160810D02*
D03*
Y534413D02*
D03*
X182810D02*
D03*
D70*
X694375Y411480D02*
X741680D01*
X858520D02*
X894080Y447040D01*
X163073Y439933D02*
X191525Y411480D01*
X322580D02*
X406860D01*
X191525D02*
X322580D01*
X111760Y491245D02*
X134620Y468385D01*
X828040Y411480D02*
X858520D01*
X647700D02*
X694375D01*
X622300D02*
X647700D01*
X505460D02*
X558800D01*
X482600D02*
X505460D01*
X434740D02*
X482600D01*
X134620Y468385D02*
X148846Y454159D01*
X163073Y439933D01*
X548640Y731520D02*
X652780D01*
X487680Y792480D02*
X548640Y731520D01*
D71*
X593950Y501170D02*
D03*
D72*
X322580Y411480D02*
D03*
X111760Y492010D02*
D03*
X894080Y447040D02*
D03*
X828040Y411480D02*
D03*
X741680D02*
D03*
X622300D02*
D03*
X505460D02*
D03*
X558800D02*
D03*
X434740D02*
D03*
X406860D02*
D03*
D73*
X703580Y843280D02*
D03*
X726440D02*
D03*
X669290Y817880D02*
D03*
X726440Y792480D02*
D03*
X680720D02*
D03*
Y843280D02*
D03*
X715010Y817880D02*
D03*
X703580Y792480D02*
D03*
X692150Y817880D02*
D03*
X646430D02*
D03*
X737870D02*
D03*
X657860Y843280D02*
D03*
X635000D02*
D03*
X657860Y792480D02*
D03*
X635000D02*
D03*
D74*
X326588Y888600D02*
D03*
Y863600D02*
D03*
X359588Y888600D02*
D03*
Y863600D02*
D03*
X326588Y838600D02*
D03*
X359588D02*
D03*
D75*
X301555Y304555D02*
D03*
X266200Y269200D02*
D03*
X213167Y392944D02*
D03*
X177812Y357588D02*
D03*
X415088Y191812D02*
D03*
X379733Y156456D02*
D03*
X326700Y280200D02*
D03*
X291345Y244845D02*
D03*
X304700Y83200D02*
D03*
X269345Y47845D02*
D03*
X216311Y171588D02*
D03*
X180956Y136233D02*
D03*
X192450Y195200D02*
D03*
X157094Y159845D02*
D03*
X104062Y283589D02*
D03*
X68706Y248233D02*
D03*
X719200Y248533D02*
D03*
Y123533D02*
D03*
X669200D02*
D03*
Y248533D02*
D03*
X876500Y283828D02*
D03*
Y158828D02*
D03*
X826500D02*
D03*
Y283828D02*
D03*
D76*
X975360Y739140D02*
D03*
Y789940D02*
D03*
Y764540D02*
D03*
X949960Y739140D02*
D03*
Y789940D02*
D03*
Y764540D02*
D03*
X975360Y815340D02*
D03*
Y840740D02*
D03*
X949960Y815340D02*
D03*
X957580Y574040D02*
D03*
Y599440D02*
D03*
Y624840D02*
D03*
Y650240D02*
D03*
Y675640D02*
D03*
X922020Y891140D02*
D03*
X896620D02*
D03*
X871220D02*
D03*
D77*
X949960Y840740D02*
D03*
X957580Y548640D02*
D03*
D78*
X484740Y872960D02*
D03*
X434740D02*
D03*
D79*
X193439Y824090D02*
D03*
X70439Y824090D02*
D03*
D80*
X193439Y869050D02*
D03*
X70439Y869050D02*
D03*
D81*
X947420Y891140D02*
D03*
D82*
X891540Y734060D02*
D03*
X883920Y726440D02*
D03*
X723900Y502920D02*
D03*
X599440Y594360D02*
D03*
X627680D02*
D03*
X495153Y619613D02*
D03*
X574995Y485140D02*
D03*
X609600D02*
D03*
Y520700D02*
D03*
X574995D02*
D03*
X607060Y437965D02*
D03*
Y426720D02*
D03*
X764540Y437965D02*
D03*
X744220Y456277D02*
D03*
X866948Y353060D02*
D03*
X802640D02*
D03*
X737870Y327660D02*
D03*
X704884D02*
D03*
X876500Y415630D02*
D03*
X808228Y681359D02*
D03*
X795020Y756920D02*
D03*
Y681640D02*
D03*
X850520Y401320D02*
D03*
X899160Y657860D02*
D03*
Y683219D02*
D03*
X883920Y754380D02*
D03*
X853440Y817880D02*
D03*
X845820Y808723D02*
D03*
X847560Y831380D02*
D03*
X797560Y863600D02*
D03*
X747845D02*
D03*
X436880Y789940D02*
D03*
X401320Y725820D02*
D03*
X889000Y645160D02*
D03*
Y683260D02*
D03*
X876300Y746760D02*
D03*
X789940Y777240D02*
D03*
X840740Y825500D02*
D03*
X797560Y855980D02*
D03*
X758811D02*
D03*
X431800Y802032D02*
D03*
X425439Y808723D02*
D03*
X391523Y726440D02*
D03*
X388620Y618960D02*
D03*
X363220D02*
D03*
X381000Y726440D02*
D03*
X769620Y660400D02*
D03*
X781268Y626328D02*
D03*
X370840Y726440D02*
D03*
X774700Y671570D02*
D03*
X810260Y657860D02*
D03*
X764540Y423289D02*
D03*
X777240Y424180D02*
D03*
X751840Y431629D02*
D03*
X217480Y478480D02*
D03*
X226060Y485140D02*
D03*
X302260Y711200D02*
D03*
X430240Y838600D02*
D03*
X441960Y838200D02*
D03*
X934720Y370840D02*
D03*
Y423289D02*
D03*
X835660Y302260D02*
D03*
X370840Y218440D02*
D03*
X391160D02*
D03*
X769620Y254000D02*
D03*
X812800Y297180D02*
D03*
X805180Y251460D02*
D03*
Y274320D02*
D03*
X457200Y320040D02*
D03*
X743135D02*
D03*
X762000Y399289D02*
D03*
X541020Y487700D02*
D03*
X152400Y431800D02*
D03*
X306900Y474980D02*
D03*
X304700Y509025D02*
D03*
X307340Y490220D02*
D03*
X259080Y535940D02*
D03*
X333210Y627850D02*
D03*
X271780Y609783D02*
D03*
X259080Y556260D02*
D03*
X360210Y700418D02*
D03*
X322580Y636328D02*
D03*
X248920Y672760D02*
D03*
X266360D02*
D03*
X292100Y742320D02*
D03*
X217660Y742480D02*
D03*
X233751Y601329D02*
D03*
X226060Y597083D02*
D03*
X271860Y665480D02*
D03*
X822711Y447289D02*
D03*
X784889Y439289D02*
D03*
X638489Y472440D02*
D03*
X782320Y661678D02*
D03*
X802640Y618960D02*
D03*
X850281Y725820D02*
D03*
X669200Y280200D02*
D03*
X743135Y263075D02*
D03*
X495385Y509025D02*
D03*
X494740Y531490D02*
D03*
X946670Y437063D02*
D03*
X561340Y548640D02*
D03*
X911720Y801840D02*
D03*
X946620Y464020D02*
D03*
X574995Y558800D02*
D03*
X271860Y787400D02*
D03*
X868361Y738820D02*
D03*
X373563Y571683D02*
D03*
X391523Y470925D02*
D03*
X699545Y753335D02*
D03*
X729494Y752821D02*
D03*
X701040Y346780D02*
D03*
X863240Y525420D02*
D03*
X866520Y514688D02*
D03*
X755120Y519534D02*
D03*
X42830Y661678D02*
D03*
X63500Y623000D02*
D03*
X18960Y643800D02*
D03*
X47870Y569350D02*
D03*
X172720Y589280D02*
D03*
X160810Y556260D02*
D03*
X207034Y560188D02*
D03*
X246380Y537420D02*
D03*
X284480Y553150D02*
D03*
X346240Y515033D02*
D03*
X346710Y578650D02*
D03*
X170180Y685800D02*
D03*
X160020Y680720D02*
D03*
X153660Y636328D02*
D03*
X216860Y707860D02*
D03*
X289560Y711200D02*
D03*
X934589Y439289D02*
D03*
X894080Y325120D02*
D03*
X866520Y363600D02*
D03*
X985360Y717916D02*
D03*
X302260Y119380D02*
D03*
X546100Y510420D02*
D03*
X568960Y437965D02*
D03*
Y426720D02*
D03*
X642500Y495420D02*
D03*
X670140Y525780D02*
D03*
X635000Y398780D02*
D03*
X480130Y335109D02*
D03*
X533413Y645160D02*
D03*
X697370Y629920D02*
D03*
X708660D02*
D03*
X441960Y802640D02*
D03*
X543213Y752821D02*
D03*
X526992Y736600D02*
D03*
X629920Y716280D02*
D03*
Y741680D02*
D03*
X596900Y718820D02*
D03*
Y742480D02*
D03*
D83*
X472740Y839310D02*
D03*
X487680Y792480D02*
D03*
X652780Y731520D02*
D03*
M02*
