G04 Layer_Color=32896*
%FSLAX44Y44*%
%MOMM*%
G71*
G01*
G75*
%ADD30C,0.2000*%
%ADD44C,0.2032*%
%ADD76C,0.1270*%
G36*
X844360Y216930D02*
Y214898D01*
Y212866D01*
Y210834D01*
X842328D01*
Y212866D01*
Y214898D01*
Y216930D01*
Y218962D01*
X844360D01*
Y216930D01*
D02*
G37*
G36*
X846392Y204738D02*
Y202706D01*
X844360D01*
Y204738D01*
Y206770D01*
X846392D01*
Y204738D01*
D02*
G37*
G36*
X862648Y322594D02*
Y320562D01*
Y318530D01*
X864680D01*
Y316498D01*
Y314466D01*
Y312434D01*
X862648D01*
Y310402D01*
Y308370D01*
X858584D01*
Y310402D01*
X856552D01*
Y312434D01*
X854520D01*
Y314466D01*
X852488D01*
Y316498D01*
X850456D01*
Y318530D01*
X848424D01*
Y320562D01*
X850456D01*
Y322594D01*
X854520D01*
Y324626D01*
X856552D01*
Y322594D01*
X860616D01*
Y324626D01*
X862648D01*
Y322594D01*
D02*
G37*
G36*
X998792Y527826D02*
Y525794D01*
Y523762D01*
Y521730D01*
Y519698D01*
Y517666D01*
Y515634D01*
Y513602D01*
Y511570D01*
Y509538D01*
Y507506D01*
Y505474D01*
Y503442D01*
Y501410D01*
Y499378D01*
Y497346D01*
Y495314D01*
Y493282D01*
Y491250D01*
Y489218D01*
Y487186D01*
Y485154D01*
Y483122D01*
Y481090D01*
Y479058D01*
Y477026D01*
Y474994D01*
Y472962D01*
Y470930D01*
Y468898D01*
Y466866D01*
Y464834D01*
Y462802D01*
Y460770D01*
Y458738D01*
Y456706D01*
Y454674D01*
Y452642D01*
Y450610D01*
Y448578D01*
Y446546D01*
Y444514D01*
Y442482D01*
Y440450D01*
Y438418D01*
Y436386D01*
Y434354D01*
Y432322D01*
Y430290D01*
Y428258D01*
Y426226D01*
Y424194D01*
Y422162D01*
Y420130D01*
Y418098D01*
Y416066D01*
Y414034D01*
Y412002D01*
Y409970D01*
Y407938D01*
Y405906D01*
Y403874D01*
Y401842D01*
Y399810D01*
Y397778D01*
Y395746D01*
Y393714D01*
Y391682D01*
Y389650D01*
Y387618D01*
Y385586D01*
Y383554D01*
Y381522D01*
Y379490D01*
Y377458D01*
Y375426D01*
Y373394D01*
Y371362D01*
Y369330D01*
Y367298D01*
Y365266D01*
Y363234D01*
Y361202D01*
Y359170D01*
Y357138D01*
Y355106D01*
Y353074D01*
Y351042D01*
Y349010D01*
Y346978D01*
Y344946D01*
Y342914D01*
Y340882D01*
Y338850D01*
Y336818D01*
Y334786D01*
Y332754D01*
Y330722D01*
Y328690D01*
Y326658D01*
Y324626D01*
Y322594D01*
Y320562D01*
Y318530D01*
Y316498D01*
Y314466D01*
Y312434D01*
Y310402D01*
Y308370D01*
Y306338D01*
Y304306D01*
Y302274D01*
Y300242D01*
Y298210D01*
Y296178D01*
Y294146D01*
Y292114D01*
Y290082D01*
Y288050D01*
Y286018D01*
Y283986D01*
Y281954D01*
Y279922D01*
Y277890D01*
Y275858D01*
Y273826D01*
Y271794D01*
Y269762D01*
Y267730D01*
Y265698D01*
Y263666D01*
Y261634D01*
Y259602D01*
Y257570D01*
Y255538D01*
Y253506D01*
Y251474D01*
Y249442D01*
Y247410D01*
Y245378D01*
Y243346D01*
Y241314D01*
Y239282D01*
Y237250D01*
Y235218D01*
Y233186D01*
Y231154D01*
X996760D01*
Y233186D01*
X978472D01*
Y231154D01*
X970344D01*
Y233186D01*
X966280D01*
Y235218D01*
X962216D01*
Y237250D01*
X956120D01*
Y239282D01*
X952056D01*
Y241314D01*
X947992D01*
Y243346D01*
X939864D01*
Y245378D01*
X923608D01*
Y247410D01*
X921576D01*
Y249442D01*
X919544D01*
Y251474D01*
X917512D01*
Y253506D01*
X915480D01*
Y255538D01*
X913448D01*
Y257570D01*
Y259602D01*
Y261634D01*
X911416D01*
Y263666D01*
Y265698D01*
Y267730D01*
X909384D01*
Y269762D01*
Y271794D01*
X907352D01*
Y273826D01*
Y275858D01*
X905320D01*
Y277890D01*
X903288D01*
Y279922D01*
Y281954D01*
X901256D01*
Y283986D01*
X899224D01*
Y286018D01*
Y288050D01*
X897192D01*
Y290082D01*
Y292114D01*
Y294146D01*
Y296178D01*
X895160D01*
Y298210D01*
Y300242D01*
X893128D01*
Y302274D01*
Y304306D01*
X891096D01*
Y306338D01*
Y308370D01*
Y310402D01*
X889064D01*
Y312434D01*
X887032D01*
Y314466D01*
Y316498D01*
X885000D01*
Y318530D01*
Y320562D01*
Y322594D01*
X882968D01*
Y324626D01*
Y326658D01*
X880936D01*
Y328690D01*
Y330722D01*
X878904D01*
Y332754D01*
Y334786D01*
X874840D01*
Y332754D01*
Y330722D01*
X872808D01*
Y328690D01*
X870776D01*
Y326658D01*
X868744D01*
Y328690D01*
Y330722D01*
Y332754D01*
X870776D01*
Y334786D01*
X872808D01*
Y336818D01*
X876872D01*
Y338850D01*
Y340882D01*
X874840D01*
Y342914D01*
Y344946D01*
Y346978D01*
X872808D01*
Y349010D01*
Y351042D01*
X870776D01*
Y353074D01*
X872808D01*
Y351042D01*
X880936D01*
Y349010D01*
Y346978D01*
X887032D01*
Y349010D01*
Y351042D01*
Y353074D01*
X889064D01*
Y355106D01*
Y357138D01*
X887032D01*
Y359170D01*
X891096D01*
Y361202D01*
X893128D01*
Y363234D01*
Y365266D01*
Y367298D01*
Y369330D01*
Y371362D01*
Y373394D01*
Y375426D01*
Y377458D01*
X891096D01*
Y379490D01*
X876872D01*
Y377458D01*
X872808D01*
Y375426D01*
X870776D01*
Y373394D01*
X866712D01*
Y371362D01*
X864680D01*
Y369330D01*
X862648D01*
Y371362D01*
Y373394D01*
Y375426D01*
Y377458D01*
Y379490D01*
Y381522D01*
X860616D01*
Y383554D01*
Y385586D01*
Y387618D01*
Y389650D01*
Y391682D01*
Y393714D01*
X858584D01*
Y395746D01*
Y397778D01*
Y399810D01*
Y401842D01*
Y403874D01*
Y405906D01*
Y407938D01*
X856552D01*
Y409970D01*
Y412002D01*
X854520D01*
Y414034D01*
Y416066D01*
Y418098D01*
Y420130D01*
X852488D01*
Y422162D01*
Y424194D01*
Y426226D01*
Y428258D01*
X850456D01*
Y430290D01*
Y432322D01*
Y434354D01*
Y436386D01*
Y438418D01*
Y440450D01*
Y442482D01*
Y444514D01*
Y446546D01*
Y448578D01*
Y450610D01*
Y452642D01*
Y454674D01*
Y456706D01*
Y458738D01*
Y460770D01*
X848424D01*
Y462802D01*
Y464834D01*
Y466866D01*
Y468898D01*
Y470930D01*
Y472962D01*
Y474994D01*
Y477026D01*
X846392D01*
Y479058D01*
Y481090D01*
Y483122D01*
X844360D01*
Y485154D01*
X842328D01*
Y487186D01*
X838264D01*
Y489218D01*
X834200D01*
Y487186D01*
X832168D01*
Y485154D01*
X830136D01*
Y483122D01*
X826072D01*
Y481090D01*
X824040D01*
Y479058D01*
Y477026D01*
X828104D01*
Y479058D01*
X832168D01*
Y477026D01*
X834200D01*
Y474994D01*
X836232D01*
Y472962D01*
Y470930D01*
Y468898D01*
Y466866D01*
Y464834D01*
X838264D01*
Y462802D01*
Y460770D01*
Y458738D01*
X840296D01*
Y456706D01*
Y454674D01*
Y452642D01*
X842328D01*
Y450610D01*
Y448578D01*
X844360D01*
Y446546D01*
Y444514D01*
X846392D01*
Y442482D01*
X844360D01*
Y440450D01*
X846392D01*
Y438418D01*
Y436386D01*
Y434354D01*
Y432322D01*
Y430290D01*
Y428258D01*
Y426226D01*
Y424194D01*
Y422162D01*
Y420130D01*
X844360D01*
Y418098D01*
Y416066D01*
Y414034D01*
Y412002D01*
Y409970D01*
X840296D01*
Y407938D01*
Y405906D01*
X838264D01*
Y403874D01*
X836232D01*
Y401842D01*
X834200D01*
Y403874D01*
X830136D01*
Y405906D01*
X828104D01*
Y407938D01*
Y409970D01*
X826072D01*
Y412002D01*
Y414034D01*
Y416066D01*
Y418098D01*
X824040D01*
Y420130D01*
X822008D01*
Y422162D01*
Y424194D01*
X819976D01*
Y426226D01*
Y428258D01*
X817944D01*
Y430290D01*
Y432322D01*
Y434354D01*
X811848D01*
Y432322D01*
X809816D01*
Y430290D01*
Y428258D01*
Y426226D01*
X799656D01*
Y424194D01*
Y422162D01*
X803720D01*
Y420130D01*
Y418098D01*
X805752D01*
Y416066D01*
X807784D01*
Y414034D01*
Y412002D01*
X809816D01*
Y409970D01*
X807784D01*
Y407938D01*
Y405906D01*
X805752D01*
Y403874D01*
X803720D01*
Y405906D01*
X801688D01*
Y407938D01*
X799656D01*
Y409970D01*
Y412002D01*
Y414034D01*
X797624D01*
Y416066D01*
Y418098D01*
Y420130D01*
Y422162D01*
Y424194D01*
Y426226D01*
Y428258D01*
Y430290D01*
Y432322D01*
Y434354D01*
Y436386D01*
Y438418D01*
X803720D01*
Y440450D01*
X805752D01*
Y442482D01*
Y444514D01*
X803720D01*
Y446546D01*
X799656D01*
Y448578D01*
X793560D01*
Y450610D01*
X791528D01*
Y452642D01*
X789496D01*
Y454674D01*
Y456706D01*
X787464D01*
Y458738D01*
X785432D01*
Y460770D01*
X783400D01*
Y462802D01*
X781368D01*
Y464834D01*
X779336D01*
Y466866D01*
X777304D01*
Y468898D01*
X775272D01*
Y470930D01*
X771208D01*
Y472962D01*
X769176D01*
Y474994D01*
X763080D01*
Y477026D01*
Y479058D01*
Y481090D01*
X759016D01*
Y483122D01*
X756984D01*
Y485154D01*
X754952D01*
Y487186D01*
X748856D01*
Y485154D01*
X744792D01*
Y483122D01*
X740728D01*
Y481090D01*
X738696D01*
Y479058D01*
Y477026D01*
Y474994D01*
X742760D01*
Y472962D01*
X744792D01*
Y470930D01*
X746824D01*
Y468898D01*
X744792D01*
Y470930D01*
X732600D01*
Y468898D01*
X728536D01*
Y466866D01*
Y464834D01*
Y462802D01*
Y460770D01*
Y458738D01*
X730568D01*
Y456706D01*
Y454674D01*
Y452642D01*
Y450610D01*
Y448578D01*
X732600D01*
Y446546D01*
X734632D01*
Y444514D01*
Y442482D01*
X732600D01*
Y440450D01*
Y438418D01*
Y436386D01*
Y434354D01*
Y432322D01*
X734632D01*
Y430290D01*
Y428258D01*
Y426226D01*
X736664D01*
Y424194D01*
X740728D01*
Y422162D01*
Y420130D01*
Y418098D01*
Y416066D01*
Y414034D01*
Y412002D01*
Y409970D01*
X738696D01*
Y407938D01*
Y405906D01*
X740728D01*
Y403874D01*
Y401842D01*
Y399810D01*
Y397778D01*
Y395746D01*
Y393714D01*
Y391682D01*
Y389650D01*
X746824D01*
Y391682D01*
Y393714D01*
Y395746D01*
Y397778D01*
X748856D01*
Y399810D01*
Y401842D01*
Y403874D01*
Y405906D01*
Y407938D01*
Y409970D01*
Y412002D01*
Y414034D01*
Y416066D01*
Y418098D01*
Y420130D01*
Y422162D01*
Y424194D01*
Y426226D01*
Y428258D01*
Y430290D01*
Y432322D01*
Y434354D01*
X746824D01*
Y436386D01*
Y438418D01*
Y440450D01*
Y442482D01*
Y444514D01*
X748856D01*
Y446546D01*
Y448578D01*
Y450610D01*
Y452642D01*
Y454674D01*
Y456706D01*
Y458738D01*
Y460770D01*
Y462802D01*
X750888D01*
Y460770D01*
Y458738D01*
Y456706D01*
Y454674D01*
Y452642D01*
Y450610D01*
Y448578D01*
Y446546D01*
Y444514D01*
X759016D01*
Y442482D01*
X761048D01*
Y440450D01*
X763080D01*
Y438418D01*
Y436386D01*
X761048D01*
Y434354D01*
Y432322D01*
Y430290D01*
X763080D01*
Y428258D01*
Y426226D01*
Y424194D01*
Y422162D01*
Y420130D01*
Y418098D01*
Y416066D01*
Y414034D01*
Y412002D01*
X765112D01*
Y409970D01*
Y407938D01*
Y405906D01*
Y403874D01*
X767144D01*
Y401842D01*
X769176D01*
Y399810D01*
X775272D01*
Y401842D01*
X787464D01*
Y399810D01*
X791528D01*
Y397778D01*
X793560D01*
Y395746D01*
Y393714D01*
X795592D01*
Y391682D01*
X797624D01*
Y389650D01*
X799656D01*
Y387618D01*
Y385586D01*
X791528D01*
Y383554D01*
Y381522D01*
Y379490D01*
Y377458D01*
Y375426D01*
Y373394D01*
Y371362D01*
Y369330D01*
Y367298D01*
X793560D01*
Y365266D01*
X797624D01*
Y367298D01*
X795592D01*
Y369330D01*
X797624D01*
Y371362D01*
Y373394D01*
X799656D01*
Y375426D01*
X803720D01*
Y373394D01*
X805752D01*
Y375426D01*
Y377458D01*
X807784D01*
Y375426D01*
Y373394D01*
X809816D01*
Y371362D01*
Y369330D01*
X813880D01*
Y367298D01*
Y365266D01*
X815912D01*
Y363234D01*
Y361202D01*
X817944D01*
Y359170D01*
X815912D01*
Y357138D01*
X817944D01*
Y355106D01*
X822008D01*
Y357138D01*
X826072D01*
Y355106D01*
X824040D01*
Y353074D01*
Y351042D01*
X826072D01*
Y349010D01*
X828104D01*
Y346978D01*
X832168D01*
Y344946D01*
X834200D01*
Y342914D01*
X836232D01*
Y340882D01*
Y338850D01*
Y336818D01*
Y334786D01*
X838264D01*
Y332754D01*
Y330722D01*
X840296D01*
Y328690D01*
Y326658D01*
X842328D01*
Y324626D01*
X844360D01*
Y322594D01*
X842328D01*
Y324626D01*
X840296D01*
Y326658D01*
X838264D01*
Y328690D01*
X832168D01*
Y330722D01*
X828104D01*
Y332754D01*
X822008D01*
Y334786D01*
X813880D01*
Y336818D01*
X805752D01*
Y338850D01*
Y340882D01*
X801688D01*
Y342914D01*
Y344946D01*
Y346978D01*
X799656D01*
Y349010D01*
X797624D01*
Y351042D01*
X799656D01*
Y353074D01*
X797624D01*
Y355106D01*
X793560D01*
Y353074D01*
Y351042D01*
Y349010D01*
Y346978D01*
Y344946D01*
Y342914D01*
Y340882D01*
Y338850D01*
Y336818D01*
X789496D01*
Y334786D01*
Y332754D01*
X791528D01*
Y330722D01*
Y328690D01*
X789496D01*
Y326658D01*
X785432D01*
Y324626D01*
X783400D01*
Y322594D01*
X781368D01*
Y320562D01*
X777304D01*
Y318530D01*
X773240D01*
Y316498D01*
X771208D01*
Y314466D01*
X769176D01*
Y312434D01*
X767144D01*
Y310402D01*
X765112D01*
Y308370D01*
X763080D01*
Y306338D01*
X761048D01*
Y304306D01*
X759016D01*
Y302274D01*
X756984D01*
Y300242D01*
X754952D01*
Y298210D01*
Y296178D01*
X752920D01*
Y294146D01*
X750888D01*
Y292114D01*
X748856D01*
Y290082D01*
X746824D01*
Y288050D01*
X744792D01*
Y286018D01*
Y283986D01*
X742760D01*
Y286018D01*
Y288050D01*
Y290082D01*
Y292114D01*
X738696D01*
Y294146D01*
X736664D01*
Y296178D01*
Y298210D01*
Y300242D01*
Y302274D01*
Y304306D01*
X734632D01*
Y306338D01*
X732600D01*
Y308370D01*
Y310402D01*
X730568D01*
Y312434D01*
Y314466D01*
Y316498D01*
X728536D01*
Y318530D01*
Y320562D01*
Y322594D01*
Y324626D01*
X726504D01*
Y326658D01*
X724472D01*
Y328690D01*
X726504D01*
Y330722D01*
X724472D01*
Y332754D01*
Y334786D01*
Y336818D01*
X722440D01*
Y338850D01*
Y340882D01*
Y342914D01*
X718376D01*
Y340882D01*
Y338850D01*
Y336818D01*
Y334786D01*
X720408D01*
Y332754D01*
Y330722D01*
Y328690D01*
X722440D01*
Y326658D01*
Y324626D01*
Y322594D01*
X724472D01*
Y320562D01*
Y318530D01*
Y316498D01*
Y314466D01*
X726504D01*
Y312434D01*
Y310402D01*
Y308370D01*
Y306338D01*
X728536D01*
Y304306D01*
Y302274D01*
Y300242D01*
X730568D01*
Y298210D01*
Y296178D01*
X732600D01*
Y294146D01*
X734632D01*
Y292114D01*
Y290082D01*
Y288050D01*
X736664D01*
Y286018D01*
X738696D01*
Y283986D01*
X742760D01*
Y281954D01*
X740728D01*
Y279922D01*
Y277890D01*
X738696D01*
Y275858D01*
Y273826D01*
X742760D01*
Y275858D01*
Y277890D01*
X744792D01*
Y279922D01*
X746824D01*
Y277890D01*
X748856D01*
Y279922D01*
X750888D01*
Y281954D01*
X761048D01*
Y283986D01*
X765112D01*
Y286018D01*
X777304D01*
Y283986D01*
X783400D01*
Y286018D01*
X785432D01*
Y283986D01*
Y281954D01*
X791528D01*
Y283986D01*
X793560D01*
Y281954D01*
Y279922D01*
Y277890D01*
X797624D01*
Y275858D01*
X799656D01*
Y273826D01*
X803720D01*
Y275858D01*
Y277890D01*
X801688D01*
Y279922D01*
X805752D01*
Y281954D01*
X809816D01*
Y279922D01*
X819976D01*
Y277890D01*
X822008D01*
Y275858D01*
Y273826D01*
Y271794D01*
Y269762D01*
Y267730D01*
Y265698D01*
X826072D01*
Y263666D01*
X824040D01*
Y261634D01*
Y259602D01*
X826072D01*
Y257570D01*
X824040D01*
Y255538D01*
X822008D01*
Y253506D01*
Y251474D01*
Y249442D01*
X819976D01*
Y247410D01*
Y245378D01*
Y243346D01*
Y241314D01*
Y239282D01*
Y237250D01*
Y235218D01*
Y233186D01*
Y231154D01*
Y229122D01*
Y227090D01*
X817944D01*
Y225058D01*
Y223026D01*
Y220994D01*
Y218962D01*
X822008D01*
Y220994D01*
X824040D01*
Y223026D01*
Y225058D01*
Y227090D01*
Y229122D01*
Y231154D01*
X826072D01*
Y233186D01*
Y235218D01*
Y237250D01*
Y239282D01*
Y241314D01*
X828104D01*
Y243346D01*
Y245378D01*
Y247410D01*
Y249442D01*
Y251474D01*
X826072D01*
Y253506D01*
X828104D01*
Y251474D01*
X832168D01*
Y249442D01*
X836232D01*
Y251474D01*
X838264D01*
Y249442D01*
Y247410D01*
Y245378D01*
Y243346D01*
X836232D01*
Y241314D01*
Y239282D01*
Y237250D01*
Y235218D01*
Y233186D01*
Y231154D01*
Y229122D01*
Y227090D01*
Y225058D01*
Y223026D01*
Y220994D01*
Y218962D01*
Y216930D01*
Y214898D01*
Y212866D01*
Y210834D01*
Y208802D01*
Y206770D01*
Y204738D01*
Y202706D01*
X838264D01*
Y200674D01*
Y198642D01*
Y196610D01*
Y194578D01*
Y192546D01*
Y190514D01*
Y188482D01*
X836232D01*
Y186450D01*
Y184418D01*
Y182386D01*
Y180354D01*
X834200D01*
Y182386D01*
X832168D01*
Y184418D01*
Y186450D01*
X830136D01*
Y188482D01*
Y190514D01*
X828104D01*
Y192546D01*
X826072D01*
Y194578D01*
Y196610D01*
Y198642D01*
X824040D01*
Y200674D01*
Y202706D01*
X822008D01*
Y204738D01*
X817944D01*
Y206770D01*
Y208802D01*
Y210834D01*
X815912D01*
Y212866D01*
X811848D01*
Y214898D01*
X809816D01*
Y216930D01*
Y218962D01*
X807784D01*
Y220994D01*
Y223026D01*
X805752D01*
Y225058D01*
X803720D01*
Y227090D01*
X801688D01*
Y229122D01*
Y231154D01*
X799656D01*
Y233186D01*
X797624D01*
Y235218D01*
Y237250D01*
Y239282D01*
Y241314D01*
X795592D01*
Y243346D01*
Y245378D01*
Y247410D01*
X793560D01*
Y249442D01*
Y251474D01*
Y253506D01*
Y255538D01*
X791528D01*
Y257570D01*
X793560D01*
Y259602D01*
Y261634D01*
X789496D01*
Y263666D01*
X791528D01*
Y265698D01*
Y267730D01*
X787464D01*
Y265698D01*
X785432D01*
Y263666D01*
Y261634D01*
Y259602D01*
Y257570D01*
Y255538D01*
Y253506D01*
X783400D01*
Y251474D01*
Y249442D01*
Y247410D01*
Y245378D01*
Y243346D01*
Y241314D01*
Y239282D01*
Y237250D01*
X789496D01*
Y235218D01*
X787464D01*
Y233186D01*
Y231154D01*
Y229122D01*
Y227090D01*
X789496D01*
Y225058D01*
X785432D01*
Y223026D01*
Y220994D01*
Y218962D01*
Y216930D01*
X779336D01*
Y214898D01*
Y212866D01*
Y210834D01*
X783400D01*
Y208802D01*
X785432D01*
Y206770D01*
X787464D01*
Y204738D01*
Y202706D01*
X789496D01*
Y200674D01*
X787464D01*
Y202706D01*
X785432D01*
Y204738D01*
X783400D01*
Y206770D01*
Y208802D01*
X779336D01*
Y210834D01*
X771208D01*
Y212866D01*
Y214898D01*
X767144D01*
Y212866D01*
Y210834D01*
Y208802D01*
Y206770D01*
X765112D01*
Y204738D01*
Y202706D01*
Y200674D01*
X767144D01*
Y202706D01*
X773240D01*
Y204738D01*
X775272D01*
Y206770D01*
X777304D01*
Y204738D01*
X779336D01*
Y202706D01*
X781368D01*
Y200674D01*
X779336D01*
Y202706D01*
X775272D01*
Y200674D01*
Y198642D01*
X779336D01*
Y196610D01*
X781368D01*
Y194578D01*
X779336D01*
Y192546D01*
Y190514D01*
X781368D01*
Y188482D01*
X779336D01*
Y186450D01*
Y184418D01*
X783400D01*
Y186450D01*
X785432D01*
Y184418D01*
Y182386D01*
X789496D01*
Y180354D01*
X791528D01*
Y178322D01*
X795592D01*
Y176290D01*
X797624D01*
Y174258D01*
X801688D01*
Y172226D01*
X803720D01*
Y170194D01*
X807784D01*
Y168162D01*
X811848D01*
Y166130D01*
X813880D01*
Y164098D01*
X815912D01*
Y162066D01*
X819976D01*
Y160034D01*
X822008D01*
Y158002D01*
Y155970D01*
X824040D01*
Y153938D01*
Y151906D01*
X826072D01*
Y149874D01*
Y147842D01*
X828104D01*
Y145810D01*
Y143778D01*
X830136D01*
Y141746D01*
X832168D01*
Y139714D01*
Y137682D01*
X834200D01*
Y135650D01*
Y133618D01*
X836232D01*
Y131586D01*
X838264D01*
Y129554D01*
Y127522D01*
X840296D01*
Y125490D01*
X842328D01*
Y123458D01*
X844360D01*
Y121426D01*
Y119394D01*
X846392D01*
Y117362D01*
X848424D01*
Y115330D01*
X850456D01*
Y113298D01*
X852488D01*
Y111266D01*
Y109234D01*
X854520D01*
Y107202D01*
X856552D01*
Y105170D01*
Y103138D01*
X858584D01*
Y101106D01*
X860616D01*
Y99074D01*
Y97042D01*
X862648D01*
Y95010D01*
X864680D01*
Y92978D01*
Y90946D01*
X866712D01*
Y88914D01*
X868744D01*
Y86882D01*
X870776D01*
Y84850D01*
X631000D01*
Y86882D01*
Y88914D01*
Y90946D01*
Y92978D01*
Y95010D01*
Y97042D01*
Y99074D01*
Y101106D01*
Y103138D01*
Y105170D01*
Y107202D01*
Y109234D01*
Y111266D01*
Y113298D01*
Y115330D01*
Y117362D01*
Y119394D01*
Y121426D01*
Y123458D01*
Y125490D01*
Y127522D01*
Y129554D01*
Y131586D01*
Y133618D01*
Y135650D01*
Y137682D01*
Y139714D01*
Y141746D01*
Y143778D01*
Y145810D01*
Y147842D01*
Y149874D01*
Y151906D01*
Y153938D01*
Y155970D01*
Y158002D01*
Y160034D01*
Y162066D01*
Y164098D01*
Y166130D01*
Y168162D01*
Y170194D01*
Y172226D01*
Y174258D01*
Y176290D01*
Y178322D01*
Y180354D01*
Y182386D01*
Y184418D01*
Y186450D01*
Y188482D01*
Y190514D01*
Y192546D01*
Y194578D01*
Y196610D01*
Y198642D01*
Y200674D01*
Y202706D01*
Y204738D01*
Y206770D01*
Y208802D01*
Y210834D01*
Y212866D01*
Y214898D01*
Y216930D01*
Y218962D01*
Y220994D01*
Y223026D01*
Y225058D01*
Y227090D01*
Y229122D01*
Y231154D01*
Y233186D01*
Y235218D01*
Y237250D01*
Y239282D01*
Y241314D01*
Y243346D01*
Y245378D01*
Y247410D01*
Y249442D01*
Y251474D01*
Y253506D01*
Y255538D01*
Y257570D01*
Y259602D01*
Y261634D01*
Y263666D01*
Y265698D01*
Y267730D01*
Y269762D01*
Y271794D01*
Y273826D01*
Y275858D01*
Y277890D01*
Y279922D01*
Y281954D01*
Y283986D01*
Y286018D01*
Y288050D01*
Y290082D01*
Y292114D01*
Y294146D01*
Y296178D01*
Y298210D01*
Y300242D01*
Y302274D01*
Y304306D01*
Y306338D01*
Y308370D01*
Y310402D01*
Y312434D01*
Y314466D01*
Y316498D01*
Y318530D01*
Y320562D01*
Y322594D01*
Y324626D01*
Y326658D01*
Y328690D01*
Y330722D01*
Y332754D01*
Y334786D01*
Y336818D01*
Y338850D01*
Y340882D01*
Y342914D01*
Y344946D01*
Y346978D01*
Y349010D01*
Y351042D01*
Y353074D01*
Y355106D01*
Y357138D01*
Y359170D01*
Y361202D01*
Y363234D01*
Y365266D01*
Y367298D01*
Y369330D01*
Y371362D01*
Y373394D01*
Y375426D01*
Y377458D01*
Y379490D01*
Y381522D01*
Y383554D01*
Y385586D01*
Y387618D01*
Y389650D01*
Y391682D01*
Y393714D01*
Y395746D01*
Y397778D01*
Y399810D01*
Y401842D01*
Y403874D01*
Y405906D01*
Y407938D01*
Y409970D01*
Y412002D01*
Y414034D01*
Y416066D01*
Y418098D01*
Y420130D01*
Y422162D01*
Y424194D01*
Y426226D01*
Y428258D01*
Y430290D01*
Y432322D01*
Y434354D01*
Y436386D01*
Y438418D01*
Y440450D01*
Y442482D01*
Y444514D01*
Y446546D01*
Y448578D01*
Y450610D01*
Y452642D01*
Y454674D01*
Y456706D01*
Y458738D01*
Y460770D01*
Y462802D01*
Y464834D01*
Y466866D01*
Y468898D01*
Y470930D01*
Y472962D01*
Y474994D01*
Y477026D01*
Y479058D01*
Y481090D01*
Y483122D01*
Y485154D01*
Y487186D01*
Y489218D01*
Y491250D01*
Y493282D01*
Y495314D01*
Y497346D01*
Y499378D01*
Y501410D01*
Y503442D01*
Y505474D01*
Y507506D01*
Y509538D01*
Y511570D01*
Y513602D01*
Y515634D01*
Y517666D01*
Y519698D01*
Y521730D01*
Y523762D01*
Y525794D01*
Y527826D01*
Y529858D01*
X998792D01*
Y527826D01*
D02*
G37*
G36*
X842328Y377458D02*
X844360D01*
Y375426D01*
X846392D01*
Y373394D01*
X848424D01*
Y371362D01*
Y369330D01*
Y367298D01*
X850456D01*
Y365266D01*
X852488D01*
Y363234D01*
Y361202D01*
X854520D01*
Y359170D01*
X856552D01*
Y357138D01*
X860616D01*
Y355106D01*
Y353074D01*
Y351042D01*
X856552D01*
Y349010D01*
X852488D01*
Y346978D01*
X850456D01*
Y344946D01*
X848424D01*
Y342914D01*
X846392D01*
Y340882D01*
X844360D01*
Y342914D01*
Y344946D01*
Y346978D01*
Y349010D01*
Y351042D01*
Y353074D01*
X842328D01*
Y355106D01*
X840296D01*
Y357138D01*
X842328D01*
Y359170D01*
X840296D01*
Y361202D01*
Y363234D01*
X838264D01*
Y365266D01*
Y367298D01*
Y369330D01*
X836232D01*
Y371362D01*
Y373394D01*
Y375426D01*
Y377458D01*
Y379490D01*
X842328D01*
Y377458D01*
D02*
G37*
G36*
X872808Y229122D02*
X874840D01*
Y227090D01*
Y225058D01*
X876872D01*
Y223026D01*
X878904D01*
Y220994D01*
Y218962D01*
X882968D01*
Y216930D01*
X891096D01*
Y214898D01*
X893128D01*
Y212866D01*
Y210834D01*
X895160D01*
Y208802D01*
X897192D01*
Y206770D01*
Y204738D01*
X899224D01*
Y202706D01*
Y200674D01*
Y198642D01*
X901256D01*
Y196610D01*
X903288D01*
Y194578D01*
X905320D01*
Y192546D01*
Y190514D01*
X909384D01*
Y188482D01*
Y186450D01*
X911416D01*
Y184418D01*
X913448D01*
Y182386D01*
X915480D01*
Y184418D01*
X917512D01*
Y186450D01*
X919544D01*
Y188482D01*
X921576D01*
Y190514D01*
X923608D01*
Y192546D01*
Y194578D01*
X925640D01*
Y196610D01*
Y198642D01*
X927672D01*
Y200674D01*
X929704D01*
Y202706D01*
Y204738D01*
Y206770D01*
X931736D01*
Y204738D01*
X933768D01*
Y202706D01*
Y200674D01*
X935800D01*
Y198642D01*
Y196610D01*
X937832D01*
Y194578D01*
X935800D01*
Y192546D01*
Y190514D01*
X937832D01*
Y188482D01*
Y186450D01*
X941896D01*
Y184418D01*
Y182386D01*
X943928D01*
Y180354D01*
X945960D01*
Y178322D01*
Y176290D01*
Y174258D01*
Y172226D01*
Y170194D01*
X947992D01*
Y168162D01*
Y166130D01*
Y164098D01*
X954088D01*
Y166130D01*
Y168162D01*
X956120D01*
Y170194D01*
Y172226D01*
Y174258D01*
X958152D01*
Y176290D01*
X960184D01*
Y178322D01*
Y180354D01*
X962216D01*
Y182386D01*
Y184418D01*
X964248D01*
Y186450D01*
Y188482D01*
Y190514D01*
X968312D01*
Y188482D01*
Y186450D01*
Y184418D01*
X970344D01*
Y182386D01*
Y180354D01*
X972376D01*
Y178322D01*
X976440D01*
Y180354D01*
X982536D01*
Y182386D01*
X986600D01*
Y184418D01*
X990664D01*
Y186450D01*
X994728D01*
Y184418D01*
Y182386D01*
Y180354D01*
X992696D01*
Y178322D01*
Y176290D01*
Y174258D01*
X990664D01*
Y172226D01*
Y170194D01*
X992696D01*
Y168162D01*
X990664D01*
Y166130D01*
Y164098D01*
Y162066D01*
Y160034D01*
X988632D01*
Y158002D01*
Y155970D01*
Y153938D01*
X986600D01*
Y151906D01*
Y149874D01*
X984568D01*
Y147842D01*
Y145810D01*
Y143778D01*
Y141746D01*
Y139714D01*
X988632D01*
Y137682D01*
Y135650D01*
X992696D01*
Y137682D01*
Y139714D01*
X994728D01*
Y141746D01*
Y143778D01*
X996760D01*
Y145810D01*
Y147842D01*
Y149874D01*
Y151906D01*
X998792D01*
Y149874D01*
Y147842D01*
Y145810D01*
Y143778D01*
Y141746D01*
Y139714D01*
Y137682D01*
Y135650D01*
Y133618D01*
Y131586D01*
Y129554D01*
Y127522D01*
Y125490D01*
Y123458D01*
Y121426D01*
Y119394D01*
Y117362D01*
Y115330D01*
Y113298D01*
Y111266D01*
Y109234D01*
Y107202D01*
Y105170D01*
Y103138D01*
Y101106D01*
Y99074D01*
Y97042D01*
Y95010D01*
Y92978D01*
Y90946D01*
Y88914D01*
Y86882D01*
Y84850D01*
X974408D01*
Y86882D01*
Y88914D01*
X968312D01*
Y90946D01*
X966280D01*
Y92978D01*
X964248D01*
Y95010D01*
X962216D01*
Y97042D01*
X960184D01*
Y99074D01*
X956120D01*
Y101106D01*
X952056D01*
Y103138D01*
X950024D01*
Y105170D01*
X945960D01*
Y107202D01*
X941896D01*
Y109234D01*
X939864D01*
Y111266D01*
X937832D01*
Y113298D01*
Y115330D01*
X935800D01*
Y117362D01*
X931736D01*
Y119394D01*
X927672D01*
Y121426D01*
X925640D01*
Y123458D01*
X921576D01*
Y125490D01*
Y127522D01*
X917512D01*
Y129554D01*
Y131586D01*
X915480D01*
Y133618D01*
X913448D01*
Y135650D01*
X911416D01*
Y137682D01*
Y139714D01*
X909384D01*
Y141746D01*
Y143778D01*
X907352D01*
Y145810D01*
Y147842D01*
X905320D01*
Y149874D01*
Y151906D01*
X903288D01*
Y153938D01*
Y155970D01*
X899224D01*
Y158002D01*
X897192D01*
Y160034D01*
Y162066D01*
X895160D01*
Y164098D01*
X893128D01*
Y166130D01*
X891096D01*
Y168162D01*
Y170194D01*
X885000D01*
Y172226D01*
Y174258D01*
X882968D01*
Y176290D01*
X880936D01*
Y178322D01*
X882968D01*
Y180354D01*
X878904D01*
Y178322D01*
Y176290D01*
Y174258D01*
Y172226D01*
Y170194D01*
Y168162D01*
X880936D01*
Y166130D01*
Y164098D01*
X882968D01*
Y162066D01*
Y160034D01*
X885000D01*
Y158002D01*
X887032D01*
Y155970D01*
Y153938D01*
X889064D01*
Y151906D01*
Y149874D01*
X891096D01*
Y147842D01*
Y145810D01*
X893128D01*
Y143778D01*
X895160D01*
Y141746D01*
X897192D01*
Y139714D01*
Y137682D01*
X899224D01*
Y135650D01*
Y133618D01*
X901256D01*
Y131586D01*
Y129554D01*
X903288D01*
Y127522D01*
Y125490D01*
X905320D01*
Y123458D01*
Y121426D01*
X907352D01*
Y119394D01*
Y117362D01*
X909384D01*
Y115330D01*
X903288D01*
Y117362D01*
X901256D01*
Y119394D01*
X897192D01*
Y121426D01*
X895160D01*
Y123458D01*
X891096D01*
Y125490D01*
X889064D01*
Y127522D01*
X887032D01*
Y129554D01*
X885000D01*
Y131586D01*
X880936D01*
Y133618D01*
X878904D01*
Y135650D01*
X876872D01*
Y137682D01*
Y139714D01*
X872808D01*
Y141746D01*
X870776D01*
Y143778D01*
X868744D01*
Y145810D01*
Y147842D01*
X866712D01*
Y149874D01*
X864680D01*
Y151906D01*
X862648D01*
Y153938D01*
Y155970D01*
Y158002D01*
X860616D01*
Y160034D01*
X858584D01*
Y162066D01*
Y164098D01*
X856552D01*
Y166130D01*
Y168162D01*
X854520D01*
Y170194D01*
Y172226D01*
X852488D01*
Y174258D01*
Y176290D01*
Y178322D01*
X850456D01*
Y180354D01*
Y182386D01*
Y184418D01*
X848424D01*
Y186450D01*
Y188482D01*
Y190514D01*
Y192546D01*
X846392D01*
Y194578D01*
X848424D01*
Y192546D01*
X852488D01*
Y194578D01*
Y196610D01*
Y198642D01*
Y200674D01*
Y202706D01*
Y204738D01*
Y206770D01*
Y208802D01*
X854520D01*
Y210834D01*
Y212866D01*
Y214898D01*
Y216930D01*
X856552D01*
Y218962D01*
Y220994D01*
X858584D01*
Y223026D01*
X860616D01*
Y225058D01*
X864680D01*
Y227090D01*
X868744D01*
Y229122D01*
X870776D01*
Y231154D01*
X872808D01*
Y229122D01*
D02*
G37*
G36*
X809816Y184418D02*
X811848D01*
Y182386D01*
X813880D01*
Y180354D01*
Y178322D01*
X815912D01*
Y176290D01*
X817944D01*
Y174258D01*
Y172226D01*
Y170194D01*
X813880D01*
Y172226D01*
X815912D01*
Y174258D01*
Y176290D01*
X813880D01*
Y178322D01*
X811848D01*
Y180354D01*
X809816D01*
Y182386D01*
Y184418D01*
X807784D01*
Y186450D01*
X809816D01*
Y184418D01*
D02*
G37*
G36*
X848424Y141746D02*
X850456D01*
Y139714D01*
X852488D01*
Y137682D01*
X856552D01*
Y135650D01*
X858584D01*
Y133618D01*
X862648D01*
Y131586D01*
X864680D01*
Y129554D01*
X868744D01*
Y127522D01*
X870776D01*
Y125490D01*
X874840D01*
Y123458D01*
X878904D01*
Y121426D01*
X880936D01*
Y119394D01*
X885000D01*
Y117362D01*
X889064D01*
Y115330D01*
X891096D01*
Y113298D01*
X895160D01*
Y111266D01*
X897192D01*
Y109234D01*
X901256D01*
Y107202D01*
X905320D01*
Y105170D01*
X909384D01*
Y103138D01*
X911416D01*
Y101106D01*
X915480D01*
Y99074D01*
X919544D01*
Y97042D01*
X923608D01*
Y95010D01*
X927672D01*
Y92978D01*
X931736D01*
Y90946D01*
X935800D01*
Y88914D01*
X941896D01*
Y86882D01*
X945960D01*
Y84850D01*
X891096D01*
Y86882D01*
Y88914D01*
X887032D01*
Y90946D01*
X885000D01*
Y92978D01*
Y95010D01*
X882968D01*
Y97042D01*
Y99074D01*
X878904D01*
Y101106D01*
Y103138D01*
X876872D01*
Y105170D01*
Y107202D01*
X872808D01*
Y109234D01*
Y111266D01*
X870776D01*
Y113298D01*
X868744D01*
Y115330D01*
Y117362D01*
X866712D01*
Y119394D01*
X864680D01*
Y121426D01*
X862648D01*
Y123458D01*
Y125490D01*
X860616D01*
Y127522D01*
X858584D01*
Y129554D01*
X856552D01*
Y131586D01*
X854520D01*
Y133618D01*
X852488D01*
Y135650D01*
Y137682D01*
X850456D01*
Y139714D01*
X848424D01*
Y141746D01*
X846392D01*
Y143778D01*
X848424D01*
Y141746D01*
D02*
G37*
G36*
X805752Y176290D02*
X807784D01*
Y174258D01*
X805752D01*
Y176290D01*
X803720D01*
Y178322D01*
X805752D01*
Y176290D01*
D02*
G37*
G36*
X795592Y196610D02*
X797624D01*
Y194578D01*
X799656D01*
Y192546D01*
X801688D01*
Y190514D01*
X797624D01*
Y192546D01*
Y194578D01*
X795592D01*
Y196610D01*
X793560D01*
Y198642D01*
X795592D01*
Y196610D01*
D02*
G37*
G36*
X793560Y186450D02*
X795592D01*
Y184418D01*
X791528D01*
Y186450D01*
X789496D01*
Y188482D01*
X793560D01*
Y186450D01*
D02*
G37*
G36*
X779336Y446546D02*
Y444514D01*
Y442482D01*
X781368D01*
Y440450D01*
X779336D01*
Y438418D01*
X777304D01*
Y436386D01*
Y434354D01*
Y432322D01*
X781368D01*
Y430290D01*
Y428258D01*
Y426226D01*
Y424194D01*
X783400D01*
Y422162D01*
Y420130D01*
Y418098D01*
X781368D01*
Y416066D01*
X779336D01*
Y414034D01*
Y412002D01*
X773240D01*
Y414034D01*
Y416066D01*
Y418098D01*
Y420130D01*
Y422162D01*
Y424194D01*
Y426226D01*
Y428258D01*
X775272D01*
Y430290D01*
Y432322D01*
Y434354D01*
Y436386D01*
Y438418D01*
Y440450D01*
Y442482D01*
X773240D01*
Y444514D01*
Y446546D01*
X771208D01*
Y448578D01*
X779336D01*
Y446546D01*
D02*
G37*
G36*
X809816Y397778D02*
X811848D01*
Y395746D01*
Y393714D01*
X817944D01*
Y391682D01*
X824040D01*
Y389650D01*
Y387618D01*
Y385586D01*
X826072D01*
Y383554D01*
X828104D01*
Y381522D01*
Y379490D01*
Y377458D01*
Y375426D01*
Y373394D01*
Y371362D01*
X826072D01*
Y369330D01*
Y367298D01*
Y365266D01*
Y363234D01*
X822008D01*
Y365266D01*
Y367298D01*
Y369330D01*
Y371362D01*
X819976D01*
Y373394D01*
X817944D01*
Y375426D01*
X815912D01*
Y377458D01*
Y379490D01*
X811848D01*
Y381522D01*
X809816D01*
Y383554D01*
Y385586D01*
X805752D01*
Y387618D01*
Y389650D01*
Y391682D01*
Y393714D01*
X807784D01*
Y395746D01*
Y397778D01*
Y399810D01*
X809816D01*
Y397778D01*
D02*
G37*
G36*
X769176Y460770D02*
Y458738D01*
Y456706D01*
Y454674D01*
X767144D01*
Y456706D01*
Y458738D01*
Y460770D01*
Y462802D01*
X769176D01*
Y460770D01*
D02*
G37*
%LPC*%
G36*
X659448Y434354D02*
X653352D01*
Y432322D01*
X651320D01*
Y430290D01*
Y428258D01*
X653352D01*
Y426226D01*
Y424194D01*
X657416D01*
Y422162D01*
Y420130D01*
X661480D01*
Y418098D01*
X663512D01*
Y416066D01*
X665544D01*
Y414034D01*
X667576D01*
Y412002D01*
X669608D01*
Y409970D01*
X671640D01*
Y407938D01*
X677736D01*
Y405906D01*
Y403874D01*
X679768D01*
Y401842D01*
X681800D01*
Y399810D01*
X685864D01*
Y397778D01*
X687896D01*
Y395746D01*
X689928D01*
Y393714D01*
X691960D01*
Y391682D01*
Y389650D01*
X696024D01*
Y391682D01*
X698056D01*
Y389650D01*
X702120D01*
Y391682D01*
X706184D01*
Y389650D01*
X712280D01*
Y391682D01*
Y393714D01*
Y395746D01*
Y397778D01*
X710248D01*
Y399810D01*
X708216D01*
Y401842D01*
X704152D01*
Y403874D01*
X702120D01*
Y405906D01*
X700088D01*
Y407938D01*
X698056D01*
Y409970D01*
X693992D01*
Y412002D01*
X689928D01*
Y414034D01*
X687896D01*
Y416066D01*
X683832D01*
Y418098D01*
X681800D01*
Y420130D01*
X677736D01*
Y422162D01*
X675704D01*
Y424194D01*
X673672D01*
Y426226D01*
X669608D01*
Y428258D01*
X667576D01*
Y430290D01*
X663512D01*
Y432322D01*
X659448D01*
Y434354D01*
D02*
G37*
G36*
X781368Y237250D02*
X775272D01*
Y235218D01*
Y233186D01*
X777304D01*
Y231154D01*
X775272D01*
Y229122D01*
Y227090D01*
X773240D01*
Y225058D01*
X769176D01*
Y223026D01*
Y220994D01*
X771208D01*
Y218962D01*
X773240D01*
Y216930D01*
X777304D01*
Y218962D01*
Y220994D01*
X775272D01*
Y223026D01*
X777304D01*
Y225058D01*
Y227090D01*
X779336D01*
Y229122D01*
X781368D01*
Y231154D01*
Y233186D01*
Y235218D01*
Y237250D01*
D02*
G37*
G36*
X687896Y468898D02*
X669608D01*
Y466866D01*
X667576D01*
Y464834D01*
X653352D01*
Y462802D01*
X649288D01*
Y460770D01*
Y458738D01*
X645224D01*
Y456706D01*
X643192D01*
Y454674D01*
Y452642D01*
X647256D01*
Y454674D01*
X649288D01*
Y456706D01*
X655384D01*
Y454674D01*
X657416D01*
Y452642D01*
X659448D01*
Y450610D01*
X661480D01*
Y448578D01*
X663512D01*
Y446546D01*
X665544D01*
Y444514D01*
X667576D01*
Y442482D01*
X669608D01*
Y440450D01*
X671640D01*
Y438418D01*
X675704D01*
Y436386D01*
X681800D01*
Y434354D01*
Y432322D01*
X683832D01*
Y430290D01*
X687896D01*
Y428258D01*
X691960D01*
Y426226D01*
X693992D01*
Y424194D01*
X696024D01*
Y422162D01*
X698056D01*
Y420130D01*
X700088D01*
Y418098D01*
X702120D01*
Y420130D01*
X704152D01*
Y418098D01*
X706184D01*
Y416066D01*
X708216D01*
Y418098D01*
X710248D01*
Y416066D01*
X712280D01*
Y414034D01*
X720408D01*
Y416066D01*
X722440D01*
Y418098D01*
X724472D01*
Y420130D01*
Y422162D01*
Y424194D01*
Y426226D01*
X722440D01*
Y428258D01*
X720408D01*
Y430290D01*
X718376D01*
Y432322D01*
X714312D01*
Y434354D01*
X710248D01*
Y436386D01*
X708216D01*
Y438418D01*
X704152D01*
Y440450D01*
X702120D01*
Y442482D01*
X698056D01*
Y444514D01*
X700088D01*
Y446546D01*
X702120D01*
Y444514D01*
Y442482D01*
X706184D01*
Y440450D01*
X716344D01*
Y438418D01*
X720408D01*
Y440450D01*
Y442482D01*
X722440D01*
Y444514D01*
Y446546D01*
Y448578D01*
Y450610D01*
Y452642D01*
X718376D01*
Y454674D01*
X714312D01*
Y456706D01*
X710248D01*
Y458738D01*
X706184D01*
Y460770D01*
X702120D01*
Y462802D01*
X700088D01*
Y464834D01*
X693992D01*
Y466866D01*
X687896D01*
Y468898D01*
D02*
G37*
G36*
X649288Y450610D02*
X645224D01*
Y448578D01*
Y446546D01*
X649288D01*
Y448578D01*
Y450610D01*
D02*
G37*
G36*
X759016Y403874D02*
X756984D01*
Y401842D01*
X754952D01*
Y403874D01*
X752920D01*
Y401842D01*
Y399810D01*
X754952D01*
Y397778D01*
Y395746D01*
Y393714D01*
X761048D01*
Y395746D01*
Y397778D01*
Y399810D01*
Y401842D01*
X759016D01*
Y403874D01*
D02*
G37*
G36*
X811848Y357138D02*
X807784D01*
Y355106D01*
Y353074D01*
X811848D01*
Y355106D01*
Y357138D01*
D02*
G37*
G36*
X805752Y349010D02*
X803720D01*
Y346978D01*
Y344946D01*
X805752D01*
Y342914D01*
Y340882D01*
X807784D01*
Y342914D01*
X809816D01*
Y344946D01*
Y346978D01*
X805752D01*
Y349010D01*
D02*
G37*
G36*
X679768Y379490D02*
X663512D01*
Y377458D01*
X661480D01*
Y375426D01*
Y373394D01*
X659448D01*
Y371362D01*
Y369330D01*
X661480D01*
Y367298D01*
X665544D01*
Y369330D01*
Y371362D01*
Y373394D01*
X669608D01*
Y371362D01*
X671640D01*
Y369330D01*
X675704D01*
Y367298D01*
X677736D01*
Y365266D01*
Y363234D01*
X679768D01*
Y361202D01*
Y359170D01*
X683832D01*
Y357138D01*
X685864D01*
Y355106D01*
X687896D01*
Y353074D01*
X698056D01*
Y351042D01*
X702120D01*
Y353074D01*
X706184D01*
Y355106D01*
Y357138D01*
Y359170D01*
Y361202D01*
X702120D01*
Y363234D01*
X700088D01*
Y365266D01*
X696024D01*
Y367298D01*
X693992D01*
Y369330D01*
X689928D01*
Y371362D01*
X687896D01*
Y373394D01*
X685864D01*
Y375426D01*
X683832D01*
Y377458D01*
X679768D01*
Y379490D01*
D02*
G37*
G36*
X824040Y351042D02*
X819976D01*
Y349010D01*
Y346978D01*
X824040D01*
Y349010D01*
Y351042D01*
D02*
G37*
G36*
X765112Y235218D02*
X763080D01*
Y233186D01*
X761048D01*
Y231154D01*
Y229122D01*
X765112D01*
Y231154D01*
Y233186D01*
Y235218D01*
D02*
G37*
G36*
X732600Y257570D02*
X728536D01*
Y255538D01*
X726504D01*
Y253506D01*
Y251474D01*
X724472D01*
Y249442D01*
Y247410D01*
Y245378D01*
Y243346D01*
X722440D01*
Y241314D01*
Y239282D01*
X720408D01*
Y237250D01*
Y235218D01*
Y233186D01*
X718376D01*
Y231154D01*
X716344D01*
Y229122D01*
Y227090D01*
Y225058D01*
Y223026D01*
X714312D01*
Y220994D01*
Y218962D01*
X718376D01*
Y220994D01*
X720408D01*
Y223026D01*
Y225058D01*
Y227090D01*
Y229122D01*
X722440D01*
Y231154D01*
Y233186D01*
X724472D01*
Y235218D01*
Y237250D01*
X726504D01*
Y239282D01*
Y241314D01*
X728536D01*
Y243346D01*
Y245378D01*
X726504D01*
Y247410D01*
X730568D01*
Y249442D01*
Y251474D01*
Y253506D01*
X732600D01*
Y255538D01*
Y257570D01*
D02*
G37*
G36*
X710248Y369330D02*
X706184D01*
Y367298D01*
X700088D01*
Y365266D01*
X702120D01*
Y363234D01*
X708216D01*
Y365266D01*
X710248D01*
Y367298D01*
Y369330D01*
D02*
G37*
G36*
X740728Y271794D02*
X734632D01*
Y269762D01*
X736664D01*
Y267730D01*
X738696D01*
Y269762D01*
X740728D01*
Y271794D01*
D02*
G37*
%LPD*%
G36*
X671640Y460770D02*
X675704D01*
Y458738D01*
X677736D01*
Y456706D01*
X679768D01*
Y454674D01*
X681800D01*
Y452642D01*
X683832D01*
Y450610D01*
X681800D01*
Y452642D01*
X679768D01*
Y454674D01*
X677736D01*
Y456706D01*
X675704D01*
Y458738D01*
X671640D01*
Y460770D01*
X667576D01*
Y462802D01*
X671640D01*
Y460770D01*
D02*
G37*
D30*
X40450Y305950D02*
X48450D01*
X40450Y290950D02*
X48450D01*
X255150Y535750D02*
Y543750D01*
X240150Y535750D02*
Y543750D01*
X280550Y535750D02*
Y543750D01*
X265550Y535750D02*
Y543750D01*
X229750Y535750D02*
Y543750D01*
X214750Y535750D02*
Y543750D01*
X534950Y471050D02*
X542950D01*
X534950Y456050D02*
X542950D01*
X479400Y471050D02*
X487400D01*
X479400Y456050D02*
X487400D01*
X433350Y540900D02*
X441350D01*
X433350Y525900D02*
X441350D01*
X173800Y629800D02*
X181800D01*
X173800Y614800D02*
X181800D01*
X147200Y516700D02*
Y524700D01*
X132200Y516700D02*
Y524700D01*
X135700Y407550D02*
X143700D01*
X135700Y392550D02*
X143700D01*
X350400Y516700D02*
Y524700D01*
X335400Y516700D02*
Y524700D01*
X356750Y580200D02*
Y588200D01*
X341750Y580200D02*
Y588200D01*
X248800Y650050D02*
Y658050D01*
X233800Y650050D02*
Y658050D01*
X274200Y650050D02*
Y658050D01*
X259200Y650050D02*
Y658050D01*
X115850Y464700D02*
X123850D01*
X115850Y449700D02*
X123850D01*
X319850Y464700D02*
X327850D01*
X319850Y449700D02*
X327850D01*
X579000Y509550D02*
Y517550D01*
X564000Y509550D02*
Y517550D01*
X433350Y515500D02*
X441350D01*
X433350Y500500D02*
X441350D01*
X804500Y602850D02*
Y610850D01*
X789500Y602850D02*
Y610850D01*
X560150Y596850D02*
Y604850D01*
X545150Y596850D02*
Y604850D01*
X829500Y602850D02*
Y610850D01*
X814500Y602850D02*
Y610850D01*
X520150Y596850D02*
Y604850D01*
X535150Y596850D02*
Y604850D01*
X389700Y128150D02*
X397700D01*
X389700Y113150D02*
X397700D01*
X319850Y64650D02*
X327850D01*
X319850Y49650D02*
X327850D01*
X854500Y602850D02*
Y610850D01*
X839500Y602850D02*
Y610850D01*
X510150Y596850D02*
Y604850D01*
X495150Y596850D02*
Y604850D01*
X879500Y602850D02*
Y610850D01*
X864500Y602850D02*
Y610850D01*
X485150Y596850D02*
Y604850D01*
X470150Y596850D02*
Y604850D01*
X904500Y602850D02*
Y610850D01*
X889500Y602850D02*
Y610850D01*
X584150Y597350D02*
Y605350D01*
X569150Y597350D02*
Y605350D01*
X147200Y605600D02*
Y613600D01*
X132200Y605600D02*
Y613600D01*
X147200Y561150D02*
Y569150D01*
X132200Y561150D02*
Y569150D01*
X878000Y-150D02*
X1000000Y121850D01*
X692000Y-150D02*
X878000D01*
X617000Y74850D02*
X692000Y-150D01*
X393000Y74850D02*
X617000D01*
X377000Y58850D02*
X393000Y74850D01*
X318150Y0D02*
X377000Y58850D01*
X172850Y0D02*
X318150D01*
X0Y172850D02*
X172850Y0D01*
X0Y172850D02*
Y815850D01*
X1000000D01*
Y121850D02*
Y815850D01*
D44*
X251000Y500991D02*
Y499468D01*
X247953Y496421D01*
X244906Y499468D01*
Y500991D01*
X247953Y496421D02*
Y491850D01*
X241859D02*
X238812D01*
X240335D01*
Y500991D01*
X241859Y499468D01*
X188906Y647467D02*
X190429Y648991D01*
X193477D01*
X195000Y647467D01*
Y641374D01*
X193477Y639850D01*
X190429D01*
X188906Y641374D01*
X185859Y639850D02*
X182812D01*
X184335D01*
Y648991D01*
X185859Y647467D01*
X123906Y479468D02*
X125429Y480991D01*
X128476D01*
X130000Y479468D01*
Y473373D01*
X128476Y471850D01*
X125429D01*
X123906Y473373D01*
X114765Y471850D02*
X120859D01*
X114765Y477944D01*
Y479468D01*
X116288Y480991D01*
X119335D01*
X120859Y479468D01*
X324906D02*
X326429Y480991D01*
X329477D01*
X331000Y479468D01*
Y473373D01*
X329477Y471850D01*
X326429D01*
X324906Y473373D01*
X317288Y471850D02*
Y480991D01*
X321859Y476421D01*
X315765D01*
X602906Y516468D02*
X604430Y517991D01*
X607477D01*
X609000Y516468D01*
Y510373D01*
X607477Y508850D01*
X604430D01*
X602906Y510373D01*
X599859Y508850D02*
X596812D01*
X598335D01*
Y517991D01*
X599859Y516468D01*
X586147Y517991D02*
X592241D01*
Y513420D01*
X589194Y514944D01*
X587671D01*
X586147Y513420D01*
Y510373D01*
X587671Y508850D01*
X590718D01*
X592241Y510373D01*
X583906Y468467D02*
X585429Y469991D01*
X588476D01*
X590000Y468467D01*
Y462374D01*
X588476Y460850D01*
X585429D01*
X583906Y462374D01*
X580859Y460850D02*
X577812D01*
X579335D01*
Y469991D01*
X580859Y468467D01*
X567147Y469991D02*
X570194Y468467D01*
X573241Y465420D01*
Y462374D01*
X571718Y460850D01*
X568671D01*
X567147Y462374D01*
Y463897D01*
X568671Y465420D01*
X573241D01*
X448906Y465467D02*
X450429Y466991D01*
X453476D01*
X455000Y465467D01*
Y459374D01*
X453476Y457850D01*
X450429D01*
X448906Y459374D01*
X445859Y457850D02*
X442812D01*
X444335D01*
Y466991D01*
X445859Y465467D01*
X438241Y466991D02*
X432147D01*
Y465467D01*
X438241Y459374D01*
Y457850D01*
X442906Y491468D02*
X444430Y492991D01*
X447477D01*
X449000Y491468D01*
Y485373D01*
X447477Y483850D01*
X444430D01*
X442906Y485373D01*
X439859Y483850D02*
X436812D01*
X438335D01*
Y492991D01*
X439859Y491468D01*
X432241D02*
X430718Y492991D01*
X427671D01*
X426147Y491468D01*
Y489944D01*
X427671Y488420D01*
X426147Y486897D01*
Y485373D01*
X427671Y483850D01*
X430718D01*
X432241Y485373D01*
Y486897D01*
X430718Y488420D01*
X432241Y489944D01*
Y491468D01*
X430718Y488420D02*
X427671D01*
X443906Y561468D02*
X445429Y562991D01*
X448476D01*
X450000Y561468D01*
Y555373D01*
X448476Y553850D01*
X445429D01*
X443906Y555373D01*
X440859Y553850D02*
X437812D01*
X439335D01*
Y562991D01*
X440859Y561468D01*
X433241Y555373D02*
X431718Y553850D01*
X428671D01*
X427147Y555373D01*
Y561468D01*
X428671Y562991D01*
X431718D01*
X433241Y561468D01*
Y559944D01*
X431718Y558420D01*
X427147D01*
X801000Y649850D02*
X791859D01*
Y645279D01*
X793382Y643756D01*
X796430D01*
X797953Y645279D01*
Y649850D01*
Y646803D02*
X801000Y643756D01*
X799476Y640709D02*
X801000Y639185D01*
Y636138D01*
X799476Y634615D01*
X793382D01*
X791859Y636138D01*
Y639185D01*
X793382Y640709D01*
X794906D01*
X796430Y639185D01*
Y634615D01*
X549000Y629850D02*
X558141D01*
Y634421D01*
X556618Y635944D01*
X553571D01*
X552047Y634421D01*
Y629850D01*
Y632897D02*
X549000Y635944D01*
Y638991D02*
Y642038D01*
Y640515D01*
X558141D01*
X556618Y638991D01*
Y646609D02*
X558141Y648132D01*
Y651179D01*
X556618Y652703D01*
X550523D01*
X549000Y651179D01*
Y648132D01*
X550523Y646609D01*
X556618D01*
X826000Y654850D02*
X816859D01*
Y650279D01*
X818382Y648756D01*
X821430D01*
X822953Y650279D01*
Y654850D01*
Y651803D02*
X826000Y648756D01*
Y645709D02*
Y642662D01*
Y644185D01*
X816859D01*
X818382Y645709D01*
X826000Y638091D02*
Y635044D01*
Y636568D01*
X816859D01*
X818382Y638091D01*
X524000Y628850D02*
X533141D01*
Y633420D01*
X531618Y634944D01*
X528571D01*
X527047Y633420D01*
Y628850D01*
Y631897D02*
X524000Y634944D01*
Y637991D02*
Y641038D01*
Y639515D01*
X533141D01*
X531618Y637991D01*
X524000Y651703D02*
Y645609D01*
X530094Y651703D01*
X531618D01*
X533141Y650179D01*
Y647132D01*
X531618Y645609D01*
X112000Y395850D02*
Y404991D01*
X107430D01*
X105906Y403467D01*
Y400420D01*
X107430Y398897D01*
X112000D01*
X108953D02*
X105906Y395850D01*
X102859D02*
X99812D01*
X101335D01*
Y404991D01*
X102859Y403467D01*
X95241D02*
X93718Y404991D01*
X90671D01*
X89147Y403467D01*
Y401944D01*
X90671Y400420D01*
X92194D01*
X90671D01*
X89147Y398897D01*
Y397374D01*
X90671Y395850D01*
X93718D01*
X95241Y397374D01*
X412242Y137668D02*
Y146809D01*
X407672D01*
X406148Y145286D01*
Y142239D01*
X407672Y140715D01*
X412242D01*
X409195D02*
X406148Y137668D01*
X403101D02*
X400054D01*
X401577D01*
Y146809D01*
X403101Y145286D01*
X390913Y137668D02*
Y146809D01*
X395483Y142239D01*
X389389D01*
X342392Y74168D02*
Y83309D01*
X337822D01*
X336298Y81785D01*
Y78738D01*
X337822Y77215D01*
X342392D01*
X339345D02*
X336298Y74168D01*
X333251D02*
X330204D01*
X331727D01*
Y83309D01*
X333251Y81785D01*
X319539Y83309D02*
X325633D01*
Y78738D01*
X322586Y80262D01*
X321063D01*
X319539Y78738D01*
Y75691D01*
X321063Y74168D01*
X324110D01*
X325633Y75691D01*
X47000Y315850D02*
Y324991D01*
X42429D01*
X40906Y323467D01*
Y320420D01*
X42429Y318897D01*
X47000D01*
X43953D02*
X40906Y315850D01*
X37859D02*
X34812D01*
X36335D01*
Y324991D01*
X37859Y323467D01*
X24147Y324991D02*
X27194Y323467D01*
X30241Y320420D01*
Y317374D01*
X28718Y315850D01*
X25671D01*
X24147Y317374D01*
Y318897D01*
X25671Y320420D01*
X30241D01*
X851000Y656850D02*
X841859D01*
Y652280D01*
X843382Y650756D01*
X846430D01*
X847953Y652280D01*
Y656850D01*
Y653803D02*
X851000Y650756D01*
Y647709D02*
Y644662D01*
Y646185D01*
X841859D01*
X843382Y647709D01*
X849476Y640091D02*
X851000Y638568D01*
Y635521D01*
X849476Y633997D01*
X843382D01*
X841859Y635521D01*
Y638568D01*
X843382Y640091D01*
X844906D01*
X846430Y638568D01*
Y633997D01*
X499000Y626850D02*
X508141D01*
Y631421D01*
X506618Y632944D01*
X503571D01*
X502047Y631421D01*
Y626850D01*
Y629897D02*
X499000Y632944D01*
Y642085D02*
Y635991D01*
X505094Y642085D01*
X506618D01*
X508141Y640562D01*
Y637515D01*
X506618Y635991D01*
Y645132D02*
X508141Y646656D01*
Y649703D01*
X506618Y651226D01*
X500523D01*
X499000Y649703D01*
Y646656D01*
X500523Y645132D01*
X506618D01*
X876000Y656850D02*
X866859D01*
Y652280D01*
X868382Y650756D01*
X871430D01*
X872953Y652280D01*
Y656850D01*
Y653803D02*
X876000Y650756D01*
Y641615D02*
Y647709D01*
X869906Y641615D01*
X868382D01*
X866859Y643138D01*
Y646185D01*
X868382Y647709D01*
X876000Y632474D02*
Y638568D01*
X869906Y632474D01*
X868382D01*
X866859Y633997D01*
Y637044D01*
X868382Y638568D01*
X474000Y626850D02*
X483141D01*
Y631421D01*
X481618Y632944D01*
X478571D01*
X477047Y631421D01*
Y626850D01*
Y629897D02*
X474000Y632944D01*
Y642085D02*
Y635991D01*
X480094Y642085D01*
X481618D01*
X483141Y640562D01*
Y637515D01*
X481618Y635991D01*
Y645132D02*
X483141Y646656D01*
Y649703D01*
X481618Y651226D01*
X480094D01*
X478571Y649703D01*
Y648179D01*
Y649703D01*
X477047Y651226D01*
X475523D01*
X474000Y649703D01*
Y646656D01*
X475523Y645132D01*
X902000Y656850D02*
X892859D01*
Y652280D01*
X894382Y650756D01*
X897430D01*
X898953Y652280D01*
Y656850D01*
Y653803D02*
X902000Y650756D01*
Y641615D02*
Y647709D01*
X895906Y641615D01*
X894382D01*
X892859Y643138D01*
Y646185D01*
X894382Y647709D01*
X902000Y633997D02*
X892859D01*
X897430Y638568D01*
Y632474D01*
X571000Y629850D02*
X580141D01*
Y634421D01*
X578618Y635944D01*
X575570D01*
X574047Y634421D01*
Y629850D01*
Y632897D02*
X571000Y635944D01*
Y645085D02*
Y638991D01*
X577094Y645085D01*
X578618D01*
X580141Y643562D01*
Y640515D01*
X578618Y638991D01*
X580141Y654226D02*
Y648132D01*
X575570D01*
X577094Y651179D01*
Y652703D01*
X575570Y654226D01*
X572523D01*
X571000Y652703D01*
Y649656D01*
X572523Y648132D01*
X115906Y612467D02*
X117430Y613991D01*
X120477D01*
X122000Y612467D01*
Y606373D01*
X120477Y604850D01*
X117430D01*
X115906Y606373D01*
X106765Y604850D02*
X112859D01*
X106765Y610944D01*
Y612467D01*
X108288Y613991D01*
X111335D01*
X112859Y612467D01*
X103718D02*
X102194Y613991D01*
X99147D01*
X97624Y612467D01*
Y606373D01*
X99147Y604850D01*
X102194D01*
X103718Y606373D01*
Y612467D01*
X115906Y568467D02*
X117430Y569991D01*
X120477D01*
X122000Y568467D01*
Y562374D01*
X120477Y560850D01*
X117430D01*
X115906Y562374D01*
X106765Y560850D02*
X112859D01*
X106765Y566944D01*
Y568467D01*
X108288Y569991D01*
X111335D01*
X112859Y568467D01*
X103718Y560850D02*
X100671D01*
X102194D01*
Y569991D01*
X103718Y568467D01*
X240906Y689467D02*
X242430Y690991D01*
X245476D01*
X247000Y689467D01*
Y683373D01*
X245476Y681850D01*
X242430D01*
X240906Y683373D01*
X231765Y681850D02*
X237859D01*
X231765Y687944D01*
Y689467D01*
X233288Y690991D01*
X236335D01*
X237859Y689467D01*
X222624Y681850D02*
X228718D01*
X222624Y687944D01*
Y689467D01*
X224147Y690991D01*
X227194D01*
X228718Y689467D01*
X383906Y586468D02*
X385429Y587991D01*
X388476D01*
X390000Y586468D01*
Y580373D01*
X388476Y578850D01*
X385429D01*
X383906Y580373D01*
X374765Y578850D02*
X380859D01*
X374765Y584944D01*
Y586468D01*
X376288Y587991D01*
X379335D01*
X380859Y586468D01*
X371718D02*
X370194Y587991D01*
X367147D01*
X365624Y586468D01*
Y584944D01*
X367147Y583420D01*
X368671D01*
X367147D01*
X365624Y581897D01*
Y580373D01*
X367147Y578850D01*
X370194D01*
X371718Y580373D01*
X251906Y571468D02*
X253430Y572991D01*
X256476D01*
X258000Y571468D01*
Y565373D01*
X256476Y563850D01*
X253430D01*
X251906Y565373D01*
X242765Y563850D02*
X248859D01*
X242765Y569944D01*
Y571468D01*
X244288Y572991D01*
X247335D01*
X248859Y571468D01*
X235147Y563850D02*
Y572991D01*
X239718Y568420D01*
X233624D01*
X196906Y550467D02*
X198430Y551991D01*
X201476D01*
X203000Y550467D01*
Y544374D01*
X201476Y542850D01*
X198430D01*
X196906Y544374D01*
X187765Y542850D02*
X193859D01*
X187765Y548944D01*
Y550467D01*
X189288Y551991D01*
X192335D01*
X193859Y550467D01*
X178624Y551991D02*
X184718D01*
Y547421D01*
X181671Y548944D01*
X180147D01*
X178624Y547421D01*
Y544374D01*
X180147Y542850D01*
X183194D01*
X184718Y544374D01*
X376906Y524468D02*
X378429Y525991D01*
X381477D01*
X383000Y524468D01*
Y518373D01*
X381477Y516850D01*
X378429D01*
X376906Y518373D01*
X367765Y516850D02*
X373859D01*
X367765Y522944D01*
Y524468D01*
X369288Y525991D01*
X372335D01*
X373859Y524468D01*
X358624Y525991D02*
X361671Y524468D01*
X364718Y521421D01*
Y518373D01*
X363194Y516850D01*
X360147D01*
X358624Y518373D01*
Y519897D01*
X360147Y521421D01*
X364718D01*
X305906Y553467D02*
X307430Y554991D01*
X310476D01*
X312000Y553467D01*
Y547374D01*
X310476Y545850D01*
X307430D01*
X305906Y547374D01*
X296765Y545850D02*
X302859D01*
X296765Y551944D01*
Y553467D01*
X298288Y554991D01*
X301335D01*
X302859Y553467D01*
X293718Y554991D02*
X287624D01*
Y553467D01*
X293718Y547374D01*
Y545850D01*
X299906Y658467D02*
X301430Y659991D01*
X304477D01*
X306000Y658467D01*
Y652374D01*
X304477Y650850D01*
X301430D01*
X299906Y652374D01*
X290765Y650850D02*
X296859D01*
X290765Y656944D01*
Y658467D01*
X292288Y659991D01*
X295335D01*
X296859Y658467D01*
X287718D02*
X286194Y659991D01*
X283147D01*
X281624Y658467D01*
Y656944D01*
X283147Y655421D01*
X281624Y653897D01*
Y652374D01*
X283147Y650850D01*
X286194D01*
X287718Y652374D01*
Y653897D01*
X286194Y655421D01*
X287718Y656944D01*
Y658467D01*
X286194Y655421D02*
X283147D01*
X113906Y525467D02*
X115429Y526991D01*
X118476D01*
X120000Y525467D01*
Y519374D01*
X118476Y517850D01*
X115429D01*
X113906Y519374D01*
X104765Y517850D02*
X110859D01*
X104765Y523944D01*
Y525467D01*
X106288Y526991D01*
X109335D01*
X110859Y525467D01*
X101718Y519374D02*
X100194Y517850D01*
X97147D01*
X95624Y519374D01*
Y525467D01*
X97147Y526991D01*
X100194D01*
X101718Y525467D01*
Y523944D01*
X100194Y522421D01*
X95624D01*
D76*
X280670Y468630D02*
Y481330D01*
X219710Y469900D02*
X224790D01*
X228600Y449580D02*
Y464820D01*
X215900Y449580D02*
Y464820D01*
X228600Y457200D02*
X233680D01*
X210820D02*
X215900D01*
X280670Y433070D02*
Y445770D01*
X224790Y444500D02*
Y469900D01*
X219710Y444500D02*
Y469900D01*
Y444500D02*
X224790D01*
X163830Y481330D02*
X280670D01*
X163830Y468630D02*
Y481330D01*
Y433070D02*
X280670D01*
X163830D02*
Y445770D01*
M02*
