G04*
G04 #@! TF.GenerationSoftware,Altium Limited,Altium Designer,18.1.7 (191)*
G04*
G04 Layer_Color=8388736*
%FSLAX44Y44*%
%MOMM*%
G71*
G01*
G75*
%ADD18C,0.5000*%
%ADD38R,1.3032X1.9032*%
%ADD39R,1.9032X1.3032*%
%ADD40O,1.9532X0.7532*%
%ADD41O,0.7532X1.9532*%
%ADD42O,2.0032X0.5032*%
%ADD43O,0.5032X2.0032*%
%ADD44R,2.2032X1.2032*%
%ADD45O,2.2032X0.8032*%
%ADD46R,1.5017X1.4017*%
%ADD47R,1.7032X2.1032*%
%ADD48R,0.6032X1.5532*%
%ADD49R,1.4032X1.6032*%
%ADD50R,5.6032X5.6032*%
%ADD51R,0.4232X1.0132*%
%ADD52R,1.0132X0.4232*%
%ADD53R,1.7282X0.8532*%
%ADD54R,3.0032X1.6032*%
%ADD55R,1.6032X1.4032*%
%ADD56C,1.7272*%
%ADD57C,1.8032*%
%ADD58C,0.2032*%
%ADD59C,1.9812*%
%ADD60C,2.2032*%
%ADD61C,2.0032*%
%ADD62C,1.7032*%
%ADD63R,1.7032X1.7032*%
%ADD64C,1.6532*%
%ADD65O,2.2032X3.2032*%
%ADD66O,3.2032X2.2032*%
%ADD67R,1.7032X1.7032*%
%ADD68C,0.8032*%
%ADD69C,1.5032*%
G36*
X436873Y910470D02*
X437004Y910443D01*
X437130Y910401D01*
X437249Y910342D01*
X437360Y910268D01*
X437460Y910180D01*
X437548Y910080D01*
X437622Y909969D01*
X437681Y909850D01*
X437724Y909724D01*
X437749Y909593D01*
X437758Y909460D01*
Y890460D01*
X437749Y890327D01*
X437724Y890197D01*
X437681Y890070D01*
X437622Y889951D01*
X437548Y889840D01*
X437460Y889740D01*
X437360Y889652D01*
X437249Y889578D01*
X437130Y889519D01*
X437004Y889476D01*
X436873Y889451D01*
X436740Y889442D01*
X423740D01*
X423607Y889451D01*
X423476Y889476D01*
X423350Y889519D01*
X423231Y889578D01*
X423120Y889652D01*
X423020Y889740D01*
X422932Y889840D01*
X422858Y889951D01*
X422799Y890070D01*
X422757Y890197D01*
X422730Y890327D01*
X422722Y890460D01*
Y894442D01*
X418740D01*
X418607Y894450D01*
X418477Y894476D01*
X418350Y894519D01*
X418292Y894548D01*
X418231Y894578D01*
X418120Y894652D01*
X418020Y894740D01*
Y894740D01*
X418020D01*
X417932Y894840D01*
X417858Y894951D01*
X417829Y895011D01*
X417799Y895070D01*
X417757Y895196D01*
X417731Y895327D01*
X417722Y895460D01*
X417722Y904460D01*
D01*
Y904460D01*
X417730Y904593D01*
X417757Y904724D01*
X417799Y904850D01*
X417828Y904909D01*
X417858Y904969D01*
X417932Y905080D01*
X418020Y905180D01*
X418020D01*
Y905180D01*
X418120Y905268D01*
X418231Y905342D01*
X418291Y905372D01*
X418350Y905401D01*
X418476Y905443D01*
X418607Y905470D01*
X418740Y905478D01*
D01*
X418740D01*
X422722D01*
Y909460D01*
X422730Y909593D01*
X422757Y909724D01*
X422799Y909850D01*
X422858Y909969D01*
X422932Y910080D01*
X423020Y910180D01*
X423120Y910268D01*
X423231Y910342D01*
X423350Y910401D01*
X423476Y910443D01*
X423607Y910470D01*
X423740Y910478D01*
X436740D01*
X436873Y910470D01*
D02*
G37*
G36*
X495873D02*
X496003Y910443D01*
X496130Y910401D01*
X496249Y910342D01*
X496360Y910268D01*
X496460Y910180D01*
X496548Y910080D01*
X496622Y909969D01*
X496681Y909850D01*
X496724Y909724D01*
X496749Y909593D01*
X496758Y909460D01*
Y905479D01*
X500740D01*
X500873Y905470D01*
X501003Y905444D01*
X501129Y905401D01*
X501188Y905372D01*
X501249Y905342D01*
X501360Y905268D01*
X501460Y905180D01*
Y905180D01*
X501460D01*
X501548Y905080D01*
X501622Y904969D01*
X501651Y904909D01*
X501680Y904850D01*
X501723Y904724D01*
X501749Y904593D01*
X501758Y904460D01*
X501758Y895460D01*
D01*
Y895460D01*
X501749Y895327D01*
X501724Y895197D01*
X501681Y895070D01*
X501652Y895012D01*
X501622Y894951D01*
X501548Y894840D01*
X501460Y894740D01*
X501460D01*
Y894740D01*
X501360Y894652D01*
X501249Y894578D01*
X501189Y894548D01*
X501130Y894519D01*
X501003Y894476D01*
X500873Y894451D01*
X500740Y894442D01*
D01*
X500740D01*
X496758D01*
Y890460D01*
X496749Y890327D01*
X496724Y890197D01*
X496681Y890070D01*
X496622Y889951D01*
X496548Y889840D01*
X496460Y889740D01*
X496360Y889652D01*
X496249Y889578D01*
X496130Y889519D01*
X496003Y889476D01*
X495873Y889451D01*
X495740Y889442D01*
X482740D01*
X482607Y889451D01*
X482477Y889476D01*
X482350Y889519D01*
X482231Y889578D01*
X482120Y889652D01*
X482020Y889740D01*
X481932Y889840D01*
X481858Y889951D01*
X481799Y890070D01*
X481757Y890197D01*
X481730Y890327D01*
X481722Y890460D01*
Y909460D01*
X481730Y909593D01*
X481757Y909724D01*
X481799Y909850D01*
X481858Y909969D01*
X481932Y910080D01*
X482020Y910180D01*
X482120Y910268D01*
X482231Y910342D01*
X482350Y910401D01*
X482477Y910443D01*
X482607Y910470D01*
X482740Y910478D01*
X495740D01*
X495873Y910470D01*
D02*
G37*
D18*
X498240Y895460D02*
X497319Y897399D01*
X495234Y897908D01*
X493522Y896613D01*
X493463Y894428D01*
X495146Y893031D01*
X497284Y893493D01*
X498240Y895460D01*
X426240Y895460D02*
X425014Y897611D01*
X426238Y895350D02*
X426240Y895460D01*
X425014Y897611D02*
X424740Y897751D01*
Y893169D02*
X426238Y895350D01*
X424740Y897751D02*
X422371Y897552D01*
X421240Y895460D01*
X422371Y893368D01*
X424740Y893169D01*
X426240Y904460D02*
X425421Y906310D01*
X422877Y906806D01*
X421260Y904780D01*
X422309Y902410D01*
X424896Y902243D01*
X426240Y904460D01*
X498240Y904460D02*
X496752Y906746D01*
X494059Y906310D01*
X493272Y904060D01*
X494728Y902174D01*
X497104Y902365D01*
X498240Y904460D01*
D38*
X756494Y733900D02*
D03*
X729494D02*
D03*
X264160Y474980D02*
D03*
X291160D02*
D03*
X260820Y509025D02*
D03*
X287820D02*
D03*
X95330Y706220D02*
D03*
X122330D02*
D03*
X770135Y280200D02*
D03*
X743135D02*
D03*
X718108Y280200D02*
D03*
X691108D02*
D03*
X45960Y623000D02*
D03*
X18960D02*
D03*
X206750Y787400D02*
D03*
X233751D02*
D03*
X874560Y325120D02*
D03*
X847560D02*
D03*
X319710Y560188D02*
D03*
X346710D02*
D03*
X94830Y683220D02*
D03*
X121830D02*
D03*
X346240Y533400D02*
D03*
X319240D02*
D03*
X74460Y487700D02*
D03*
X47460D02*
D03*
X74460Y462300D02*
D03*
X47460D02*
D03*
X74460Y436900D02*
D03*
X47460D02*
D03*
X782120Y565301D02*
D03*
X755120D02*
D03*
X153595Y787000D02*
D03*
X180595D02*
D03*
X782120Y538302D02*
D03*
X755120D02*
D03*
X580389Y314846D02*
D03*
X553389D02*
D03*
X553389Y275434D02*
D03*
X580389D02*
D03*
X699545Y733900D02*
D03*
X672545D02*
D03*
X476231Y531490D02*
D03*
X449231D02*
D03*
X474609Y632248D02*
D03*
X447609D02*
D03*
X674995Y645757D02*
D03*
X701995D02*
D03*
X731810Y645757D02*
D03*
X758811D02*
D03*
X580389Y236020D02*
D03*
X553389D02*
D03*
X463080Y748928D02*
D03*
X436080D02*
D03*
X411929D02*
D03*
X384929D02*
D03*
X358530Y748928D02*
D03*
X331530D02*
D03*
X360210Y683301D02*
D03*
X333210D02*
D03*
X333210Y651329D02*
D03*
X360210D02*
D03*
D39*
X646900Y682460D02*
D03*
Y709460D02*
D03*
X192450Y715480D02*
D03*
Y742480D02*
D03*
X271780Y715480D02*
D03*
Y742480D02*
D03*
X241300Y715480D02*
D03*
Y742480D02*
D03*
X105410Y591850D02*
D03*
Y564850D02*
D03*
X811470Y698820D02*
D03*
Y725820D02*
D03*
X612140Y709460D02*
D03*
Y682460D02*
D03*
X580225Y709460D02*
D03*
Y682460D02*
D03*
X546887Y709460D02*
D03*
Y682460D02*
D03*
X513550Y709460D02*
D03*
Y682460D02*
D03*
X894080Y801840D02*
D03*
Y828840D02*
D03*
X867091Y801700D02*
D03*
Y828700D02*
D03*
X829300Y632200D02*
D03*
Y605200D02*
D03*
X854300Y632200D02*
D03*
Y605200D02*
D03*
X879300Y632200D02*
D03*
Y605200D02*
D03*
X904299Y632200D02*
D03*
Y605200D02*
D03*
X929300Y632200D02*
D03*
Y605200D02*
D03*
X214310Y514688D02*
D03*
Y541689D02*
D03*
X125810Y514563D02*
D03*
Y541563D02*
D03*
D40*
X915020Y479288D02*
D03*
Y471288D02*
D03*
Y447289D02*
D03*
Y439289D02*
D03*
Y463288D02*
D03*
Y455289D02*
D03*
Y431289D02*
D03*
Y407289D02*
D03*
Y399289D02*
D03*
Y423289D02*
D03*
Y415289D02*
D03*
X802020Y479288D02*
D03*
Y471288D02*
D03*
Y463288D02*
D03*
Y439289D02*
D03*
Y431289D02*
D03*
Y455289D02*
D03*
Y447289D02*
D03*
Y423289D02*
D03*
Y407289D02*
D03*
Y399289D02*
D03*
Y415289D02*
D03*
D41*
X890520Y495789D02*
D03*
X898520D02*
D03*
X874520D02*
D03*
X882520D02*
D03*
X858520D02*
D03*
X866520D02*
D03*
X842520D02*
D03*
X850520D02*
D03*
X866520Y382789D02*
D03*
X874520D02*
D03*
X850520D02*
D03*
X858520D02*
D03*
X890520D02*
D03*
X898520D02*
D03*
X882520D02*
D03*
X826520Y495789D02*
D03*
X834520D02*
D03*
X818520D02*
D03*
Y382789D02*
D03*
X826520D02*
D03*
X834520D02*
D03*
X842520D02*
D03*
D42*
X193860Y596328D02*
D03*
Y601329D02*
D03*
Y606328D02*
D03*
Y611329D02*
D03*
Y616328D02*
D03*
Y621329D02*
D03*
Y626328D02*
D03*
Y631329D02*
D03*
Y636328D02*
D03*
Y641329D02*
D03*
Y646328D02*
D03*
Y651329D02*
D03*
Y656328D02*
D03*
Y661329D02*
D03*
Y666328D02*
D03*
Y671329D02*
D03*
X304860D02*
D03*
Y666328D02*
D03*
Y661329D02*
D03*
Y656328D02*
D03*
Y651329D02*
D03*
Y646328D02*
D03*
Y641329D02*
D03*
Y636328D02*
D03*
Y631329D02*
D03*
Y626328D02*
D03*
Y621329D02*
D03*
Y616328D02*
D03*
Y611329D02*
D03*
Y606328D02*
D03*
Y601329D02*
D03*
Y596328D02*
D03*
D43*
X211860Y689329D02*
D03*
X216860D02*
D03*
X221860D02*
D03*
X226860D02*
D03*
X231860D02*
D03*
X236860D02*
D03*
X241860D02*
D03*
X246860D02*
D03*
X251860D02*
D03*
X256860D02*
D03*
X261860D02*
D03*
X266860D02*
D03*
X271860D02*
D03*
X276860D02*
D03*
X281860D02*
D03*
X286860D02*
D03*
Y578328D02*
D03*
X281860D02*
D03*
X276860D02*
D03*
X271860D02*
D03*
X266860D02*
D03*
X261860D02*
D03*
X256860D02*
D03*
X251860D02*
D03*
X246860D02*
D03*
X241860D02*
D03*
X236860D02*
D03*
X231860D02*
D03*
X226860D02*
D03*
X221860D02*
D03*
X216860D02*
D03*
X211860D02*
D03*
D44*
X909300Y738820D02*
D03*
Y698820D02*
D03*
X843300D02*
D03*
Y738820D02*
D03*
D45*
X75960Y543950D02*
D03*
Y556650D02*
D03*
Y569350D02*
D03*
Y582050D02*
D03*
X25960Y543950D02*
D03*
Y556650D02*
D03*
Y569350D02*
D03*
Y582050D02*
D03*
D46*
X741480Y346780D02*
D03*
X716480D02*
D03*
X741480Y372280D02*
D03*
X716480D02*
D03*
D47*
X469740Y899960D02*
D03*
X449740D02*
D03*
D48*
X472740Y872960D02*
D03*
X453240D02*
D03*
X459740D02*
D03*
X446740D02*
D03*
X466240D02*
D03*
D49*
X43830Y709219D02*
D03*
X73830D02*
D03*
X42830Y683219D02*
D03*
X72830D02*
D03*
X841470Y565301D02*
D03*
X811470D02*
D03*
X841470Y538302D02*
D03*
X811470D02*
D03*
X525990Y316277D02*
D03*
X495990D02*
D03*
X525990Y276863D02*
D03*
X495990D02*
D03*
Y237450D02*
D03*
X525990D02*
D03*
X751510Y680750D02*
D03*
X729510D02*
D03*
X697045D02*
D03*
X675045D02*
D03*
D50*
X593180Y502920D02*
D03*
D51*
X620680Y468420D02*
D03*
X615680D02*
D03*
X610680D02*
D03*
X605680D02*
D03*
X600680D02*
D03*
X595680D02*
D03*
X590680D02*
D03*
X585680D02*
D03*
X580680D02*
D03*
X575680D02*
D03*
X570680D02*
D03*
X565680D02*
D03*
Y537420D02*
D03*
X570680D02*
D03*
X575680D02*
D03*
X580680D02*
D03*
X585680D02*
D03*
X590680D02*
D03*
X595680D02*
D03*
X600680D02*
D03*
X605680D02*
D03*
X610680D02*
D03*
X615680D02*
D03*
X620680D02*
D03*
D52*
X558680Y475420D02*
D03*
Y480420D02*
D03*
Y485420D02*
D03*
Y490420D02*
D03*
Y495420D02*
D03*
Y500420D02*
D03*
Y505420D02*
D03*
Y510420D02*
D03*
Y515420D02*
D03*
Y520420D02*
D03*
Y525420D02*
D03*
Y530420D02*
D03*
X627680D02*
D03*
Y525420D02*
D03*
Y520420D02*
D03*
Y515420D02*
D03*
Y510420D02*
D03*
Y505420D02*
D03*
Y500420D02*
D03*
Y495420D02*
D03*
Y490420D02*
D03*
Y485420D02*
D03*
Y480420D02*
D03*
Y475420D02*
D03*
D53*
X418611Y509025D02*
D03*
Y496325D02*
D03*
Y483625D02*
D03*
Y470925D02*
D03*
X472851D02*
D03*
Y483625D02*
D03*
Y496325D02*
D03*
Y509025D02*
D03*
X416989Y609783D02*
D03*
Y597083D02*
D03*
Y584383D02*
D03*
Y571683D02*
D03*
X471229D02*
D03*
Y584383D02*
D03*
Y597083D02*
D03*
Y609783D02*
D03*
D54*
X740510Y706750D02*
D03*
X686045D02*
D03*
D55*
X182810Y518413D02*
D03*
X160810D02*
D03*
Y534413D02*
D03*
X182810D02*
D03*
D56*
X593950Y501170D02*
D03*
D57*
X322580Y411480D02*
D03*
X111760Y492010D02*
D03*
X894080Y447040D02*
D03*
X828040Y411480D02*
D03*
X741680D02*
D03*
X622300D02*
D03*
X505460D02*
D03*
X558800D02*
D03*
X434740D02*
D03*
X406860D02*
D03*
D58*
X808228Y817880D02*
D03*
X558292D02*
D03*
D59*
X703580Y843280D02*
D03*
X726440D02*
D03*
X669290Y817880D02*
D03*
X726440Y792480D02*
D03*
X680720D02*
D03*
Y843280D02*
D03*
X715010Y817880D02*
D03*
X703580Y792480D02*
D03*
X692150Y817880D02*
D03*
X646430D02*
D03*
X737870D02*
D03*
X657860Y843280D02*
D03*
X635000D02*
D03*
X657860Y792480D02*
D03*
X635000D02*
D03*
D60*
X326588Y888600D02*
D03*
Y863600D02*
D03*
X359588Y888600D02*
D03*
Y863600D02*
D03*
X326588Y838600D02*
D03*
X359588D02*
D03*
D61*
X301555Y304555D02*
D03*
X266200Y269200D02*
D03*
X213167Y392944D02*
D03*
X177812Y357588D02*
D03*
X415088Y191812D02*
D03*
X379733Y156456D02*
D03*
X326700Y280200D02*
D03*
X291345Y244845D02*
D03*
X304700Y83200D02*
D03*
X269345Y47845D02*
D03*
X216311Y171588D02*
D03*
X180956Y136233D02*
D03*
X192450Y195200D02*
D03*
X157094Y159845D02*
D03*
X104062Y283589D02*
D03*
X68706Y248233D02*
D03*
X719200Y248533D02*
D03*
Y123533D02*
D03*
X669200D02*
D03*
Y248533D02*
D03*
X876500Y283828D02*
D03*
Y158828D02*
D03*
X826500D02*
D03*
Y283828D02*
D03*
D62*
X975360Y739140D02*
D03*
Y789940D02*
D03*
Y764540D02*
D03*
X949960Y739140D02*
D03*
Y789940D02*
D03*
Y764540D02*
D03*
X975360Y815340D02*
D03*
Y840740D02*
D03*
X949960Y815340D02*
D03*
X957580Y574040D02*
D03*
Y599440D02*
D03*
Y624840D02*
D03*
Y650240D02*
D03*
Y675640D02*
D03*
X922020Y891140D02*
D03*
X896620D02*
D03*
X871220D02*
D03*
D63*
X949960Y840740D02*
D03*
X957580Y548640D02*
D03*
D64*
X484740Y872960D02*
D03*
X434740D02*
D03*
D65*
X193439Y824090D02*
D03*
X70439Y824090D02*
D03*
D66*
X193439Y869050D02*
D03*
X70439Y869050D02*
D03*
D67*
X947420Y891140D02*
D03*
D68*
X891540Y734060D02*
D03*
X883920Y726440D02*
D03*
X723900Y502920D02*
D03*
X599440Y594360D02*
D03*
X627680D02*
D03*
X495153Y619613D02*
D03*
X574995Y485140D02*
D03*
X609600D02*
D03*
Y520700D02*
D03*
X574995D02*
D03*
X607060Y437965D02*
D03*
Y426720D02*
D03*
X764540Y437965D02*
D03*
X744220Y456277D02*
D03*
X866948Y353060D02*
D03*
X802640D02*
D03*
X737870Y327660D02*
D03*
X704884D02*
D03*
X876500Y415630D02*
D03*
X808228Y681359D02*
D03*
X795020Y756920D02*
D03*
Y681640D02*
D03*
X850520Y401320D02*
D03*
X899160Y657860D02*
D03*
Y683219D02*
D03*
X883920Y754380D02*
D03*
X853440Y817880D02*
D03*
X845820Y808723D02*
D03*
X847560Y831380D02*
D03*
X797560Y863600D02*
D03*
X747845D02*
D03*
X436880Y789940D02*
D03*
X401320Y725820D02*
D03*
X889000Y645160D02*
D03*
Y683260D02*
D03*
X876300Y746760D02*
D03*
X789940Y777240D02*
D03*
X840740Y825500D02*
D03*
X797560Y855980D02*
D03*
X758811D02*
D03*
X431800Y802032D02*
D03*
X425439Y808723D02*
D03*
X391523Y726440D02*
D03*
X388620Y618960D02*
D03*
X363220D02*
D03*
X381000Y726440D02*
D03*
X769620Y660400D02*
D03*
X781268Y626328D02*
D03*
X370840Y726440D02*
D03*
X774700Y671570D02*
D03*
X810260Y657860D02*
D03*
X764540Y423289D02*
D03*
X777240Y424180D02*
D03*
X751840Y431629D02*
D03*
X217480Y478480D02*
D03*
X226060Y485140D02*
D03*
X302260Y711200D02*
D03*
X430240Y838600D02*
D03*
X441960Y838200D02*
D03*
X934720Y370840D02*
D03*
Y423289D02*
D03*
X835660Y302260D02*
D03*
X370840Y218440D02*
D03*
X391160D02*
D03*
X769620Y254000D02*
D03*
X812800Y297180D02*
D03*
X805180Y251460D02*
D03*
Y274320D02*
D03*
X457200Y320040D02*
D03*
X743135D02*
D03*
X762000Y399289D02*
D03*
X541020Y487700D02*
D03*
X152400Y431800D02*
D03*
X306900Y474980D02*
D03*
X304700Y509025D02*
D03*
X307340Y490220D02*
D03*
X259080Y535940D02*
D03*
X333210Y627850D02*
D03*
X271780Y609783D02*
D03*
X259080Y556260D02*
D03*
X360210Y700418D02*
D03*
X322580Y636328D02*
D03*
X248920Y672760D02*
D03*
X266360D02*
D03*
X292100Y742320D02*
D03*
X217660Y742480D02*
D03*
X233751Y601329D02*
D03*
X226060Y597083D02*
D03*
X271860Y665480D02*
D03*
X822711Y447289D02*
D03*
X784889Y439289D02*
D03*
X638489Y472440D02*
D03*
X782320Y661678D02*
D03*
X802640Y618960D02*
D03*
X850281Y725820D02*
D03*
X669200Y280200D02*
D03*
X743135Y263075D02*
D03*
X495385Y509025D02*
D03*
X494740Y531490D02*
D03*
X946670Y437063D02*
D03*
X561340Y548640D02*
D03*
X911720Y801840D02*
D03*
X946620Y464020D02*
D03*
X574995Y558800D02*
D03*
X271860Y787400D02*
D03*
X868361Y738820D02*
D03*
X373563Y571683D02*
D03*
X391523Y470925D02*
D03*
X699545Y753335D02*
D03*
X729494Y752821D02*
D03*
X701040Y346780D02*
D03*
X863240Y525420D02*
D03*
X866520Y514688D02*
D03*
X755120Y519534D02*
D03*
X42830Y661678D02*
D03*
X63500Y623000D02*
D03*
X18960Y643800D02*
D03*
X47870Y569350D02*
D03*
X172720Y589280D02*
D03*
X160810Y556260D02*
D03*
X207034Y560188D02*
D03*
X246380Y537420D02*
D03*
X284480Y553150D02*
D03*
X346240Y515033D02*
D03*
X346710Y578650D02*
D03*
X170180Y685800D02*
D03*
X160020Y680720D02*
D03*
X153660Y636328D02*
D03*
X216860Y707860D02*
D03*
X289560Y711200D02*
D03*
X934589Y439289D02*
D03*
X894080Y325120D02*
D03*
X866520Y363600D02*
D03*
X985360Y717916D02*
D03*
X302260Y119380D02*
D03*
X546100Y510420D02*
D03*
X568960Y437965D02*
D03*
Y426720D02*
D03*
X642500Y495420D02*
D03*
X670140Y525780D02*
D03*
X635000Y398780D02*
D03*
X480130Y335109D02*
D03*
X533413Y645160D02*
D03*
X697370Y629920D02*
D03*
X708660D02*
D03*
X441960Y802640D02*
D03*
X543213Y752821D02*
D03*
X526992Y736600D02*
D03*
X629920Y716280D02*
D03*
Y741680D02*
D03*
X596900Y718820D02*
D03*
Y742480D02*
D03*
D69*
X472740Y839310D02*
D03*
X487680Y792480D02*
D03*
X652780Y731520D02*
D03*
M02*
