G04*
G04 #@! TF.GenerationSoftware,Altium Limited,Altium Designer,18.1.7 (191)*
G04*
G04 Layer_Color=65535*
%FSLAX44Y44*%
%MOMM*%
G71*
G01*
G75*
%ADD10C,0.6000*%
%ADD11C,0.2500*%
%ADD12C,0.2000*%
%ADD13C,0.2540*%
%ADD14C,0.2032*%
%ADD15C,0.1270*%
%ADD16C,0.1524*%
%ADD17C,0.2030*%
D10*
X828020Y472789D02*
X826890Y475134D01*
X824352Y475714D01*
X822317Y474090D01*
Y471487D01*
X824352Y469864D01*
X826890Y470443D01*
X828020Y472789D01*
X219860Y601329D02*
X218730Y603674D01*
X216192Y604253D01*
X214157Y602630D01*
Y600027D01*
X216192Y598404D01*
X218730Y598983D01*
X219860Y601329D01*
D11*
X803270Y487539D02*
X801395Y488621D01*
Y486456D01*
X803270Y487539D01*
X206110Y578329D02*
X204235Y579411D01*
Y577246D01*
X206110Y578329D01*
X77210Y535450D02*
X75335Y536533D01*
Y534367D01*
X77210Y535450D01*
X473990Y860710D02*
X472115Y861793D01*
Y859628D01*
X473990Y860710D01*
D12*
X637260Y475410D02*
X635260D01*
X637260D01*
X181810Y544413D02*
X183810D01*
X181810D01*
X738994Y741400D02*
X746994D01*
X738994Y726400D02*
X746994D01*
X654400Y691960D02*
Y699960D01*
X639400Y691960D02*
Y699960D01*
X273660Y482480D02*
X281660D01*
X273660Y467480D02*
X281660D01*
X270320Y501525D02*
X278320D01*
X270320Y516525D02*
X278320D01*
X184950Y724980D02*
Y732980D01*
X199950Y724980D02*
Y732980D01*
X264280Y724980D02*
Y732980D01*
X279280Y724980D02*
Y732980D01*
X233800Y724980D02*
Y732980D01*
X248800Y724980D02*
Y732980D01*
X902020Y395788D02*
Y482789D01*
X815020D02*
X902020D01*
X815020Y395788D02*
X902020D01*
X815020D02*
Y482789D01*
X291860Y591329D02*
Y676328D01*
X206860Y591329D02*
Y676328D01*
X291860D01*
X206860Y591329D02*
X291860D01*
X61960Y538000D02*
Y588000D01*
X39960Y538000D02*
Y588000D01*
Y538000D02*
X61960D01*
X39960Y588000D02*
X61960D01*
X239592Y416808D02*
X324904Y331496D01*
X239592Y246184D02*
X324904Y331496D01*
X154279D02*
X239592Y246184D01*
X154279Y331496D02*
X239592Y416808D01*
X104830Y698719D02*
X112830D01*
X104830Y713720D02*
X112830D01*
X937260Y726440D02*
X988060D01*
Y853440D01*
X937260Y726440D02*
Y853440D01*
X988060D01*
X1016846Y552874D02*
X1021080Y548640D01*
X1016846Y544407D02*
X1021080Y548640D01*
X1016846Y569807D02*
X1021080Y574040D01*
X982980Y552874D02*
X1016846D01*
X982980Y569807D02*
X1016846D01*
Y578274D02*
X1021080Y574040D01*
X1016846Y595207D02*
X1021080Y599440D01*
X1016846Y603674D02*
X1021080Y599440D01*
X982980Y620607D02*
X1016846D01*
X970280Y540174D02*
X974513Y535940D01*
X970280D02*
X982980D01*
Y544407D02*
X1016846D01*
X982980Y578274D02*
X1016846D01*
X982980Y595207D02*
X1016846D01*
X982980Y603674D02*
X1016846D01*
Y629073D02*
X1021080Y624840D01*
X1016846Y620607D02*
X1021080Y624840D01*
X1016846Y646007D02*
X1021080Y650240D01*
X982980Y629073D02*
X1016846D01*
X982980Y646007D02*
X1016846D01*
Y654473D02*
X1021080Y650240D01*
X1016846Y671407D02*
X1021080Y675640D01*
X982980Y654473D02*
X1016846D01*
Y679873D02*
X1021080Y675640D01*
X970280Y535940D02*
Y688340D01*
X982980Y535940D02*
Y688340D01*
Y671407D02*
X1016846D01*
X982980Y679873D02*
X1016846D01*
X970280Y688340D02*
X982980D01*
X497190Y913340D02*
Y921459D01*
X497193Y874507D02*
Y886580D01*
X495880Y874507D02*
X497193D01*
X422290Y921459D02*
X497190D01*
X422287Y913340D02*
Y921460D01*
Y874460D02*
X423590D01*
X422287D02*
Y886580D01*
X752635Y272700D02*
X760635D01*
X752635Y287700D02*
X760635D01*
X700608Y287700D02*
X708608D01*
X700608Y272700D02*
X708608D01*
X28460Y630500D02*
X36460D01*
X28460Y615500D02*
X36460D01*
X216250Y779900D02*
X224251D01*
X216250Y794900D02*
X224251D01*
X857060Y332620D02*
X865060D01*
X857060Y317620D02*
X865060D01*
X329210Y567688D02*
X337210D01*
X329210Y552688D02*
X337210D01*
X104330Y690720D02*
X112330D01*
X104330Y675720D02*
X112330D01*
X328740Y540900D02*
X336740D01*
X328740Y525900D02*
X336740D01*
X56960Y480200D02*
X64960D01*
X56960Y495200D02*
X64960D01*
X56960Y454800D02*
X64960D01*
X56960Y469800D02*
X64960D01*
X56960Y429400D02*
X64960D01*
X56960Y444400D02*
X64960D01*
X97910Y574350D02*
Y582350D01*
X112910Y574350D02*
Y582350D01*
X803970Y708321D02*
Y716320D01*
X818970Y708321D02*
Y716320D01*
X764620Y557801D02*
X772620D01*
X764620Y572801D02*
X772620D01*
X163095Y779500D02*
X171095D01*
X163095Y794500D02*
X171095D01*
X764620Y530802D02*
X772620D01*
X764620Y545802D02*
X772620D01*
X353308Y303217D02*
X438621Y217904D01*
X353308Y132592D02*
X438621Y217904D01*
X267996D02*
X353308Y132592D01*
X267996Y217904D02*
X353308Y303217D01*
X242920Y194605D02*
X328232Y109292D01*
X242920Y23980D02*
X328232Y109292D01*
X157607D02*
X242920Y23980D01*
X157607Y109292D02*
X242920Y194605D01*
X130486Y307453D02*
X215799Y222141D01*
X130486Y136828D02*
X215799Y222141D01*
X45174D02*
X130486Y136828D01*
X45174Y222141D02*
X130486Y307453D01*
X754760Y126073D02*
Y246723D01*
X634110D02*
X754760D01*
X634110Y126073D02*
X754760D01*
X634110D02*
Y246723D01*
X912060Y161368D02*
Y282018D01*
X791410D02*
X912060D01*
X791410Y161368D02*
X912060D01*
X791410D02*
Y282018D01*
X562889Y322347D02*
X570889D01*
X562889Y307347D02*
X570889D01*
X562889Y267933D02*
X570889D01*
X562889Y282934D02*
X570889D01*
X202639Y808484D02*
X243439D01*
X143439D02*
X184239D01*
X152789Y1004050D02*
X234089D01*
X143441Y808304D02*
Y908870D01*
X243439Y808484D02*
Y909050D01*
X152789D02*
Y1004050D01*
X234089Y909050D02*
Y1004050D01*
X143439Y909050D02*
X243439D01*
X79639Y808484D02*
X120439D01*
X20439D02*
X61239D01*
X29789Y1004050D02*
X111089D01*
X20441Y808304D02*
Y908870D01*
X120439Y808484D02*
Y909050D01*
X29789D02*
Y1004050D01*
X111089Y909050D02*
Y1004050D01*
X20439Y909050D02*
X120439D01*
X858520Y878440D02*
Y903840D01*
X960120D01*
X858520Y878440D02*
X960120D01*
Y903840D01*
X682045Y741400D02*
X690045D01*
X682045Y726400D02*
X690045D01*
X604640Y691960D02*
Y699960D01*
X619640Y691960D02*
Y699960D01*
X572725Y691960D02*
Y699960D01*
X587725Y691960D02*
Y699960D01*
X539387Y691960D02*
Y699960D01*
X554388Y691960D02*
Y699960D01*
X506050Y691960D02*
Y699960D01*
X521050Y691960D02*
Y699960D01*
X429731Y514475D02*
X461731D01*
Y465475D02*
Y514475D01*
X429731Y465475D02*
X461731D01*
X429731D02*
Y514475D01*
X410981Y515775D02*
X426231D01*
X458731Y538990D02*
X466731D01*
X458731Y523990D02*
X466731D01*
X428109Y615233D02*
X460109D01*
Y566233D02*
Y615233D01*
X428109Y566233D02*
X460109D01*
X428109D02*
Y615233D01*
X409359Y616533D02*
X424609D01*
X457109Y639748D02*
X465109D01*
X457109Y624748D02*
X465109D01*
X684495Y653257D02*
X692495D01*
X684495Y638257D02*
X692495D01*
X741311Y638257D02*
X749311D01*
X741311Y653257D02*
X749311D01*
X562889Y243520D02*
X570889D01*
X562889Y228520D02*
X570889D01*
X901580Y811340D02*
Y819340D01*
X886580Y811340D02*
Y819340D01*
X874591Y811200D02*
Y819200D01*
X859591Y811200D02*
Y819200D01*
X445580Y756428D02*
X453580D01*
X445580Y741428D02*
X453580D01*
X394429Y741428D02*
X402429D01*
X394429Y756428D02*
X402429D01*
X341030D02*
X349030D01*
X341030Y741428D02*
X349030D01*
X821800Y614700D02*
Y622700D01*
X836799Y614700D02*
Y622700D01*
X846799Y614700D02*
Y622700D01*
X861800Y614700D02*
Y622700D01*
X871800Y614700D02*
Y622700D01*
X886800Y614700D02*
Y622700D01*
X896800Y614700D02*
Y622700D01*
X911800Y614700D02*
Y622700D01*
X921800Y614700D02*
Y622700D01*
X936800Y614700D02*
Y622700D01*
X206810Y524188D02*
Y532188D01*
X221810Y524188D02*
Y532188D01*
X118310Y524063D02*
Y532063D01*
X133310Y524063D02*
Y532063D01*
X342710Y675801D02*
X350710D01*
X342710Y690801D02*
X350710D01*
X342710Y643828D02*
X350710D01*
X342710Y658829D02*
X350710D01*
D13*
X529082Y767842D02*
X837438D01*
Y932180D01*
X529082D02*
X837438D01*
X529082Y767842D02*
Y932180D01*
X922300Y686320D02*
Y751320D01*
X830300D02*
X922300D01*
X824800Y756321D02*
X830300Y750820D01*
Y686320D02*
X922300D01*
X830300D02*
Y750820D01*
X710980Y332530D02*
X746980D01*
Y337530D01*
X710980Y332530D02*
Y337530D01*
X746980Y381530D02*
Y386530D01*
X716230D02*
X746980D01*
X711230Y381530D02*
X716230Y386530D01*
X291088Y883600D02*
X313088D01*
Y908600D02*
X373088D01*
X291088Y843600D02*
Y883600D01*
X313088Y818600D02*
Y908600D01*
X291088Y843600D02*
X313088D01*
X373088Y818600D02*
Y908600D01*
X313088Y818600D02*
X373088D01*
X632460Y660400D02*
Y669537D01*
X637029D01*
X638551Y668014D01*
Y664968D01*
X637029Y663446D01*
X632460D01*
X635506D02*
X638551Y660400D01*
X641597Y668014D02*
X643120Y669537D01*
X646166D01*
X647688Y668014D01*
Y666491D01*
X646166Y664968D01*
X644643D01*
X646166D01*
X647688Y663446D01*
Y661923D01*
X646166Y660400D01*
X643120D01*
X641597Y661923D01*
X650734D02*
X652257Y660400D01*
X655303D01*
X656825Y661923D01*
Y668014D01*
X655303Y669537D01*
X652257D01*
X650734Y668014D01*
Y666491D01*
X652257Y664968D01*
X656825D01*
X466440Y240237D02*
Y231100D01*
X471008D01*
X472531Y232623D01*
Y238714D01*
X471008Y240237D01*
X466440D01*
X475577Y232623D02*
X477100Y231100D01*
X480146D01*
X481668Y232623D01*
Y238714D01*
X480146Y240237D01*
X477100D01*
X475577Y238714D01*
Y237191D01*
X477100Y235668D01*
X481668D01*
X410718Y534409D02*
X413764D01*
X412241D01*
Y525272D01*
X410718D01*
X413764D01*
X424424Y532886D02*
X422901Y534409D01*
X419855D01*
X418332Y532886D01*
Y526795D01*
X419855Y525272D01*
X422901D01*
X424424Y526795D01*
X427469Y525272D02*
X430515D01*
X428992D01*
Y534409D01*
X427469Y532886D01*
X409103Y635262D02*
X412148D01*
X410625D01*
Y626124D01*
X409103D01*
X412148D01*
X422808Y633739D02*
X421285Y635262D01*
X418240D01*
X416717Y633739D01*
Y627647D01*
X418240Y626124D01*
X421285D01*
X422808Y627647D01*
X431945Y626124D02*
X425854D01*
X431945Y632216D01*
Y633739D01*
X430422Y635262D01*
X427377D01*
X425854Y633739D01*
X443121Y649821D02*
Y658959D01*
X447689D01*
X449212Y657436D01*
Y654390D01*
X447689Y652867D01*
X443121D01*
X446166D02*
X449212Y649821D01*
X452258Y657436D02*
X453781Y658959D01*
X456826D01*
X458349Y657436D01*
Y655913D01*
X456826Y654390D01*
X455303D01*
X456826D01*
X458349Y652867D01*
Y651344D01*
X456826Y649821D01*
X453781D01*
X452258Y651344D01*
X461395Y657436D02*
X462918Y658959D01*
X465963D01*
X467486Y657436D01*
Y655913D01*
X465963Y654390D01*
X464440D01*
X465963D01*
X467486Y652867D01*
Y651344D01*
X465963Y649821D01*
X462918D01*
X461395Y651344D01*
X444661Y549045D02*
Y558183D01*
X449229D01*
X450752Y556660D01*
Y553614D01*
X449229Y552091D01*
X444661D01*
X447706D02*
X450752Y549045D01*
X453798Y556660D02*
X455321Y558183D01*
X458366D01*
X459889Y556660D01*
Y555137D01*
X458366Y553614D01*
X456843D01*
X458366D01*
X459889Y552091D01*
Y550568D01*
X458366Y549045D01*
X455321D01*
X453798Y550568D01*
X467503Y549045D02*
Y558183D01*
X462935Y553614D01*
X469026D01*
X506184Y724073D02*
Y733210D01*
X510752D01*
X512275Y731687D01*
Y728641D01*
X510752Y727118D01*
X506184D01*
X509230D02*
X512275Y724073D01*
X515321Y731687D02*
X516844Y733210D01*
X519890D01*
X521412Y731687D01*
Y730164D01*
X519890Y728641D01*
X518367D01*
X519890D01*
X521412Y727118D01*
Y725595D01*
X519890Y724073D01*
X516844D01*
X515321Y725595D01*
X530550Y733210D02*
X524458D01*
Y728641D01*
X527504Y730164D01*
X529027D01*
X530550Y728641D01*
Y725595D01*
X529027Y724073D01*
X525981D01*
X524458Y725595D01*
X539458Y724073D02*
Y733210D01*
X544026D01*
X545549Y731687D01*
Y728641D01*
X544026Y727118D01*
X539458D01*
X542504D02*
X545549Y724073D01*
X548595Y731687D02*
X550118Y733210D01*
X553164D01*
X554686Y731687D01*
Y730164D01*
X553164Y728641D01*
X551641D01*
X553164D01*
X554686Y727118D01*
Y725595D01*
X553164Y724073D01*
X550118D01*
X548595Y725595D01*
X563824Y733210D02*
X560778Y731687D01*
X557732Y728641D01*
Y725595D01*
X559255Y724073D01*
X562301D01*
X563824Y725595D01*
Y727118D01*
X562301Y728641D01*
X557732D01*
X572732Y724073D02*
Y733210D01*
X577300D01*
X578823Y731687D01*
Y728641D01*
X577300Y727118D01*
X572732D01*
X575778D02*
X578823Y724073D01*
X581869Y731687D02*
X583392Y733210D01*
X586438D01*
X587960Y731687D01*
Y730164D01*
X586438Y728641D01*
X584915D01*
X586438D01*
X587960Y727118D01*
Y725595D01*
X586438Y724073D01*
X583392D01*
X581869Y725595D01*
X591006Y733210D02*
X597098D01*
Y731687D01*
X591006Y725595D01*
Y724073D01*
X604584D02*
Y733210D01*
X609152D01*
X610675Y731687D01*
Y728641D01*
X609152Y727118D01*
X604584D01*
X607629D02*
X610675Y724073D01*
X613721Y731687D02*
X615243Y733210D01*
X618289D01*
X619812Y731687D01*
Y730164D01*
X618289Y728641D01*
X616766D01*
X618289D01*
X619812Y727118D01*
Y725595D01*
X618289Y724073D01*
X615243D01*
X613721Y725595D01*
X622858Y731687D02*
X624381Y733210D01*
X627426D01*
X628949Y731687D01*
Y730164D01*
X627426Y728641D01*
X628949Y727118D01*
Y725595D01*
X627426Y724073D01*
X624381D01*
X622858Y725595D01*
Y727118D01*
X624381Y728641D01*
X622858Y730164D01*
Y731687D01*
X624381Y728641D02*
X627426D01*
X595220Y236020D02*
Y245157D01*
X599788D01*
X601311Y243634D01*
Y240588D01*
X599788Y239066D01*
X595220D01*
X598266D02*
X601311Y236020D01*
X608926D02*
Y245157D01*
X604357Y240588D01*
X610448D01*
X619585Y236020D02*
X613494D01*
X619585Y242111D01*
Y243634D01*
X618063Y245157D01*
X615017D01*
X613494Y243634D01*
D14*
X34830Y698805D02*
X48830D01*
X55020Y702869D02*
X62894Y709219D01*
X55020Y702869D02*
Y715569D01*
X62894Y709219D02*
Y715569D01*
X55020D02*
X62894Y709219D01*
X34830Y699219D02*
Y719219D01*
Y719379D02*
X48830D01*
X68830Y699219D02*
X82830D01*
X62894Y702869D02*
Y709219D01*
X68830Y719219D02*
X82830D01*
Y699219D02*
Y719219D01*
X33830Y672805D02*
X47830D01*
X54020Y676869D02*
X61894Y683219D01*
X54020Y676869D02*
Y689569D01*
X61894Y683219D02*
Y689569D01*
X54020D02*
X61894Y683219D01*
X33830Y673219D02*
Y693219D01*
Y693379D02*
X47830D01*
X67830Y673219D02*
X81830D01*
X61894Y676869D02*
Y683219D01*
X67830Y693219D02*
X81830D01*
Y673219D02*
Y693219D01*
X836470Y575715D02*
X850470D01*
X822406Y565301D02*
X830280Y571651D01*
Y558951D02*
Y571651D01*
X822406Y558951D02*
Y565301D01*
X830280Y558951D01*
X850470Y555301D02*
Y575301D01*
X836470Y555141D02*
X850470D01*
X802470Y575301D02*
X816470D01*
X822406Y565301D02*
Y571651D01*
X802470Y555301D02*
X816470D01*
X802470D02*
Y575301D01*
X836470Y548716D02*
X850470D01*
X822406Y538302D02*
X830280Y544651D01*
Y531951D02*
Y544651D01*
X822406Y531951D02*
Y538302D01*
X830280Y531951D01*
X850470Y528302D02*
Y548302D01*
X836470Y528142D02*
X850470D01*
X802470Y548302D02*
X816470D01*
X822406Y538302D02*
Y544651D01*
X802470Y528302D02*
X816470D01*
X802470D02*
Y548302D01*
X520989Y326277D02*
X534989D01*
X515053Y316277D02*
Y322627D01*
X507179D02*
X515053Y316277D01*
Y309927D02*
Y316277D01*
X507179Y309927D02*
X515053Y316277D01*
X534989Y306277D02*
Y326277D01*
X520989Y306277D02*
X534989D01*
X507179Y309927D02*
Y322627D01*
X486990Y326437D02*
X500989D01*
X486990Y306277D02*
Y326277D01*
Y305863D02*
X500989D01*
X520989Y286863D02*
X534989D01*
X515053Y276863D02*
Y283213D01*
X507179D02*
X515053Y276863D01*
Y270513D02*
Y276863D01*
X507179Y270513D02*
X515053Y276863D01*
X534989Y266863D02*
Y286863D01*
X520989Y266863D02*
X534989D01*
X507179Y270513D02*
Y283213D01*
X486990Y287023D02*
X500989D01*
X486990Y266863D02*
Y286863D01*
Y266449D02*
X500989D01*
X486990Y227036D02*
X500989D01*
X486990Y227450D02*
Y247450D01*
Y247610D02*
X500989D01*
X507179Y231100D02*
Y243800D01*
X520989Y227450D02*
X534989D01*
Y247450D01*
X507179Y231100D02*
X515053Y237450D01*
Y231100D02*
Y237450D01*
X507179Y243800D02*
X515053Y237450D01*
Y243800D01*
X520989Y247450D02*
X534989D01*
X969810Y718240D02*
Y714008D01*
Y716124D01*
X982506D01*
X980390Y718240D01*
Y707660D02*
X982506Y705544D01*
Y701312D01*
X980390Y699196D01*
X971926D01*
X969810Y701312D01*
Y705544D01*
X971926Y707660D01*
X980390D01*
X946926Y718240D02*
X944810Y716124D01*
Y711892D01*
X946926Y709776D01*
X955390D01*
X957506Y711892D01*
Y716124D01*
X955390Y718240D01*
X953274D01*
X951158Y716124D01*
Y709776D01*
X969810Y858776D02*
Y867240D01*
X978274Y858776D01*
X980390D01*
X982506Y860892D01*
Y865124D01*
X980390Y867240D01*
X944810Y864240D02*
Y860008D01*
Y862124D01*
X957506D01*
X955390Y864240D01*
X952500Y533400D02*
Y530353D01*
Y531876D01*
X961641D01*
X960117Y533400D01*
X194054Y761998D02*
X192530Y763521D01*
X189484D01*
X187960Y761998D01*
Y755903D01*
X189484Y754380D01*
X192530D01*
X194054Y755903D01*
X197101Y754380D02*
X200148D01*
X198625D01*
Y763521D01*
X197101Y761998D01*
X236577Y532244D02*
X238101Y533768D01*
Y536815D01*
X236577Y538339D01*
X230483D01*
X228960Y536815D01*
Y533768D01*
X230483Y532244D01*
X228960Y523103D02*
Y529198D01*
X235054Y523103D01*
X236577D01*
X238101Y524627D01*
Y527674D01*
X236577Y529198D01*
X148077Y529119D02*
X149601Y530642D01*
Y533689D01*
X148077Y535213D01*
X141983D01*
X140460Y533689D01*
Y530642D01*
X141983Y529119D01*
X148077Y526072D02*
X149601Y524548D01*
Y521501D01*
X148077Y519978D01*
X146554D01*
X145030Y521501D01*
Y523025D01*
Y521501D01*
X143507Y519978D01*
X141983D01*
X140460Y521501D01*
Y524548D01*
X141983Y526072D01*
X65854Y626468D02*
X64331Y627991D01*
X61284D01*
X59760Y626468D01*
Y620373D01*
X61284Y618850D01*
X64331D01*
X65854Y620373D01*
X74995Y627991D02*
X68901D01*
Y623420D01*
X71948Y624944D01*
X73472D01*
X74995Y623420D01*
Y620373D01*
X73472Y618850D01*
X70425D01*
X68901Y620373D01*
X254494Y788668D02*
X252971Y790191D01*
X249924D01*
X248400Y788668D01*
Y782573D01*
X249924Y781050D01*
X252971D01*
X254494Y782573D01*
X263635Y790191D02*
X260588Y788668D01*
X257541Y785620D01*
Y782573D01*
X259065Y781050D01*
X262112D01*
X263635Y782573D01*
Y784097D01*
X262112Y785620D01*
X257541D01*
X853654Y346588D02*
X852131Y348111D01*
X849084D01*
X847560Y346588D01*
Y340494D01*
X849084Y338970D01*
X852131D01*
X853654Y340494D01*
X856701Y338970D02*
X859748D01*
X858225D01*
Y348111D01*
X856701Y346588D01*
X870413Y338970D02*
X864319D01*
X870413Y345064D01*
Y346588D01*
X868889Y348111D01*
X865842D01*
X864319Y346588D01*
X12700Y712721D02*
Y703580D01*
X17270D01*
X18794Y705104D01*
Y711198D01*
X17270Y712721D01*
X12700D01*
X21841Y711198D02*
X23365Y712721D01*
X26412D01*
X27935Y711198D01*
Y709674D01*
X26412Y708150D01*
X24888D01*
X26412D01*
X27935Y706627D01*
Y705104D01*
X26412Y703580D01*
X23365D01*
X21841Y705104D01*
X12700Y687321D02*
Y678180D01*
X17270D01*
X18794Y679704D01*
Y685798D01*
X17270Y687321D01*
X12700D01*
X26412Y678180D02*
Y687321D01*
X21841Y682750D01*
X27935D01*
X856470Y567442D02*
Y558301D01*
X861040D01*
X862564Y559825D01*
Y565919D01*
X861040Y567442D01*
X856470D01*
X871705D02*
X865611D01*
Y562872D01*
X868658Y564395D01*
X870182D01*
X871705Y562872D01*
Y559825D01*
X870182Y558301D01*
X867135D01*
X865611Y559825D01*
X856470Y540442D02*
Y531301D01*
X861040D01*
X862564Y532825D01*
Y538919D01*
X861040Y540442D01*
X856470D01*
X871705D02*
X868658Y538919D01*
X865611Y535872D01*
Y532825D01*
X867135Y531301D01*
X870182D01*
X871705Y532825D01*
Y534348D01*
X870182Y535872D01*
X865611D01*
X255533Y832191D02*
X252486D01*
X254009D01*
Y824574D01*
X252486Y823050D01*
X250962D01*
X249439Y824574D01*
X258580Y823050D02*
X261627D01*
X260103D01*
Y832191D01*
X258580Y830668D01*
X6533Y897191D02*
X3486D01*
X5009D01*
Y889574D01*
X3486Y888050D01*
X1962D01*
X439Y889574D01*
X15674Y888050D02*
X9580D01*
X15674Y894144D01*
Y895668D01*
X14150Y897191D01*
X11103D01*
X9580Y895668D01*
X399740Y876460D02*
Y885601D01*
X404310D01*
X405834Y884078D01*
Y881031D01*
X404310Y879507D01*
X399740D01*
X408881Y876460D02*
X411928D01*
X410405D01*
Y885601D01*
X408881Y884078D01*
X931580Y589240D02*
X940721D01*
Y584670D01*
X939197Y583146D01*
X936150D01*
X934627Y584670D01*
Y589240D01*
X931580Y574005D02*
Y580099D01*
X937674Y574005D01*
X939197D01*
X940721Y575529D01*
Y578576D01*
X939197Y580099D01*
X921810Y852240D02*
X930951D01*
Y847670D01*
X929427Y846146D01*
X926380D01*
X924857Y847670D01*
Y852240D01*
X929427Y843099D02*
X930951Y841575D01*
Y838528D01*
X929427Y837005D01*
X927904D01*
X926380Y838528D01*
Y840052D01*
Y838528D01*
X924857Y837005D01*
X923334D01*
X921810Y838528D01*
Y841575D01*
X923334Y843099D01*
X966870Y891140D02*
Y900281D01*
X971440D01*
X972964Y898758D01*
Y895711D01*
X971440Y894187D01*
X966870D01*
X980581Y891140D02*
Y900281D01*
X976011Y895711D01*
X982105D01*
X134620Y701040D02*
Y710181D01*
X139191D01*
X140714Y708658D01*
Y705611D01*
X139191Y704087D01*
X134620D01*
X137667D02*
X140714Y701040D01*
X143761Y708658D02*
X145285Y710181D01*
X148332D01*
X149855Y708658D01*
Y707134D01*
X148332Y705611D01*
X146808D01*
X148332D01*
X149855Y704087D01*
Y702563D01*
X148332Y701040D01*
X145285D01*
X143761Y702563D01*
X359660Y555788D02*
Y564930D01*
X364230D01*
X365754Y563406D01*
Y560359D01*
X364230Y558835D01*
X359660D01*
X362707D02*
X365754Y555788D01*
X374895Y564930D02*
X368801D01*
Y560359D01*
X371848Y561883D01*
X373372D01*
X374895Y560359D01*
Y557312D01*
X373372Y555788D01*
X370325D01*
X368801Y557312D01*
X134620Y678180D02*
Y687321D01*
X139191D01*
X140714Y685798D01*
Y682750D01*
X139191Y681227D01*
X134620D01*
X137667D02*
X140714Y678180D01*
X148332D02*
Y687321D01*
X143761Y682750D01*
X149855D01*
X358140Y529734D02*
Y538875D01*
X362710D01*
X364234Y537352D01*
Y534305D01*
X362710Y532781D01*
X358140D01*
X361187D02*
X364234Y529734D01*
X373375Y538875D02*
X370328Y537352D01*
X367281Y534305D01*
Y531258D01*
X368805Y529734D01*
X371852D01*
X373375Y531258D01*
Y532781D01*
X371852Y534305D01*
X367281D01*
X16510Y482600D02*
Y491741D01*
X21081D01*
X22604Y490218D01*
Y487170D01*
X21081Y485647D01*
X16510D01*
X19557D02*
X22604Y482600D01*
X25651Y491741D02*
X31745D01*
Y490218D01*
X25651Y484123D01*
Y482600D01*
X16510Y457200D02*
Y466341D01*
X21081D01*
X22604Y464818D01*
Y461771D01*
X21081Y460247D01*
X16510D01*
X19557D02*
X22604Y457200D01*
X25651Y464818D02*
X27175Y466341D01*
X30222D01*
X31745Y464818D01*
Y463294D01*
X30222Y461771D01*
X31745Y460247D01*
Y458723D01*
X30222Y457200D01*
X27175D01*
X25651Y458723D01*
Y460247D01*
X27175Y461771D01*
X25651Y463294D01*
Y464818D01*
X27175Y461771D02*
X30222D01*
X16510Y433788D02*
Y442929D01*
X21081D01*
X22604Y441406D01*
Y438359D01*
X21081Y436835D01*
X16510D01*
X19557D02*
X22604Y433788D01*
X25651Y435312D02*
X27175Y433788D01*
X30222D01*
X31745Y435312D01*
Y441406D01*
X30222Y442929D01*
X27175D01*
X25651Y441406D01*
Y439882D01*
X27175Y438359D01*
X31745D01*
X96520Y604520D02*
Y613661D01*
X101090D01*
X102614Y612137D01*
Y609090D01*
X101090Y607567D01*
X96520D01*
X99567D02*
X102614Y604520D01*
X105661D02*
X108708D01*
X107185D01*
Y613661D01*
X105661Y612137D01*
X113279D02*
X114802Y613661D01*
X117849D01*
X119373Y612137D01*
Y606044D01*
X117849Y604520D01*
X114802D01*
X113279Y606044D01*
Y612137D01*
X823600Y666750D02*
X832741D01*
Y662179D01*
X831217Y660656D01*
X828170D01*
X826647Y662179D01*
Y666750D01*
Y663703D02*
X823600Y660656D01*
Y657609D02*
Y654562D01*
Y656085D01*
X832741D01*
X831217Y657609D01*
Y649991D02*
X832741Y648468D01*
Y645421D01*
X831217Y643897D01*
X829694D01*
X828170Y645421D01*
X826647Y643897D01*
X825124D01*
X823600Y645421D01*
Y648468D01*
X825124Y649991D01*
X826647D01*
X828170Y648468D01*
X829694Y649991D01*
X831217D01*
X828170Y648468D02*
Y645421D01*
X331530Y762378D02*
Y771519D01*
X336101D01*
X337624Y769995D01*
Y766948D01*
X336101Y765425D01*
X331530D01*
X334577D02*
X337624Y762378D01*
X346765D02*
X340671D01*
X346765Y768472D01*
Y769995D01*
X345242Y771519D01*
X342195D01*
X340671Y769995D01*
X349812D02*
X351336Y771519D01*
X354383D01*
X355906Y769995D01*
Y768472D01*
X354383Y766948D01*
X352859D01*
X354383D01*
X355906Y765425D01*
Y763901D01*
X354383Y762378D01*
X351336D01*
X349812Y763901D01*
X850100Y665950D02*
X859241D01*
Y661379D01*
X857718Y659856D01*
X854671D01*
X853147Y661379D01*
Y665950D01*
Y662903D02*
X850100Y659856D01*
Y656809D02*
Y653762D01*
Y655285D01*
X859241D01*
X857718Y656809D01*
X851624Y649191D02*
X850100Y647668D01*
Y644621D01*
X851624Y643097D01*
X857718D01*
X859241Y644621D01*
Y647668D01*
X857718Y649191D01*
X856194D01*
X854671Y647668D01*
Y643097D01*
X384929Y762094D02*
Y771235D01*
X389500D01*
X391023Y769711D01*
Y766664D01*
X389500Y765141D01*
X384929D01*
X387976D02*
X391023Y762094D01*
X400164D02*
X394070D01*
X400164Y768188D01*
Y769711D01*
X398641Y771235D01*
X395594D01*
X394070Y769711D01*
X407782Y762094D02*
Y771235D01*
X403212Y766664D01*
X409305D01*
X694108Y296200D02*
Y305341D01*
X698678D01*
X700202Y303818D01*
Y300771D01*
X698678Y299247D01*
X694108D01*
X697155D02*
X700202Y296200D01*
X703249D02*
X706296D01*
X704772D01*
Y305341D01*
X703249Y303818D01*
X716961Y305341D02*
X713913Y303818D01*
X710866Y300771D01*
Y297724D01*
X712390Y296200D01*
X715437D01*
X716961Y297724D01*
Y299247D01*
X715437Y300771D01*
X710866D01*
X743135Y297200D02*
Y306341D01*
X747706D01*
X749229Y304818D01*
Y301771D01*
X747706Y300247D01*
X743135D01*
X746182D02*
X749229Y297200D01*
X752276D02*
X755323D01*
X753800D01*
Y306341D01*
X752276Y304818D01*
X759894Y306341D02*
X765988D01*
Y304818D01*
X759894Y298724D01*
Y297200D01*
X876300Y666650D02*
X885441D01*
Y662079D01*
X883917Y660556D01*
X880871D01*
X879347Y662079D01*
Y666650D01*
Y663603D02*
X876300Y660556D01*
Y651415D02*
Y657509D01*
X882394Y651415D01*
X883917D01*
X885441Y652938D01*
Y655985D01*
X883917Y657509D01*
Y648368D02*
X885441Y646844D01*
Y643797D01*
X883917Y642274D01*
X877823D01*
X876300Y643797D01*
Y646844D01*
X877823Y648368D01*
X883917D01*
X436080Y763110D02*
Y772251D01*
X440651D01*
X442174Y770728D01*
Y767681D01*
X440651Y766157D01*
X436080D01*
X439127D02*
X442174Y763110D01*
X451315D02*
X445221D01*
X451315Y769204D01*
Y770728D01*
X449792Y772251D01*
X446745D01*
X445221Y770728D01*
X460456Y772251D02*
X454362D01*
Y767681D01*
X457409Y769204D01*
X458933D01*
X460456Y767681D01*
Y764634D01*
X458933Y763110D01*
X455886D01*
X454362Y764634D01*
X795020Y703580D02*
X785879D01*
Y708150D01*
X787402Y709674D01*
X790450D01*
X791973Y708150D01*
Y703580D01*
Y706627D02*
X795020Y709674D01*
Y712721D02*
Y715768D01*
Y714245D01*
X785879D01*
X787402Y712721D01*
X795020Y720339D02*
Y723386D01*
Y721862D01*
X785879D01*
X787402Y720339D01*
X901700Y665950D02*
X910841D01*
Y661379D01*
X909317Y659856D01*
X906271D01*
X904747Y661379D01*
Y665950D01*
Y662903D02*
X901700Y659856D01*
Y650715D02*
Y656809D01*
X907794Y650715D01*
X909317D01*
X910841Y652238D01*
Y655285D01*
X909317Y656809D01*
X901700Y647668D02*
Y644621D01*
Y646144D01*
X910841D01*
X909317Y647668D01*
X673010Y659429D02*
Y668570D01*
X677581D01*
X679104Y667046D01*
Y663999D01*
X677581Y662476D01*
X673010D01*
X676057D02*
X679104Y659429D01*
X688245D02*
X682151D01*
X688245Y665523D01*
Y667046D01*
X686722Y668570D01*
X683675D01*
X682151Y667046D01*
X697386Y668570D02*
X694339Y667046D01*
X691292Y663999D01*
Y660952D01*
X692816Y659429D01*
X695863D01*
X697386Y660952D01*
Y662476D01*
X695863Y663999D01*
X691292D01*
X927100Y665950D02*
X936241D01*
Y661379D01*
X934717Y659856D01*
X931671D01*
X930147Y661379D01*
Y665950D01*
Y662903D02*
X927100Y659856D01*
Y650715D02*
Y656809D01*
X933194Y650715D01*
X934717D01*
X936241Y652238D01*
Y655285D01*
X934717Y656809D01*
X927100Y641574D02*
Y647668D01*
X933194Y641574D01*
X934717D01*
X936241Y643097D01*
Y646144D01*
X934717Y647668D01*
X900330Y841140D02*
X891189D01*
Y845710D01*
X892712Y847234D01*
X895759D01*
X897283Y845710D01*
Y841140D01*
Y844187D02*
X900330Y847234D01*
Y856375D02*
Y850281D01*
X894236Y856375D01*
X892712D01*
X891189Y854851D01*
Y851804D01*
X892712Y850281D01*
X891189Y859422D02*
Y865516D01*
X892712D01*
X898806Y859422D01*
X900330D01*
X716620Y562301D02*
Y571442D01*
X721191D01*
X722714Y569919D01*
Y566872D01*
X721191Y565348D01*
X716620D01*
X719667D02*
X722714Y562301D01*
X731855D02*
X725761D01*
X731855Y568395D01*
Y569919D01*
X730332Y571442D01*
X727285D01*
X725761Y569919D01*
X734902D02*
X736426Y571442D01*
X739473D01*
X740996Y569919D01*
Y568395D01*
X739473Y566872D01*
X740996Y565348D01*
Y563825D01*
X739473Y562301D01*
X736426D01*
X734902Y563825D01*
Y565348D01*
X736426Y566872D01*
X734902Y568395D01*
Y569919D01*
X736426Y566872D02*
X739473D01*
X114750Y781050D02*
Y790191D01*
X119321D01*
X120844Y788668D01*
Y785620D01*
X119321Y784097D01*
X114750D01*
X117797D02*
X120844Y781050D01*
X123891Y788668D02*
X125415Y790191D01*
X128462D01*
X129985Y788668D01*
Y787144D01*
X128462Y785620D01*
X126938D01*
X128462D01*
X129985Y784097D01*
Y782573D01*
X128462Y781050D01*
X125415D01*
X123891Y782573D01*
X133032Y788668D02*
X134556Y790191D01*
X137603D01*
X139126Y788668D01*
Y782573D01*
X137603Y781050D01*
X134556D01*
X133032Y782573D01*
Y788668D01*
X717820Y531900D02*
Y541041D01*
X722391D01*
X723914Y539518D01*
Y536471D01*
X722391Y534947D01*
X717820D01*
X720867D02*
X723914Y531900D01*
X733055D02*
X726961D01*
X733055Y537994D01*
Y539518D01*
X731532Y541041D01*
X728485D01*
X726961Y539518D01*
X736102Y533424D02*
X737626Y531900D01*
X740673D01*
X742196Y533424D01*
Y539518D01*
X740673Y541041D01*
X737626D01*
X736102Y539518D01*
Y537994D01*
X737626Y536471D01*
X742196D01*
X298194Y394967D02*
X296670Y396491D01*
X293624D01*
X292100Y394967D01*
Y393444D01*
X293624Y391921D01*
X296670D01*
X298194Y390397D01*
Y388873D01*
X296670Y387350D01*
X293624D01*
X292100Y388873D01*
X301241Y387350D02*
X304288D01*
X302765D01*
Y396491D01*
X301241Y394967D01*
X393444Y299718D02*
X391921Y301241D01*
X388873D01*
X387350Y299718D01*
Y298194D01*
X388873Y296670D01*
X391921D01*
X393444Y295147D01*
Y293624D01*
X391921Y292100D01*
X388873D01*
X387350Y293624D01*
X402585Y292100D02*
X396491D01*
X402585Y298194D01*
Y299718D01*
X401062Y301241D01*
X398015D01*
X396491Y299718D01*
X177544Y45718D02*
X176021Y47241D01*
X172973D01*
X171450Y45718D01*
Y44194D01*
X172973Y42670D01*
X176021D01*
X177544Y41147D01*
Y39623D01*
X176021Y38100D01*
X172973D01*
X171450Y39623D01*
X180591Y45718D02*
X182115Y47241D01*
X185162D01*
X186685Y45718D01*
Y44194D01*
X185162Y42670D01*
X183638D01*
X185162D01*
X186685Y41147D01*
Y39623D01*
X185162Y38100D01*
X182115D01*
X180591Y39623D01*
X37844Y191768D02*
X36321Y193291D01*
X33273D01*
X31750Y191768D01*
Y190244D01*
X33273Y188720D01*
X36321D01*
X37844Y187197D01*
Y185674D01*
X36321Y184150D01*
X33273D01*
X31750Y185674D01*
X45462Y184150D02*
Y193291D01*
X40891Y188720D01*
X46985D01*
X636294Y268150D02*
X634771Y269674D01*
X631724D01*
X630200Y268150D01*
Y266627D01*
X631724Y265103D01*
X634771D01*
X636294Y263580D01*
Y262056D01*
X634771Y260533D01*
X631724D01*
X630200Y262056D01*
X645435Y269674D02*
X639341D01*
Y265103D01*
X642388Y266627D01*
X643912D01*
X645435Y265103D01*
Y262056D01*
X643912Y260533D01*
X640865D01*
X639341Y262056D01*
X796594Y305445D02*
X795070Y306969D01*
X792023D01*
X790500Y305445D01*
Y303922D01*
X792023Y302398D01*
X795070D01*
X796594Y300875D01*
Y299351D01*
X795070Y297828D01*
X792023D01*
X790500Y299351D01*
X805735Y306969D02*
X802688Y305445D01*
X799641Y302398D01*
Y299351D01*
X801164Y297828D01*
X804212D01*
X805735Y299351D01*
Y300875D01*
X804212Y302398D01*
X799641D01*
X391078Y829206D02*
X392602Y830730D01*
Y833777D01*
X391078Y835300D01*
X389554D01*
X388031Y833777D01*
Y830730D01*
X386507Y829206D01*
X384984D01*
X383461Y830730D01*
Y833777D01*
X384984Y835300D01*
X392602Y826159D02*
Y820065D01*
X391078D01*
X384984Y826159D01*
X383461D01*
X783565Y517141D02*
Y509524D01*
X785088Y508000D01*
X788135D01*
X789659Y509524D01*
Y517141D01*
X798800Y508000D02*
X792706D01*
X798800Y514094D01*
Y515617D01*
X797276Y517141D01*
X794229D01*
X792706Y515617D01*
X728341Y406400D02*
X720724D01*
X719200Y404877D01*
Y401829D01*
X720724Y400306D01*
X728341D01*
X719200Y392688D02*
X728341D01*
X723771Y397259D01*
Y391165D01*
X15050Y607306D02*
Y599688D01*
X16574Y598165D01*
X19621D01*
X21144Y599688D01*
Y607306D01*
X30285D02*
X24191D01*
Y602735D01*
X27238Y604259D01*
X28762D01*
X30285Y602735D01*
Y599688D01*
X28762Y598165D01*
X25715D01*
X24191Y599688D01*
X541890Y546561D02*
Y538943D01*
X543414Y537420D01*
X546461D01*
X547984Y538943D01*
Y546561D01*
X551031Y537420D02*
X554078D01*
X552555D01*
Y546561D01*
X551031Y545037D01*
X858520Y771141D02*
Y763523D01*
X860043Y762000D01*
X863091D01*
X864614Y763523D01*
Y771141D01*
X873755D02*
X870708Y769617D01*
X867661Y766571D01*
Y763523D01*
X869185Y762000D01*
X872232D01*
X873755Y763523D01*
Y765047D01*
X872232Y766571D01*
X867661D01*
X143060Y570204D02*
Y568680D01*
X146107Y565633D01*
X149154Y568680D01*
Y570204D01*
X146107Y565633D02*
Y561063D01*
X152201D02*
X155248D01*
X153724D01*
Y570204D01*
X152201Y568680D01*
X466539Y319404D02*
Y310263D01*
X471110D01*
X472634Y311786D01*
Y317880D01*
X471110Y319404D01*
X466539D01*
X475681Y310263D02*
X478728D01*
X477204D01*
Y319404D01*
X475681Y317880D01*
X464820Y284054D02*
Y274913D01*
X469390D01*
X470914Y276436D01*
Y282530D01*
X469390Y284054D01*
X464820D01*
X480055Y274913D02*
X473961D01*
X480055Y281007D01*
Y282530D01*
X478532Y284054D01*
X475485D01*
X473961Y282530D01*
X593290Y313650D02*
Y322791D01*
X597860D01*
X599384Y321267D01*
Y318220D01*
X597860Y316697D01*
X593290D01*
X596337D02*
X599384Y313650D01*
X602431D02*
X605478D01*
X603954D01*
Y322791D01*
X602431Y321267D01*
X593290Y275434D02*
Y284575D01*
X597860D01*
X599384Y283051D01*
Y280004D01*
X597860Y278480D01*
X593290D01*
X596337D02*
X599384Y275434D01*
X608525D02*
X602431D01*
X608525Y281528D01*
Y283051D01*
X607001Y284575D01*
X603954D01*
X602431Y283051D01*
X232154Y761998D02*
X230630Y763521D01*
X227584D01*
X226060Y761998D01*
Y755903D01*
X227584Y754380D01*
X230630D01*
X232154Y755903D01*
X241295Y754380D02*
X235201D01*
X241295Y760474D01*
Y761998D01*
X239772Y763521D01*
X236725D01*
X235201Y761998D01*
X250436Y754380D02*
X244342D01*
X250436Y760474D01*
Y761998D01*
X248913Y763521D01*
X245866D01*
X244342Y761998D01*
X280414Y530858D02*
X278890Y532381D01*
X275844D01*
X274320Y530858D01*
Y524763D01*
X275844Y523240D01*
X278890D01*
X280414Y524763D01*
X289555Y523240D02*
X283461D01*
X289555Y529334D01*
Y530858D01*
X288032Y532381D01*
X284985D01*
X283461Y530858D01*
X292602D02*
X294126Y532381D01*
X297173D01*
X298696Y530858D01*
Y529334D01*
X297173Y527811D01*
X295649D01*
X297173D01*
X298696Y526287D01*
Y524763D01*
X297173Y523240D01*
X294126D01*
X292602Y524763D01*
X378428Y687557D02*
X379951Y689080D01*
Y692127D01*
X378428Y693651D01*
X372333D01*
X370810Y692127D01*
Y689080D01*
X372333Y687557D01*
X370810Y678416D02*
Y684510D01*
X376904Y678416D01*
X378428D01*
X379951Y679939D01*
Y682986D01*
X378428Y684510D01*
X370810Y670798D02*
X379951D01*
X375381Y675368D01*
Y669275D01*
X270254Y457197D02*
X268731Y458721D01*
X265683D01*
X264160Y457197D01*
Y451104D01*
X265683Y449580D01*
X268731D01*
X270254Y451104D01*
X279395Y449580D02*
X273301D01*
X279395Y455674D01*
Y457197D01*
X277872Y458721D01*
X274825D01*
X273301Y457197D01*
X288536Y458721D02*
X282442D01*
Y454151D01*
X285489Y455674D01*
X287013D01*
X288536Y454151D01*
Y451104D01*
X287013Y449580D01*
X283966D01*
X282442Y451104D01*
X379777Y654041D02*
X381301Y655564D01*
Y658611D01*
X379777Y660135D01*
X373683D01*
X372160Y658611D01*
Y655564D01*
X373683Y654041D01*
X372160Y644900D02*
Y650994D01*
X378254Y644900D01*
X379777D01*
X381301Y646423D01*
Y649470D01*
X379777Y650994D01*
X381301Y635759D02*
X379777Y638806D01*
X376730Y641853D01*
X373683D01*
X372160Y640329D01*
Y637282D01*
X373683Y635759D01*
X375207D01*
X376730Y637282D01*
Y641853D01*
X272794Y761741D02*
X271271Y763265D01*
X268223D01*
X266700Y761741D01*
Y755647D01*
X268223Y754124D01*
X271271D01*
X272794Y755647D01*
X281935Y754124D02*
X275841D01*
X281935Y760218D01*
Y761741D01*
X280412Y763265D01*
X277365D01*
X275841Y761741D01*
X284982D02*
X286506Y763265D01*
X289553D01*
X291076Y761741D01*
Y760218D01*
X289553Y758694D01*
X291076Y757171D01*
Y755647D01*
X289553Y754124D01*
X286506D01*
X284982Y755647D01*
Y757171D01*
X286506Y758694D01*
X284982Y760218D01*
Y761741D01*
X286506Y758694D02*
X289553D01*
X295910Y706691D02*
Y699074D01*
X297433Y697550D01*
X300480D01*
X302004Y699074D01*
Y706691D01*
X305051Y705168D02*
X306575Y706691D01*
X309622D01*
X311145Y705168D01*
Y703644D01*
X309622Y702121D01*
X308098D01*
X309622D01*
X311145Y700597D01*
Y699074D01*
X309622Y697550D01*
X306575D01*
X305051Y699074D01*
D15*
X558180Y535420D02*
Y537920D01*
X560680D01*
X625680D02*
X628180D01*
Y535420D02*
Y537920D01*
X558180Y467920D02*
Y470420D01*
Y467920D02*
X560680D01*
X625680D02*
X628180D01*
Y470420D01*
D16*
X724786Y689766D02*
Y700354D01*
X756234Y689766D02*
Y700354D01*
X737416Y687146D02*
X743464D01*
X670321Y689766D02*
Y700354D01*
X701769Y689766D02*
Y700354D01*
X682951Y687146D02*
X688999D01*
D17*
X737870Y751840D02*
Y760977D01*
X742439D01*
X743961Y759454D01*
Y756408D01*
X742439Y754886D01*
X737870D01*
X740916D02*
X743961Y751840D01*
X751576D02*
Y760977D01*
X747007Y756408D01*
X753098D01*
X760713Y751840D02*
Y760977D01*
X756144Y756408D01*
X762235D01*
X708503Y711459D02*
X714594D01*
X716117Y712981D01*
Y716027D01*
X714594Y717550D01*
X708503D01*
X706980Y716027D01*
Y712981D01*
X710026Y714504D02*
X706980Y711459D01*
Y712981D02*
X708503Y711459D01*
X706980Y708413D02*
Y705367D01*
Y706890D01*
X716117D01*
X714594Y708413D01*
X763833Y707858D02*
X769924D01*
X771447Y709381D01*
Y712427D01*
X769924Y713950D01*
X763833D01*
X762310Y712427D01*
Y709381D01*
X765356Y710904D02*
X762310Y707858D01*
Y709381D02*
X763833Y707858D01*
X762310Y698721D02*
Y704813D01*
X768401Y698721D01*
X769924D01*
X771447Y700244D01*
Y703290D01*
X769924Y704813D01*
X873241Y841000D02*
X864104D01*
Y845568D01*
X865627Y847091D01*
X868672D01*
X870195Y845568D01*
Y841000D01*
Y844046D02*
X873241Y847091D01*
Y854706D02*
X864104D01*
X868672Y850137D01*
Y856228D01*
X865627Y859274D02*
X864104Y860797D01*
Y863842D01*
X865627Y865365D01*
X871718D01*
X873241Y863842D01*
Y860797D01*
X871718Y859274D01*
X865627D01*
X731461Y658457D02*
Y667594D01*
X736030D01*
X737552Y666071D01*
Y663026D01*
X736030Y661503D01*
X731461D01*
X734507D02*
X737552Y658457D01*
X745167D02*
Y667594D01*
X740598Y663026D01*
X746690D01*
X749735Y658457D02*
X752781D01*
X751258D01*
Y667594D01*
X749735Y666071D01*
X667543Y751078D02*
Y760215D01*
X672112D01*
X673634Y758692D01*
Y755646D01*
X672112Y754124D01*
X667543D01*
X670589D02*
X673634Y751078D01*
X681248D02*
Y760215D01*
X676680Y755646D01*
X682771D01*
X685817Y758692D02*
X687340Y760215D01*
X690386D01*
X691908Y758692D01*
Y757169D01*
X690386Y755646D01*
X688863D01*
X690386D01*
X691908Y754124D01*
Y752601D01*
X690386Y751078D01*
X687340D01*
X685817Y752601D01*
M02*
