G04 Layer_Color=65535*
%FSLAX44Y44*%
%MOMM*%
G71*
G01*
G75*
%ADD30C,0.2000*%
%ADD41C,0.6000*%
%ADD42C,0.2500*%
%ADD43C,0.2540*%
%ADD44C,0.2032*%
G36*
X537250Y492350D02*
X533000D01*
Y493840D01*
X535760Y496600D01*
X537250D01*
Y492350D01*
D02*
G37*
D30*
Y496600D02*
G03*
X533000Y492350I0J-4250D01*
G01*
X290150Y516300D02*
Y601300D01*
X205150Y516300D02*
Y601300D01*
X290150D01*
X205150Y516300D02*
X290150D01*
X218500Y665350D02*
Y702350D01*
X151500D02*
X218500D01*
X151500Y665350D02*
Y702350D01*
Y665350D02*
X218500D01*
X533000Y546350D02*
X537250D01*
Y542100D02*
Y546350D01*
X483250D02*
X487500D01*
X483250Y542100D02*
Y546350D01*
Y492350D02*
Y496600D01*
Y492350D02*
X487500D01*
X533000D02*
X537250D01*
Y496600D01*
X16950Y537850D02*
X66950D01*
X16950Y559850D02*
X66950D01*
X16950Y537850D02*
Y559850D01*
X66950Y537850D02*
Y559850D01*
X851500Y459350D02*
Y546350D01*
X764500D02*
X851500D01*
X764500Y459350D02*
X851500D01*
X764500D02*
Y546350D01*
X226892Y410458D02*
X312204Y325146D01*
X226892Y239834D02*
X312204Y325146D01*
X141579D02*
X226892Y239834D01*
X141579Y325146D02*
X226892Y410458D01*
X305000Y650350D02*
X313000D01*
X305000Y635350D02*
X313000D01*
X988100Y780150D02*
Y805550D01*
X937300D02*
X988100D01*
X937300Y780150D02*
Y805550D01*
Y780150D02*
X988100D01*
X812800Y749300D02*
Y800100D01*
X685800D02*
X812800D01*
X685800Y749300D02*
X812800D01*
X685800D02*
Y800100D01*
X636367Y839116D02*
X640600Y843350D01*
X644833Y839116D01*
X615200Y843350D02*
X619433Y839116D01*
X636367Y805250D02*
Y839116D01*
X619433Y805250D02*
Y839116D01*
X610966D02*
X615200Y843350D01*
X589800D02*
X594033Y839116D01*
X585566D02*
X589800Y843350D01*
X568633Y805250D02*
Y839116D01*
X649066Y792550D02*
X653300Y796783D01*
Y792550D02*
Y805250D01*
X644833D02*
Y839116D01*
X610966Y805250D02*
Y839116D01*
X594033Y805250D02*
Y839116D01*
X585566Y805250D02*
Y839116D01*
X560167D02*
X564400Y843350D01*
X568633Y839116D01*
X539000Y843350D02*
X543233Y839116D01*
X560167Y805250D02*
Y839116D01*
X543233Y805250D02*
Y839116D01*
X534767D02*
X539000Y843350D01*
X513600D02*
X517833Y839116D01*
X534767Y805250D02*
Y839116D01*
X509367D02*
X513600Y843350D01*
X500900Y792550D02*
X653300D01*
X500900Y805250D02*
X653300D01*
X517833D02*
Y839116D01*
X509367Y805250D02*
Y839116D01*
X500900Y792550D02*
Y805250D01*
X222450Y802730D02*
Y810849D01*
X222453Y763897D02*
Y775970D01*
X221140Y763897D02*
X222453D01*
X147550Y810849D02*
X222450D01*
X147547Y802730D02*
Y810850D01*
Y763850D02*
X148850D01*
X147547D02*
Y775970D01*
X445200Y711284D02*
X486000D01*
X386000D02*
X426800D01*
X395350Y906850D02*
X476650D01*
X386002Y711104D02*
Y811670D01*
X486000Y711284D02*
Y811850D01*
X395350D02*
Y906850D01*
X476650Y811850D02*
Y906850D01*
X386000Y811850D02*
X486000D01*
X686000Y518350D02*
X694000D01*
X686000Y503350D02*
X694000D01*
X809000Y602350D02*
X817000D01*
X809000Y587350D02*
X817000D01*
X820500Y288350D02*
X828500D01*
X820500Y303350D02*
X828500D01*
X648500Y303350D02*
X656500D01*
X648500Y288350D02*
X656500D01*
X516700Y134500D02*
X524700D01*
X516700Y119500D02*
X524700D01*
X322200Y711284D02*
X363000D01*
X263000D02*
X303800D01*
X272350Y906850D02*
X353650D01*
X263002Y711104D02*
Y811670D01*
X363000Y711284D02*
Y811850D01*
X272350D02*
Y906850D01*
X353650Y811850D02*
Y906850D01*
X263000Y811850D02*
X363000D01*
X472250Y642500D02*
X480250D01*
X472250Y627500D02*
X480250D01*
X246500Y701850D02*
Y709850D01*
X231500Y701850D02*
Y709850D01*
X131500Y703850D02*
Y711850D01*
X116500Y703850D02*
Y711850D01*
X131500Y657850D02*
Y665850D01*
X116500Y657850D02*
Y665850D01*
X722500Y556850D02*
Y564850D01*
X707500Y556850D02*
Y564850D01*
X811000Y404350D02*
X819000D01*
X811000Y389350D02*
X819000D01*
X907500Y461850D02*
Y469850D01*
X892500Y461850D02*
Y469850D01*
X908500Y528850D02*
Y536850D01*
X893500Y528850D02*
Y536850D01*
X332550Y483750D02*
X340550D01*
X332550Y468750D02*
X340550D01*
X305500Y658350D02*
X313500D01*
X305500Y673350D02*
X313500D01*
X250000Y452000D02*
X258000D01*
X250000Y437000D02*
X258000D01*
X83700Y396050D02*
Y404050D01*
X68700Y396050D02*
Y404050D01*
X58300Y396050D02*
Y404050D01*
X43300Y396050D02*
Y404050D01*
X32900Y396050D02*
Y404050D01*
X17900Y396050D02*
Y404050D01*
X48000Y499350D02*
X56000D01*
X48000Y484350D02*
X56000D01*
X865500Y688850D02*
Y696850D01*
X850500Y688850D02*
Y696850D01*
X635000Y646350D02*
X643000D01*
X635000Y661350D02*
X643000D01*
X472250Y667900D02*
X480250D01*
X472250Y652900D02*
X480250D01*
X635000Y636350D02*
X643000D01*
X635000Y621350D02*
X643000D01*
X42500Y664350D02*
Y672350D01*
X27500Y664350D02*
Y672350D01*
X340608Y296867D02*
X425921Y211554D01*
X340608Y126242D02*
X425921Y211554D01*
X255296D02*
X340608Y126242D01*
X255296Y211554D02*
X340608Y296867D01*
X230220Y188255D02*
X315532Y102942D01*
X230220Y17630D02*
X315532Y102942D01*
X144908D02*
X230220Y17630D01*
X144908Y102942D02*
X230220Y188255D01*
X117786Y301103D02*
X203099Y215791D01*
X117786Y130478D02*
X203099Y215791D01*
X32474D02*
X117786Y130478D01*
X32474Y215791D02*
X117786Y301103D01*
X715560Y148390D02*
Y269040D01*
X594910D02*
X715560D01*
X594910Y148390D02*
X715560D01*
X594910D02*
Y269040D01*
X885560Y148390D02*
Y269040D01*
X764910D02*
X885560D01*
X764910Y148390D02*
X885560D01*
X764910D02*
Y269040D01*
X487000Y409350D02*
X495000D01*
X487000Y394350D02*
X495000D01*
X485998Y437349D02*
X493997D01*
X485998Y422349D02*
X493997D01*
X878000Y-150D02*
X1000000Y121850D01*
X692000Y-150D02*
X878000D01*
X617000Y74850D02*
X692000Y-150D01*
X393000Y74850D02*
X617000D01*
X377000Y58850D02*
X393000Y74850D01*
X318150Y0D02*
X377000Y58850D01*
X172850Y0D02*
X318150D01*
X0Y172850D02*
X172850Y0D01*
X0Y172850D02*
Y815850D01*
X1000000D01*
Y121850D02*
Y815850D01*
D41*
X218150Y526300D02*
G03*
X218150Y526300I-3000J0D01*
G01*
X777500Y536350D02*
G03*
X777500Y536350I-3000J0D01*
G01*
D42*
X204400Y503300D02*
G03*
X204400Y503300I-1250J0D01*
G01*
X209250Y730850D02*
G03*
X209250Y730850I-1250J0D01*
G01*
X545000Y501470D02*
G03*
X545000Y501470I-1250J0D01*
G01*
X15650Y523850D02*
G03*
X15650Y523850I-1250J0D01*
G01*
X752750Y551100D02*
G03*
X752750Y551100I-1250J0D01*
G01*
X199250Y750100D02*
G03*
X199250Y750100I-1250J0D01*
G01*
D43*
X989000Y670350D02*
Y735350D01*
X897000D02*
X989000D01*
X891500Y740351D02*
X897000Y734850D01*
Y670350D02*
X989000D01*
X897000D02*
Y734850D01*
X707000Y445850D02*
Y481850D01*
X702000D02*
X707000D01*
X702000Y445850D02*
X707000D01*
X653000Y481850D02*
X658000D01*
X653000Y451100D02*
Y481850D01*
Y451100D02*
X658000Y446100D01*
X83000Y811850D02*
Y833850D01*
X108000Y751850D02*
Y811850D01*
X43000Y833850D02*
X83000D01*
X18000Y811850D02*
X108000D01*
X43000D02*
Y833850D01*
X18000Y751850D02*
X108000D01*
X18000D02*
Y811850D01*
D44*
X369000Y650264D02*
X383000D01*
X354936Y639850D02*
X362810Y646200D01*
Y633500D02*
Y646200D01*
X354936Y633500D02*
Y639850D01*
X362810Y633500D01*
X383000Y629850D02*
Y649850D01*
X369000Y629690D02*
X383000D01*
X335000Y649850D02*
X349000D01*
X354936Y639850D02*
Y646200D01*
X335000Y629850D02*
X349000D01*
X335000D02*
Y649850D01*
X370000Y676264D02*
X384000D01*
X355936Y665850D02*
X363810Y672200D01*
Y659500D02*
Y672200D01*
X355936Y659500D02*
Y665850D01*
X363810Y659500D01*
X384000Y655850D02*
Y675850D01*
X370000Y655690D02*
X384000D01*
X336000Y675850D02*
X350000D01*
X355936Y665850D02*
Y672200D01*
X336000Y655850D02*
X350000D01*
X336000D02*
Y675850D01*
X704000Y663264D02*
X718000D01*
X689936Y652850D02*
X697810Y659200D01*
Y646500D02*
Y659200D01*
X689936Y646500D02*
Y652850D01*
X697810Y646500D01*
X718000Y642850D02*
Y662850D01*
X704000Y642690D02*
X718000D01*
X670000Y662850D02*
X684000D01*
X689936Y652850D02*
Y659200D01*
X670000Y642850D02*
X684000D01*
X670000D02*
Y662850D01*
X704000Y636264D02*
X718000D01*
X689936Y625850D02*
X697810Y632200D01*
Y619500D02*
Y632200D01*
X689936Y619500D02*
Y625850D01*
X697810Y619500D01*
X718000Y615850D02*
Y635850D01*
X704000Y615690D02*
X718000D01*
X670000Y635850D02*
X684000D01*
X689936Y625850D02*
Y632200D01*
X670000Y615850D02*
X684000D01*
X670000D02*
Y635850D01*
X71000Y680850D02*
Y694849D01*
X61000Y674914D02*
X67350D01*
X61000D02*
X67350Y667040D01*
X54650Y674914D02*
X61000D01*
X54650Y667040D02*
X61000Y674914D01*
X71414Y646850D02*
Y660850D01*
X54650Y667040D02*
X67350D01*
X51000Y694849D02*
X71000D01*
X51000Y680850D02*
Y694849D01*
Y646850D02*
X71000D01*
X50840D02*
Y660850D01*
X552000Y409850D02*
X566000D01*
X546064Y399850D02*
Y406200D01*
X538190D02*
X546064Y399850D01*
Y393500D02*
Y399850D01*
X538190Y393500D02*
X546064Y399850D01*
X566000Y389850D02*
Y409850D01*
X552000Y389850D02*
X566000D01*
X538190Y393500D02*
Y406200D01*
X518000Y410010D02*
X532000D01*
X518000Y389850D02*
Y409850D01*
Y389436D02*
X532000D01*
X552000Y439850D02*
X566000D01*
X546064Y429850D02*
Y436200D01*
X538190D02*
X546064Y429850D01*
Y423500D02*
Y429850D01*
X538190Y423500D02*
X546064Y429850D01*
X566000Y419850D02*
Y439850D01*
X552000Y419850D02*
X566000D01*
X538190Y423500D02*
Y436200D01*
X518000Y440010D02*
X532000D01*
X518000Y419850D02*
Y439850D01*
Y419436D02*
X532000D01*
X298450Y618741D02*
Y611124D01*
X299974Y609600D01*
X303020D01*
X304544Y611124D01*
Y618741D01*
X307591Y609600D02*
X310638D01*
X309115D01*
Y618741D01*
X307591Y617217D01*
X225000Y666991D02*
Y659373D01*
X226523Y657850D01*
X229571D01*
X231094Y659373D01*
Y666991D01*
X234141D02*
X240235D01*
Y665468D01*
X234141Y659373D01*
Y657850D01*
X897000Y660991D02*
Y653373D01*
X898523Y651850D01*
X901571D01*
X903094Y653373D01*
Y660991D01*
X912235D02*
X909188Y659467D01*
X906141Y656421D01*
Y653373D01*
X907665Y651850D01*
X910712D01*
X912235Y653373D01*
Y654897D01*
X910712Y656421D01*
X906141D01*
X475000Y562991D02*
Y555373D01*
X476524Y553850D01*
X479571D01*
X481094Y555373D01*
Y562991D01*
X490235D02*
X484141D01*
Y558420D01*
X487188Y559944D01*
X488712D01*
X490235Y558420D01*
Y555373D01*
X488712Y553850D01*
X485665D01*
X484141Y555373D01*
X13970Y602993D02*
Y595376D01*
X15494Y593852D01*
X18541D01*
X20064Y595376D01*
Y602993D01*
X27682Y593852D02*
Y602993D01*
X23111Y598423D01*
X29205D01*
X633000Y476991D02*
Y469374D01*
X634524Y467850D01*
X637570D01*
X639094Y469374D01*
Y476991D01*
X642141Y475467D02*
X643665Y476991D01*
X646712D01*
X648235Y475467D01*
Y473944D01*
X646712Y472421D01*
X645188D01*
X646712D01*
X648235Y470897D01*
Y469374D01*
X646712Y467850D01*
X643665D01*
X642141Y469374D01*
X741934Y586991D02*
Y579374D01*
X743457Y577850D01*
X746505D01*
X748028Y579374D01*
Y586991D01*
X757169Y577850D02*
X751075D01*
X757169Y583944D01*
Y585467D01*
X755646Y586991D01*
X752599D01*
X751075Y585467D01*
X25094Y742467D02*
X23570Y743991D01*
X20524D01*
X19000Y742467D01*
Y740944D01*
X20524Y739420D01*
X23570D01*
X25094Y737897D01*
Y736374D01*
X23570Y734850D01*
X20524D01*
X19000Y736374D01*
X28141Y743991D02*
X34235D01*
Y742467D01*
X28141Y736374D01*
Y734850D01*
X285494Y388618D02*
X283971Y390141D01*
X280924D01*
X279400Y388618D01*
Y387094D01*
X280924Y385570D01*
X283971D01*
X285494Y384047D01*
Y382523D01*
X283971Y381000D01*
X280924D01*
X279400Y382523D01*
X288541Y381000D02*
X291588D01*
X290065D01*
Y390141D01*
X288541Y388618D01*
X269000Y638850D02*
Y647991D01*
X273570D01*
X275094Y646468D01*
Y643420D01*
X273570Y641897D01*
X269000D01*
X272047D02*
X275094Y638850D01*
X278141D02*
X281188D01*
X279665D01*
Y647991D01*
X278141Y646468D01*
X912000Y788850D02*
Y797991D01*
X916571D01*
X918094Y796468D01*
Y793420D01*
X916571Y791897D01*
X912000D01*
X925712Y788850D02*
Y797991D01*
X921141Y793420D01*
X927235D01*
X687000Y733850D02*
Y742991D01*
X691571D01*
X693094Y741468D01*
Y738420D01*
X691571Y736897D01*
X687000D01*
X696141Y741468D02*
X697665Y742991D01*
X700712D01*
X702235Y741468D01*
Y739944D01*
X700712Y738420D01*
X699188D01*
X700712D01*
X702235Y736897D01*
Y735374D01*
X700712Y733850D01*
X697665D01*
X696141Y735374D01*
X821000Y781850D02*
X825232D01*
X823116D01*
Y794546D01*
X821000Y792430D01*
X831580D02*
X833696Y794546D01*
X837928D01*
X840044Y792430D01*
Y783966D01*
X837928Y781850D01*
X833696D01*
X831580Y783966D01*
Y792430D01*
X821000Y758966D02*
X823116Y756850D01*
X827348D01*
X829464Y758966D01*
Y767430D01*
X827348Y769546D01*
X823116D01*
X821000Y767430D01*
Y765314D01*
X823116Y763198D01*
X829464D01*
X680464Y781850D02*
X672000D01*
X680464Y790314D01*
Y792430D01*
X678348Y794546D01*
X674116D01*
X672000Y792430D01*
X675000Y756850D02*
X679232D01*
X677116D01*
Y769546D01*
X675000Y767430D01*
X600000Y753850D02*
Y762991D01*
X604571D01*
X606094Y761468D01*
Y758420D01*
X604571Y756897D01*
X600000D01*
X615235Y753850D02*
X609141D01*
X615235Y759944D01*
Y761468D01*
X613712Y762991D01*
X610665D01*
X609141Y761468D01*
X125000Y765850D02*
Y774991D01*
X129571D01*
X131094Y773467D01*
Y770421D01*
X129571Y768897D01*
X125000D01*
X134141Y765850D02*
X137188D01*
X135665D01*
Y774991D01*
X134141Y773467D01*
X498094Y734991D02*
X495047D01*
X496571D01*
Y727374D01*
X495047Y725850D01*
X493523D01*
X492000Y727374D01*
X501141Y725850D02*
X504188D01*
X502665D01*
Y734991D01*
X501141Y733467D01*
X392000Y643991D02*
Y634850D01*
X396571D01*
X398094Y636373D01*
Y642467D01*
X396571Y643991D01*
X392000D01*
X401141Y634850D02*
X404188D01*
X402665D01*
Y643991D01*
X401141Y642467D01*
X653094Y513467D02*
X651571Y514991D01*
X648523D01*
X647000Y513467D01*
Y507374D01*
X648523Y505850D01*
X651571D01*
X653094Y507374D01*
X656141Y513467D02*
X657665Y514991D01*
X660712D01*
X662235Y513467D01*
Y511944D01*
X660712Y510420D01*
X659188D01*
X660712D01*
X662235Y508897D01*
Y507374D01*
X660712Y505850D01*
X657665D01*
X656141Y507374D01*
X554094Y130468D02*
X552570Y131991D01*
X549524D01*
X548000Y130468D01*
Y124374D01*
X549524Y122850D01*
X552570D01*
X554094Y124374D01*
X563235Y131991D02*
X557141D01*
Y127421D01*
X560188Y128944D01*
X561712D01*
X563235Y127421D01*
Y124374D01*
X561712Y122850D01*
X558665D01*
X557141Y124374D01*
X507744Y636268D02*
X506221Y637791D01*
X503173D01*
X501650Y636268D01*
Y630173D01*
X503173Y628650D01*
X506221D01*
X507744Y630173D01*
X516885Y637791D02*
X513838Y636268D01*
X510791Y633220D01*
Y630173D01*
X512315Y628650D01*
X515362D01*
X516885Y630173D01*
Y631697D01*
X515362Y633220D01*
X510791D01*
X238094Y739467D02*
X236570Y740991D01*
X233524D01*
X232000Y739467D01*
Y733373D01*
X233524Y731850D01*
X236570D01*
X238094Y733373D01*
X241141Y740991D02*
X247235D01*
Y739467D01*
X241141Y733373D01*
Y731850D01*
X96094Y710468D02*
X94571Y711991D01*
X91524D01*
X90000Y710468D01*
Y704373D01*
X91524Y702850D01*
X94571D01*
X96094Y704373D01*
X99141Y710468D02*
X100665Y711991D01*
X103712D01*
X105235Y710468D01*
Y708944D01*
X103712Y707421D01*
X105235Y705897D01*
Y704373D01*
X103712Y702850D01*
X100665D01*
X99141Y704373D01*
Y705897D01*
X100665Y707421D01*
X99141Y708944D01*
Y710468D01*
X100665Y707421D02*
X103712D01*
X96094Y665468D02*
X94571Y666991D01*
X91524D01*
X90000Y665468D01*
Y659373D01*
X91524Y657850D01*
X94571D01*
X96094Y659373D01*
X99141D02*
X100665Y657850D01*
X103712D01*
X105235Y659373D01*
Y665468D01*
X103712Y666991D01*
X100665D01*
X99141Y665468D01*
Y663944D01*
X100665Y662421D01*
X105235D01*
X806094Y619468D02*
X804570Y620991D01*
X801524D01*
X800000Y619468D01*
Y613373D01*
X801524Y611850D01*
X804570D01*
X806094Y613373D01*
X809141Y611850D02*
X812188D01*
X810665D01*
Y620991D01*
X809141Y619468D01*
X816759D02*
X818282Y620991D01*
X821329D01*
X822853Y619468D01*
Y613373D01*
X821329Y611850D01*
X818282D01*
X816759Y613373D01*
Y619468D01*
X681094Y564468D02*
X679570Y565991D01*
X676524D01*
X675000Y564468D01*
Y558373D01*
X676524Y556850D01*
X679570D01*
X681094Y558373D01*
X684141Y556850D02*
X687188D01*
X685665D01*
Y565991D01*
X684141Y564468D01*
X691759Y556850D02*
X694806D01*
X693282D01*
Y565991D01*
X691759Y564468D01*
X771094Y398467D02*
X769570Y399991D01*
X766524D01*
X765000Y398467D01*
Y392374D01*
X766524Y390850D01*
X769570D01*
X771094Y392374D01*
X774141Y390850D02*
X777188D01*
X775665D01*
Y399991D01*
X774141Y398467D01*
X787853Y390850D02*
X781759D01*
X787853Y396944D01*
Y398467D01*
X786329Y399991D01*
X783282D01*
X781759Y398467D01*
X924094Y470467D02*
X922570Y471991D01*
X919523D01*
X918000Y470467D01*
Y464374D01*
X919523Y462850D01*
X922570D01*
X924094Y464374D01*
X927141Y462850D02*
X930188D01*
X928665D01*
Y471991D01*
X927141Y470467D01*
X934759D02*
X936282Y471991D01*
X939329D01*
X940853Y470467D01*
Y468944D01*
X939329Y467421D01*
X937806D01*
X939329D01*
X940853Y465897D01*
Y464374D01*
X939329Y462850D01*
X936282D01*
X934759Y464374D01*
X924094Y536468D02*
X922570Y537991D01*
X919523D01*
X918000Y536468D01*
Y530373D01*
X919523Y528850D01*
X922570D01*
X924094Y530373D01*
X927141Y528850D02*
X930188D01*
X928665D01*
Y537991D01*
X927141Y536468D01*
X939329Y528850D02*
Y537991D01*
X934759Y533420D01*
X940853D01*
X390000Y669991D02*
Y660850D01*
X394571D01*
X396094Y662374D01*
Y668467D01*
X394571Y669991D01*
X390000D01*
X405235Y660850D02*
X399141D01*
X405235Y666944D01*
Y668467D01*
X403712Y669991D01*
X400665D01*
X399141Y668467D01*
X724000Y654991D02*
Y645850D01*
X728570D01*
X730094Y647374D01*
Y653467D01*
X728570Y654991D01*
X724000D01*
X733141Y653467D02*
X734665Y654991D01*
X737712D01*
X739235Y653467D01*
Y651944D01*
X737712Y650421D01*
X736188D01*
X737712D01*
X739235Y648897D01*
Y647374D01*
X737712Y645850D01*
X734665D01*
X733141Y647374D01*
X724000Y627991D02*
Y618850D01*
X728570D01*
X730094Y620373D01*
Y626468D01*
X728570Y627991D01*
X724000D01*
X737712Y618850D02*
Y627991D01*
X733141Y623420D01*
X739235D01*
X56000Y713991D02*
Y704850D01*
X60571D01*
X62094Y706374D01*
Y712467D01*
X60571Y713991D01*
X56000D01*
X71235D02*
X65141D01*
Y709420D01*
X68188Y710944D01*
X69712D01*
X71235Y709420D01*
Y706374D01*
X69712Y704850D01*
X66665D01*
X65141Y706374D01*
X249094Y799991D02*
X246047D01*
X247570D01*
Y792374D01*
X246047Y790850D01*
X244524D01*
X243000Y792374D01*
X258235Y790850D02*
X252141D01*
X258235Y796944D01*
Y798467D01*
X256712Y799991D01*
X253665D01*
X252141Y798467D01*
X363000Y471850D02*
Y480991D01*
X367570D01*
X369094Y479468D01*
Y476421D01*
X367570Y474897D01*
X363000D01*
X366047D02*
X369094Y471850D01*
X378235D02*
X372141D01*
X378235Y477944D01*
Y479468D01*
X376712Y480991D01*
X373665D01*
X372141Y479468D01*
X268000Y659850D02*
Y668991D01*
X272570D01*
X274094Y667467D01*
Y664420D01*
X272570Y662897D01*
X268000D01*
X271047D02*
X274094Y659850D01*
X277141Y667467D02*
X278665Y668991D01*
X281712D01*
X283235Y667467D01*
Y665944D01*
X281712Y664420D01*
X280188D01*
X281712D01*
X283235Y662897D01*
Y661374D01*
X281712Y659850D01*
X278665D01*
X277141Y661374D01*
X214000Y439850D02*
Y448991D01*
X218570D01*
X220094Y447467D01*
Y444421D01*
X218570Y442897D01*
X214000D01*
X217047D02*
X220094Y439850D01*
X227712D02*
Y448991D01*
X223141Y444421D01*
X229235D01*
X69850Y374650D02*
X78991D01*
Y370079D01*
X77467Y368556D01*
X74420D01*
X72897Y370079D01*
Y374650D01*
Y371603D02*
X69850Y368556D01*
X78991Y359415D02*
Y365509D01*
X74420D01*
X75944Y362462D01*
Y360938D01*
X74420Y359415D01*
X71374D01*
X69850Y360938D01*
Y363985D01*
X71374Y365509D01*
X44450Y374650D02*
X53591D01*
Y370079D01*
X52067Y368556D01*
X49021D01*
X47497Y370079D01*
Y374650D01*
Y371603D02*
X44450Y368556D01*
X53591Y359415D02*
X52067Y362462D01*
X49021Y365509D01*
X45974D01*
X44450Y363985D01*
Y360938D01*
X45974Y359415D01*
X47497D01*
X49021Y360938D01*
Y365509D01*
X19050Y374650D02*
X28191D01*
Y370079D01*
X26667Y368556D01*
X23621D01*
X22097Y370079D01*
Y374650D01*
Y371603D02*
X19050Y368556D01*
X28191Y365509D02*
Y359415D01*
X26667D01*
X20573Y365509D01*
X19050D01*
X77000Y485850D02*
Y494991D01*
X81571D01*
X83094Y493467D01*
Y490420D01*
X81571Y488897D01*
X77000D01*
X80047D02*
X83094Y485850D01*
X86141Y493467D02*
X87665Y494991D01*
X90712D01*
X92235Y493467D01*
Y491944D01*
X90712Y490420D01*
X92235Y488897D01*
Y487374D01*
X90712Y485850D01*
X87665D01*
X86141Y487374D01*
Y488897D01*
X87665Y490420D01*
X86141Y491944D01*
Y493467D01*
X87665Y490420D02*
X90712D01*
X642000Y311850D02*
Y320991D01*
X646571D01*
X648094Y319468D01*
Y316420D01*
X646571Y314897D01*
X642000D01*
X645047D02*
X648094Y311850D01*
X651141D02*
X654188D01*
X652665D01*
Y320991D01*
X651141Y319468D01*
X658759Y320991D02*
X664853D01*
Y319468D01*
X658759Y313374D01*
Y311850D01*
X811000Y312850D02*
Y321991D01*
X815571D01*
X817094Y320467D01*
Y317421D01*
X815571Y315897D01*
X811000D01*
X814047D02*
X817094Y312850D01*
X820141D02*
X823188D01*
X821665D01*
Y321991D01*
X820141Y320467D01*
X827759D02*
X829282Y321991D01*
X832329D01*
X833853Y320467D01*
Y318944D01*
X832329Y317421D01*
X833853Y315897D01*
Y314373D01*
X832329Y312850D01*
X829282D01*
X827759Y314373D01*
Y315897D01*
X829282Y317421D01*
X827759Y318944D01*
Y320467D01*
X829282Y317421D02*
X832329D01*
X820000Y686850D02*
Y695991D01*
X824570D01*
X826094Y694467D01*
Y691421D01*
X824570Y689897D01*
X820000D01*
X823047D02*
X826094Y686850D01*
X835235D02*
X829141D01*
X835235Y692944D01*
Y694467D01*
X833712Y695991D01*
X830665D01*
X829141Y694467D01*
X838282Y686850D02*
X841329D01*
X839806D01*
Y695991D01*
X838282Y694467D01*
X587000Y650850D02*
Y659991D01*
X591571D01*
X593094Y658467D01*
Y655421D01*
X591571Y653897D01*
X587000D01*
X590047D02*
X593094Y650850D01*
X602235D02*
X596141D01*
X602235Y656944D01*
Y658467D01*
X600712Y659991D01*
X597665D01*
X596141Y658467D01*
X611376Y659991D02*
X608329Y658467D01*
X605282Y655421D01*
Y652374D01*
X606806Y650850D01*
X609853D01*
X611376Y652374D01*
Y653897D01*
X609853Y655421D01*
X605282D01*
X501650Y654050D02*
Y663191D01*
X506221D01*
X507744Y661667D01*
Y658621D01*
X506221Y657097D01*
X501650D01*
X504697D02*
X507744Y654050D01*
X516885D02*
X510791D01*
X516885Y660144D01*
Y661667D01*
X515362Y663191D01*
X512315D01*
X510791Y661667D01*
X519932Y663191D02*
X526026D01*
Y661667D01*
X519932Y655574D01*
Y654050D01*
X587000Y624850D02*
Y633991D01*
X591571D01*
X593094Y632467D01*
Y629421D01*
X591571Y627897D01*
X587000D01*
X590047D02*
X593094Y624850D01*
X602235D02*
X596141D01*
X602235Y630944D01*
Y632467D01*
X600712Y633991D01*
X597665D01*
X596141Y632467D01*
X605282D02*
X606806Y633991D01*
X609853D01*
X611376Y632467D01*
Y630944D01*
X609853Y629421D01*
X611376Y627897D01*
Y626373D01*
X609853Y624850D01*
X606806D01*
X605282Y626373D01*
Y627897D01*
X606806Y629421D01*
X605282Y630944D01*
Y632467D01*
X606806Y629421D02*
X609853D01*
X39000Y695850D02*
X29859D01*
Y700421D01*
X31383Y701944D01*
X34430D01*
X35953Y700421D01*
Y695850D01*
Y698897D02*
X39000Y701944D01*
Y711085D02*
Y704991D01*
X32906Y711085D01*
X31383D01*
X29859Y709562D01*
Y706515D01*
X31383Y704991D01*
X37476Y714132D02*
X39000Y715656D01*
Y718703D01*
X37476Y720226D01*
X31383D01*
X29859Y718703D01*
Y715656D01*
X31383Y714132D01*
X32906D01*
X34430Y715656D01*
Y720226D01*
X380744Y293368D02*
X379221Y294891D01*
X376174D01*
X374650Y293368D01*
Y291844D01*
X376174Y290320D01*
X379221D01*
X380744Y288797D01*
Y287274D01*
X379221Y285750D01*
X376174D01*
X374650Y287274D01*
X389885Y285750D02*
X383791D01*
X389885Y291844D01*
Y293368D01*
X388362Y294891D01*
X385315D01*
X383791Y293368D01*
X164844Y39367D02*
X163321Y40891D01*
X160273D01*
X158750Y39367D01*
Y37844D01*
X160273Y36321D01*
X163321D01*
X164844Y34797D01*
Y33273D01*
X163321Y31750D01*
X160273D01*
X158750Y33273D01*
X167891Y39367D02*
X169415Y40891D01*
X172462D01*
X173985Y39367D01*
Y37844D01*
X172462Y36321D01*
X170938D01*
X172462D01*
X173985Y34797D01*
Y33273D01*
X172462Y31750D01*
X169415D01*
X167891Y33273D01*
X25144Y185417D02*
X23621Y186941D01*
X20573D01*
X19050Y185417D01*
Y183894D01*
X20573Y182370D01*
X23621D01*
X25144Y180847D01*
Y179324D01*
X23621Y177800D01*
X20573D01*
X19050Y179324D01*
X32762Y177800D02*
Y186941D01*
X28191Y182370D01*
X34285D01*
X597094Y290467D02*
X595570Y291991D01*
X592523D01*
X591000Y290467D01*
Y288944D01*
X592523Y287421D01*
X595570D01*
X597094Y285897D01*
Y284373D01*
X595570Y282850D01*
X592523D01*
X591000Y284373D01*
X606235Y291991D02*
X600141D01*
Y287421D01*
X603188Y288944D01*
X604712D01*
X606235Y287421D01*
Y284373D01*
X604712Y282850D01*
X601665D01*
X600141Y284373D01*
X770094Y292467D02*
X768570Y293991D01*
X765524D01*
X764000Y292467D01*
Y290944D01*
X765524Y289421D01*
X768570D01*
X770094Y287897D01*
Y286374D01*
X768570Y284850D01*
X765524D01*
X764000Y286374D01*
X779235Y293991D02*
X776188Y292467D01*
X773141Y289421D01*
Y286374D01*
X774665Y284850D01*
X777712D01*
X779235Y286374D01*
Y287897D01*
X777712Y289421D01*
X773141D01*
X573000Y405991D02*
Y396850D01*
X577570D01*
X579094Y398373D01*
Y404468D01*
X577570Y405991D01*
X573000D01*
X588235D02*
X585188Y404468D01*
X582141Y401421D01*
Y398373D01*
X583665Y396850D01*
X586712D01*
X588235Y398373D01*
Y399897D01*
X586712Y401421D01*
X582141D01*
X573000Y430991D02*
Y421850D01*
X577570D01*
X579094Y423373D01*
Y429468D01*
X577570Y430991D01*
X573000D01*
X582141D02*
X588235D01*
Y429468D01*
X582141Y423373D01*
Y421850D01*
X440000Y397850D02*
Y406991D01*
X444571D01*
X446094Y405467D01*
Y402421D01*
X444571Y400897D01*
X440000D01*
X443047D02*
X446094Y397850D01*
X449141Y405467D02*
X450665Y406991D01*
X453712D01*
X455235Y405467D01*
Y403944D01*
X453712Y402421D01*
X452188D01*
X453712D01*
X455235Y400897D01*
Y399374D01*
X453712Y397850D01*
X450665D01*
X449141Y399374D01*
X458282Y405467D02*
X459806Y406991D01*
X462853D01*
X464376Y405467D01*
Y399374D01*
X462853Y397850D01*
X459806D01*
X458282Y399374D01*
Y405467D01*
X443000Y433850D02*
Y442991D01*
X447570D01*
X449094Y441468D01*
Y438420D01*
X447570Y436897D01*
X443000D01*
X446047D02*
X449094Y433850D01*
X452141Y441468D02*
X453665Y442991D01*
X456712D01*
X458235Y441468D01*
Y439944D01*
X456712Y438420D01*
X455188D01*
X456712D01*
X458235Y436897D01*
Y435373D01*
X456712Y433850D01*
X453665D01*
X452141Y435373D01*
X461282Y433850D02*
X464329D01*
X462806D01*
Y442991D01*
X461282Y441468D01*
X638000Y753850D02*
X641047D01*
X639524D01*
Y762991D01*
X638000Y761468D01*
M02*
