G04 Layer_Physical_Order=1*
G04 Layer_Color=255*
%FSLAX44Y44*%
%MOMM*%
G71*
G01*
G75*
%ADD10C,0.5000*%
%ADD11O,1.8000X0.3000*%
%ADD12O,0.3000X1.8000*%
%ADD13R,3.4500X1.5500*%
%ADD14R,1.1000X1.5500*%
%ADD15R,1.1000X1.5500*%
%ADD16R,2.0000X1.0000*%
%ADD17R,3.6000X3.6000*%
%ADD18O,0.2500X0.8500*%
%ADD19O,0.8500X0.2500*%
%ADD20O,0.6000X2.0000*%
%ADD21R,1.4000X1.5000*%
%ADD22O,1.7500X0.5500*%
%ADD23O,0.5500X1.7500*%
%ADD24R,1.1000X1.7000*%
%ADD25R,1.5000X1.9000*%
%ADD26R,0.4000X1.3500*%
%ADD27R,1.2000X1.4000*%
%ADD28R,1.7000X1.1000*%
%ADD29R,1.4000X1.2000*%
%ADD30C,0.2000*%
%ADD31C,0.4000*%
%ADD32C,2.0000*%
%ADD33C,1.8000*%
%ADD34R,1.5000X1.5000*%
%ADD35C,1.5000*%
%ADD36C,1.4500*%
%ADD37O,2.0000X3.0000*%
%ADD38O,2.9972X1.9812*%
%ADD39C,0.6000*%
G36*
X380224Y776497D02*
Y675350D01*
X376250D01*
Y665850D01*
X375000D01*
Y664600D01*
X366500D01*
Y656350D01*
X368306D01*
X369582Y654682D01*
X370112Y653700D01*
X370136Y653350D01*
X369921Y652272D01*
X369921Y652272D01*
Y649350D01*
X365500D01*
Y641100D01*
X374000D01*
Y638600D01*
X365500D01*
Y630350D01*
X369921D01*
Y605343D01*
X367846Y603268D01*
X365900Y602881D01*
X364081Y601665D01*
X362865Y599846D01*
X362687Y598950D01*
X368046D01*
Y597700D01*
X369296D01*
Y592341D01*
X370192Y592519D01*
X372011Y593735D01*
X373227Y595554D01*
X373614Y597500D01*
X376884Y600770D01*
X376884Y600770D01*
X377224Y601279D01*
X380224Y600369D01*
Y568201D01*
X337401Y525378D01*
X330786D01*
X329206Y527304D01*
X328740Y529645D01*
X328498Y530007D01*
X356960Y558468D01*
X356960Y558468D01*
X357844Y559791D01*
X358154Y561352D01*
X358154Y561352D01*
Y758670D01*
X377224Y777739D01*
X380224Y776497D01*
D02*
G37*
G36*
X584881Y584014D02*
X585208Y583524D01*
X585456Y583359D01*
Y557401D01*
X558442Y530387D01*
X554713Y530901D01*
X554637Y531015D01*
X552818Y532231D01*
X551922Y532409D01*
Y527050D01*
X549422D01*
Y532409D01*
X548526Y532231D01*
X546707Y531015D01*
X546648Y530928D01*
X542080D01*
X541324Y531850D01*
X541032Y533313D01*
X540640Y533900D01*
X541503Y535192D01*
X541833Y536850D01*
X541503Y538508D01*
X540564Y539914D01*
X540113Y543489D01*
X581235Y584611D01*
X584881Y584014D01*
D02*
G37*
G36*
X781756Y547934D02*
X784000Y547487D01*
X786152Y544857D01*
X786320Y544013D01*
X787646Y542028D01*
X789631Y540702D01*
X791972Y540237D01*
X794313Y540702D01*
X796298Y542028D01*
X797063Y543174D01*
X800203Y542770D01*
X800348Y542039D01*
X801674Y540054D01*
X803659Y538728D01*
X806000Y538262D01*
X808341Y538728D01*
X810754Y536870D01*
X811170Y534801D01*
X810819Y534276D01*
X810641Y533380D01*
X821359D01*
X821181Y534276D01*
X820078Y535926D01*
Y542070D01*
X823078Y542980D01*
X823714Y542028D01*
X825699Y540702D01*
X828040Y540237D01*
X830381Y540702D01*
X832366Y542028D01*
X835674Y541774D01*
X837121Y540807D01*
X837810Y538487D01*
X837898Y537342D01*
X836586Y536030D01*
X835702Y534707D01*
X835392Y533146D01*
X835392Y533146D01*
Y501069D01*
X832392Y498825D01*
X832000Y498903D01*
X829659Y498438D01*
X827674Y497112D01*
X826348Y495127D01*
X825882Y492786D01*
X826348Y490445D01*
X827674Y488460D01*
X827922Y488295D01*
Y475355D01*
X827163Y474658D01*
X824921Y473410D01*
X823307Y473731D01*
X820966Y473266D01*
X818981Y471940D01*
X817655Y469955D01*
X817189Y467614D01*
X817655Y465273D01*
X818981Y463288D01*
X820966Y461962D01*
X821267Y461902D01*
X821884Y460851D01*
X821756Y457766D01*
X820000Y456593D01*
X818243Y457766D01*
X816000Y458213D01*
X815078Y458029D01*
X812078Y459979D01*
Y508030D01*
X812078Y508030D01*
X811768Y509591D01*
X810884Y510914D01*
X808916Y512882D01*
X818884Y522850D01*
X819768Y524173D01*
X820078Y525734D01*
X820078Y525734D01*
Y528334D01*
X821181Y529984D01*
X821359Y530880D01*
X810641D01*
X810819Y529984D01*
X811921Y528334D01*
Y527423D01*
X799427Y514928D01*
X765129D01*
X763179Y517928D01*
X763363Y518850D01*
X762916Y521093D01*
X761743Y522850D01*
X762916Y524606D01*
X763363Y526850D01*
X762916Y529093D01*
X761743Y530850D01*
X762916Y532606D01*
X763363Y534850D01*
X765990Y537021D01*
X766881Y537198D01*
X768866Y538524D01*
X770192Y540509D01*
X770658Y542850D01*
X770192Y545191D01*
X770623Y546419D01*
X773756Y547934D01*
X776000Y547487D01*
X778243Y547934D01*
X780000Y549107D01*
X781756Y547934D01*
D02*
G37*
G36*
X417314Y788932D02*
X410628Y782246D01*
X409744Y780923D01*
X409434Y779362D01*
X409434Y779362D01*
Y413685D01*
X409186Y413520D01*
X407860Y411535D01*
X407394Y409194D01*
X407860Y406853D01*
X409186Y404868D01*
X409434Y404703D01*
Y391338D01*
X409434Y391338D01*
X409744Y389777D01*
X410628Y388454D01*
X425116Y373966D01*
X425116Y373966D01*
X426439Y373082D01*
X428000Y372772D01*
X428000Y372772D01*
X566000D01*
X566000Y372772D01*
X567561Y373082D01*
X568884Y373966D01*
X572524Y377606D01*
X575296Y376458D01*
Y208407D01*
X531316Y164428D01*
X530432Y163105D01*
X530122Y161544D01*
X530122Y161544D01*
Y138000D01*
X526200D01*
Y128250D01*
X534200D01*
X542200D01*
Y131302D01*
X644996Y234098D01*
X644996Y234098D01*
X645880Y235421D01*
X646190Y236982D01*
Y276542D01*
X645880Y278103D01*
X644996Y279426D01*
X644996Y279426D01*
X643078Y281343D01*
Y284850D01*
X647000D01*
Y294600D01*
X639000D01*
Y297100D01*
X647000D01*
Y306850D01*
X643078D01*
Y405155D01*
X670134Y432210D01*
X670134Y432210D01*
X671018Y433533D01*
X671328Y435094D01*
Y441350D01*
X676750D01*
X678420Y439041D01*
Y431546D01*
X678420Y431546D01*
X678730Y429985D01*
X679614Y428662D01*
X683678Y424598D01*
X683678Y424598D01*
X685001Y423714D01*
X686562Y423404D01*
X696976D01*
X696976Y423404D01*
X698537Y423714D01*
X699860Y424598D01*
X709258Y433996D01*
X710142Y435319D01*
X710452Y436880D01*
X710452Y436880D01*
Y458167D01*
X720352Y468067D01*
X723124Y466919D01*
Y414693D01*
X684440Y376010D01*
X683556Y374687D01*
X683246Y373126D01*
X683246Y373126D01*
Y307339D01*
X680246Y305027D01*
X680000Y305075D01*
X677659Y304610D01*
X677500Y304504D01*
X674500Y306107D01*
Y307350D01*
X657500D01*
Y284350D01*
X662986D01*
X664258Y281350D01*
X663998Y280961D01*
X663688Y279400D01*
X663688Y279400D01*
Y210223D01*
X548983Y95518D01*
X541464D01*
X540834Y96286D01*
X527566D01*
X526936Y95518D01*
X475907D01*
X400897Y170529D01*
X402298Y173370D01*
X402388Y173358D01*
X405521Y173771D01*
X408440Y174980D01*
X410947Y176903D01*
X412870Y179410D01*
X414079Y182329D01*
X414492Y185462D01*
X414079Y188594D01*
X412870Y191513D01*
X410947Y194020D01*
X408440Y195944D01*
X405521Y197153D01*
X402388Y197565D01*
X399256Y197153D01*
X397222Y196311D01*
X394222Y197749D01*
Y404706D01*
X393912Y406267D01*
X393028Y407590D01*
X393028Y407590D01*
X353094Y447524D01*
X353691Y451170D01*
X354015Y451387D01*
X355231Y453206D01*
X355409Y454102D01*
X350050D01*
Y456602D01*
X355409D01*
X355231Y457498D01*
X354128Y459148D01*
Y465250D01*
X358050D01*
Y475000D01*
X350050D01*
Y476250D01*
X348800D01*
Y487250D01*
X342050D01*
Y487250D01*
X339050Y486376D01*
X319989Y505436D01*
X321103Y507794D01*
X321415Y508253D01*
X323651Y508698D01*
X325636Y510024D01*
X326962Y512009D01*
X327427Y514350D01*
X329915Y517222D01*
X339090D01*
X339090Y517222D01*
X340651Y517532D01*
X341974Y518416D01*
X387186Y563628D01*
X388070Y564951D01*
X388380Y566512D01*
Y776821D01*
X403263Y791704D01*
X416166D01*
X417314Y788932D01*
D02*
G37*
G36*
X585450Y521691D02*
X586346Y521869D01*
X587996Y522972D01*
X658611D01*
X668500Y513082D01*
Y512100D01*
X676500D01*
Y509600D01*
X668500D01*
Y499850D01*
X668500D01*
X669637Y497105D01*
X664366Y491834D01*
X663482Y490511D01*
X663171Y488950D01*
X662035Y486350D01*
X657750D01*
Y477600D01*
X667250D01*
Y475100D01*
X657750D01*
Y466350D01*
X663171D01*
Y461350D01*
X657750D01*
Y452600D01*
X667250D01*
Y450100D01*
X657750D01*
Y441350D01*
X663171D01*
Y436783D01*
X637079Y410690D01*
X634079Y411933D01*
Y463216D01*
X634079Y463216D01*
X633768Y464776D01*
X632884Y466100D01*
X632884Y466100D01*
X582182Y516801D01*
Y519786D01*
X582950Y520416D01*
Y527050D01*
X585450D01*
Y521691D01*
D02*
G37*
G36*
X454250Y623500D02*
X458671D01*
Y519722D01*
X458671Y519722D01*
X458982Y518161D01*
X459866Y516838D01*
X464318Y512387D01*
X464304Y508770D01*
X462978Y506785D01*
X462513Y504444D01*
X462822Y502886D01*
X461520Y500583D01*
X460851Y499886D01*
X444411D01*
X437910Y506387D01*
Y509030D01*
X439013Y510680D01*
X439191Y511576D01*
X433832D01*
Y512826D01*
X432582D01*
Y518185D01*
X431686Y518007D01*
X429988Y516873D01*
X429278Y517014D01*
X426988Y517883D01*
Y554309D01*
X427236Y554474D01*
X428562Y556459D01*
X429027Y558800D01*
X428562Y561141D01*
X427236Y563126D01*
X426988Y563291D01*
Y630922D01*
X454250D01*
Y623500D01*
D02*
G37*
G36*
X803922Y506341D02*
Y475327D01*
X800922Y474084D01*
X780251Y494754D01*
X780310Y495046D01*
X779844Y497387D01*
X778518Y499372D01*
X776533Y500698D01*
X774192Y501163D01*
X771851Y500698D01*
X769866Y499372D01*
X768540Y497387D01*
X768074Y495046D01*
X768540Y492705D01*
X769866Y490720D01*
X771851Y489394D01*
X774192Y488928D01*
X774484Y488987D01*
X795922Y467549D01*
Y462019D01*
X792922Y460776D01*
X792598Y461100D01*
X791275Y461984D01*
X789714Y462294D01*
X789714Y462294D01*
X766299D01*
X763363Y462850D01*
X762916Y465093D01*
X761743Y466850D01*
X762916Y468606D01*
X763363Y470850D01*
X762916Y473093D01*
X761743Y474850D01*
X762916Y476606D01*
X763363Y478850D01*
X762916Y481093D01*
X761743Y482850D01*
X762916Y484606D01*
X763363Y486850D01*
X762916Y489094D01*
X761743Y490850D01*
X762916Y492606D01*
X763363Y494850D01*
X762916Y497093D01*
X761743Y498850D01*
X762916Y500606D01*
X763363Y502850D01*
X763179Y503772D01*
X765129Y506772D01*
X801116D01*
X801116Y506772D01*
X801116Y506772D01*
X803491D01*
X803922Y506341D01*
D02*
G37*
G36*
X296328Y615606D02*
X296328Y615606D01*
X297651Y614722D01*
X299212Y614412D01*
X299212Y614412D01*
X319113D01*
X324852Y608673D01*
Y604975D01*
X324070Y604334D01*
Y597700D01*
X321570D01*
Y603059D01*
X320674Y602881D01*
X318855Y601665D01*
X317639Y599846D01*
X317540Y599348D01*
X314724Y598884D01*
X314199Y599089D01*
X313894Y599544D01*
X312406Y600539D01*
X310650Y600888D01*
X295650D01*
X293894Y600539D01*
X292406Y599544D01*
X291411Y598056D01*
X291062Y596300D01*
X289523Y595068D01*
X288200Y594184D01*
X287316Y592860D01*
X287006Y591300D01*
Y547029D01*
X284006Y545872D01*
X259228Y570649D01*
Y594445D01*
X262229Y596048D01*
X262809Y595660D01*
X265150Y595194D01*
X266886Y595540D01*
X268594Y594138D01*
X269253Y593229D01*
X269032Y592120D01*
X269498Y589779D01*
X270824Y587794D01*
X272809Y586468D01*
X275150Y586002D01*
X277491Y586468D01*
X279476Y587794D01*
X280802Y589779D01*
X281268Y592120D01*
X280802Y594461D01*
X280423Y595027D01*
X281694Y595876D01*
X283020Y597861D01*
X283348Y599511D01*
X285150Y602212D01*
X286906Y602561D01*
X288394Y603556D01*
X289389Y605044D01*
X289738Y606800D01*
Y617953D01*
X292738Y619196D01*
X296328Y615606D01*
D02*
G37*
G36*
X750083Y603324D02*
X750816Y602226D01*
X752801Y600900D01*
X755142Y600434D01*
X757483Y600900D01*
X759468Y602226D01*
X759633Y602474D01*
X791000D01*
Y598929D01*
X767649D01*
X767649Y598929D01*
X766088Y598618D01*
X764765Y597734D01*
X764765Y597734D01*
X745459Y578428D01*
X726500D01*
Y582850D01*
X703500D01*
Y565850D01*
X703990D01*
X705139Y563078D01*
X700616Y558556D01*
X699732Y557233D01*
X699421Y555672D01*
X699421Y555672D01*
Y534720D01*
X696650Y533572D01*
X694192Y536030D01*
X692868Y536914D01*
X691308Y537224D01*
X691308Y537224D01*
X581057D01*
X579799Y539597D01*
X579722Y540133D01*
X592418Y552828D01*
X592418Y552828D01*
X593302Y554151D01*
X593612Y555712D01*
X593612Y555712D01*
Y583359D01*
X593860Y583524D01*
X595186Y585509D01*
X595652Y587850D01*
X597439Y590028D01*
X730854D01*
X730854Y590028D01*
X732415Y590338D01*
X733738Y591222D01*
X746674Y604159D01*
X750083Y603324D01*
D02*
G37*
G36*
X254712Y667805D02*
X256201Y666691D01*
X256071Y666042D01*
X256071Y666042D01*
Y627144D01*
X255150Y626388D01*
X253394Y626039D01*
X252650Y625542D01*
X251906Y626039D01*
X250150Y626388D01*
X248394Y626039D01*
X248067Y625821D01*
X245019Y626593D01*
X243918Y628313D01*
X243034Y629636D01*
X243034Y629636D01*
X233063Y639607D01*
X232676Y641553D01*
X231460Y643372D01*
X231208Y645940D01*
X253436Y668168D01*
X254712Y667805D01*
D02*
G37*
G36*
X892852Y679967D02*
X894175Y679083D01*
X895736Y678772D01*
X897000D01*
Y674851D01*
X920482D01*
Y594017D01*
X916678Y590214D01*
X913906Y591362D01*
Y615859D01*
X914154Y616024D01*
X915480Y618009D01*
X915946Y620350D01*
X915480Y622691D01*
X914154Y624675D01*
X912169Y626002D01*
X909828Y626467D01*
X907487Y626002D01*
X905502Y624675D01*
X904176Y622691D01*
X903710Y620350D01*
X904176Y618009D01*
X905502Y616024D01*
X905750Y615859D01*
Y588989D01*
X867239Y550479D01*
X866884Y550550D01*
X865896Y553805D01*
X874866Y562774D01*
X874866Y562774D01*
X875750Y564097D01*
X876060Y565658D01*
Y692515D01*
X879060Y693758D01*
X892852Y679967D01*
D02*
G37*
G36*
X924546Y582626D02*
Y560231D01*
X915000Y550686D01*
X912000Y551049D01*
Y554350D01*
X902250D01*
Y546350D01*
Y538350D01*
X912000D01*
Y542272D01*
X916432D01*
X916432Y542272D01*
X917993Y542582D01*
X919316Y543466D01*
X925838Y549988D01*
X928610Y548840D01*
Y423583D01*
X923088Y418061D01*
X920074Y418336D01*
X918795Y420844D01*
X919290Y421585D01*
X919755Y423926D01*
X919290Y426267D01*
X917964Y428252D01*
X917716Y428417D01*
Y447802D01*
X917716Y447802D01*
X917406Y449363D01*
X916522Y450686D01*
X911974Y455234D01*
X911933Y455261D01*
X911745Y458327D01*
X915506Y462088D01*
X916390Y463411D01*
X916700Y464972D01*
X916700Y464972D01*
Y507728D01*
X916700Y507728D01*
X916390Y509289D01*
X915506Y510612D01*
X915506Y510612D01*
X912500Y513618D01*
Y527850D01*
X893285D01*
Y532867D01*
X898768Y538350D01*
X899750D01*
Y546350D01*
Y554350D01*
X896269D01*
X895121Y557122D01*
X921774Y583774D01*
X924546Y582626D01*
D02*
G37*
G36*
X221072Y565895D02*
Y516145D01*
X220150Y515388D01*
X218394Y515039D01*
X217650Y514542D01*
X216906Y515039D01*
X215150Y515388D01*
X213394Y515039D01*
X212650Y514542D01*
X211906Y515039D01*
X211705Y515079D01*
X209667Y517053D01*
X209310Y518280D01*
Y524510D01*
X209310Y524510D01*
X209000Y526071D01*
X208645Y526602D01*
X208820Y528725D01*
X209584Y530168D01*
X210887Y531038D01*
X212213Y533023D01*
X212679Y535364D01*
X212213Y537705D01*
X210887Y539690D01*
X208902Y541016D01*
X206561Y541482D01*
X204692Y541335D01*
X203573Y544071D01*
X203889Y544544D01*
X204238Y546300D01*
X203889Y548056D01*
X203392Y548800D01*
X203889Y549544D01*
X204238Y551300D01*
X203889Y553056D01*
X203391Y553800D01*
X203889Y554544D01*
X204238Y556300D01*
X203889Y558056D01*
X203091Y559250D01*
X203418Y559739D01*
X203480Y560050D01*
X202139D01*
X201406Y560540D01*
X199650Y560889D01*
X192150D01*
Y561711D01*
X199650D01*
X201406Y562061D01*
X202138Y562550D01*
X203480D01*
X203418Y562861D01*
X205374Y565158D01*
X207146Y565891D01*
X207209Y565848D01*
X209550Y565382D01*
X211891Y565848D01*
X213876Y567174D01*
X214546Y568178D01*
X217991Y568975D01*
X221072Y565895D01*
D02*
G37*
G36*
X51500Y654969D02*
Y647350D01*
X56922D01*
Y587003D01*
X55751Y585852D01*
X54929Y585674D01*
X52379Y586743D01*
Y608838D01*
X52379Y608838D01*
X52068Y610399D01*
X51184Y611722D01*
X51184Y611722D01*
X39079Y623827D01*
Y646350D01*
X46500D01*
Y653888D01*
X48728Y656117D01*
X51500Y654969D01*
D02*
G37*
G36*
X990600Y808990D02*
Y733188D01*
X989000Y730851D01*
X987600Y730851D01*
X963000D01*
Y714850D01*
X987600D01*
X990600Y712513D01*
Y693188D01*
X989000Y690851D01*
X987600Y690851D01*
X963000D01*
Y674851D01*
X987600D01*
X990600Y672513D01*
X990600Y127000D01*
X869950Y6350D01*
X698500D01*
X609600Y95250D01*
X564169D01*
X563021Y98022D01*
X615826Y150826D01*
X618369Y149127D01*
X618309Y148982D01*
X617897Y145850D01*
X618309Y142717D01*
X619518Y139798D01*
X621442Y137291D01*
X623949Y135368D01*
X626868Y134159D01*
X630000Y133746D01*
X633133Y134159D01*
X636052Y135368D01*
X638559Y137291D01*
X640482Y139798D01*
X641691Y142717D01*
X642104Y145850D01*
X641691Y148982D01*
X640482Y151902D01*
X638559Y154408D01*
X636052Y156332D01*
X633133Y157541D01*
X630000Y157953D01*
X626868Y157541D01*
X626724Y157481D01*
X625024Y160025D01*
X670650Y205650D01*
X670650Y205650D01*
X671534Y206973D01*
X671844Y208534D01*
X671844Y208534D01*
Y258552D01*
X674844Y259997D01*
X676868Y259159D01*
X680000Y258746D01*
X683133Y259159D01*
X686052Y260368D01*
X688559Y262291D01*
X690482Y264798D01*
X691691Y267717D01*
X692104Y270850D01*
X691691Y273983D01*
X690874Y275956D01*
X758788Y343870D01*
X759672Y345193D01*
X759982Y346754D01*
X759982Y346754D01*
Y434403D01*
X762982Y435702D01*
X763922Y434821D01*
Y233749D01*
X689266Y159094D01*
X688627Y158137D01*
X687477Y157331D01*
X687327Y157258D01*
X685147Y156707D01*
X683133Y157541D01*
X680000Y157953D01*
X676868Y157541D01*
X673948Y156332D01*
X671442Y154408D01*
X669518Y151902D01*
X668309Y148982D01*
X667897Y145850D01*
X668309Y142717D01*
X669518Y139798D01*
X671442Y137291D01*
X673948Y135368D01*
X676868Y134159D01*
X680000Y133746D01*
X683133Y134159D01*
X685072Y134962D01*
X688072Y133468D01*
Y122093D01*
X687824Y121928D01*
X686498Y119943D01*
X686032Y117602D01*
X686498Y115261D01*
X687824Y113276D01*
X689809Y111950D01*
X692150Y111484D01*
X694491Y111950D01*
X696476Y113276D01*
X697802Y115261D01*
X698268Y117602D01*
X697802Y119943D01*
X696476Y121928D01*
X696228Y122093D01*
Y154521D01*
X770884Y229176D01*
X770884Y229176D01*
X771768Y230499D01*
X772078Y232060D01*
X772078Y232060D01*
Y362911D01*
X775078Y364906D01*
X776000Y364723D01*
X778341Y365188D01*
X780326Y366514D01*
X781652Y368499D01*
X782117Y370840D01*
X781652Y373181D01*
X780326Y375166D01*
X780078Y375331D01*
Y410663D01*
X783078Y412658D01*
X784000Y412475D01*
X786341Y412940D01*
X788326Y414266D01*
X789652Y416251D01*
X790117Y418592D01*
X789652Y420933D01*
X788326Y422918D01*
X788078Y423083D01*
Y432722D01*
X791078Y434671D01*
X792000Y434487D01*
X794243Y434934D01*
X796000Y436107D01*
X797756Y434934D01*
X800000Y434487D01*
X800921Y434671D01*
X803922Y432722D01*
Y418503D01*
X798616Y413198D01*
X797732Y411875D01*
X797422Y410314D01*
X795735Y407850D01*
X793500D01*
Y398100D01*
X801500D01*
X809500D01*
Y407850D01*
X809046D01*
X807804Y410850D01*
X810884Y413930D01*
X810884Y413930D01*
X811768Y415253D01*
X811962Y416229D01*
X813553Y417080D01*
X815078Y417356D01*
X821084Y411350D01*
X820000Y408350D01*
X820000D01*
Y385350D01*
X824421D01*
Y290271D01*
X822000Y287850D01*
X819000Y289092D01*
Y294600D01*
X811000D01*
X803000D01*
Y285584D01*
X800831Y282844D01*
X800000Y282953D01*
X796867Y282541D01*
X793948Y281332D01*
X791441Y279408D01*
X789518Y276902D01*
X788309Y273983D01*
X787896Y270850D01*
X788309Y267717D01*
X789518Y264798D01*
X791441Y262291D01*
X793948Y260368D01*
X796867Y259159D01*
X800000Y258746D01*
X803133Y259159D01*
X806052Y260368D01*
X808558Y262291D01*
X810482Y264798D01*
X811347Y266887D01*
X812329Y267082D01*
X813652Y267966D01*
X830036Y284350D01*
X831590D01*
X833922Y282850D01*
X834232Y281289D01*
X835116Y279966D01*
X839126Y275956D01*
X838309Y273983D01*
X837896Y270850D01*
X838309Y267717D01*
X839518Y264798D01*
X841441Y262291D01*
X843948Y260368D01*
X846867Y259159D01*
X850000Y258746D01*
X853132Y259159D01*
X856052Y260368D01*
X858558Y262291D01*
X860482Y264798D01*
X861691Y267717D01*
X862103Y270850D01*
X861691Y273983D01*
X860482Y276902D01*
X858558Y279408D01*
X856052Y281332D01*
X853132Y282541D01*
X850000Y282953D01*
X848859Y282803D01*
X846500Y285518D01*
Y307350D01*
X832578D01*
Y385350D01*
X837000D01*
Y408350D01*
X835727D01*
X834617Y409702D01*
X834152Y412043D01*
X832825Y414028D01*
X830841Y415354D01*
X828500Y415820D01*
X828208Y415761D01*
X821182Y422787D01*
X821375Y425195D01*
X824000Y427206D01*
X826341Y427672D01*
X828326Y428998D01*
X829652Y430983D01*
X829826Y431861D01*
X832000Y434487D01*
X832922Y434671D01*
X835921Y432722D01*
Y419354D01*
X835921Y419354D01*
X836232Y417793D01*
X837116Y416470D01*
X842704Y410882D01*
X844027Y409998D01*
X845588Y409688D01*
X845588Y409688D01*
X924560D01*
X924560Y409688D01*
X926121Y409998D01*
X927444Y410882D01*
X935572Y419010D01*
X935572Y419010D01*
X936456Y420333D01*
X936766Y421894D01*
Y745490D01*
X936766Y745490D01*
X936456Y747051D01*
X935572Y748374D01*
X935572Y748374D01*
X877727Y806218D01*
X878875Y808990D01*
X990600D01*
D02*
G37*
G36*
X548000Y420457D02*
Y419850D01*
X566000D01*
X568296Y418149D01*
Y411551D01*
X566000Y409850D01*
X548000D01*
Y408100D01*
X546884Y407183D01*
X544543Y406718D01*
X542558Y405392D01*
X541232Y403407D01*
X540766Y401066D01*
X541232Y398725D01*
X542558Y396740D01*
X544543Y395414D01*
X546884Y394949D01*
X548000Y394032D01*
Y389850D01*
X561312D01*
X562461Y387078D01*
X559811Y384428D01*
X516244D01*
X515404Y385961D01*
X515155Y387428D01*
X515834Y388107D01*
X518000Y389850D01*
Y389850D01*
X518000Y389850D01*
X536000D01*
Y409850D01*
X536000D01*
X535260Y411637D01*
X545229Y421605D01*
X548000Y420457D01*
D02*
G37*
G36*
X148672Y551107D02*
X148818Y549772D01*
X143420Y544374D01*
X142536Y543051D01*
X142226Y541490D01*
X142226Y541490D01*
Y513366D01*
X142226Y513366D01*
X142536Y511805D01*
X143420Y510482D01*
X146411Y507492D01*
X146353Y507200D01*
X146818Y504859D01*
X148144Y502874D01*
X150129Y501548D01*
X152470Y501082D01*
X155180Y498563D01*
Y419982D01*
X154450Y419384D01*
Y412750D01*
X151950D01*
Y418109D01*
X151054Y417931D01*
X149404Y416828D01*
X145288D01*
X143727Y416518D01*
X142404Y415634D01*
X142404Y415634D01*
X117399Y390628D01*
X87200D01*
Y394550D01*
X77450D01*
Y386550D01*
Y378550D01*
X87200D01*
Y382472D01*
X119088D01*
X119088Y382472D01*
X120649Y382782D01*
X121972Y383666D01*
X146977Y408672D01*
X149404D01*
X150215Y408130D01*
X150921Y405327D01*
X150874Y404546D01*
X111645Y365317D01*
X76250D01*
X76250Y365317D01*
X74690Y365006D01*
X73366Y364122D01*
X62394Y353150D01*
X61510Y351827D01*
X61434Y351446D01*
X58434Y351741D01*
Y378550D01*
X61800D01*
Y382472D01*
X65200D01*
Y378550D01*
X74950D01*
Y386550D01*
Y394550D01*
X65200D01*
Y390628D01*
X61800D01*
Y394550D01*
X52050D01*
Y386550D01*
X49550D01*
Y394550D01*
X39800D01*
Y390628D01*
X36400D01*
Y394550D01*
X26650D01*
Y386550D01*
Y378550D01*
X36400D01*
Y382472D01*
X39800D01*
Y378550D01*
X50278D01*
Y314946D01*
X49175Y313296D01*
X48997Y312400D01*
X54356D01*
Y309900D01*
X48834D01*
X47389Y307549D01*
X46839Y307100D01*
X24041D01*
X13984Y317157D01*
Y375722D01*
X14400Y378550D01*
X24150D01*
Y386550D01*
Y394550D01*
X14400D01*
X13984Y397378D01*
Y405050D01*
X36900D01*
X36900Y405050D01*
X39300D01*
Y405050D01*
X39900Y405050D01*
X62300D01*
Y405050D01*
X64700D01*
Y405050D01*
X87700D01*
Y409472D01*
X114846D01*
X114846Y409472D01*
X116407Y409782D01*
X117730Y410666D01*
X127598Y420534D01*
X128482Y421857D01*
X128792Y423418D01*
X128792Y423418D01*
Y543649D01*
X137915Y552772D01*
X147305D01*
X148672Y551107D01*
D02*
G37*
G36*
X743257Y457434D02*
X745500Y456987D01*
X752354D01*
X753502Y454216D01*
X753020Y453734D01*
X752136Y452411D01*
X751826Y450850D01*
X751826Y450850D01*
Y348443D01*
X694068Y290686D01*
X691257Y291803D01*
X691127Y291987D01*
X691402Y293370D01*
X691402Y293370D01*
Y371437D01*
X723831Y403866D01*
X727448Y403852D01*
X729433Y402526D01*
X731774Y402061D01*
X734115Y402526D01*
X736100Y403852D01*
X737426Y405837D01*
X737891Y408178D01*
X737426Y410519D01*
X736100Y412504D01*
X735852Y412669D01*
Y455319D01*
X738620Y458086D01*
X741355Y458704D01*
X743257Y457434D01*
D02*
G37*
G36*
X168315Y505168D02*
X168376Y504859D01*
X169702Y502874D01*
X171687Y501548D01*
X174028Y501082D01*
X174320Y501140D01*
X175170Y500290D01*
X175170Y500290D01*
X182104Y493357D01*
Y488442D01*
X182104Y488442D01*
X182414Y486881D01*
X183298Y485558D01*
X199890Y468966D01*
X201213Y468082D01*
X202774Y467772D01*
X202774Y467772D01*
X212405D01*
X214883Y464850D01*
X215348Y462509D01*
X216674Y460524D01*
X218659Y459198D01*
X221000Y458732D01*
X221292Y458791D01*
X224117Y455965D01*
X224117Y455965D01*
X225441Y455081D01*
X227001Y454770D01*
X227001Y454770D01*
X227509D01*
X227674Y454523D01*
X229658Y453197D01*
X231999Y452731D01*
X232000Y452731D01*
Y433000D01*
X249000D01*
Y456000D01*
X244578D01*
Y458834D01*
X244578Y458834D01*
X244268Y460394D01*
X243384Y461717D01*
X243384Y461717D01*
X239228Y465873D01*
Y485703D01*
X239285Y485987D01*
Y490502D01*
X240150Y491212D01*
X241906Y491561D01*
X242650Y492058D01*
X243394Y491561D01*
X245150Y491212D01*
X246906Y491561D01*
X248100Y492359D01*
X248589Y492032D01*
X248900Y491970D01*
Y493311D01*
X249389Y494044D01*
X249739Y495800D01*
Y503300D01*
X250561D01*
Y495800D01*
X250911Y494044D01*
X251400Y493312D01*
Y491970D01*
X251711Y492032D01*
X252200Y492359D01*
X253394Y491561D01*
X255150Y491212D01*
X256341Y491449D01*
X258101Y490280D01*
X258980Y489339D01*
X258883Y488850D01*
X259348Y486509D01*
X260674Y484524D01*
X262659Y483198D01*
X265000Y482733D01*
X266922Y481155D01*
Y477629D01*
X264616Y475324D01*
X263732Y474001D01*
X263422Y472440D01*
X263422Y472440D01*
Y456000D01*
X259000D01*
Y433000D01*
X276000D01*
Y445393D01*
X278772Y446541D01*
X284839Y440474D01*
X284781Y440182D01*
X285246Y437841D01*
X286572Y435856D01*
X288557Y434530D01*
X290898Y434064D01*
X293239Y434530D01*
X295224Y435856D01*
X296550Y437841D01*
X297016Y440182D01*
X296550Y442523D01*
X295224Y444508D01*
X293239Y445834D01*
X290898Y446300D01*
X290606Y446241D01*
X279228Y457619D01*
Y486321D01*
X282228Y487231D01*
X282266Y487174D01*
X359954Y409486D01*
X359897Y409194D01*
X360362Y406853D01*
X361688Y404868D01*
X363673Y403542D01*
X366014Y403077D01*
X368355Y403542D01*
X370340Y404868D01*
X371666Y406853D01*
X372132Y409194D01*
X371666Y411535D01*
X370340Y413520D01*
X368355Y414846D01*
X366014Y415312D01*
X365722Y415253D01*
X325825Y455151D01*
X326563Y458656D01*
X327414Y459224D01*
X328740Y461209D01*
X329162Y463329D01*
X331392Y464369D01*
X333922Y462754D01*
Y456850D01*
X333922Y456850D01*
X334232Y455289D01*
X335116Y453966D01*
X386066Y403017D01*
Y175514D01*
X386066Y175514D01*
X386376Y173953D01*
X387260Y172630D01*
X461869Y98022D01*
X460721Y95250D01*
X393700D01*
X304800Y6350D01*
X184150D01*
X6350Y184150D01*
Y309014D01*
X9350Y310256D01*
X19468Y300138D01*
X19468Y300138D01*
X20791Y299254D01*
X22352Y298944D01*
X22352Y298944D01*
X54864D01*
X54864Y298944D01*
X56425Y299254D01*
X57748Y300138D01*
X68162Y310552D01*
X68162Y310552D01*
X69046Y311875D01*
X69356Y313436D01*
X69356Y313436D01*
Y348577D01*
X77940Y357160D01*
X99482D01*
X101086Y354160D01*
X100698Y353579D01*
X100232Y351238D01*
X100698Y348897D01*
X102024Y346913D01*
X104009Y345586D01*
X106350Y345121D01*
X108691Y345586D01*
X110675Y346913D01*
X110841Y347160D01*
X153812D01*
X154630Y345187D01*
X156553Y342680D01*
X159060Y340756D01*
X161033Y339939D01*
Y278803D01*
X128191Y245961D01*
X67306D01*
X66488Y247935D01*
X64565Y250442D01*
X62058Y252365D01*
X59139Y253574D01*
X56006Y253987D01*
X52874Y253574D01*
X49955Y252365D01*
X47448Y250442D01*
X45525Y247935D01*
X44315Y245016D01*
X43903Y241883D01*
X44315Y238751D01*
X45525Y235831D01*
X47448Y233325D01*
X49955Y231401D01*
X52874Y230192D01*
X56006Y229780D01*
X59139Y230192D01*
X62058Y231401D01*
X64565Y233325D01*
X66488Y235831D01*
X67306Y237805D01*
X129881D01*
X129881Y237805D01*
X131442Y238115D01*
X132765Y238999D01*
X167995Y274230D01*
X167995Y274230D01*
X168880Y275553D01*
X169190Y277114D01*
X169190Y277114D01*
Y337150D01*
X172190Y338392D01*
X224922Y285661D01*
Y139850D01*
X224922Y139850D01*
X225232Y138289D01*
X226116Y136966D01*
X281126Y81956D01*
X280309Y79983D01*
X279896Y76850D01*
X280309Y73718D01*
X281518Y70799D01*
X283441Y68292D01*
X285948Y66368D01*
X288867Y65159D01*
X292000Y64747D01*
X295133Y65159D01*
X298052Y66368D01*
X300558Y68292D01*
X302482Y70799D01*
X303691Y73718D01*
X304103Y76850D01*
X303691Y79983D01*
X302482Y82902D01*
X300558Y85409D01*
X298052Y87332D01*
X295133Y88541D01*
X292000Y88954D01*
X288867Y88541D01*
X286894Y87724D01*
X233078Y141539D01*
Y287350D01*
X232768Y288911D01*
X231884Y290234D01*
X231884Y290234D01*
X175985Y346132D01*
X176803Y348106D01*
X177215Y351238D01*
X176803Y354371D01*
X175594Y357290D01*
X173670Y359797D01*
X171163Y361720D01*
X168244Y362929D01*
X165112Y363342D01*
X161979Y362929D01*
X159060Y361720D01*
X156553Y359797D01*
X154630Y357290D01*
X153812Y355317D01*
X117072D01*
X116162Y358317D01*
X116218Y358354D01*
X162142Y404278D01*
X162142Y404278D01*
X163026Y405601D01*
X163336Y407162D01*
Y504231D01*
X165550Y506070D01*
X168315Y505168D01*
D02*
G37*
G36*
X574026Y516586D02*
Y515112D01*
X574026Y515112D01*
X574336Y513551D01*
X575220Y512228D01*
X625922Y461526D01*
Y282149D01*
X623949Y281332D01*
X621442Y279408D01*
X619518Y276902D01*
X618309Y273983D01*
X617897Y270850D01*
X618309Y267717D01*
X619518Y264798D01*
X621442Y262291D01*
X623949Y260368D01*
X626868Y259159D01*
X630000Y258746D01*
X633133Y259159D01*
X635034Y259946D01*
X638034Y258430D01*
Y238671D01*
X541050Y141688D01*
X538279Y142836D01*
Y159855D01*
X582258Y203834D01*
X582258Y203834D01*
X583142Y205157D01*
X583452Y206718D01*
X583452Y206718D01*
Y473476D01*
X583452Y473476D01*
X583142Y475037D01*
X582258Y476360D01*
X578079Y480539D01*
Y490887D01*
X577768Y492448D01*
X576884Y493771D01*
X576884Y493771D01*
X562415Y508241D01*
X562486Y508966D01*
X571254Y517734D01*
X574026Y516586D01*
D02*
G37*
G36*
X454924Y383700D02*
X453776Y380928D01*
X429689D01*
X417590Y393027D01*
Y404703D01*
X417838Y404868D01*
X419164Y406853D01*
X419630Y409194D01*
X419164Y411535D01*
X417838Y413520D01*
X417590Y413685D01*
Y417114D01*
X420362Y418262D01*
X454924Y383700D01*
D02*
G37*
G36*
X528738Y475652D02*
X528738Y475652D01*
X530061Y474768D01*
X531622Y474458D01*
X531622Y474458D01*
X572625D01*
X575296Y471787D01*
Y450242D01*
X573610Y449544D01*
X572296Y449291D01*
X571066Y450112D01*
X569505Y450423D01*
X569505Y450423D01*
X548583D01*
X523089Y475917D01*
X523254Y476893D01*
X526471Y477919D01*
X528738Y475652D01*
D02*
G37*
G36*
X323369Y490522D02*
X322221Y487750D01*
X314550D01*
Y470345D01*
X311778Y469197D01*
X289228Y491747D01*
Y493804D01*
X289389Y494044D01*
X289738Y495800D01*
Y510800D01*
X290138Y511288D01*
X302603D01*
X323369Y490522D01*
D02*
G37*
G36*
X735125Y505359D02*
X736166Y502157D01*
X705522Y471513D01*
X702750Y472661D01*
Y486850D01*
X682750D01*
Y483825D01*
X680974Y482368D01*
X679750Y482124D01*
X676750Y483977D01*
Y486350D01*
X674660D01*
X673418Y489350D01*
X679384Y495316D01*
X679384Y495316D01*
X680268Y496639D01*
X680578Y498200D01*
Y499850D01*
X684500D01*
Y500883D01*
X687272Y502031D01*
X693076Y496226D01*
X693076Y496226D01*
X694399Y495342D01*
X695960Y495032D01*
X695960Y495032D01*
X721558D01*
X721558Y495032D01*
X723119Y495342D01*
X724442Y496226D01*
X733787Y505571D01*
X735125Y505359D01*
D02*
G37*
G36*
X430064Y503137D02*
X430948Y501814D01*
X439838Y492924D01*
X439838Y492924D01*
X441161Y492040D01*
X442722Y491730D01*
X442722Y491730D01*
X478844D01*
X478844Y491730D01*
X479626Y491885D01*
X480951Y491259D01*
X481349Y490966D01*
X481407Y490916D01*
X482422Y489780D01*
Y445467D01*
X479422Y444557D01*
X479381Y444618D01*
X426988Y497011D01*
Y503223D01*
X429988Y503518D01*
X430064Y503137D01*
D02*
G37*
G36*
X72122Y437877D02*
Y422050D01*
X64700D01*
Y422050D01*
X62300D01*
Y422050D01*
X41924D01*
Y464154D01*
X44696Y465302D01*
X72122Y437877D01*
D02*
G37*
G36*
X468910Y443553D02*
X467997Y441349D01*
X467997D01*
Y427603D01*
X464997Y426193D01*
X464113Y426784D01*
X461772Y427249D01*
X459431Y426784D01*
X457446Y425458D01*
X456120Y423473D01*
X455654Y421132D01*
X456120Y418791D01*
X457446Y416806D01*
X459431Y415480D01*
X461772Y415014D01*
X464113Y415480D01*
X464986Y416064D01*
X468232Y415558D01*
X468692Y415289D01*
X469411Y414079D01*
X469000Y413350D01*
X469000D01*
Y390350D01*
X470182D01*
X470825Y389709D01*
X472181Y387350D01*
X471883Y385850D01*
X470716Y384428D01*
X465731D01*
X421488Y428671D01*
Y487056D01*
X424260Y488204D01*
X468910Y443553D01*
D02*
G37*
G36*
X857597Y448272D02*
X888500D01*
Y443850D01*
X909560D01*
Y428417D01*
X909312Y428252D01*
X907986Y426267D01*
X907521Y423926D01*
X907986Y421585D01*
X908481Y420844D01*
X906951Y417844D01*
X847277D01*
X844078Y421043D01*
Y432722D01*
X847078Y434671D01*
X848000Y434487D01*
X850243Y434934D01*
X852145Y436205D01*
X853416Y438107D01*
X853863Y440350D01*
Y446427D01*
X854517Y447076D01*
X856862Y448418D01*
X857597Y448272D01*
D02*
G37*
G36*
X507744Y790236D02*
X507890Y788704D01*
X506111Y787339D01*
X504428Y785145D01*
X503371Y782591D01*
X503010Y779850D01*
X503371Y777109D01*
X504428Y774555D01*
X506111Y772361D01*
X508305Y770678D01*
X510859Y769620D01*
X513600Y769259D01*
X516341Y769620D01*
X517558Y770125D01*
X524716Y762966D01*
X524716Y762966D01*
X526040Y762082D01*
X527600Y761772D01*
X542584D01*
X542584Y761772D01*
X544145Y762082D01*
X545468Y762966D01*
X553882Y771381D01*
X556032Y772077D01*
X557947Y771567D01*
X559105Y770678D01*
X559398Y770557D01*
X559785Y767403D01*
X549311Y756928D01*
X503689D01*
X471686Y788932D01*
X472834Y791704D01*
X507067D01*
X507744Y790236D01*
D02*
G37*
G36*
X924546Y739737D02*
Y733210D01*
X923000Y730851D01*
X897000D01*
Y726929D01*
X869141D01*
X868975Y727176D01*
X866991Y728502D01*
X864650Y728968D01*
X862308Y728502D01*
X860324Y727176D01*
X858998Y725192D01*
X858532Y722850D01*
X858684Y722088D01*
X856614Y719088D01*
X848779D01*
X809826Y758042D01*
X810330Y759259D01*
X810691Y762000D01*
X810330Y764741D01*
X809272Y767295D01*
X807589Y769489D01*
X805395Y771172D01*
X802841Y772230D01*
X800100Y772591D01*
X797359Y772230D01*
X794805Y771172D01*
X792611Y769489D01*
X790928Y767295D01*
X789870Y764741D01*
X789509Y762000D01*
X789870Y759259D01*
X790928Y756705D01*
X792611Y754511D01*
X794805Y752828D01*
X797359Y751770D01*
X800100Y751409D01*
X802841Y751770D01*
X804058Y752274D01*
X842904Y713428D01*
X841661Y710428D01*
X808671D01*
X769599Y749501D01*
X771299Y752044D01*
X771959Y751770D01*
X774700Y751409D01*
X777441Y751770D01*
X779995Y752828D01*
X782189Y754511D01*
X783872Y756705D01*
X784930Y759259D01*
X785291Y762000D01*
X784930Y764741D01*
X783872Y767295D01*
X782189Y769489D01*
X779995Y771172D01*
X777441Y772230D01*
X774700Y772591D01*
X771959Y772230D01*
X769405Y771172D01*
X769078Y770921D01*
X766078Y772401D01*
Y774700D01*
X766078Y774700D01*
X765768Y776261D01*
X764884Y777584D01*
X764884Y777584D01*
X759026Y783442D01*
X759530Y784659D01*
X759891Y787400D01*
X759530Y790141D01*
X758472Y792695D01*
X757247Y794292D01*
X757879Y796348D01*
X758585Y797292D01*
X765415D01*
X766121Y796348D01*
X766753Y794292D01*
X765528Y792695D01*
X764470Y790141D01*
X764109Y787400D01*
X764470Y784659D01*
X765528Y782105D01*
X767211Y779911D01*
X769405Y778228D01*
X771959Y777170D01*
X774700Y776809D01*
X777441Y777170D01*
X779995Y778228D01*
X782189Y779911D01*
X783872Y782105D01*
X784930Y784659D01*
X785291Y787400D01*
X784930Y790141D01*
X783872Y792695D01*
X782647Y794292D01*
X783279Y796348D01*
X783985Y797292D01*
X790815D01*
X791520Y796348D01*
X792153Y794292D01*
X790928Y792695D01*
X789870Y790141D01*
X789509Y787400D01*
X789870Y784659D01*
X790928Y782105D01*
X792611Y779911D01*
X794805Y778228D01*
X797359Y777170D01*
X800100Y776809D01*
X802841Y777170D01*
X805395Y778228D01*
X807589Y779911D01*
X809272Y782105D01*
X810330Y784659D01*
X810691Y787400D01*
X810330Y790141D01*
X809272Y792695D01*
X808047Y794292D01*
X808680Y796348D01*
X809385Y797292D01*
X866991D01*
X924546Y739737D01*
D02*
G37*
G36*
X580075Y783808D02*
X579571Y782591D01*
X579210Y779850D01*
X579571Y777109D01*
X580629Y774555D01*
X582312Y772361D01*
X583579Y771389D01*
X584176Y768459D01*
X584051Y767619D01*
X567361Y750928D01*
X558766D01*
X557618Y753700D01*
X567284Y763366D01*
X568168Y764689D01*
X568479Y766250D01*
X568479Y766250D01*
Y770174D01*
X569696Y770678D01*
X571889Y772361D01*
X573572Y774555D01*
X574630Y777109D01*
X574991Y779850D01*
X574630Y782591D01*
X573572Y785145D01*
X571889Y787339D01*
X569696Y789022D01*
X567141Y790080D01*
X564400Y790441D01*
X561659Y790080D01*
X559105Y789022D01*
X558755Y788754D01*
X558217Y788689D01*
X554991Y789557D01*
X554884Y789718D01*
X554884Y789718D01*
X543960Y800642D01*
X545203Y803642D01*
X560241D01*
X580075Y783808D01*
D02*
G37*
G36*
X349998Y755526D02*
Y675850D01*
X336000D01*
Y671605D01*
X334169Y670956D01*
X331500Y672920D01*
Y677350D01*
X314500D01*
Y654350D01*
X314000D01*
Y631350D01*
X331000D01*
Y631811D01*
X334000Y633584D01*
X334985Y633041D01*
X335000Y632891D01*
Y629850D01*
X349998D01*
Y563041D01*
X335780Y548824D01*
X333008Y549972D01*
Y610362D01*
X332698Y611923D01*
X331814Y613246D01*
X331814Y613246D01*
X323686Y621374D01*
X322363Y622258D01*
X320802Y622568D01*
X320802Y622568D01*
X304283D01*
X303373Y625568D01*
X303792Y625848D01*
X305118Y627833D01*
X305583Y630174D01*
X305118Y632515D01*
X304000Y634188D01*
Y654350D01*
X304500D01*
Y677350D01*
X303052D01*
X302027Y678598D01*
X301562Y680939D01*
X300236Y682924D01*
X298251Y684250D01*
X295910Y684716D01*
X294114Y686189D01*
Y739197D01*
X300916Y745998D01*
X305277D01*
X306080Y744105D01*
X306122Y742998D01*
X303728Y741162D01*
X301644Y738446D01*
X300335Y735284D01*
X299888Y731890D01*
Y721890D01*
X300335Y718496D01*
X301644Y715334D01*
X303728Y712618D01*
X306444Y710535D01*
X309606Y709225D01*
X313000Y708778D01*
X316394Y709225D01*
X319556Y710535D01*
X322272Y712618D01*
X324356Y715334D01*
X325665Y718496D01*
X326112Y721890D01*
Y731890D01*
X325665Y735284D01*
X324356Y738446D01*
X322272Y741162D01*
X319879Y742998D01*
X319920Y744105D01*
X320723Y745998D01*
X336550D01*
X347226Y756674D01*
X349998Y755526D01*
D02*
G37*
G36*
X165217Y742998D02*
X158035Y735815D01*
X156819Y733996D01*
X156392Y731850D01*
Y728350D01*
X153500D01*
Y713311D01*
X152101Y712850D01*
X150500Y712812D01*
X149884Y713734D01*
X149884Y713734D01*
X139384Y724234D01*
X138061Y725118D01*
X136500Y725428D01*
X135000Y727759D01*
Y729350D01*
X125250D01*
Y721350D01*
Y713350D01*
X135000D01*
Y713350D01*
X137639Y714443D01*
X142922Y709161D01*
Y694850D01*
X142922Y694850D01*
X143232Y693289D01*
X144116Y691966D01*
X153116Y682966D01*
X153116Y682966D01*
X154439Y682082D01*
X156000Y681772D01*
X180922D01*
Y660350D01*
X165250D01*
Y652429D01*
X135000D01*
Y656350D01*
X125250D01*
Y648350D01*
Y640350D01*
X135000D01*
Y644272D01*
X154741D01*
X154889Y644112D01*
X156070Y641272D01*
X155348Y640191D01*
X154882Y637850D01*
X155348Y635509D01*
X156674Y633524D01*
X158659Y632198D01*
X161000Y631732D01*
X162334Y631998D01*
X170725Y623608D01*
X170667Y623316D01*
X170725Y623024D01*
X107785Y560084D01*
X67344D01*
X67210Y560150D01*
X65079Y562904D01*
X65079Y562904D01*
Y563054D01*
X66181Y564704D01*
X66608Y566850D01*
Y572600D01*
X61000D01*
Y575100D01*
X66608D01*
Y580850D01*
X66181Y582996D01*
X65079Y584646D01*
Y647350D01*
X70500D01*
Y651771D01*
X86957D01*
X93262Y645467D01*
X93262Y645466D01*
X94585Y644582D01*
X96146Y644272D01*
X96146Y644272D01*
X113000D01*
Y640350D01*
X122750D01*
Y648350D01*
Y656350D01*
X113000D01*
Y652429D01*
X97835D01*
X91530Y658734D01*
X90207Y659618D01*
X88646Y659928D01*
X88646Y659928D01*
X70500D01*
Y664350D01*
X60881D01*
X59733Y667122D01*
X63883Y671272D01*
X112500D01*
Y666850D01*
X135500D01*
Y683850D01*
X135500D01*
Y685850D01*
X135500D01*
Y702850D01*
X112500D01*
Y685850D01*
X112500D01*
Y683850D01*
X112500D01*
Y679428D01*
X71000D01*
Y694850D01*
X51000D01*
Y692165D01*
X48000Y690092D01*
X46500Y690350D01*
Y690350D01*
X23500D01*
Y673350D01*
X46500D01*
Y675982D01*
X48000Y676885D01*
X51000Y676850D01*
Y676850D01*
X54006D01*
X55155Y674078D01*
X44426Y663350D01*
X23500D01*
Y646350D01*
X30922D01*
Y623651D01*
X19809Y610736D01*
X19491Y610174D01*
X19132Y609637D01*
X19102Y609485D01*
X19026Y609351D01*
X18948Y608709D01*
X18822Y608076D01*
Y585341D01*
X18574Y585176D01*
X17248Y583191D01*
X16783Y580850D01*
Y566850D01*
X17248Y564509D01*
X18574Y562524D01*
X18822Y562359D01*
Y561594D01*
X18822Y561594D01*
X19132Y560033D01*
X20016Y558710D01*
X25604Y553122D01*
X26927Y552238D01*
X28488Y551928D01*
X28488Y551928D01*
X109474D01*
X109474Y551928D01*
X111035Y552238D01*
X112358Y553122D01*
X169818Y610583D01*
X169921Y610572D01*
X172706Y609227D01*
Y595364D01*
X172706Y595364D01*
X172965Y594062D01*
X172965Y594062D01*
X173016Y593803D01*
X173388Y593247D01*
X173646Y592748D01*
X173646Y592748D01*
X171662Y591422D01*
X170336Y589438D01*
X169870Y587097D01*
X170336Y584756D01*
X171662Y582771D01*
X173646Y581445D01*
X175987Y580979D01*
X177250Y581230D01*
X178529Y581262D01*
X179221Y580630D01*
X180557Y579326D01*
X180908Y578800D01*
X180411Y578056D01*
X180062Y576300D01*
X180411Y574544D01*
X180908Y573800D01*
X180411Y573056D01*
X180062Y571300D01*
X178936Y569928D01*
X171491D01*
X171326Y570176D01*
X169341Y571502D01*
X167000Y571968D01*
X164659Y571502D01*
X162674Y570176D01*
X161348Y568191D01*
X160882Y565850D01*
X161348Y563509D01*
X161795Y562840D01*
X159856Y560762D01*
X159664Y560629D01*
X158160Y560928D01*
X158160Y560928D01*
X136226D01*
X134665Y560618D01*
X133342Y559734D01*
X133342Y559734D01*
X121830Y548222D01*
X120946Y546899D01*
X120636Y545338D01*
X120636Y545338D01*
Y425107D01*
X113157Y417629D01*
X87700D01*
Y422050D01*
X80278D01*
Y439566D01*
X80278Y439566D01*
X79968Y441127D01*
X79084Y442450D01*
X79084Y442450D01*
X44183Y477350D01*
X45426Y480350D01*
X47000D01*
Y503350D01*
X47000D01*
X46325Y504978D01*
X51184Y509836D01*
X51184Y509837D01*
X51922Y510941D01*
X52417Y511225D01*
X54997Y511710D01*
X55419Y511565D01*
X56922Y510056D01*
Y509960D01*
X56922Y509960D01*
X57232Y508399D01*
X58116Y507076D01*
X58842Y506350D01*
X57600Y503350D01*
X57000D01*
Y480350D01*
X74000D01*
Y503350D01*
X71502D01*
X69578Y505460D01*
X69268Y507021D01*
X68384Y508344D01*
X66816Y509912D01*
X65326Y512524D01*
X66652Y514509D01*
X67118Y516850D01*
Y530850D01*
X66652Y533191D01*
X65326Y535176D01*
X63341Y536502D01*
X61000Y536968D01*
X58659Y536502D01*
X56674Y535176D01*
X56450Y534840D01*
X52850D01*
X52626Y535176D01*
X50641Y536502D01*
X48300Y536968D01*
X45959Y536502D01*
X43974Y535176D01*
X43750Y534840D01*
X40150D01*
X39926Y535176D01*
X37941Y536502D01*
X35600Y536968D01*
X33259Y536502D01*
X31274Y535176D01*
X31050Y534840D01*
X27450D01*
X27226Y535176D01*
X25241Y536502D01*
X22900Y536968D01*
X20559Y536502D01*
X18574Y535176D01*
X17248Y533191D01*
X16783Y530850D01*
Y516850D01*
X17248Y514509D01*
X18574Y512524D01*
X18822Y512359D01*
Y469860D01*
X18822Y469860D01*
X19132Y468299D01*
X20016Y466976D01*
X21322Y465671D01*
Y422050D01*
X13900D01*
Y417564D01*
X12663Y417318D01*
X11340Y416434D01*
X11340Y416434D01*
X9350Y414444D01*
X6350Y415686D01*
Y708004D01*
X9343Y709612D01*
X11684Y709146D01*
X14025Y709612D01*
X16010Y710938D01*
X17336Y712923D01*
X17802Y715264D01*
X17336Y717605D01*
X16010Y719590D01*
X15762Y719755D01*
Y737345D01*
X24415Y745998D01*
X163975D01*
X165217Y742998D01*
D02*
G37*
G36*
X226000Y784850D02*
X221000D01*
Y793850D01*
X226000D01*
X226000Y784850D01*
D02*
G37*
G36*
X714213Y808990D02*
X715361Y806218D01*
X710094Y800952D01*
X709210Y799629D01*
X708900Y798068D01*
X708900Y798068D01*
Y796023D01*
X706320Y795018D01*
X705900Y794957D01*
X703795Y796572D01*
X701241Y797630D01*
X698500Y797991D01*
X695759Y797630D01*
X693205Y796572D01*
X691011Y794889D01*
X689328Y792695D01*
X688270Y790141D01*
X687909Y787400D01*
X688270Y784659D01*
X689328Y782105D01*
X691011Y779911D01*
X693205Y778228D01*
X695759Y777170D01*
X698500Y776809D01*
X701241Y777170D01*
X703589Y778143D01*
X703893Y778185D01*
X706911Y776838D01*
X707021Y776289D01*
X703232Y772500D01*
X688000D01*
Y751500D01*
X709000D01*
Y766732D01*
X715862Y773594D01*
X715862Y773594D01*
X716746Y774917D01*
X717056Y776478D01*
X717157Y776600D01*
X720056Y778168D01*
X721290Y777657D01*
X722650Y777478D01*
Y787400D01*
X723900D01*
Y788650D01*
X733822D01*
X733643Y790011D01*
X733243Y790975D01*
X737677Y795409D01*
X738094Y795538D01*
X738455Y795443D01*
X739157Y794290D01*
X739831Y791978D01*
X739070Y790141D01*
X738709Y787400D01*
X739070Y784659D01*
X740128Y782105D01*
X741811Y779911D01*
X744005Y778228D01*
X746559Y777170D01*
X749300Y776809D01*
X752041Y777170D01*
X753258Y777674D01*
X756090Y774842D01*
X755913Y773773D01*
X752581Y772006D01*
X752041Y772230D01*
X749300Y772591D01*
X746559Y772230D01*
X744005Y771172D01*
X741811Y769489D01*
X740128Y767295D01*
X739070Y764741D01*
X738709Y762000D01*
X739070Y759259D01*
X740128Y756705D01*
X741811Y754511D01*
X744005Y752828D01*
X745222Y752324D01*
Y707136D01*
X745222Y707136D01*
X745532Y705575D01*
X746416Y704252D01*
X759116Y691552D01*
X759116Y691552D01*
X760439Y690668D01*
X762000Y690358D01*
X762000Y690358D01*
X867904D01*
Y687350D01*
X859250D01*
Y679350D01*
Y671350D01*
X867904D01*
Y567347D01*
X856862Y556306D01*
X853863Y557549D01*
Y565350D01*
X853416Y567594D01*
X852810Y568502D01*
X853758Y569921D01*
X854223Y572262D01*
X853758Y574603D01*
X852432Y576588D01*
X850447Y577914D01*
X848106Y578380D01*
X845765Y577914D01*
X843780Y576588D01*
X842454Y574603D01*
X842297Y573815D01*
X841547Y572965D01*
X838548Y573044D01*
X837905Y573855D01*
X837756Y574603D01*
X836430Y576588D01*
X834445Y577914D01*
X832354Y578330D01*
X831364Y579412D01*
X830320Y580866D01*
X830579Y582168D01*
X832788Y583850D01*
X834500D01*
Y593600D01*
X826500D01*
Y596100D01*
X834500D01*
Y605850D01*
X830579D01*
Y669009D01*
X836841Y675272D01*
X847000D01*
Y671350D01*
X856750D01*
Y679350D01*
Y687350D01*
X847000D01*
Y683428D01*
X833183D01*
X831533Y684531D01*
X830637Y684709D01*
Y679350D01*
X829387D01*
Y678100D01*
X824028D01*
X824206Y677204D01*
X825421Y675386D01*
X823616Y673582D01*
X822732Y672259D01*
X822422Y670698D01*
X822422Y670698D01*
Y605850D01*
X818500D01*
X816079Y607247D01*
Y611805D01*
X815768Y613365D01*
X814884Y614689D01*
X814884Y614689D01*
X814137Y615436D01*
X812814Y616320D01*
X811253Y616630D01*
X811253Y616630D01*
X749300D01*
X747739Y616320D01*
X746416Y615436D01*
X746416Y615436D01*
X729165Y598184D01*
X716836D01*
X716205Y598800D01*
X714825Y601184D01*
X715117Y602656D01*
X714652Y604997D01*
X713326Y606982D01*
X713078Y607147D01*
Y615850D01*
X718000D01*
Y635850D01*
X716037D01*
X714434Y638850D01*
X714652Y639177D01*
X715117Y641518D01*
X716210Y642850D01*
X718000D01*
Y662850D01*
X700000D01*
Y642850D01*
X701789D01*
X702882Y641518D01*
X703348Y639177D01*
X703566Y638850D01*
X701963Y635850D01*
X700000D01*
Y615850D01*
X704921D01*
Y607147D01*
X704674Y606982D01*
X703348Y604997D01*
X702882Y602656D01*
X703175Y601184D01*
X701795Y598800D01*
X701164Y598184D01*
X584962D01*
X584962Y598184D01*
X583401Y597874D01*
X582078Y596990D01*
X535904Y550815D01*
X535861Y550810D01*
X534774Y550931D01*
X533877Y551426D01*
X533376Y553254D01*
X534160Y554427D01*
X534626Y556768D01*
X534160Y559109D01*
X532834Y561094D01*
X530849Y562420D01*
X528508Y562886D01*
X526252Y562437D01*
X526162Y562423D01*
X523252Y564081D01*
Y575161D01*
X542126Y594034D01*
X542126Y594034D01*
X543010Y595357D01*
X543320Y596918D01*
X543320Y596918D01*
Y599425D01*
X543568Y599590D01*
X544894Y601575D01*
X545359Y603916D01*
X544894Y606257D01*
X543568Y608242D01*
X541583Y609568D01*
X539242Y610033D01*
X536901Y609568D01*
X534916Y608242D01*
X533590Y606257D01*
X533125Y603916D01*
X533590Y601575D01*
X534916Y599590D01*
X533491Y596935D01*
X516290Y579734D01*
X515406Y578411D01*
X515096Y576850D01*
X515096Y576850D01*
Y575630D01*
X512598Y573662D01*
X510828Y574631D01*
Y579991D01*
X519805Y588967D01*
X519805Y588967D01*
X520689Y590290D01*
X520999Y591851D01*
X520999Y591851D01*
Y595359D01*
X521247Y595524D01*
X522573Y597509D01*
X523038Y599850D01*
X522573Y602191D01*
X521247Y604176D01*
X519262Y605502D01*
X516921Y605967D01*
X514580Y605502D01*
X512595Y604176D01*
X511269Y602191D01*
X510803Y599850D01*
X511269Y597509D01*
X512595Y595524D01*
X512002Y592700D01*
X506188Y586886D01*
X503188Y588129D01*
Y601791D01*
X618084Y716687D01*
X618084Y716687D01*
X618968Y718010D01*
X619279Y719571D01*
X619278Y719571D01*
Y770715D01*
X620243Y771115D01*
X622332Y772718D01*
X623935Y774807D01*
X624943Y777240D01*
X625122Y778600D01*
X615200D01*
X605279D01*
X605458Y777240D01*
X606465Y774807D01*
X608068Y772718D01*
X610157Y771115D01*
X611122Y770715D01*
Y721260D01*
X496226Y606365D01*
X496226Y606364D01*
X469828Y579967D01*
X466828Y581209D01*
Y623500D01*
X471250D01*
Y642213D01*
X474021Y643361D01*
X481250Y636132D01*
Y623500D01*
X498250D01*
Y645900D01*
X498250Y646500D01*
Y648900D01*
X498250Y649500D01*
Y671900D01*
X496386D01*
X493829Y673062D01*
X493518Y674623D01*
X492634Y675946D01*
X471895Y696684D01*
X471954Y696976D01*
X471488Y699317D01*
X470162Y701302D01*
X468177Y702628D01*
X465836Y703093D01*
X463495Y702628D01*
X461510Y701302D01*
X460184Y699317D01*
X459719Y696976D01*
X460184Y694635D01*
X461510Y692650D01*
X463495Y691324D01*
X465836Y690859D01*
X466128Y690917D01*
X482391Y674654D01*
X481250Y671900D01*
X481250D01*
Y651910D01*
X478250Y650667D01*
X471250Y657668D01*
Y671900D01*
X466828D01*
Y680212D01*
X466828Y680212D01*
X466518Y681773D01*
X465634Y683096D01*
X441768Y706961D01*
X442472Y710500D01*
X442556Y710535D01*
X445272Y712618D01*
X447355Y715334D01*
X448665Y718496D01*
X449112Y721890D01*
Y731890D01*
X448665Y735284D01*
X447355Y738446D01*
X445272Y741162D01*
X442556Y743245D01*
X439394Y744555D01*
X436000Y745002D01*
X432606Y744555D01*
X431086Y743926D01*
X429387Y746469D01*
X438884Y755966D01*
X438884Y755966D01*
X439768Y757289D01*
X440075Y758833D01*
X441080D01*
X444449Y759276D01*
X447589Y760577D01*
X450285Y762645D01*
X452353Y765341D01*
X453654Y768481D01*
X454097Y771850D01*
X453654Y775219D01*
X452353Y778359D01*
X450886Y780272D01*
X451828Y782837D01*
X452205Y783272D01*
X457837D01*
X497143Y743966D01*
X498466Y743082D01*
X500027Y742772D01*
X500027Y742772D01*
X569050D01*
X569050Y742772D01*
X570611Y743082D01*
X571934Y743966D01*
X592684Y764716D01*
X592684Y764716D01*
X593568Y766040D01*
X593879Y767600D01*
Y770174D01*
X595095Y770678D01*
X597289Y772361D01*
X598972Y774555D01*
X600030Y777109D01*
X600391Y779850D01*
X600030Y782591D01*
X598972Y785145D01*
X597289Y787339D01*
X595095Y789022D01*
X592541Y790080D01*
X589800Y790441D01*
X587059Y790080D01*
X585842Y789576D01*
X569200Y806218D01*
X570348Y808990D01*
X714213Y808990D01*
D02*
G37*
G36*
X149000Y784850D02*
X144000D01*
X144000Y793850D01*
X149000D01*
Y784850D01*
D02*
G37*
G36*
X162000Y779850D02*
X149000D01*
Y798850D01*
X162000D01*
Y779850D01*
D02*
G37*
G36*
X221000D02*
X208000D01*
Y798850D01*
X221000D01*
Y779850D01*
D02*
G37*
G36*
X431922Y708323D02*
Y706962D01*
X431922Y706962D01*
X432232Y705401D01*
X433116Y704078D01*
X458671Y678523D01*
Y671900D01*
X454250D01*
Y649500D01*
X454250Y648900D01*
X454250D01*
Y646500D01*
X454250D01*
Y639078D01*
X426988D01*
Y708145D01*
X429791Y709547D01*
X431922Y708323D01*
D02*
G37*
G36*
X286636Y742998D02*
X286268Y742447D01*
X285958Y740886D01*
X285958Y740886D01*
Y697623D01*
X284036Y696046D01*
X281695Y695580D01*
X279710Y694254D01*
X278384Y692269D01*
X277918Y689928D01*
X277976Y689636D01*
X260214Y671874D01*
X257449Y673352D01*
X257578Y674000D01*
X257578Y674000D01*
Y745998D01*
X285498D01*
X286636Y742998D01*
D02*
G37*
G36*
X283420Y679929D02*
X283657Y679141D01*
X282998Y678155D01*
X282688Y676594D01*
X282688Y676594D01*
Y630936D01*
X282688Y630936D01*
X282998Y629375D01*
X283208Y629061D01*
X283249Y628396D01*
X283012Y627264D01*
X281699Y626080D01*
X280150Y626388D01*
X278394Y626039D01*
X277650Y625542D01*
X276906Y626039D01*
X275150Y626388D01*
X273394Y626039D01*
X272650Y625542D01*
X271906Y626039D01*
X270150Y626388D01*
X268394Y626039D01*
X267650Y625542D01*
X266906Y626039D01*
X265150Y626388D01*
X264228Y627145D01*
Y664352D01*
X280611Y680735D01*
X283420Y679929D01*
D02*
G37*
G36*
X192232Y694289D02*
X193116Y692966D01*
X196616Y689466D01*
X196616Y689466D01*
X197939Y688582D01*
X199500Y688272D01*
X227500D01*
Y683850D01*
X245921D01*
Y677139D01*
X207127Y638344D01*
X204750Y640210D01*
Y648850D01*
X185000D01*
Y651350D01*
X204750D01*
Y660350D01*
X189079D01*
Y685850D01*
X189079Y685850D01*
X189079Y685850D01*
X189079Y685850D01*
X189079Y685850D01*
Y694766D01*
X192078Y695062D01*
X192232Y694289D01*
D02*
G37*
G36*
X755520Y751493D02*
X758156Y750154D01*
X758232Y749771D01*
X759116Y748448D01*
X804098Y703466D01*
X804098Y703466D01*
X805421Y702582D01*
X806982Y702272D01*
X846500D01*
Y698514D01*
X763689D01*
X753378Y708825D01*
Y750635D01*
X754922Y751533D01*
X755520Y751493D01*
D02*
G37*
G36*
X191922Y727850D02*
X186250D01*
Y717600D01*
X185000D01*
Y716350D01*
X177000D01*
Y707349D01*
X180922D01*
Y689928D01*
X157689D01*
X151078Y696539D01*
Y705453D01*
X153500Y706850D01*
X170500D01*
Y728350D01*
X170500D01*
X169430Y731350D01*
X174198Y736117D01*
X191922D01*
Y727850D01*
D02*
G37*
%LPC*%
G36*
X373750Y675350D02*
X366500D01*
Y667100D01*
X373750D01*
Y675350D01*
D02*
G37*
G36*
X366796Y596450D02*
X362687D01*
X362865Y595554D01*
X364081Y593735D01*
X365900Y592519D01*
X366796Y592341D01*
Y596450D01*
D02*
G37*
G36*
X436076Y191579D02*
X433735Y191113D01*
X431751Y189787D01*
X430424Y187803D01*
X429959Y185462D01*
X430424Y183121D01*
X431751Y181136D01*
X433735Y179810D01*
X436076Y179344D01*
X436368Y179402D01*
X491654Y124116D01*
X491654Y124116D01*
X492977Y123232D01*
X494538Y122922D01*
X494538Y122922D01*
X498700D01*
Y115500D01*
X515700D01*
Y138500D01*
X511278D01*
Y143558D01*
X511526Y143724D01*
X512852Y145708D01*
X513317Y148049D01*
X512852Y150391D01*
X511526Y152375D01*
X509541Y153701D01*
X507200Y154167D01*
X504859Y153701D01*
X502874Y152375D01*
X501548Y150391D01*
X501082Y148049D01*
X501548Y145708D01*
X502874Y143724D01*
X503121Y143558D01*
Y138500D01*
X498700D01*
Y132352D01*
X495700Y131606D01*
X442136Y185170D01*
X442194Y185462D01*
X441728Y187803D01*
X440402Y189787D01*
X438417Y191113D01*
X436076Y191579D01*
D02*
G37*
G36*
X542200Y125750D02*
X534200D01*
X526200D01*
Y116000D01*
X530122D01*
Y101332D01*
X529019Y99682D01*
X528841Y98786D01*
X539559D01*
X539381Y99682D01*
X538279Y101332D01*
Y116000D01*
X542200D01*
Y125750D01*
D02*
G37*
G36*
X358050Y487250D02*
X351300D01*
Y477500D01*
X358050D01*
Y487250D01*
D02*
G37*
G36*
X435082Y518185D02*
Y514076D01*
X439191D01*
X439013Y514972D01*
X437797Y516791D01*
X435978Y518007D01*
X435082Y518185D01*
D02*
G37*
G36*
X850000Y157953D02*
X846867Y157541D01*
X843948Y156332D01*
X841441Y154408D01*
X839518Y151902D01*
X838309Y148982D01*
X837896Y145850D01*
X838309Y142717D01*
X839518Y139798D01*
X841441Y137291D01*
X843948Y135368D01*
X846867Y134159D01*
X850000Y133746D01*
X853132Y134159D01*
X856052Y135368D01*
X858558Y137291D01*
X860482Y139798D01*
X861691Y142717D01*
X862103Y145850D01*
X861691Y148982D01*
X860482Y151902D01*
X858558Y154408D01*
X856052Y156332D01*
X853132Y157541D01*
X850000Y157953D01*
D02*
G37*
G36*
X800000D02*
X796867Y157541D01*
X793948Y156332D01*
X791441Y154408D01*
X789518Y151902D01*
X788309Y148982D01*
X787896Y145850D01*
X788309Y142717D01*
X789518Y139798D01*
X791441Y137291D01*
X793948Y135368D01*
X796867Y134159D01*
X800000Y133746D01*
X803133Y134159D01*
X806052Y135368D01*
X808558Y137291D01*
X810482Y139798D01*
X811691Y142717D01*
X812104Y145850D01*
X811691Y148982D01*
X810482Y151902D01*
X808558Y154408D01*
X806052Y156332D01*
X803133Y157541D01*
X800000Y157953D01*
D02*
G37*
G36*
X985900Y803350D02*
X964900D01*
Y782350D01*
X985900D01*
Y803350D01*
D02*
G37*
G36*
X809500Y395600D02*
X801500D01*
X793500D01*
Y385850D01*
X797422D01*
Y350876D01*
X797422Y350876D01*
X797732Y349315D01*
X798616Y347992D01*
X806922Y339687D01*
Y306850D01*
X803000D01*
Y297100D01*
X811000D01*
X819000D01*
Y306850D01*
X815079D01*
Y341376D01*
X814768Y342937D01*
X813884Y344260D01*
X813884Y344260D01*
X805578Y352565D01*
Y385850D01*
X809500D01*
Y395600D01*
D02*
G37*
G36*
X950000Y803440D02*
X947259Y803080D01*
X944705Y802021D01*
X942511Y800339D01*
X940828Y798145D01*
X939770Y795591D01*
X939410Y792850D01*
X939770Y790109D01*
X940828Y787554D01*
X942511Y785361D01*
X944705Y783678D01*
X947259Y782620D01*
X950000Y782259D01*
X952741Y782620D01*
X955295Y783678D01*
X957489Y785361D01*
X959172Y787554D01*
X960230Y790109D01*
X960591Y792850D01*
X960230Y795591D01*
X959172Y798145D01*
X957489Y800339D01*
X955295Y802021D01*
X952741Y803080D01*
X950000Y803440D01*
D02*
G37*
G36*
X278645Y250598D02*
X275512Y250186D01*
X272593Y248977D01*
X270086Y247053D01*
X268163Y244547D01*
X266954Y241628D01*
X266541Y238495D01*
X266954Y235362D01*
X268163Y232443D01*
X270086Y229936D01*
X272593Y228013D01*
X275512Y226804D01*
X278645Y226391D01*
X281777Y226804D01*
X284696Y228013D01*
X287203Y229936D01*
X289127Y232443D01*
X290336Y235362D01*
X290748Y238495D01*
X290336Y241627D01*
X289127Y244547D01*
X287203Y247053D01*
X284696Y248977D01*
X281777Y250186D01*
X278645Y250598D01*
D02*
G37*
G36*
X179750Y200954D02*
X176618Y200541D01*
X173699Y199332D01*
X171192Y197409D01*
X169268Y194902D01*
X168059Y191983D01*
X167647Y188850D01*
X168059Y185717D01*
X169268Y182798D01*
X171192Y180292D01*
X173699Y178368D01*
X176618Y177159D01*
X179750Y176747D01*
X182883Y177159D01*
X185802Y178368D01*
X188309Y180292D01*
X190232Y182798D01*
X191441Y185717D01*
X191854Y188850D01*
X191441Y191983D01*
X190232Y194902D01*
X188309Y197409D01*
X185802Y199332D01*
X182883Y200541D01*
X179750Y200954D01*
D02*
G37*
G36*
X203612Y177342D02*
X200479Y176929D01*
X197560Y175720D01*
X195053Y173797D01*
X193130Y171290D01*
X191920Y168371D01*
X191508Y165238D01*
X191920Y162106D01*
X193130Y159186D01*
X195053Y156680D01*
X197560Y154756D01*
X200479Y153547D01*
X203612Y153135D01*
X206744Y153547D01*
X209663Y154756D01*
X212170Y156680D01*
X214093Y159186D01*
X215303Y162106D01*
X215715Y165238D01*
X215303Y168371D01*
X214093Y171290D01*
X212170Y173797D01*
X209663Y175720D01*
X206744Y176929D01*
X203612Y177342D01*
D02*
G37*
G36*
X91362Y289342D02*
X88229Y288930D01*
X85310Y287720D01*
X82803Y285797D01*
X80880Y283290D01*
X79671Y280371D01*
X79258Y277239D01*
X79671Y274106D01*
X80880Y271187D01*
X82803Y268680D01*
X85310Y266756D01*
X88229Y265547D01*
X91362Y265135D01*
X94494Y265547D01*
X97414Y266756D01*
X99920Y268680D01*
X101844Y271187D01*
X103053Y274106D01*
X103465Y277239D01*
X103053Y280371D01*
X101844Y283290D01*
X99920Y285797D01*
X97414Y287720D01*
X94494Y288930D01*
X91362Y289342D01*
D02*
G37*
G36*
X288855Y310309D02*
X285723Y309896D01*
X282804Y308687D01*
X280297Y306764D01*
X278373Y304257D01*
X277164Y301338D01*
X276752Y298205D01*
X277164Y295072D01*
X278373Y292153D01*
X280297Y289647D01*
X282804Y287723D01*
X285723Y286514D01*
X288855Y286102D01*
X291988Y286514D01*
X294907Y287723D01*
X297414Y289647D01*
X299337Y292153D01*
X300546Y295072D01*
X300959Y298205D01*
X300546Y301338D01*
X299337Y304257D01*
X297414Y306764D01*
X294907Y308687D01*
X291988Y309896D01*
X288855Y310309D01*
D02*
G37*
G36*
X253500Y274953D02*
X250368Y274541D01*
X247448Y273332D01*
X244942Y271408D01*
X243018Y268902D01*
X241809Y265982D01*
X241397Y262850D01*
X241809Y259717D01*
X243018Y256798D01*
X244942Y254291D01*
X247448Y252368D01*
X250368Y251159D01*
X253500Y250746D01*
X256633Y251159D01*
X259552Y252368D01*
X262059Y254291D01*
X263982Y256798D01*
X265191Y259717D01*
X265604Y262850D01*
X265191Y265982D01*
X263982Y268902D01*
X262059Y271408D01*
X259552Y273332D01*
X256633Y274541D01*
X253500Y274953D01*
D02*
G37*
G36*
X314000Y285954D02*
X310867Y285541D01*
X307948Y284332D01*
X305441Y282409D01*
X303518Y279902D01*
X302309Y276983D01*
X301896Y273850D01*
X302309Y270718D01*
X303518Y267798D01*
X305441Y265292D01*
X307948Y263368D01*
X310867Y262159D01*
X314000Y261747D01*
X317132Y262159D01*
X320052Y263368D01*
X322558Y265292D01*
X324482Y267798D01*
X325691Y270718D01*
X326103Y273850D01*
X325691Y276983D01*
X324482Y279902D01*
X322558Y282409D01*
X320052Y284332D01*
X317132Y285541D01*
X314000Y285954D01*
D02*
G37*
G36*
X367033Y162210D02*
X363900Y161798D01*
X360981Y160588D01*
X358475Y158665D01*
X356551Y156158D01*
X355342Y153239D01*
X354930Y150106D01*
X355342Y146974D01*
X356551Y144055D01*
X358475Y141548D01*
X360981Y139624D01*
X363900Y138415D01*
X367033Y138003D01*
X370166Y138415D01*
X372139Y139233D01*
X400120Y111252D01*
X399478Y110291D01*
X399012Y107950D01*
X399478Y105609D01*
X400804Y103624D01*
X402789Y102298D01*
X405130Y101833D01*
X407471Y102298D01*
X409456Y103624D01*
X410782Y105609D01*
X411247Y107950D01*
X410782Y110291D01*
X409456Y112276D01*
X409109Y112507D01*
X408898Y113570D01*
X408014Y114893D01*
X408014Y114893D01*
X377907Y145000D01*
X378724Y146974D01*
X379137Y150106D01*
X378724Y153239D01*
X377515Y156158D01*
X375592Y158665D01*
X373085Y160588D01*
X370166Y161798D01*
X367033Y162210D01*
D02*
G37*
G36*
X256645Y53598D02*
X253512Y53186D01*
X250593Y51976D01*
X248086Y50053D01*
X246163Y47546D01*
X244953Y44627D01*
X244541Y41494D01*
X244953Y38362D01*
X246163Y35443D01*
X248086Y32936D01*
X250593Y31012D01*
X253512Y29803D01*
X256645Y29391D01*
X259777Y29803D01*
X262696Y31012D01*
X265203Y32936D01*
X267127Y35443D01*
X268336Y38362D01*
X268748Y41494D01*
X268336Y44627D01*
X267127Y47546D01*
X265203Y50053D01*
X262696Y51976D01*
X259777Y53186D01*
X256645Y53598D01*
D02*
G37*
G36*
X144394Y165598D02*
X141262Y165186D01*
X138343Y163977D01*
X135836Y162053D01*
X133912Y159546D01*
X132703Y156627D01*
X132291Y153495D01*
X132703Y150362D01*
X133912Y147443D01*
X135836Y144936D01*
X138343Y143013D01*
X141262Y141804D01*
X144394Y141391D01*
X147527Y141804D01*
X150446Y143013D01*
X152953Y144936D01*
X154876Y147443D01*
X156086Y150362D01*
X156498Y153495D01*
X156086Y156627D01*
X154876Y159546D01*
X152953Y162053D01*
X150446Y163977D01*
X147527Y165186D01*
X144394Y165598D01*
D02*
G37*
G36*
X168256Y141986D02*
X165124Y141574D01*
X162204Y140365D01*
X159698Y138441D01*
X157774Y135935D01*
X156565Y133015D01*
X156153Y129883D01*
X156565Y126750D01*
X157774Y123831D01*
X159698Y121324D01*
X162204Y119401D01*
X165124Y118192D01*
X168256Y117779D01*
X171389Y118192D01*
X174308Y119401D01*
X176815Y121324D01*
X178738Y123831D01*
X179947Y126750D01*
X180360Y129883D01*
X179947Y133015D01*
X178738Y135935D01*
X176815Y138441D01*
X174308Y140365D01*
X171389Y141574D01*
X168256Y141986D01*
D02*
G37*
G36*
X200467Y398697D02*
X197334Y398285D01*
X194415Y397076D01*
X191908Y395152D01*
X189985Y392645D01*
X188776Y389726D01*
X188363Y386594D01*
X188776Y383461D01*
X189985Y380542D01*
X191908Y378035D01*
X194415Y376112D01*
X197334Y374902D01*
X200467Y374490D01*
X203600Y374902D01*
X206519Y376112D01*
X209025Y378035D01*
X210949Y380542D01*
X212158Y383461D01*
X212570Y386594D01*
X212158Y389726D01*
X210949Y392645D01*
X209025Y395152D01*
X206519Y397076D01*
X203600Y398285D01*
X200467Y398697D01*
D02*
G37*
G36*
X122750Y720100D02*
X113000D01*
Y713350D01*
X122750D01*
Y720100D01*
D02*
G37*
G36*
Y729350D02*
X113000D01*
Y722600D01*
X122750D01*
Y729350D01*
D02*
G37*
G36*
X723900Y772591D02*
X721159Y772230D01*
X718605Y771172D01*
X716411Y769489D01*
X714728Y767295D01*
X713670Y764741D01*
X713309Y762000D01*
X713670Y759259D01*
X714728Y756705D01*
X716411Y754511D01*
X718605Y752828D01*
X721159Y751770D01*
X723900Y751409D01*
X726641Y751770D01*
X729195Y752828D01*
X731389Y754511D01*
X733072Y756705D01*
X734130Y759259D01*
X734491Y762000D01*
X734130Y764741D01*
X733072Y767295D01*
X731389Y769489D01*
X729195Y771172D01*
X726641Y772230D01*
X723900Y772591D01*
D02*
G37*
G36*
X733822Y786150D02*
X725150D01*
Y777478D01*
X726510Y777657D01*
X728943Y778665D01*
X731032Y780268D01*
X732635Y782357D01*
X733643Y784790D01*
X733822Y786150D01*
D02*
G37*
G36*
X828137Y684709D02*
X827241Y684531D01*
X825422Y683315D01*
X824206Y681496D01*
X824028Y680600D01*
X828137D01*
Y684709D01*
D02*
G37*
G36*
X651100Y790350D02*
X630100D01*
Y769350D01*
X636522D01*
Y721140D01*
X622616Y707234D01*
X621732Y705911D01*
X621422Y704350D01*
X621422Y704350D01*
Y665350D01*
X617000D01*
Y643350D01*
X617000Y642350D01*
X617000D01*
Y640350D01*
X617000D01*
Y617350D01*
X631232D01*
X640616Y607966D01*
X640616Y607966D01*
X641939Y607082D01*
X643500Y606772D01*
X673000D01*
X673000Y606772D01*
X674561Y607082D01*
X675884Y607966D01*
X681884Y613966D01*
X682768Y615289D01*
X682879Y615850D01*
X688000D01*
Y635850D01*
X670000D01*
Y615850D01*
X667382Y614928D01*
X662396D01*
X661000Y617350D01*
Y639350D01*
X661000Y642350D01*
X661000Y643350D01*
Y648724D01*
X664000Y649527D01*
X664665Y649082D01*
X666226Y648772D01*
X670000D01*
Y642850D01*
X688000D01*
Y662850D01*
X670000D01*
Y658652D01*
X667000Y657475D01*
X666787Y657618D01*
X665226Y657928D01*
X665226Y657928D01*
X661000D01*
Y665350D01*
X644000D01*
Y645360D01*
X641000Y644117D01*
X634000Y651117D01*
Y665350D01*
X629578D01*
Y702661D01*
X643484Y716566D01*
X644368Y717889D01*
X644679Y719450D01*
X644678Y719450D01*
Y769350D01*
X651100D01*
Y790350D01*
D02*
G37*
G36*
X613950Y789772D02*
X612590Y789593D01*
X610157Y788585D01*
X608068Y786982D01*
X606465Y784893D01*
X605458Y782461D01*
X605279Y781100D01*
X613950D01*
Y789772D01*
D02*
G37*
G36*
X616450D02*
Y781100D01*
X625122D01*
X624943Y782461D01*
X623935Y784893D01*
X622332Y786982D01*
X620243Y788585D01*
X617811Y789593D01*
X616450Y789772D01*
D02*
G37*
G36*
X183750Y727850D02*
X177000D01*
Y718850D01*
X183750D01*
Y727850D01*
D02*
G37*
%LPD*%
D10*
X223500Y793850D02*
G03*
X223500Y793850I-2500J0D01*
G01*
Y784850D02*
G03*
X218782Y786003I-2500J0D01*
G01*
D02*
G03*
X223500Y784850I2218J-1154D01*
G01*
X151500Y793850D02*
G03*
X151500Y793850I-2500J0D01*
G01*
Y784850D02*
G03*
X150274Y787001I-2500J0D01*
G01*
X151498Y784740D02*
G03*
X151500Y784850I-2498J110D01*
G01*
X150274Y787001D02*
G03*
X150000Y787141I-1274J-2151D01*
G01*
Y782559D02*
G03*
X151498Y784740I-1000J2291D01*
G01*
X150000Y787141D02*
G03*
X150000Y782559I-1000J-2291D01*
G01*
X162000Y731850D02*
X171875Y741725D01*
X162000Y717599D02*
Y731850D01*
X171875Y741725D02*
X196125D01*
X198000Y743600D01*
Y749300D01*
D11*
X192150Y521300D02*
D03*
Y526300D02*
D03*
Y531300D02*
D03*
Y536300D02*
D03*
Y541300D02*
D03*
Y546300D02*
D03*
Y551300D02*
D03*
Y556300D02*
D03*
Y561300D02*
D03*
Y566300D02*
D03*
Y571300D02*
D03*
Y576300D02*
D03*
Y581300D02*
D03*
Y586300D02*
D03*
Y591300D02*
D03*
Y596300D02*
D03*
X303150D02*
D03*
Y591300D02*
D03*
Y586300D02*
D03*
Y581300D02*
D03*
Y576300D02*
D03*
Y571300D02*
D03*
Y566300D02*
D03*
Y561300D02*
D03*
Y556300D02*
D03*
Y551300D02*
D03*
Y546300D02*
D03*
Y541300D02*
D03*
Y536300D02*
D03*
Y531300D02*
D03*
Y526300D02*
D03*
Y521300D02*
D03*
D12*
X210150Y614300D02*
D03*
X215150D02*
D03*
X220150D02*
D03*
X225150D02*
D03*
X230150D02*
D03*
X235150D02*
D03*
X240150D02*
D03*
X245150D02*
D03*
X250150D02*
D03*
X255150D02*
D03*
X260150D02*
D03*
X265150D02*
D03*
X270150D02*
D03*
X275150D02*
D03*
X280150D02*
D03*
X285150D02*
D03*
Y503300D02*
D03*
X280150D02*
D03*
X275150D02*
D03*
X270150D02*
D03*
X265150D02*
D03*
X260150D02*
D03*
X255150D02*
D03*
X250150D02*
D03*
X245150D02*
D03*
X240150D02*
D03*
X235150D02*
D03*
X230150D02*
D03*
X225150D02*
D03*
X220150D02*
D03*
X215150D02*
D03*
X210150D02*
D03*
D13*
X185000Y650099D02*
D03*
D14*
X162000Y717599D02*
D03*
X185000D02*
D03*
D15*
X208000D02*
D03*
D16*
X976000Y722850D02*
D03*
Y682851D02*
D03*
X910000D02*
D03*
Y722850D02*
D03*
D17*
X510250Y519350D02*
D03*
D18*
X527750Y495100D02*
D03*
X522750D02*
D03*
X517750D02*
D03*
X512750D02*
D03*
X507750D02*
D03*
X502750D02*
D03*
X497750D02*
D03*
X492750D02*
D03*
Y543600D02*
D03*
X497750D02*
D03*
X502750D02*
D03*
X507750D02*
D03*
X512750D02*
D03*
X517750D02*
D03*
X522750D02*
D03*
X527750D02*
D03*
D19*
X486000Y501850D02*
D03*
Y506850D02*
D03*
Y511850D02*
D03*
Y516850D02*
D03*
Y521850D02*
D03*
Y526850D02*
D03*
Y531850D02*
D03*
Y536850D02*
D03*
X534500D02*
D03*
Y531850D02*
D03*
Y526850D02*
D03*
Y521850D02*
D03*
Y516850D02*
D03*
Y511850D02*
D03*
Y506850D02*
D03*
Y501850D02*
D03*
D20*
X22900Y523850D02*
D03*
X35600D02*
D03*
X48300D02*
D03*
X61000D02*
D03*
X22900Y573850D02*
D03*
X35600D02*
D03*
X48300D02*
D03*
X61000D02*
D03*
D21*
X692750Y476350D02*
D03*
Y451350D02*
D03*
X667250Y476350D02*
D03*
Y451350D02*
D03*
D22*
X864500Y542850D02*
D03*
Y534850D02*
D03*
Y510850D02*
D03*
Y502850D02*
D03*
Y526850D02*
D03*
Y518850D02*
D03*
Y494850D02*
D03*
Y470850D02*
D03*
Y462850D02*
D03*
Y486850D02*
D03*
Y478850D02*
D03*
X751500Y542850D02*
D03*
Y534850D02*
D03*
Y526850D02*
D03*
Y502850D02*
D03*
Y494850D02*
D03*
Y518850D02*
D03*
Y510850D02*
D03*
Y486850D02*
D03*
Y470850D02*
D03*
Y462850D02*
D03*
Y478850D02*
D03*
D23*
X840000Y559350D02*
D03*
X848000D02*
D03*
X824000D02*
D03*
X832000D02*
D03*
X808000D02*
D03*
X816000D02*
D03*
X792000D02*
D03*
X800000D02*
D03*
X816000Y446350D02*
D03*
X824000D02*
D03*
X800000D02*
D03*
X808000D02*
D03*
X840000D02*
D03*
X848000D02*
D03*
X832000D02*
D03*
X776000Y559350D02*
D03*
X784000D02*
D03*
X768000D02*
D03*
Y446350D02*
D03*
X776000D02*
D03*
X784000D02*
D03*
X792000D02*
D03*
D24*
X322500Y642850D02*
D03*
X295500D02*
D03*
X703500Y510850D02*
D03*
X676500D02*
D03*
X826500Y594850D02*
D03*
X799500D02*
D03*
X838000Y295850D02*
D03*
X811000D02*
D03*
X666000Y295850D02*
D03*
X639000D02*
D03*
X534200Y127000D02*
D03*
X507200D02*
D03*
X489750Y635000D02*
D03*
X462750D02*
D03*
X828500Y396850D02*
D03*
X801500D02*
D03*
X323050Y476250D02*
D03*
X350050D02*
D03*
X323000Y665850D02*
D03*
X296000D02*
D03*
X267500Y444500D02*
D03*
X240500D02*
D03*
X65500Y491850D02*
D03*
X38500D02*
D03*
X652500Y653850D02*
D03*
X625500D02*
D03*
X489750Y660400D02*
D03*
X462750D02*
D03*
X625500Y628850D02*
D03*
X652500D02*
D03*
X504500Y401850D02*
D03*
X477500D02*
D03*
X503498Y429849D02*
D03*
X476497D02*
D03*
D25*
X195000Y789350D02*
D03*
X175000D02*
D03*
D26*
X198000Y762350D02*
D03*
X178500D02*
D03*
X185000D02*
D03*
X172000D02*
D03*
X191500D02*
D03*
D27*
X374000Y639850D02*
D03*
X344000D02*
D03*
X375000Y665850D02*
D03*
X345000D02*
D03*
X709000Y652850D02*
D03*
X679000D02*
D03*
X709000Y625850D02*
D03*
X679000D02*
D03*
X557000Y399850D02*
D03*
X527000D02*
D03*
X557000Y429850D02*
D03*
X527000D02*
D03*
D28*
X239000Y719350D02*
D03*
Y692350D02*
D03*
X124000Y721350D02*
D03*
Y694350D02*
D03*
Y675350D02*
D03*
Y648350D02*
D03*
X715000Y574350D02*
D03*
Y547350D02*
D03*
X900000Y479350D02*
D03*
Y452350D02*
D03*
X901000Y546350D02*
D03*
Y519350D02*
D03*
X76200Y413550D02*
D03*
Y386550D02*
D03*
X50800Y413550D02*
D03*
Y386550D02*
D03*
X25400Y413550D02*
D03*
Y386550D02*
D03*
X858000Y706350D02*
D03*
Y679350D02*
D03*
X35000Y681850D02*
D03*
Y654850D02*
D03*
D29*
X61000Y685850D02*
D03*
Y655850D02*
D03*
D30*
X724448Y517953D02*
Y547350D01*
X875990Y510850D02*
X878078Y508762D01*
X208534Y584200D02*
X225150Y567584D01*
X291084Y536300D02*
Y591300D01*
X250150Y516636D02*
Y528172D01*
Y503300D02*
Y516636D01*
X225150Y490072D02*
Y503300D01*
X54356Y311150D02*
Y386550D01*
X692750Y459740D02*
X699516D01*
X461772Y421132D02*
X476497D01*
X229616Y719350D02*
Y742734D01*
X275150Y592120D02*
Y602420D01*
X218165Y599220D02*
X237521Y579863D01*
X268342Y549042D01*
X178054Y503174D02*
X210150D01*
X192150Y571300D02*
X209350D01*
X209550Y571500D01*
X208534Y584200D02*
X209550D01*
X244150Y514350D02*
Y562625D01*
X245150Y508750D02*
X245900Y508000D01*
X244150Y509750D02*
X245150Y508750D01*
Y513350D01*
Y503300D02*
Y508750D01*
X244150Y514350D02*
X245150Y513350D01*
X250150Y516636D02*
X250190D01*
X240150Y503300D02*
Y561675D01*
X203200Y603575D02*
X244150Y562625D01*
X253500Y674000D02*
Y768850D01*
X203200Y623700D02*
X253500Y674000D01*
X203200Y603575D02*
Y623700D01*
X199700Y602125D02*
Y625150D01*
Y602125D02*
X240150Y561675D01*
X199700Y625150D02*
X250000Y675450D01*
X185000Y769340D02*
X192863Y777203D01*
X185000Y762350D02*
Y769340D01*
X245147Y777203D02*
X253500Y768850D01*
X192863Y777203D02*
X245147D01*
X243697Y773703D02*
X250000Y767401D01*
X194313Y773703D02*
X243697D01*
X250000Y675450D02*
Y767401D01*
X191500Y770890D02*
X194313Y773703D01*
X191500Y762350D02*
Y770890D01*
X237521Y578756D02*
Y579863D01*
X201434Y591300D02*
X208534Y584200D01*
X225150Y503300D02*
Y567584D01*
Y490072D02*
X225207Y490129D01*
X240500Y444500D02*
Y458834D01*
X235150Y464183D02*
X240500Y458834D01*
X235150Y464183D02*
Y485930D01*
X227001Y458849D02*
X231999D01*
X221000Y464850D02*
X227001Y458849D01*
X202774Y471850D02*
X227577D01*
X240150Y614300D02*
Y626752D01*
X227495Y639407D02*
X240150Y626752D01*
X194250Y739850D02*
X196000Y738100D01*
X194250Y739850D02*
X196125Y741725D01*
X422910Y558800D02*
Y635000D01*
Y495321D02*
Y558800D01*
X417410Y777573D02*
X427187Y787350D01*
X417410Y426982D02*
X464042Y380350D01*
X417410Y426982D02*
Y777573D01*
X422910Y495321D02*
X476497Y441734D01*
X488686Y554312D02*
X492750Y550248D01*
X488686Y554312D02*
Y568198D01*
X506750Y581850D02*
X506920D01*
X506750Y551926D02*
Y581850D01*
X506920D02*
X516921Y591851D01*
Y599850D01*
X512750Y543600D02*
Y566166D01*
X519174Y552819D02*
Y576850D01*
X517750Y551395D02*
X519174Y552819D01*
X499110Y603481D02*
X615200Y719571D01*
Y779850D01*
X682498Y474218D02*
X684630Y476350D01*
X478000Y385850D02*
Y401350D01*
X477500Y401850D02*
X478000Y401350D01*
X486500Y490564D02*
X491036Y495100D01*
X486500Y398624D02*
X495171Y389953D01*
X492000Y448566D02*
X502750Y459316D01*
X486500Y398624D02*
Y490564D01*
X492000Y401850D02*
Y448566D01*
X176450Y561300D02*
X192150D01*
X175000Y559850D02*
X176450Y561300D01*
X167000Y565850D02*
X191700D01*
X192150Y566300D01*
X185000Y618490D02*
Y650099D01*
X185000Y650099D01*
X183251Y648350D02*
X185000Y650099D01*
X124000Y648350D02*
X183251D01*
X221000Y706850D02*
Y714798D01*
X225552Y719350D01*
X196000Y695850D02*
X199500Y692350D01*
X196000Y695850D02*
Y738100D01*
X229616Y719350D02*
X239000D01*
X225552D02*
X229616D01*
X209750D02*
X225552D01*
X208000Y717599D02*
X209750Y719350D01*
X185000Y685850D02*
X185000Y685850D01*
Y650099D02*
Y685850D01*
X185000Y685850D02*
X185000Y685850D01*
Y717599D01*
X156000Y685850D02*
X185000D01*
X147000Y694850D02*
X156000Y685850D01*
X147000Y694850D02*
Y710850D01*
X136500Y721350D02*
X147000Y710850D01*
X124000Y721350D02*
X136500D01*
X692750Y439100D02*
Y451350D01*
Y439100D02*
X693000Y438850D01*
X519174Y576850D02*
X539242Y596918D01*
Y603916D01*
X211000Y484850D02*
X211297D01*
X666000Y298958D02*
X680000D01*
X191262Y596300D02*
Y609600D01*
X182880Y596300D02*
Y605219D01*
X503498Y426974D02*
X510032D01*
X806982Y706350D02*
X872236D01*
X527750Y543560D02*
X534416D01*
X162000Y638100D02*
X176784Y623316D01*
X65500Y491850D02*
Y505460D01*
X61000Y509960D02*
X65500Y505460D01*
X61000Y509960D02*
Y523850D01*
X652500Y653850D02*
X665226D01*
X666226Y652850D01*
X679000D01*
X35000Y681850D02*
X45974D01*
X49974Y685850D01*
X61000D01*
X323000Y665850D02*
X333756D01*
X333756Y665850D01*
X345000D01*
X322500Y642850D02*
X331724D01*
X334724Y639850D01*
X344000D01*
X462750Y660400D02*
Y680212D01*
X436000Y706962D02*
X462750Y680212D01*
X436000Y706962D02*
Y726890D01*
X25400Y413550D02*
Y467360D01*
X22900Y469860D02*
X25400Y467360D01*
X22900Y469860D02*
Y523850D01*
X54356Y386550D02*
X76200D01*
X25400D02*
X50800D01*
X374000Y639850D02*
Y652272D01*
X375000Y653272D01*
Y665850D01*
X61000Y655850D02*
X88646D01*
X96146Y648350D01*
X124000D01*
X61000Y573850D02*
Y655850D01*
X534500Y526850D02*
Y531850D01*
X486000Y526850D02*
Y531850D01*
X811000Y295850D02*
Y341376D01*
X801500Y350876D02*
X811000Y341376D01*
X801500Y350876D02*
Y396850D01*
X667250Y451350D02*
Y476350D01*
Y488950D01*
X676500Y498200D01*
Y510850D01*
X124000Y675350D02*
Y694350D01*
X267500Y444500D02*
Y472440D01*
X255150Y503300D02*
X260150D01*
X160000Y762350D02*
X172000D01*
X150000Y789350D02*
X175000D01*
X195000D01*
X220000D01*
X191262Y596300D02*
X192150D01*
X50800Y386550D02*
X54356D01*
X38500Y491850D02*
Y502920D01*
X48300Y512720D01*
Y523850D01*
X826500Y594850D02*
Y670698D01*
X835152Y679350D01*
X858000D01*
X38500Y477266D02*
Y491850D01*
Y477266D02*
X76200Y439566D01*
Y413550D02*
Y439566D01*
X106350Y351238D02*
X165112D01*
X864650Y722850D02*
X910000D01*
X199500Y692350D02*
X239000D01*
X316420Y591300D02*
X322820Y597700D01*
X776000Y370840D02*
Y446350D01*
X260150Y514350D02*
X261166Y515366D01*
X267610D01*
X270150Y512826D01*
Y503300D02*
Y512826D01*
X280150Y503300D02*
Y512826D01*
X277610Y515366D02*
X280150Y512826D01*
X272288Y515366D02*
X277610D01*
X270150Y513228D02*
X272288Y515366D01*
X48300Y573850D02*
Y608838D01*
X35000Y622138D02*
X48300Y608838D01*
X61000Y562904D02*
Y573850D01*
X58928Y560832D02*
X61000Y562904D01*
X38394Y560832D02*
X58928D01*
X35600Y563626D02*
X38394Y560832D01*
X35600Y563626D02*
Y573850D01*
X210150Y503174D02*
Y503300D01*
X178710Y536300D02*
X192150D01*
X124714Y423418D02*
Y545338D01*
X114846Y413550D02*
X124714Y423418D01*
X76200Y413550D02*
X114846D01*
X35600Y509564D02*
Y523850D01*
X29972Y503936D02*
X35600Y509564D01*
X29972Y476250D02*
Y503936D01*
Y476250D02*
X37846Y468376D01*
Y416344D02*
Y468376D01*
Y416344D02*
X40640Y413550D01*
X50800D01*
X639000Y295850D02*
Y406844D01*
X667250Y435094D01*
Y451350D01*
X265150Y601312D02*
Y614300D01*
X210000Y762350D02*
X229616Y742734D01*
X165112Y277114D02*
Y351238D01*
X129881Y241883D02*
X165112Y277114D01*
X56006Y241883D02*
X129881D01*
X295500Y634140D02*
X299466Y630174D01*
X295500Y634140D02*
Y642850D01*
X295910Y678598D02*
X296000Y678508D01*
Y665850D02*
Y678508D01*
X506750Y551926D02*
X507750Y550926D01*
Y543600D02*
Y550926D01*
X484886Y501850D02*
X486000D01*
X478844Y495808D02*
X484886Y501850D01*
X442722Y495808D02*
X478844D01*
X433832Y504698D02*
X442722Y495808D01*
X433832Y504698D02*
Y512826D01*
X312672Y561300D02*
X322072Y570700D01*
X303150Y561300D02*
X312672D01*
X146304Y513366D02*
X152470Y507200D01*
X146304Y513366D02*
Y541490D01*
X534200Y161544D02*
X579374Y206718D01*
X522750Y487408D02*
X531622Y478536D01*
X522750Y487408D02*
Y495100D01*
X250150Y528172D02*
X262342Y540364D01*
X534500Y526850D02*
X550472D01*
X550672Y527050D01*
X339090Y521300D02*
X384302Y566512D01*
Y778510D01*
X401574Y795782D01*
X523068D01*
X539000Y779850D01*
X517750Y543600D02*
Y551395D01*
X275150Y602420D02*
X277368Y600202D01*
X519777Y399850D02*
X527000D01*
X516929Y397002D02*
X519777Y399850D01*
X516929Y394970D02*
Y397002D01*
X511912Y389953D02*
X516929Y394970D01*
X495171Y389953D02*
X511912D01*
X491036Y495100D02*
X492750D01*
Y543600D02*
Y550248D01*
X488686Y568198D02*
X492750Y572262D01*
X768000Y559350D02*
Y572262D01*
X558038Y506850D02*
X574000Y490887D01*
X534500Y506850D02*
X558038D01*
X721558Y499110D02*
X733298Y510850D01*
X695960Y499110D02*
X721558D01*
X684220Y510850D02*
X695960Y499110D01*
X676500Y510850D02*
X684220D01*
X285150Y490058D02*
Y503300D01*
Y490058D02*
X366014Y409194D01*
X517750Y475488D02*
X546894Y446344D01*
X517750Y475488D02*
Y495100D01*
X589534Y555712D02*
Y587850D01*
X550672Y516850D02*
X589534Y555712D01*
X534500Y516850D02*
X550672D01*
X832000Y572158D02*
X832104Y572262D01*
X832000Y559350D02*
Y572158D01*
X471036Y506850D02*
X486000D01*
X468630Y504444D02*
X471036Y506850D01*
X527000Y418642D02*
X527050Y418592D01*
X527000Y418642D02*
Y429850D01*
X109474Y556006D02*
X176784Y623316D01*
X28488Y556006D02*
X109474D01*
X22900Y561594D02*
X28488Y556006D01*
X22900Y561594D02*
Y573850D01*
X733367Y486850D02*
X751500D01*
X706374Y459857D02*
X733367Y486850D01*
X706374Y436880D02*
Y459857D01*
X696976Y427482D02*
X706374Y436880D01*
X686562Y427482D02*
X696976D01*
X682498Y431546D02*
X686562Y427482D01*
X682498Y431546D02*
Y474218D01*
X684630Y476350D02*
X692750D01*
X808000Y416814D02*
Y446350D01*
X801500Y410314D02*
X808000Y416814D01*
X801500Y396850D02*
Y410314D01*
X192150Y526300D02*
X203442D01*
X205232Y524510D01*
Y517398D02*
Y524510D01*
X203708Y515874D02*
X205232Y517398D01*
X168656Y515874D02*
X203708D01*
X159258Y506476D02*
X168656Y515874D01*
X159258Y407162D02*
Y506476D01*
X113334Y361238D02*
X159258Y407162D01*
X76250Y361238D02*
X113334D01*
X65278Y350266D02*
X76250Y361238D01*
X65278Y313436D02*
Y350266D01*
X54864Y303022D02*
X65278Y313436D01*
X22352Y303022D02*
X54864D01*
X9906Y315468D02*
X22352Y303022D01*
X9906Y315468D02*
Y409232D01*
X14224Y413550D01*
X25400D01*
X768000Y232060D02*
Y446350D01*
X692150Y156210D02*
X768000Y232060D01*
X692150Y117602D02*
Y156210D01*
X639000Y279654D02*
Y295850D01*
Y279654D02*
X642112Y276542D01*
Y236982D02*
Y276542D01*
X534200Y129070D02*
X642112Y236982D01*
X534200Y97536D02*
Y127000D01*
X666000Y295850D02*
Y298958D01*
X368046Y597700D02*
X374000Y603654D01*
Y639850D01*
X502750Y543600D02*
Y557954D01*
X500634Y560070D02*
X502750Y557954D01*
X303150Y531300D02*
X314960D01*
X328930Y545270D01*
Y610362D01*
X320802Y618490D02*
X328930Y610362D01*
X299212Y618490D02*
X320802D01*
X286766Y630936D02*
X299212Y618490D01*
X286766Y630936D02*
Y676594D01*
X290036Y679864D01*
X388366Y807720D02*
X561930D01*
X589800Y779850D01*
X816000Y559350D02*
Y571668D01*
X826500Y582168D01*
Y594850D01*
X11684Y739034D02*
X38000Y765350D01*
X11684Y715264D02*
Y739034D01*
X471424Y520192D02*
X474766Y516850D01*
X486000D01*
X739968Y470850D02*
X751500D01*
X738378Y472440D02*
X739968Y470850D01*
X260150Y666042D02*
X284036Y689928D01*
X260150Y614300D02*
Y666042D01*
X737616Y462850D02*
X751500D01*
X731774Y457008D02*
X737616Y462850D01*
X731774Y408178D02*
Y457008D01*
X255150Y568960D02*
Y614300D01*
Y568960D02*
X281940Y542170D01*
Y518922D02*
Y542170D01*
Y518922D02*
X285496Y515366D01*
X304292D01*
X667766Y279400D02*
X672592Y284226D01*
X678180D01*
X687324Y293370D01*
Y373126D01*
X727202Y413004D01*
Y474472D01*
X731580Y478850D01*
X751500D01*
X350050Y455352D02*
Y476250D01*
X367033Y150106D02*
X405130Y112009D01*
Y107950D02*
Y112009D01*
X889206Y534556D02*
X901000Y546350D01*
X889206Y490144D02*
Y534556D01*
Y490144D02*
X900000Y479350D01*
X864500Y494850D02*
X872294D01*
X878078Y500634D01*
Y508762D01*
X864500Y542850D02*
X865378D01*
X909828Y587300D01*
Y620350D01*
X824000Y433324D02*
Y446350D01*
X755142Y606552D02*
X808000D01*
Y583350D02*
Y606552D01*
X764198Y583350D02*
X808000D01*
X728472Y547624D02*
X764198Y583350D01*
X728472Y522732D02*
Y547624D01*
Y522732D02*
X732354Y518850D01*
X751500D01*
X715000Y574350D02*
X747149D01*
X767649Y594850D01*
X799500D01*
X872236Y706350D02*
X895736Y682851D01*
X910000D01*
X497750Y481748D02*
Y495100D01*
X493776Y477774D02*
X497750Y481748D01*
X823307Y467614D02*
X832000Y458921D01*
Y446350D02*
Y458921D01*
X805180Y510850D02*
X808000Y508030D01*
Y446350D02*
Y508030D01*
X698500Y762000D02*
X712978Y776478D01*
Y798068D01*
X723392Y808482D01*
X869696D01*
X932688Y745490D01*
Y421894D02*
Y745490D01*
X924560Y413766D02*
X932688Y421894D01*
X845588Y413766D02*
X924560D01*
X840000Y419354D02*
X845588Y413766D01*
X840000Y419354D02*
Y446350D01*
X848000D02*
Y456290D01*
X839470Y464820D02*
X848000Y456290D01*
X839470Y464820D02*
Y533146D01*
X871982Y565658D01*
Y694182D01*
X871728Y694436D02*
X871982Y694182D01*
X762000Y694436D02*
X871728D01*
X749300Y707136D02*
X762000Y694436D01*
X749300Y707136D02*
Y762000D01*
X547706Y429850D02*
X557000D01*
X530352Y412496D02*
X547706Y429850D01*
X524510Y412496D02*
X530352D01*
X510032Y426974D02*
X524510Y412496D01*
X503498Y426974D02*
Y429849D01*
X848000Y559350D02*
Y572156D01*
X848106Y572262D01*
X840000Y546100D02*
Y559350D01*
X824000Y550394D02*
X828040Y546354D01*
X824000Y550394D02*
Y559350D01*
X462750Y660400D02*
X488150Y635000D01*
X489750D01*
X709000Y602656D02*
Y625850D01*
X791972Y546354D02*
X792000Y546382D01*
Y559350D01*
X709000Y641518D02*
Y652850D01*
X798127Y572262D02*
X800000Y570389D01*
Y559350D02*
Y570389D01*
X192150Y531300D02*
X202497D01*
X206561Y535364D01*
X838000Y282850D02*
X850000Y270850D01*
X838000Y282850D02*
Y295850D01*
X855400Y486850D02*
X864500D01*
X850000Y481450D02*
X855400Y486850D01*
X680000Y270850D02*
X755904Y346754D01*
Y450850D01*
X763270Y458216D01*
X789714D01*
X792000Y455930D01*
Y446350D02*
Y455930D01*
X784000Y418592D02*
Y446350D01*
X489750Y660400D02*
Y673062D01*
X465836Y696976D02*
X489750Y673062D01*
X800000Y446350D02*
Y469238D01*
X774192Y495046D02*
X800000Y469238D01*
X119088Y386550D02*
X145288Y412750D01*
X153200D01*
X76200Y386550D02*
X119088D01*
X180848Y591300D02*
X192150D01*
X176784Y595364D02*
X180848Y591300D01*
X176784Y595364D02*
Y610274D01*
X185000Y618490D01*
X291084Y591300D02*
X303150D01*
X660300Y527050D02*
X676500Y510850D01*
X584200Y527050D02*
X660300D01*
X492686Y563126D02*
X499110Y569550D01*
X492686Y557370D02*
Y563126D01*
Y557370D02*
X497750Y552306D01*
Y543600D02*
Y552306D01*
X901000Y546350D02*
X916432D01*
X928624Y558542D01*
Y741426D01*
X868680Y801370D02*
X928624Y741426D01*
X737870Y801370D02*
X868680D01*
X723900Y787400D02*
X737870Y801370D01*
X801116Y510850D02*
X816000Y525734D01*
X715000Y547350D02*
X724448D01*
Y517953D02*
X733298Y510850D01*
X751500D01*
X152400Y534200D02*
X165300Y521300D01*
X751500Y542850D02*
X764540D01*
X738632Y534850D02*
X751500D01*
X522750Y551010D02*
X528508Y556768D01*
X522750Y543600D02*
Y551010D01*
X512750Y467106D02*
Y495100D01*
X589800Y767600D02*
Y779850D01*
X534500Y501850D02*
X539550D01*
X548640Y492760D01*
X322084Y526300D02*
X323088Y527304D01*
X394071Y800354D02*
X538480D01*
X354076Y760359D02*
X394071Y800354D01*
X354076Y561352D02*
Y760359D01*
X303150Y526300D02*
X319024D01*
X877632Y462850D02*
X881634Y466852D01*
X864500Y462850D02*
X877632D01*
X303150Y521300D02*
X314360D01*
X321310Y514350D01*
X527750Y489210D02*
X532986Y486664D01*
X527750Y489210D02*
Y495100D01*
X864500Y470850D02*
X873760D01*
X884174Y481264D01*
Y551942D01*
X924560Y592328D01*
Y689356D01*
X898906Y715010D02*
X924560Y689356D01*
X847090Y715010D02*
X898906D01*
X800100Y762000D02*
X847090Y715010D01*
X502750Y459316D02*
Y495100D01*
X736800Y526850D02*
X751500D01*
X732536Y531114D02*
X736800Y526850D01*
X732536Y531114D02*
Y545592D01*
X766294Y579350D01*
X812000D01*
Y611805D01*
X811253Y612552D02*
X812000Y611805D01*
X749300Y612552D02*
X811253D01*
X730854Y594106D02*
X749300Y612552D01*
X584962Y594106D02*
X730854D01*
X534416Y543560D02*
X584962Y594106D01*
X527750Y543560D02*
Y543600D01*
X749300Y787400D02*
X762000Y774700D01*
Y751332D02*
Y774700D01*
Y751332D02*
X806982Y706350D01*
X275150Y455930D02*
X290898Y440182D01*
X323050Y463588D02*
X323088Y463550D01*
X323050Y463588D02*
Y476250D01*
X680974D02*
X681074Y476350D01*
X507750Y448310D02*
X511814Y444246D01*
X507750Y448310D02*
Y495100D01*
X176784Y586300D02*
X192150D01*
X175987Y587097D02*
X176784Y586300D01*
X218165Y599220D02*
X218186D01*
X215150Y602234D02*
X218165Y599220D01*
X62194Y675350D02*
X124000D01*
X41694Y654850D02*
X62194Y675350D01*
X35000Y654850D02*
X41694D01*
X22900Y573850D02*
Y608076D01*
X35000Y622138D01*
Y654850D01*
X215150Y614300D02*
X215161Y602245D01*
X215150Y602234D02*
X215161Y602245D01*
X268342Y530300D02*
Y549042D01*
X260150Y522108D02*
X268342Y530300D01*
X476497Y429849D02*
Y441734D01*
X504500Y401850D02*
Y414472D01*
X503174Y415798D02*
X504500Y414472D01*
X470622Y511850D02*
X486000D01*
X462750Y519722D02*
X470622Y511850D01*
X462750Y519722D02*
Y635000D01*
X703500Y510850D02*
Y520954D01*
X691308Y533146D02*
X703500Y520954D01*
X578104Y530352D02*
Y531114D01*
X559602Y511850D02*
X578104Y530352D01*
X534500Y511850D02*
X559602D01*
X857597Y452350D02*
X900000D01*
X843736Y466211D02*
X857597Y452350D01*
X843736Y466211D02*
Y496570D01*
X850016Y502850D01*
X864500D01*
X900000Y452350D02*
X909090D01*
X913638Y447802D01*
Y423926D02*
Y447802D01*
X900000Y452350D02*
X912622Y464972D01*
Y507728D01*
X901000Y519350D02*
X912622Y507728D01*
X816000Y422202D02*
Y446350D01*
Y422202D02*
X828500Y409702D01*
Y396850D02*
Y409702D01*
Y288582D02*
Y396850D01*
X810768Y270850D02*
X828500Y288582D01*
X800000Y270850D02*
X810768D01*
X507200Y127000D02*
Y148049D01*
X806000Y544380D02*
X808000Y546380D01*
Y559350D01*
X692750Y451350D02*
Y459740D01*
X699516D02*
X742626Y502850D01*
X751500D01*
X580136Y533146D02*
X691308D01*
X578104Y531114D02*
X580136Y533146D01*
X578104Y515112D02*
X630000Y463216D01*
Y270850D02*
Y463216D01*
X703500Y555672D02*
X715000Y567172D01*
Y574350D01*
X625500Y653850D02*
X650500Y628850D01*
X652500D01*
X289880Y536300D02*
X291084D01*
X303150D01*
X534200Y127000D02*
Y129070D01*
Y161544D01*
X531622Y478536D02*
X574000D01*
X864500Y510850D02*
X875990D01*
X877570D01*
X471424Y575795D02*
X499110Y603481D01*
Y569550D02*
Y603481D01*
X751500Y510850D02*
X801116D01*
X805180D01*
X816000Y525734D02*
Y532130D01*
Y559350D01*
X829387Y679350D02*
X835152D01*
X182880Y596300D02*
X191262D01*
X319024Y526300D02*
X322084D01*
X314360Y521300D02*
X339090D01*
X832000Y458921D02*
Y492786D01*
X681074Y476350D02*
X684630D01*
X270150Y512826D02*
Y513228D01*
X260150Y503300D02*
Y514350D01*
Y522108D01*
X476497Y415798D02*
Y421132D01*
Y429849D01*
X275150Y602420D02*
Y614300D01*
X578104Y515112D02*
Y530352D01*
X703500Y520954D02*
Y555672D01*
X235150Y503300D02*
X235207Y503243D01*
X235150Y485930D02*
X235207Y485987D01*
Y503243D01*
X230150Y493671D02*
X231207Y492614D01*
X230150Y493671D02*
Y503300D01*
X220150Y493557D02*
Y503300D01*
X219207Y485642D02*
Y492614D01*
X220150Y493557D01*
X215000Y503150D02*
X215150Y503300D01*
X275150Y455930D02*
Y503300D01*
X265150Y491382D02*
Y503300D01*
X270150Y492185D02*
X271000Y491335D01*
X267500Y472440D02*
X271000Y475940D01*
Y491335D01*
X270150Y492185D02*
Y503300D01*
X303150Y591300D02*
X316420D01*
X192150D02*
X201434D01*
X186182Y488442D02*
Y495046D01*
X174028Y507200D02*
X178054Y503174D01*
X186182Y495046D01*
X146304Y541490D02*
X155000Y550186D01*
Y550850D01*
X136226Y556850D02*
X158160D01*
X124714Y545338D02*
X136226Y556850D01*
X158160D02*
X178710Y536300D01*
X165300Y521300D02*
X187425D01*
X229000Y139850D02*
X292000Y76850D01*
X229000Y139850D02*
Y287350D01*
X165112Y351238D02*
X229000Y287350D01*
X219207Y485642D02*
X221999Y482849D01*
X413512Y409194D02*
Y779362D01*
X436000Y758850D02*
Y771850D01*
X422910Y745760D02*
X436000Y758850D01*
X290036Y679864D02*
Y740886D01*
X300000Y750850D01*
X331496D01*
X388366Y807720D01*
X422910Y635000D02*
X462750D01*
X422910D02*
Y745760D01*
X413512Y391338D02*
Y409194D01*
X574000Y478850D02*
Y490887D01*
Y478850D02*
X579374Y473476D01*
Y206718D02*
Y473476D01*
X512750Y467106D02*
X537011Y442845D01*
X546884Y401066D02*
X555784D01*
X557000Y399850D01*
X413512Y391338D02*
X428000Y376850D01*
X464042Y380350D02*
X561500D01*
X546894Y446344D02*
X569505D01*
X575874Y439976D01*
X561500Y380350D02*
X572374Y391224D01*
Y438526D01*
X568056Y442845D02*
X572374Y438526D01*
X537011Y442845D02*
X568056D01*
X575874Y386724D02*
Y439976D01*
X428000Y376850D02*
X566000D01*
X575874Y386724D01*
X478000Y538850D02*
Y542850D01*
Y538850D02*
X480000Y536850D01*
X486000D01*
X471424D02*
Y575795D01*
X476424Y531850D02*
X486000D01*
X471424Y536850D02*
X476424Y531850D01*
X500027Y746850D02*
X569050D01*
X589800Y767600D01*
X513600Y779850D02*
X527600Y765850D01*
X542584D01*
X552000Y775266D01*
Y786834D01*
X538480Y800354D02*
X552000Y786834D01*
X319024Y526300D02*
X354076Y561352D01*
X551000Y752850D02*
X564400Y766250D01*
Y779850D01*
X427187Y787350D02*
X459527D01*
X500027Y746850D01*
X304292Y515366D02*
X338000Y481658D01*
X494538Y127000D02*
X507200D01*
X436076Y185462D02*
X494538Y127000D01*
X667766Y208534D02*
Y279400D01*
X550672Y91440D02*
X667766Y208534D01*
X390144Y175514D02*
X474218Y91440D01*
X550672D01*
X338000Y456850D02*
Y481658D01*
Y456850D02*
X390144Y404706D01*
Y175514D02*
Y404706D01*
X679000Y616850D02*
Y625850D01*
X625500Y628850D02*
X643500Y610850D01*
X673000D01*
X679000Y616850D01*
X625500Y653850D02*
Y704350D01*
X640600Y719450D01*
Y779850D01*
X413512Y779362D02*
X426432Y792282D01*
X462568D01*
X502000Y752850D01*
X551000D01*
X211297Y484850D02*
X215000Y488553D01*
Y503150D01*
X231207Y475480D02*
Y492614D01*
X186182Y488442D02*
X202774Y471850D01*
X227577D02*
X231207Y475480D01*
X878000Y-150D02*
X1000000Y121850D01*
X692000Y-150D02*
X878000D01*
X617000Y74850D02*
X692000Y-150D01*
X393000Y74850D02*
X617000D01*
X377000Y58850D02*
X393000Y74850D01*
X318150Y0D02*
X377000Y58850D01*
X172850Y0D02*
X318150D01*
X0Y172850D02*
X172850Y0D01*
X0Y172850D02*
Y815850D01*
X1000000D01*
Y121850D02*
Y815850D01*
D31*
X172000Y762350D02*
Y786350D01*
X175000Y789350D01*
X198000Y749300D02*
Y762350D01*
D32*
X88000Y798350D02*
D03*
X63000D02*
D03*
X88000Y765350D02*
D03*
X63000D02*
D03*
X38000Y798350D02*
D03*
Y765350D02*
D03*
D33*
X288855Y298205D02*
D03*
X253500Y262850D02*
D03*
X200467Y386594D02*
D03*
X165112Y351238D02*
D03*
X402388Y185462D02*
D03*
X367033Y150106D02*
D03*
X314000Y273850D02*
D03*
X278645Y238495D02*
D03*
X292000Y76850D02*
D03*
X256645Y41494D02*
D03*
X203612Y165238D02*
D03*
X168256Y129883D02*
D03*
X179750Y188850D02*
D03*
X144394Y153495D02*
D03*
X91362Y277239D02*
D03*
X56006Y241883D02*
D03*
X680000Y270850D02*
D03*
Y145850D02*
D03*
X630000D02*
D03*
Y270850D02*
D03*
X850000D02*
D03*
Y145850D02*
D03*
X800000D02*
D03*
Y270850D02*
D03*
D34*
X975400Y792850D02*
D03*
X698500Y762000D02*
D03*
X640600Y779850D02*
D03*
D35*
X950000Y792850D02*
D03*
X800100Y787400D02*
D03*
X749300D02*
D03*
X774700D02*
D03*
X800100Y762000D02*
D03*
X749300D02*
D03*
X774700D02*
D03*
X723900Y787400D02*
D03*
X698500D02*
D03*
X723900Y762000D02*
D03*
X615200Y779850D02*
D03*
X589800D02*
D03*
X564400D02*
D03*
X539000D02*
D03*
X513600D02*
D03*
D36*
X210000Y762350D02*
D03*
X160000D02*
D03*
D37*
X436000Y726890D02*
D03*
X313000Y726890D02*
D03*
D38*
X436000Y771850D02*
D03*
X313000Y771850D02*
D03*
D39*
X209550Y571500D02*
D03*
Y584200D02*
D03*
X250190Y516636D02*
D03*
X237521Y578756D02*
D03*
X225207Y490129D02*
D03*
X231999Y458849D02*
D03*
X221000Y464850D02*
D03*
X422910Y558800D02*
D03*
X512750Y566166D02*
D03*
X478000Y385850D02*
D03*
X492000Y401850D02*
D03*
X175000Y559850D02*
D03*
X167000Y565850D02*
D03*
X221000Y706850D02*
D03*
X693000Y438850D02*
D03*
X161000Y637850D02*
D03*
X516921Y599850D02*
D03*
X539242Y603916D02*
D03*
X211000Y484850D02*
D03*
X153200Y412750D02*
D03*
X191262Y609600D02*
D03*
X54356Y311150D02*
D03*
X106350Y351238D02*
D03*
X436076Y185462D02*
D03*
X864650Y722850D02*
D03*
X322820Y597700D02*
D03*
X776000Y370840D02*
D03*
X227495Y639407D02*
D03*
X174028Y507200D02*
D03*
X265150Y601312D02*
D03*
X182880Y605219D02*
D03*
X299466Y630174D02*
D03*
X295910Y678598D02*
D03*
X433832Y512826D02*
D03*
X322072Y570700D02*
D03*
X218186Y599220D02*
D03*
X152470Y507200D02*
D03*
X461772Y421132D02*
D03*
X262342Y540364D02*
D03*
X289880Y536300D02*
D03*
X550672Y527050D02*
D03*
X277368Y600202D02*
D03*
X492750Y572262D02*
D03*
X768000D02*
D03*
X366014Y409194D02*
D03*
X413512D02*
D03*
X589534Y587850D02*
D03*
X832104Y572262D02*
D03*
X546884Y401066D02*
D03*
X468630Y504444D02*
D03*
X527050Y418592D02*
D03*
X176784Y623316D02*
D03*
X692150Y117602D02*
D03*
X534200Y97536D02*
D03*
X680000Y298958D02*
D03*
X368046Y597700D02*
D03*
X500634Y560070D02*
D03*
X11684Y715264D02*
D03*
X471424Y520192D02*
D03*
X738378Y472440D02*
D03*
X284036Y689928D02*
D03*
X731774Y408178D02*
D03*
X350050Y455352D02*
D03*
X405130Y107950D02*
D03*
X877570Y510850D02*
D03*
X816000Y532130D02*
D03*
X909828Y620350D02*
D03*
X755142Y606552D02*
D03*
X829387Y679350D02*
D03*
X493776Y477774D02*
D03*
X823307Y467614D02*
D03*
X848106Y572262D02*
D03*
X840000Y546100D02*
D03*
X828040Y546354D02*
D03*
X709000Y602656D02*
D03*
X791972Y546354D02*
D03*
X709000Y641518D02*
D03*
X798127Y572262D02*
D03*
X206561Y535364D02*
D03*
X35600Y509564D02*
D03*
X850000Y481450D02*
D03*
X784000Y418592D02*
D03*
X465836Y696976D02*
D03*
X774192Y495046D02*
D03*
X584200Y527050D02*
D03*
X152400Y534200D02*
D03*
X764540Y542850D02*
D03*
X738632Y534850D02*
D03*
X528508Y556768D02*
D03*
X548640Y492760D02*
D03*
X323088Y527304D02*
D03*
X881634Y466852D02*
D03*
X321310Y514350D02*
D03*
X532986Y486664D02*
D03*
X832000Y492786D02*
D03*
X824000Y433324D02*
D03*
X290898Y440182D02*
D03*
X323088Y463550D02*
D03*
X680974Y476250D02*
D03*
X511814Y444246D02*
D03*
X175987Y587097D02*
D03*
X275150Y592120D02*
D03*
X503174Y415798D02*
D03*
X476497D02*
D03*
X913638Y423926D02*
D03*
X507200Y148049D02*
D03*
X828500Y409702D02*
D03*
X806000Y544380D02*
D03*
X221000Y481850D02*
D03*
X265000Y488850D02*
D03*
X155000Y550850D02*
D03*
X478000Y542850D02*
D03*
M02*
