M48
;Layer_Color=9474304
;FILE_FORMAT=4:4
METRIC,TZ
;TYPE=PLATED
T1F00S00C0.3000
T3F00S00C0.6500
T4F00S00C0.8000
T5F00S00C0.8500
T6F00S00C0.9000
T7F00S00C1.0000
T8F00S00C1.1938
T9F00S00C1.2000
T10F00S00C1.4000
;TYPE=NON_PLATED
T11F00S00C3.0480
%
T01
X669200Y280200
X704884Y327660
X701040Y346780
X737870Y327660
X743135Y320040
Y263075
X769620Y254000
X805180Y251460
Y274320
X812800Y297180
X835660Y302260
X894080Y325120
X866948Y353060
X802640
X480130Y335109
X457200Y320040
X391160Y218440
X370840
X302260Y119380
X47870Y569350
X63500Y623000
X42830Y661678
X18960Y643800
X153660Y636328
X160020Y680720
X170180Y685800
X216860Y707860
X217660Y742480
X292100Y742320
X289560Y711200
X302260
X360210Y700418
X370840Y726440
X381000
X391523
X401320Y725820
X388620Y618960
X363220
X333210Y627850
X322580Y636328
X271780Y609783
X233751Y601329
X226060Y597083
X207034Y560188
X160810Y556260
X172720Y589280
X259080Y556260
Y535940
X246380Y537420
X284480Y553150
X304700Y509025
X307340Y490220
X306900Y474980
X346240Y515033
X346710Y578650
X373563Y571683
X391523Y470925
X495385Y509025
X494740Y531490
X495153Y619613
X533413Y645160
X526992Y736600
X266360Y672760
X271860Y665480
X248920Y672760
X226060Y485140
X217480Y478480
X152400Y431800
X568960Y426720
Y437965
X607060
Y426720
X635000Y398780
X638489Y472440
X642500Y495420
X609600Y485140
X574995
Y520700
X609600
X670140Y525780
X723900Y502920
X755120Y519534
X744220Y456277
X751840Y431629
X764540Y437965
Y423289
X777240Y424180
X784889Y439289
X822711Y447289
X850520Y401320
X876500Y415630
X866520Y363600
X934720Y370840
Y423289
X934589Y439289
X866520Y514688
X863240Y525420
X889000Y645160
X899160Y657860
Y683219
X889000Y683260
X883920Y726440
X891540Y734060
X876300Y746760
X868361Y738820
X850281Y725820
X808228Y681359
X795020Y681640
X774700Y671570
X769620Y660400
X782320Y661678
X810260Y657860
X802640Y618960
X781268Y626328
X708660Y629920
X697370
X627680Y594360
X599440
X574995Y558800
X561340Y548640
X546100Y510420
X541020Y487700
X596900Y718820
Y742480
X629920Y741680
Y716280
X762000Y399289
X946670Y437063
X946620Y464020
X985360Y717916
X883920Y754380
X911720Y801840
X845820Y808723
X853440Y817880
X847560Y831380
X840740Y825500
X797560Y855980
Y863600
X758811Y855980
X747845Y863600
X789940Y777240
X795020Y756920
X729494Y752821
X699545Y753335
X543213Y752821
X436880Y789940
X431800Y802032
X441960Y802640
X425439Y808723
X430240Y838600
X441960Y838200
X271860Y787400
T03
X652780Y731520
X487680Y792480
X472740Y839310
T04
X593950Y501170
T05
X434740Y872960
X484740
T06
X957580Y548640
Y574040
Y599440
Y624840
Y650240
Y675640
X949960Y739140
X975360
Y764540
Y789940
X949960
Y764540
Y815340
X975360
Y840740
X949960
X947420Y891140
X922020
X896620
X871220
T07
X326588Y838600
Y863600
Y888600
X359588
Y863600
Y838600
T08
X635000Y792480
X657860
X680720
X703580
X726440
X715010Y817880
X692150
X669290
X646430
X657860Y843280
X680720
X703580
X726440
X737870Y817880
X635000Y843280
T09
X111760Y492010
X322580Y411480
X406860
X434740
X505460
X558800
X622300
X741680
X828040
X894080Y447040
X193439Y824090
Y869050
X70439Y869050
Y824090
T10
X669200Y123533
X719200
Y248533
X669200
X826500Y283828
X876500
Y158828
X826500
X415088Y191812
X379733Y156456
X304700Y83200
X269345Y47845
X216311Y171588
X192450Y195200
X180956Y136233
X157094Y159845
X266200Y269200
X291345Y244845
X301555Y304555
X326700Y280200
X104062Y283589
X68706Y248233
X177812Y357588
X213167Y392944
T11
X558292Y817880
X808228
M30
