G04*
G04 #@! TF.GenerationSoftware,Altium Limited,Altium Designer,18.1.7 (191)*
G04*
G04 Layer_Color=16711935*
%FSLAX44Y44*%
%MOMM*%
G71*
G01*
G75*
%ADD38R,1.3032X1.9032*%
%ADD39R,1.9032X1.3032*%
%ADD49R,1.4032X1.6032*%
%ADD56C,1.7272*%
%ADD57C,1.8032*%
%ADD58C,0.2032*%
%ADD59C,1.9812*%
%ADD60C,2.2032*%
%ADD61C,2.0032*%
%ADD62C,1.7032*%
%ADD63R,1.7032X1.7032*%
%ADD64C,1.6532*%
%ADD65O,2.2032X3.2032*%
%ADD66O,3.2032X2.2032*%
%ADD67R,1.7032X1.7032*%
%ADD68C,0.8032*%
%ADD69C,1.5032*%
%ADD88R,1.3032X1.7532*%
%ADD89R,1.3032X1.7532*%
%ADD90R,3.6532X1.7532*%
%ADD91R,1.6032X1.4032*%
D38*
X559045Y566420D02*
D03*
X532045D02*
D03*
X324650Y57150D02*
D03*
X297650D02*
D03*
X863780Y448010D02*
D03*
X836781D02*
D03*
X648500Y439289D02*
D03*
X621500D02*
D03*
X155410Y663150D02*
D03*
X182410D02*
D03*
X532600Y591820D02*
D03*
X559600D02*
D03*
X689140Y509025D02*
D03*
X662140D02*
D03*
X902500Y537680D02*
D03*
X875500D02*
D03*
X422349Y583020D02*
D03*
X395350D02*
D03*
X628180Y650423D02*
D03*
X601180D02*
D03*
X300520Y535940D02*
D03*
X273520D02*
D03*
X118910Y327660D02*
D03*
X91910D02*
D03*
X147310Y403860D02*
D03*
X174310D02*
D03*
D39*
X711200Y532600D02*
D03*
Y559600D02*
D03*
X614680Y579120D02*
D03*
Y552120D02*
D03*
X343088Y113500D02*
D03*
Y140500D02*
D03*
X137460Y583400D02*
D03*
Y610400D02*
D03*
X149860Y697550D02*
D03*
Y724550D02*
D03*
X524085Y526580D02*
D03*
Y499580D02*
D03*
X481879Y494010D02*
D03*
Y521010D02*
D03*
Y448010D02*
D03*
Y475010D02*
D03*
X469900Y537680D02*
D03*
Y564680D02*
D03*
X626110Y671570D02*
D03*
Y698570D02*
D03*
X553720Y705650D02*
D03*
Y678650D02*
D03*
X962660Y452920D02*
D03*
Y425920D02*
D03*
X962660Y476720D02*
D03*
Y503720D02*
D03*
D49*
X421350Y557020D02*
D03*
X391350D02*
D03*
D56*
X593950Y501170D02*
D03*
D57*
X322580Y411480D02*
D03*
X111760Y492010D02*
D03*
X894080Y447040D02*
D03*
X828040Y411480D02*
D03*
X741680D02*
D03*
X622300D02*
D03*
X505460D02*
D03*
X558800D02*
D03*
X434740D02*
D03*
X406860D02*
D03*
D58*
X808228Y817880D02*
D03*
X558292D02*
D03*
D59*
X703580Y843280D02*
D03*
X726440D02*
D03*
X669290Y817880D02*
D03*
X726440Y792480D02*
D03*
X680720D02*
D03*
Y843280D02*
D03*
X715010Y817880D02*
D03*
X703580Y792480D02*
D03*
X692150Y817880D02*
D03*
X646430D02*
D03*
X737870D02*
D03*
X657860Y843280D02*
D03*
X635000D02*
D03*
X657860Y792480D02*
D03*
X635000D02*
D03*
D60*
X326588Y888600D02*
D03*
Y863600D02*
D03*
X359588Y888600D02*
D03*
Y863600D02*
D03*
X326588Y838600D02*
D03*
X359588D02*
D03*
D61*
X301555Y304555D02*
D03*
X266200Y269200D02*
D03*
X213167Y392944D02*
D03*
X177812Y357588D02*
D03*
X415088Y191812D02*
D03*
X379733Y156456D02*
D03*
X326700Y280200D02*
D03*
X291345Y244845D02*
D03*
X304700Y83200D02*
D03*
X269345Y47845D02*
D03*
X216311Y171588D02*
D03*
X180956Y136233D02*
D03*
X192450Y195200D02*
D03*
X157094Y159845D02*
D03*
X104062Y283589D02*
D03*
X68706Y248233D02*
D03*
X719200Y248533D02*
D03*
Y123533D02*
D03*
X669200D02*
D03*
Y248533D02*
D03*
X876500Y283828D02*
D03*
Y158828D02*
D03*
X826500D02*
D03*
Y283828D02*
D03*
D62*
X975360Y739140D02*
D03*
Y789940D02*
D03*
Y764540D02*
D03*
X949960Y739140D02*
D03*
Y789940D02*
D03*
Y764540D02*
D03*
X975360Y815340D02*
D03*
Y840740D02*
D03*
X949960Y815340D02*
D03*
X957580Y574040D02*
D03*
Y599440D02*
D03*
Y624840D02*
D03*
Y650240D02*
D03*
Y675640D02*
D03*
X922020Y891140D02*
D03*
X896620D02*
D03*
X871220D02*
D03*
D63*
X949960Y840740D02*
D03*
X957580Y548640D02*
D03*
D64*
X484740Y872960D02*
D03*
X434740D02*
D03*
D65*
X193439Y824090D02*
D03*
X70439Y824090D02*
D03*
D66*
X193439Y869050D02*
D03*
X70439Y869050D02*
D03*
D67*
X947420Y891140D02*
D03*
D68*
X891540Y734060D02*
D03*
X883920Y726440D02*
D03*
X723900Y502920D02*
D03*
X599440Y594360D02*
D03*
X627680D02*
D03*
X495153Y619613D02*
D03*
X574995Y485140D02*
D03*
X609600D02*
D03*
Y520700D02*
D03*
X574995D02*
D03*
X607060Y437965D02*
D03*
Y426720D02*
D03*
X764540Y437965D02*
D03*
X744220Y456277D02*
D03*
X866948Y353060D02*
D03*
X802640D02*
D03*
X737870Y327660D02*
D03*
X704884D02*
D03*
X876500Y415630D02*
D03*
X808228Y681359D02*
D03*
X795020Y756920D02*
D03*
Y681640D02*
D03*
X850520Y401320D02*
D03*
X899160Y657860D02*
D03*
Y683219D02*
D03*
X883920Y754380D02*
D03*
X853440Y817880D02*
D03*
X845820Y808723D02*
D03*
X847560Y831380D02*
D03*
X797560Y863600D02*
D03*
X747845D02*
D03*
X436880Y789940D02*
D03*
X401320Y725820D02*
D03*
X889000Y645160D02*
D03*
Y683260D02*
D03*
X876300Y746760D02*
D03*
X789940Y777240D02*
D03*
X840740Y825500D02*
D03*
X797560Y855980D02*
D03*
X758811D02*
D03*
X431800Y802032D02*
D03*
X425439Y808723D02*
D03*
X391523Y726440D02*
D03*
X388620Y618960D02*
D03*
X363220D02*
D03*
X381000Y726440D02*
D03*
X769620Y660400D02*
D03*
X781268Y626328D02*
D03*
X370840Y726440D02*
D03*
X774700Y671570D02*
D03*
X810260Y657860D02*
D03*
X764540Y423289D02*
D03*
X777240Y424180D02*
D03*
X751840Y431629D02*
D03*
X217480Y478480D02*
D03*
X226060Y485140D02*
D03*
X302260Y711200D02*
D03*
X430240Y838600D02*
D03*
X441960Y838200D02*
D03*
X934720Y370840D02*
D03*
Y423289D02*
D03*
X835660Y302260D02*
D03*
X370840Y218440D02*
D03*
X391160D02*
D03*
X769620Y254000D02*
D03*
X812800Y297180D02*
D03*
X805180Y251460D02*
D03*
Y274320D02*
D03*
X457200Y320040D02*
D03*
X743135D02*
D03*
X762000Y399289D02*
D03*
X541020Y487700D02*
D03*
X152400Y431800D02*
D03*
X306900Y474980D02*
D03*
X304700Y509025D02*
D03*
X307340Y490220D02*
D03*
X259080Y535940D02*
D03*
X333210Y627850D02*
D03*
X271780Y609783D02*
D03*
X259080Y556260D02*
D03*
X360210Y700418D02*
D03*
X322580Y636328D02*
D03*
X248920Y672760D02*
D03*
X266360D02*
D03*
X292100Y742320D02*
D03*
X217660Y742480D02*
D03*
X233751Y601329D02*
D03*
X226060Y597083D02*
D03*
X271860Y665480D02*
D03*
X822711Y447289D02*
D03*
X784889Y439289D02*
D03*
X638489Y472440D02*
D03*
X782320Y661678D02*
D03*
X802640Y618960D02*
D03*
X850281Y725820D02*
D03*
X669200Y280200D02*
D03*
X743135Y263075D02*
D03*
X495385Y509025D02*
D03*
X494740Y531490D02*
D03*
X946670Y437063D02*
D03*
X561340Y548640D02*
D03*
X911720Y801840D02*
D03*
X946620Y464020D02*
D03*
X574995Y558800D02*
D03*
X271860Y787400D02*
D03*
X868361Y738820D02*
D03*
X373563Y571683D02*
D03*
X391523Y470925D02*
D03*
X699545Y753335D02*
D03*
X729494Y752821D02*
D03*
X701040Y346780D02*
D03*
X863240Y525420D02*
D03*
X866520Y514688D02*
D03*
X755120Y519534D02*
D03*
X42830Y661678D02*
D03*
X63500Y623000D02*
D03*
X18960Y643800D02*
D03*
X47870Y569350D02*
D03*
X172720Y589280D02*
D03*
X160810Y556260D02*
D03*
X207034Y560188D02*
D03*
X246380Y537420D02*
D03*
X284480Y553150D02*
D03*
X346240Y515033D02*
D03*
X346710Y578650D02*
D03*
X170180Y685800D02*
D03*
X160020Y680720D02*
D03*
X153660Y636328D02*
D03*
X216860Y707860D02*
D03*
X289560Y711200D02*
D03*
X934589Y439289D02*
D03*
X894080Y325120D02*
D03*
X866520Y363600D02*
D03*
X985360Y717916D02*
D03*
X302260Y119380D02*
D03*
X546100Y510420D02*
D03*
X568960Y437965D02*
D03*
Y426720D02*
D03*
X642500Y495420D02*
D03*
X670140Y525780D02*
D03*
X635000Y398780D02*
D03*
X480130Y335109D02*
D03*
X533413Y645160D02*
D03*
X697370Y629920D02*
D03*
X708660D02*
D03*
X441960Y802640D02*
D03*
X543213Y752821D02*
D03*
X526992Y736600D02*
D03*
X629920Y716280D02*
D03*
Y741680D02*
D03*
X596900Y718820D02*
D03*
Y742480D02*
D03*
D69*
X472740Y839310D02*
D03*
X487680Y792480D02*
D03*
X652780Y731520D02*
D03*
D88*
X397880Y517260D02*
D03*
X662000Y650829D02*
D03*
D89*
X420880Y517260D02*
D03*
X443880D02*
D03*
X685000Y650829D02*
D03*
X708000D02*
D03*
D90*
X420880Y449760D02*
D03*
X685000Y583329D02*
D03*
D91*
X585470Y707050D02*
D03*
Y677050D02*
D03*
M02*
