G04*
G04 #@! TF.GenerationSoftware,Altium Limited,Altium Designer,18.1.7 (191)*
G04*
G04 Layer_Color=128*
%FSLAX44Y44*%
%MOMM*%
G71*
G01*
G75*
%ADD19R,1.1000X1.7000*%
%ADD20R,1.7000X1.1000*%
%ADD30R,1.6000X1.8000*%
%ADD84R,1.1000X1.5500*%
%ADD85R,1.1000X1.5500*%
%ADD86R,3.4500X1.5500*%
%ADD92R,1.8000X1.6000*%
D19*
X559045Y566420D02*
D03*
X532045D02*
D03*
X324650Y57150D02*
D03*
X297650D02*
D03*
X863780Y448010D02*
D03*
X836781D02*
D03*
X648500Y439289D02*
D03*
X621500D02*
D03*
X155410Y663150D02*
D03*
X182410D02*
D03*
X532600Y591820D02*
D03*
X559600D02*
D03*
X689140Y509025D02*
D03*
X662140D02*
D03*
X902500Y537680D02*
D03*
X875500D02*
D03*
X422349Y583020D02*
D03*
X395350D02*
D03*
X628180Y650423D02*
D03*
X601180D02*
D03*
X300520Y535940D02*
D03*
X273520D02*
D03*
X118910Y327660D02*
D03*
X91910D02*
D03*
X147310Y403860D02*
D03*
X174310D02*
D03*
D20*
X711200Y532600D02*
D03*
Y559600D02*
D03*
X614680Y579120D02*
D03*
Y552120D02*
D03*
X343088Y113500D02*
D03*
Y140500D02*
D03*
X137460Y583400D02*
D03*
Y610400D02*
D03*
X149860Y697550D02*
D03*
Y724550D02*
D03*
X524085Y526580D02*
D03*
Y499580D02*
D03*
X481879Y494010D02*
D03*
Y521010D02*
D03*
Y448010D02*
D03*
Y475010D02*
D03*
X469900Y537680D02*
D03*
Y564680D02*
D03*
X626110Y671570D02*
D03*
Y698570D02*
D03*
X553720Y705650D02*
D03*
Y678650D02*
D03*
X962660Y452920D02*
D03*
Y425920D02*
D03*
X962660Y476720D02*
D03*
Y503720D02*
D03*
D30*
X421350Y557020D02*
D03*
X391350D02*
D03*
D84*
X397880Y517260D02*
D03*
X662000Y650829D02*
D03*
D85*
X420880Y517260D02*
D03*
X443880D02*
D03*
X685000Y650829D02*
D03*
X708000D02*
D03*
D86*
X420880Y449760D02*
D03*
X685000Y583329D02*
D03*
D92*
X585470Y707050D02*
D03*
Y677050D02*
D03*
M02*
