G04*
G04 #@! TF.GenerationSoftware,Altium Limited,Altium Designer,18.1.7 (191)*
G04*
G04 Layer_Color=32896*
%FSLAX44Y44*%
%MOMM*%
G71*
G01*
G75*
%ADD11C,0.2500*%
%ADD12C,0.2000*%
%ADD13C,0.2540*%
%ADD14C,0.2032*%
G36*
X336550Y863854D02*
Y861822D01*
X338582D01*
Y859790D01*
X336550D01*
Y857758D01*
Y855726D01*
X338582D01*
Y853694D01*
Y851662D01*
Y849630D01*
Y847598D01*
X344678D01*
Y849630D01*
X348742D01*
Y851662D01*
Y853694D01*
Y855726D01*
X352806D01*
Y857758D01*
X356870D01*
Y859790D01*
X358902D01*
Y861822D01*
X362966D01*
Y859790D01*
X360934D01*
Y857758D01*
X358902D01*
Y855726D01*
X356870D01*
Y853694D01*
X354838D01*
Y851662D01*
X352806D01*
Y849630D01*
X350774D01*
Y847598D01*
Y845566D01*
Y843534D01*
Y841502D01*
Y839470D01*
X358902D01*
Y841502D01*
X367030D01*
Y843534D01*
X369062D01*
Y841502D01*
X371094D01*
Y839470D01*
X364998D01*
Y837438D01*
X358902D01*
Y835406D01*
X352806D01*
Y833374D01*
Y831342D01*
Y829310D01*
X364998D01*
Y827278D01*
X358902D01*
Y825246D01*
X352806D01*
Y823214D01*
Y821182D01*
X356870D01*
Y819150D01*
X364998D01*
Y817118D01*
X367030D01*
Y815086D01*
X364998D01*
Y817118D01*
X352806D01*
Y815086D01*
X350774D01*
Y813054D01*
Y811022D01*
Y808990D01*
Y806958D01*
X352806D01*
Y804926D01*
Y802894D01*
Y800862D01*
Y798830D01*
X354838D01*
Y796798D01*
Y794766D01*
Y792734D01*
Y790702D01*
Y788670D01*
Y786638D01*
Y784606D01*
Y782574D01*
X356870D01*
Y780542D01*
Y778510D01*
Y776478D01*
Y774446D01*
Y772414D01*
X358902D01*
Y770382D01*
Y768350D01*
Y766318D01*
Y764286D01*
X360934D01*
Y762254D01*
Y760222D01*
Y758190D01*
Y756158D01*
X362966D01*
Y754126D01*
Y752094D01*
Y750062D01*
Y748030D01*
X364998D01*
Y745998D01*
X362966D01*
Y743966D01*
Y741934D01*
Y739902D01*
Y737870D01*
Y735838D01*
Y733806D01*
X364998D01*
Y731774D01*
Y729742D01*
X362966D01*
Y727710D01*
Y725678D01*
Y723646D01*
Y721614D01*
Y719582D01*
X364998D01*
Y717550D01*
X362966D01*
Y715518D01*
X360934D01*
Y713486D01*
X358902D01*
Y711454D01*
X350774D01*
Y709422D01*
X346710D01*
Y707390D01*
X342646D01*
Y705358D01*
X338582D01*
Y703326D01*
X336550D01*
Y701294D01*
X330454D01*
Y699262D01*
X326390D01*
Y697230D01*
X322326D01*
Y695198D01*
X320294D01*
Y693166D01*
X308102D01*
Y691134D01*
X304038D01*
Y689102D01*
Y687070D01*
X306070D01*
Y685038D01*
Y683006D01*
Y680974D01*
X308102D01*
Y678942D01*
X310134D01*
Y676910D01*
Y674878D01*
X312166D01*
Y672846D01*
X310134D01*
Y670814D01*
X312166D01*
Y668782D01*
Y666750D01*
Y664718D01*
Y662686D01*
Y660654D01*
Y658622D01*
Y656590D01*
X310134D01*
Y654558D01*
X312166D01*
Y652526D01*
X310134D01*
Y650494D01*
Y648462D01*
X306070D01*
Y646430D01*
Y644398D01*
Y642366D01*
Y640334D01*
Y638302D01*
Y636270D01*
Y634238D01*
Y632206D01*
X308102D01*
Y630174D01*
Y628142D01*
Y626110D01*
Y624078D01*
Y622046D01*
Y620014D01*
X310134D01*
Y617982D01*
Y615950D01*
Y613918D01*
Y611886D01*
Y609854D01*
Y607822D01*
X312166D01*
Y605790D01*
Y603758D01*
X310134D01*
Y601726D01*
Y599694D01*
Y597662D01*
Y595630D01*
Y593598D01*
X308102D01*
Y591566D01*
Y589534D01*
Y587502D01*
X306070D01*
Y585470D01*
Y583438D01*
Y581406D01*
Y579374D01*
X304038D01*
Y577342D01*
Y575310D01*
X302006D01*
Y573278D01*
Y571246D01*
Y569214D01*
Y567182D01*
Y565150D01*
X312166D01*
Y563118D01*
X322326D01*
Y561086D01*
X328422D01*
Y559054D01*
X334518D01*
Y557022D01*
X344678D01*
Y554990D01*
X348742D01*
Y552958D01*
X352806D01*
Y550926D01*
X358902D01*
Y548894D01*
X364998D01*
Y546862D01*
X371094D01*
Y544830D01*
X375158D01*
Y542798D01*
X377190D01*
Y540766D01*
X381254D01*
Y538734D01*
X387350D01*
Y536702D01*
X389382D01*
Y534670D01*
X393446D01*
Y532638D01*
X395478D01*
Y530606D01*
X397510D01*
Y528574D01*
X399542D01*
Y526542D01*
Y524510D01*
Y522478D01*
X397510D01*
Y520446D01*
X393446D01*
Y518414D01*
X389382D01*
Y516382D01*
X385318D01*
Y514350D01*
X381254D01*
Y512318D01*
X377190D01*
Y510286D01*
X375158D01*
Y508254D01*
X373126D01*
Y506222D01*
X371094D01*
Y504190D01*
X369062D01*
Y502158D01*
X367030D01*
Y500126D01*
Y498094D01*
Y496062D01*
Y494030D01*
X369062D01*
Y491998D01*
X371094D01*
Y489966D01*
X373126D01*
Y487934D01*
X375158D01*
Y485902D01*
X379222D01*
Y483870D01*
X381254D01*
Y481838D01*
X383286D01*
Y479806D01*
Y477774D01*
Y475742D01*
X381254D01*
Y473710D01*
X379222D01*
Y471678D01*
X375158D01*
Y469646D01*
X369062D01*
Y467614D01*
X364998D01*
Y465582D01*
X362966D01*
Y463550D01*
Y461518D01*
Y459486D01*
X360934D01*
Y457454D01*
Y455422D01*
Y453390D01*
Y451358D01*
X362966D01*
Y449326D01*
Y447294D01*
Y445262D01*
Y443230D01*
Y441198D01*
Y439166D01*
Y437134D01*
Y435102D01*
X364998D01*
Y433070D01*
Y431038D01*
X367030D01*
Y429006D01*
X369062D01*
Y426974D01*
X371094D01*
Y424942D01*
X373126D01*
Y422910D01*
X375158D01*
Y420878D01*
Y418846D01*
X377190D01*
Y416814D01*
X381254D01*
Y414782D01*
X383286D01*
Y412750D01*
Y410718D01*
X385318D01*
Y408686D01*
X389382D01*
Y406654D01*
X391414D01*
Y404622D01*
X393446D01*
Y402590D01*
X395478D01*
Y400558D01*
X399542D01*
Y398526D01*
X401574D01*
Y396494D01*
X405638D01*
Y394462D01*
X407670D01*
Y392430D01*
X411734D01*
Y390398D01*
X415798D01*
Y388366D01*
X417830D01*
Y386334D01*
X421894D01*
Y384302D01*
X425958D01*
Y382270D01*
X432054D01*
Y380238D01*
X436118D01*
Y378206D01*
X434086D01*
Y376174D01*
Y374142D01*
X432054D01*
Y372110D01*
X430022D01*
Y370078D01*
X427990D01*
Y368046D01*
Y366014D01*
X425958D01*
Y363982D01*
Y361950D01*
Y359918D01*
X427990D01*
Y357886D01*
X430022D01*
Y355854D01*
X432054D01*
Y353822D01*
X434086D01*
Y351790D01*
X436118D01*
Y349758D01*
X438150D01*
Y347726D01*
X440182D01*
Y345694D01*
X442214D01*
Y343662D01*
X444246D01*
Y341630D01*
X446278D01*
Y339598D01*
X448310D01*
Y337566D01*
X450342D01*
Y335534D01*
X452374D01*
Y333502D01*
Y331470D01*
Y329438D01*
X456438D01*
Y327406D01*
X458470D01*
Y325374D01*
X460502D01*
Y323342D01*
Y321310D01*
X462534D01*
Y319278D01*
Y317246D01*
X464566D01*
Y315214D01*
X460502D01*
Y313182D01*
X456438D01*
Y311150D01*
X454406D01*
Y309118D01*
X452374D01*
Y307086D01*
X450342D01*
Y305054D01*
X448310D01*
Y303022D01*
Y300990D01*
X446278D01*
Y298958D01*
X444246D01*
Y296926D01*
X436118D01*
Y294894D01*
X432054D01*
Y292862D01*
X427990D01*
Y290830D01*
X425958D01*
Y288798D01*
X423926D01*
Y286766D01*
Y284734D01*
Y282702D01*
Y280670D01*
Y278638D01*
Y276606D01*
Y274574D01*
Y272542D01*
Y270510D01*
Y268478D01*
Y266446D01*
Y264414D01*
Y262382D01*
Y260350D01*
Y258318D01*
Y256286D01*
Y254254D01*
Y252222D01*
X425958D01*
Y250190D01*
Y248158D01*
Y246126D01*
Y244094D01*
Y242062D01*
Y240030D01*
Y237998D01*
Y235966D01*
X417830D01*
Y233934D01*
Y231902D01*
X415798D01*
Y229870D01*
X417830D01*
Y227838D01*
X415798D01*
Y225806D01*
Y223774D01*
Y221742D01*
Y219710D01*
Y217678D01*
Y215646D01*
Y213614D01*
X411734D01*
Y211582D01*
X405638D01*
Y209550D01*
X403606D01*
Y211582D01*
X397510D01*
Y213614D01*
X393446D01*
Y211582D01*
X389382D01*
Y209550D01*
X387350D01*
Y207518D01*
X385318D01*
Y205486D01*
Y203454D01*
Y201422D01*
Y199390D01*
X383286D01*
Y197358D01*
Y195326D01*
Y193294D01*
Y191262D01*
Y189230D01*
X381254D01*
Y187198D01*
Y185166D01*
Y183134D01*
Y181102D01*
Y179070D01*
Y177038D01*
Y175006D01*
Y172974D01*
Y170942D01*
Y168910D01*
Y166878D01*
X383286D01*
Y164846D01*
Y162814D01*
Y160782D01*
X385318D01*
Y158750D01*
Y156718D01*
X387350D01*
Y154686D01*
Y152654D01*
X389382D01*
Y150622D01*
X391414D01*
Y148590D01*
Y146558D01*
Y144526D01*
X393446D01*
Y142494D01*
X395478D01*
Y140462D01*
Y138430D01*
Y136398D01*
X397510D01*
Y134366D01*
Y132334D01*
X399542D01*
Y130302D01*
Y128270D01*
Y126238D01*
Y124206D01*
Y122174D01*
X401574D01*
Y120142D01*
Y118110D01*
X405638D01*
Y116078D01*
X409702D01*
Y114046D01*
X423926D01*
Y112014D01*
X427990D01*
Y109982D01*
Y107950D01*
Y105918D01*
Y103886D01*
X425958D01*
Y101854D01*
Y99822D01*
X397510D01*
Y101854D01*
X391414D01*
Y103886D01*
X385318D01*
Y105918D01*
X383286D01*
Y107950D01*
X381254D01*
Y109982D01*
X379222D01*
Y112014D01*
X377190D01*
Y114046D01*
X375158D01*
Y116078D01*
X373126D01*
Y118110D01*
X371094D01*
Y120142D01*
X367030D01*
Y122174D01*
X364998D01*
Y124206D01*
X360934D01*
Y126238D01*
X356870D01*
Y128270D01*
X354838D01*
Y126238D01*
X352806D01*
Y124206D01*
Y122174D01*
Y120142D01*
X350774D01*
Y118110D01*
Y116078D01*
Y114046D01*
Y112014D01*
X338582D01*
Y114046D01*
Y116078D01*
Y118110D01*
Y120142D01*
Y122174D01*
Y124206D01*
Y126238D01*
Y128270D01*
Y130302D01*
Y132334D01*
Y134366D01*
Y136398D01*
Y138430D01*
X336550D01*
Y140462D01*
Y142494D01*
Y144526D01*
Y146558D01*
Y148590D01*
X334518D01*
Y150622D01*
X336550D01*
Y152654D01*
X338582D01*
Y154686D01*
X340614D01*
Y156718D01*
Y158750D01*
X342646D01*
Y160782D01*
X344678D01*
Y162814D01*
Y164846D01*
X346710D01*
Y166878D01*
X348742D01*
Y168910D01*
Y170942D01*
X350774D01*
Y172974D01*
Y175006D01*
Y177038D01*
X352806D01*
Y179070D01*
Y181102D01*
Y183134D01*
Y185166D01*
Y187198D01*
Y189230D01*
Y191262D01*
Y193294D01*
X354838D01*
Y195326D01*
Y197358D01*
Y199390D01*
Y201422D01*
Y203454D01*
Y205486D01*
Y207518D01*
Y209550D01*
Y211582D01*
X352806D01*
Y213614D01*
X346710D01*
Y215646D01*
X338582D01*
Y213614D01*
X334518D01*
Y211582D01*
X332486D01*
Y209550D01*
X330454D01*
Y207518D01*
Y205486D01*
X328422D01*
Y203454D01*
Y201422D01*
Y199390D01*
X326390D01*
Y197358D01*
X320294D01*
Y199390D01*
X314198D01*
Y201422D01*
X310134D01*
Y203454D01*
X306070D01*
Y205486D01*
X293878D01*
Y203454D01*
X287782D01*
Y201422D01*
X281686D01*
Y199390D01*
X263398D01*
Y197358D01*
X253238D01*
Y195326D01*
X241046D01*
Y197358D01*
X236982D01*
Y199390D01*
X230886D01*
Y201422D01*
X224790D01*
Y203454D01*
X220726D01*
Y205486D01*
X212598D01*
Y207518D01*
X198374D01*
Y209550D01*
X171958D01*
Y207518D01*
X169926D01*
Y205486D01*
X167894D01*
Y203454D01*
Y201422D01*
Y199390D01*
X165862D01*
Y197358D01*
Y195326D01*
Y193294D01*
Y191262D01*
Y189230D01*
Y187198D01*
Y185166D01*
Y183134D01*
X163830D01*
Y181102D01*
Y179070D01*
Y177038D01*
Y175006D01*
Y172974D01*
Y170942D01*
Y168910D01*
Y166878D01*
Y164846D01*
Y162814D01*
Y160782D01*
Y158750D01*
X165862D01*
Y156718D01*
Y154686D01*
Y152654D01*
Y150622D01*
Y148590D01*
Y146558D01*
Y144526D01*
Y142494D01*
Y140462D01*
Y138430D01*
Y136398D01*
X167894D01*
Y134366D01*
Y132334D01*
Y130302D01*
X169926D01*
Y128270D01*
Y126238D01*
Y124206D01*
Y122174D01*
Y120142D01*
Y118110D01*
X171958D01*
Y116078D01*
X173990D01*
Y114046D01*
Y112014D01*
X176022D01*
Y109982D01*
X178054D01*
Y107950D01*
X180086D01*
Y105918D01*
Y103886D01*
X182118D01*
Y101854D01*
Y99822D01*
Y97790D01*
X180086D01*
Y95758D01*
Y93726D01*
X149606D01*
Y95758D01*
X145542D01*
Y97790D01*
X143510D01*
Y99822D01*
X141478D01*
Y101854D01*
X139446D01*
Y103886D01*
Y105918D01*
X137414D01*
Y107950D01*
X139446D01*
Y109982D01*
X137414D01*
Y112014D01*
X129286D01*
Y114046D01*
Y116078D01*
Y118110D01*
Y120142D01*
Y122174D01*
Y124206D01*
Y126238D01*
Y128270D01*
Y130302D01*
Y132334D01*
Y134366D01*
Y136398D01*
Y138430D01*
Y140462D01*
Y142494D01*
Y144526D01*
Y146558D01*
Y148590D01*
Y150622D01*
Y152654D01*
X131318D01*
Y154686D01*
X133350D01*
Y156718D01*
X135382D01*
Y158750D01*
X137414D01*
Y160782D01*
Y162814D01*
X139446D01*
Y164846D01*
Y166878D01*
Y168910D01*
X141478D01*
Y170942D01*
Y172974D01*
Y175006D01*
Y177038D01*
Y179070D01*
Y181102D01*
Y183134D01*
Y185166D01*
Y187198D01*
Y189230D01*
Y191262D01*
Y193294D01*
Y195326D01*
Y197358D01*
Y199390D01*
Y201422D01*
Y203454D01*
X139446D01*
Y205486D01*
Y207518D01*
Y209550D01*
Y211582D01*
Y213614D01*
Y215646D01*
Y217678D01*
Y219710D01*
X137414D01*
Y221742D01*
X135382D01*
Y223774D01*
X133350D01*
Y225806D01*
X125222D01*
Y227838D01*
X119126D01*
Y229870D01*
X108966D01*
Y231902D01*
X104902D01*
Y233934D01*
X102870D01*
Y235966D01*
X100838D01*
Y237998D01*
Y240030D01*
X98806D01*
Y242062D01*
Y244094D01*
X96774D01*
Y246126D01*
X94742D01*
Y248158D01*
Y250190D01*
X92710D01*
Y252222D01*
X90678D01*
Y254254D01*
X88646D01*
Y256286D01*
X86614D01*
Y258318D01*
X84582D01*
Y260350D01*
X82550D01*
Y262382D01*
X78486D01*
Y264414D01*
X76454D01*
Y266446D01*
X74422D01*
Y268478D01*
X72390D01*
Y270510D01*
X68326D01*
Y272542D01*
X66294D01*
Y274574D01*
X64262D01*
Y276606D01*
Y278638D01*
X60198D01*
Y280670D01*
X58166D01*
Y282702D01*
Y284734D01*
Y286766D01*
X54102D01*
Y288798D01*
Y290830D01*
X52070D01*
Y292862D01*
Y294894D01*
X50038D01*
Y296926D01*
Y298958D01*
X52070D01*
Y300990D01*
Y303022D01*
Y305054D01*
Y307086D01*
Y309118D01*
Y311150D01*
Y313182D01*
Y315214D01*
X50038D01*
Y317246D01*
Y319278D01*
X48006D01*
Y321310D01*
Y323342D01*
X45974D01*
Y325374D01*
Y327406D01*
X43942D01*
Y329438D01*
Y331470D01*
X41910D01*
Y333502D01*
Y335534D01*
Y337566D01*
Y339598D01*
Y341630D01*
X39878D01*
Y343662D01*
Y345694D01*
Y347726D01*
Y349758D01*
Y351790D01*
X37846D01*
Y353822D01*
Y355854D01*
Y357886D01*
Y359918D01*
Y361950D01*
X39878D01*
Y363982D01*
Y366014D01*
Y368046D01*
Y370078D01*
Y372110D01*
X41910D01*
Y374142D01*
Y376174D01*
Y378206D01*
Y380238D01*
X43942D01*
Y382270D01*
Y384302D01*
Y386334D01*
X45974D01*
Y388366D01*
Y390398D01*
X48006D01*
Y392430D01*
Y394462D01*
X50038D01*
Y396494D01*
Y398526D01*
Y400558D01*
X52070D01*
Y402590D01*
Y404622D01*
Y406654D01*
X54102D01*
Y408686D01*
Y410718D01*
X58166D01*
Y412750D01*
Y414782D01*
Y416814D01*
X60198D01*
Y418846D01*
Y420878D01*
X62230D01*
Y422910D01*
Y424942D01*
X66294D01*
Y426974D01*
Y429006D01*
X68326D01*
Y431038D01*
Y433070D01*
X70358D01*
Y435102D01*
Y437134D01*
X72390D01*
Y439166D01*
X74422D01*
Y441198D01*
Y443230D01*
X76454D01*
Y445262D01*
X78486D01*
Y447294D01*
Y449326D01*
X80518D01*
Y451358D01*
X82550D01*
Y453390D01*
X84582D01*
Y455422D01*
X86614D01*
Y457454D01*
X90678D01*
Y459486D01*
X94742D01*
Y461518D01*
X98806D01*
Y463550D01*
X100838D01*
Y465582D01*
X104902D01*
Y467614D01*
X106934D01*
Y469646D01*
Y471678D01*
X108966D01*
Y473710D01*
Y475742D01*
Y477774D01*
X110998D01*
Y479806D01*
Y481838D01*
Y483870D01*
Y485902D01*
X113030D01*
Y487934D01*
Y489966D01*
X110998D01*
Y491998D01*
X108966D01*
Y494030D01*
X106934D01*
Y496062D01*
X104902D01*
Y498094D01*
Y500126D01*
X102870D01*
Y502158D01*
Y504190D01*
X100838D01*
Y506222D01*
Y508254D01*
X98806D01*
Y510286D01*
Y512318D01*
Y514350D01*
Y516382D01*
Y518414D01*
X100838D01*
Y520446D01*
Y522478D01*
Y524510D01*
X102870D01*
Y526542D01*
X104902D01*
Y528574D01*
X106934D01*
Y530606D01*
X108966D01*
Y532638D01*
X110998D01*
Y534670D01*
X113030D01*
Y536702D01*
X115062D01*
Y538734D01*
X117094D01*
Y540766D01*
X121158D01*
Y542798D01*
Y544830D01*
Y546862D01*
X123190D01*
Y548894D01*
X125222D01*
Y550926D01*
X127254D01*
Y552958D01*
Y554990D01*
Y557022D01*
X129286D01*
Y559054D01*
Y561086D01*
Y563118D01*
Y565150D01*
X131318D01*
Y567182D01*
Y569214D01*
X133350D01*
Y571246D01*
Y573278D01*
X135382D01*
Y575310D01*
X137414D01*
Y577342D01*
X139446D01*
Y579374D01*
X141478D01*
Y581406D01*
X143510D01*
Y583438D01*
X147574D01*
Y585470D01*
X149606D01*
Y587502D01*
X153670D01*
Y589534D01*
X157734D01*
Y591566D01*
X171958D01*
Y593598D01*
X192278D01*
Y591566D01*
X212598D01*
Y589534D01*
X216662D01*
Y591566D01*
Y593598D01*
Y595630D01*
Y597662D01*
Y599694D01*
Y601726D01*
Y603758D01*
X214630D01*
Y605790D01*
X212598D01*
Y607822D01*
Y609854D01*
X210566D01*
Y611886D01*
X208534D01*
Y613918D01*
Y615950D01*
X206502D01*
Y617982D01*
X204470D01*
Y620014D01*
Y622046D01*
X200406D01*
Y624078D01*
Y626110D01*
X198374D01*
Y628142D01*
Y630174D01*
Y632206D01*
X194310D01*
Y634238D01*
Y636270D01*
X192278D01*
Y638302D01*
Y640334D01*
X190246D01*
Y642366D01*
Y644398D01*
Y646430D01*
Y648462D01*
X188214D01*
Y650494D01*
Y652526D01*
X186182D01*
Y654558D01*
Y656590D01*
Y658622D01*
X184150D01*
Y660654D01*
Y662686D01*
Y664718D01*
Y666750D01*
X182118D01*
Y668782D01*
Y670814D01*
Y672846D01*
Y674878D01*
Y676910D01*
Y678942D01*
Y680974D01*
Y683006D01*
Y685038D01*
Y687070D01*
Y689102D01*
Y691134D01*
Y693166D01*
X180086D01*
Y695198D01*
Y697230D01*
Y699262D01*
Y701294D01*
Y703326D01*
Y705358D01*
Y707390D01*
X182118D01*
Y709422D01*
Y711454D01*
Y713486D01*
Y715518D01*
Y717550D01*
Y719582D01*
X184150D01*
Y721614D01*
Y723646D01*
X186182D01*
Y725678D01*
Y727710D01*
X188214D01*
Y729742D01*
X192278D01*
Y731774D01*
Y733806D01*
X194310D01*
Y735838D01*
X196342D01*
Y737870D01*
X200406D01*
Y739902D01*
Y741934D01*
X202438D01*
Y743966D01*
Y745998D01*
X204470D01*
Y748030D01*
Y750062D01*
X206502D01*
Y752094D01*
X208534D01*
Y754126D01*
Y756158D01*
Y758190D01*
Y760222D01*
Y762254D01*
Y764286D01*
Y766318D01*
X204470D01*
Y768350D01*
X192278D01*
Y770382D01*
X182118D01*
Y772414D01*
Y774446D01*
X180086D01*
Y776478D01*
Y778510D01*
X178054D01*
Y780542D01*
X173990D01*
Y782574D01*
Y784606D01*
Y786638D01*
Y788670D01*
X171958D01*
Y790702D01*
Y792734D01*
Y794766D01*
Y796798D01*
X173990D01*
Y798830D01*
X171958D01*
Y800862D01*
X173990D01*
Y802894D01*
X176022D01*
Y804926D01*
X180086D01*
Y806958D01*
X182118D01*
Y808990D01*
Y811022D01*
Y813054D01*
X190246D01*
Y815086D01*
X192278D01*
Y813054D01*
X194310D01*
Y811022D01*
X196342D01*
Y808990D01*
X198374D01*
Y811022D01*
X202438D01*
Y813054D01*
X204470D01*
Y815086D01*
Y817118D01*
Y819150D01*
Y821182D01*
Y823214D01*
Y825246D01*
X206502D01*
Y827278D01*
Y829310D01*
X208534D01*
Y831342D01*
X210566D01*
Y833374D01*
X212598D01*
Y835406D01*
X214630D01*
Y837438D01*
X218694D01*
Y839470D01*
X230886D01*
Y841502D01*
X251206D01*
Y839470D01*
X259334D01*
Y837438D01*
X263398D01*
Y835406D01*
X267462D01*
Y833374D01*
X269494D01*
Y831342D01*
X271526D01*
Y829310D01*
X273558D01*
Y827278D01*
X275590D01*
Y825246D01*
Y823214D01*
Y821182D01*
X277622D01*
Y819150D01*
Y817118D01*
X279654D01*
Y815086D01*
Y813054D01*
X281686D01*
Y811022D01*
Y808990D01*
Y806958D01*
Y804926D01*
Y802894D01*
Y800862D01*
Y798830D01*
Y796798D01*
Y794766D01*
Y792734D01*
Y790702D01*
X279654D01*
Y788670D01*
Y786638D01*
Y784606D01*
Y782574D01*
X277622D01*
Y780542D01*
X275590D01*
Y778510D01*
Y776478D01*
Y774446D01*
Y772414D01*
Y770382D01*
Y768350D01*
X277622D01*
Y770382D01*
X283718D01*
Y772414D01*
X285750D01*
Y774446D01*
X289814D01*
Y776478D01*
X291846D01*
Y778510D01*
Y780542D01*
X293878D01*
Y782574D01*
X295910D01*
Y784606D01*
Y786638D01*
X297942D01*
Y788670D01*
Y790702D01*
X299974D01*
Y792734D01*
X302006D01*
Y794766D01*
X304038D01*
Y796798D01*
X306070D01*
Y798830D01*
X308102D01*
Y800862D01*
Y802894D01*
X312166D01*
Y804926D01*
Y806958D01*
X314198D01*
Y808990D01*
Y811022D01*
Y813054D01*
Y815086D01*
X310134D01*
Y817118D01*
X299974D01*
Y819150D01*
X304038D01*
Y821182D01*
X308102D01*
Y819150D01*
X318262D01*
Y821182D01*
Y823214D01*
Y825246D01*
X316230D01*
Y827278D01*
Y829310D01*
X314198D01*
Y831342D01*
Y833374D01*
Y835406D01*
Y837438D01*
Y839470D01*
Y841502D01*
X310134D01*
Y843534D01*
X306070D01*
Y845566D01*
X304038D01*
Y847598D01*
X310134D01*
Y845566D01*
X316230D01*
Y847598D01*
Y849630D01*
X314198D01*
Y851662D01*
Y853694D01*
Y855726D01*
Y857758D01*
Y859790D01*
X312166D01*
Y861822D01*
X314198D01*
Y859790D01*
X316230D01*
Y857758D01*
Y855726D01*
X318262D01*
Y853694D01*
X320294D01*
Y851662D01*
Y849630D01*
Y847598D01*
Y845566D01*
X322326D01*
Y843534D01*
Y841502D01*
X324358D01*
Y839470D01*
X328422D01*
Y841502D01*
Y843534D01*
Y845566D01*
X326390D01*
Y847598D01*
Y849630D01*
Y851662D01*
Y853694D01*
Y855726D01*
Y857758D01*
X328422D01*
Y855726D01*
Y853694D01*
Y851662D01*
Y849630D01*
Y847598D01*
X334518D01*
Y849630D01*
Y851662D01*
Y853694D01*
Y855726D01*
Y857758D01*
X332486D01*
Y859790D01*
Y861822D01*
Y863854D01*
Y865886D01*
X336550D01*
Y863854D01*
D02*
G37*
%LPC*%
G36*
X334518Y804926D02*
X328422D01*
Y802894D01*
Y800862D01*
Y798830D01*
X326390D01*
Y796798D01*
X324358D01*
Y794766D01*
Y792734D01*
X322326D01*
Y790702D01*
Y788670D01*
X320294D01*
Y786638D01*
Y784606D01*
X318262D01*
Y782574D01*
Y780542D01*
X316230D01*
Y778510D01*
X314198D01*
Y776478D01*
Y774446D01*
Y772414D01*
X310134D01*
Y770382D01*
X312166D01*
Y768350D01*
X310134D01*
Y766318D01*
Y764286D01*
X308102D01*
Y762254D01*
X304038D01*
Y760222D01*
Y758190D01*
Y756158D01*
X302006D01*
Y754126D01*
X297942D01*
Y752094D01*
X295910D01*
Y750062D01*
X293878D01*
Y748030D01*
X291846D01*
Y745998D01*
X289814D01*
Y743966D01*
X287782D01*
Y741934D01*
X283718D01*
Y739902D01*
X285750D01*
Y737870D01*
X283718D01*
Y735838D01*
X279654D01*
Y733806D01*
X277622D01*
Y731774D01*
X275590D01*
Y729742D01*
Y727710D01*
X295910D01*
Y725678D01*
X318262D01*
Y727710D01*
X330454D01*
Y729742D01*
X332486D01*
Y731774D01*
Y733806D01*
X334518D01*
Y735838D01*
Y737870D01*
Y739902D01*
Y741934D01*
Y743966D01*
Y745998D01*
Y748030D01*
Y750062D01*
Y752094D01*
Y754126D01*
Y756158D01*
Y758190D01*
Y760222D01*
Y762254D01*
X336550D01*
Y764286D01*
Y766318D01*
Y768350D01*
Y770382D01*
Y772414D01*
Y774446D01*
Y776478D01*
Y778510D01*
Y780542D01*
Y782574D01*
Y784606D01*
Y786638D01*
Y788670D01*
Y790702D01*
Y792734D01*
Y794766D01*
Y796798D01*
X334518D01*
Y798830D01*
Y800862D01*
Y802894D01*
Y804926D01*
D02*
G37*
%LPD*%
D11*
X399130Y530510D02*
X397255Y531593D01*
Y529428D01*
X399130Y530510D01*
X663250Y664080D02*
X661375Y665162D01*
Y662997D01*
X663250Y664080D01*
D12*
X703700Y542100D02*
Y550100D01*
X718700Y542100D02*
Y550100D01*
X541545Y573920D02*
X549545D01*
X541545Y558920D02*
X549545D01*
X607180Y561620D02*
Y569620D01*
X622180Y561620D02*
Y569620D01*
X307150Y64650D02*
X315150D01*
X307150Y49650D02*
X315150D01*
X350588Y123000D02*
Y131000D01*
X335588Y123000D02*
Y131000D01*
X846281Y455510D02*
X854281D01*
X846281Y440511D02*
X854281D01*
X631000Y431789D02*
X639000D01*
X631000Y446789D02*
X639000D01*
X129960Y592900D02*
Y600900D01*
X144960Y592900D02*
Y600900D01*
X157360Y707050D02*
Y715050D01*
X142360Y707050D02*
Y715050D01*
X164910Y670650D02*
X172910D01*
X164910Y655650D02*
X172910D01*
X516585Y509080D02*
Y517080D01*
X531585Y509080D02*
Y517080D01*
X542100Y584320D02*
X550100D01*
X542100Y599320D02*
X550100D01*
X671640Y516525D02*
X679640D01*
X671640Y501525D02*
X679640D01*
X885000Y530180D02*
X893000D01*
X885000Y545180D02*
X893000D01*
X404849Y590520D02*
X412849D01*
X404849Y575520D02*
X412849D01*
X489380Y503511D02*
Y511511D01*
X474380Y503511D02*
Y511511D01*
X489380Y457510D02*
Y465510D01*
X474380Y457510D02*
Y465510D01*
X387379Y465010D02*
X454380D01*
Y502010D01*
X387379D02*
X454380D01*
X387379Y465010D02*
Y502010D01*
X477400Y547180D02*
Y555180D01*
X462400Y547180D02*
Y555180D01*
X651500Y598579D02*
X718500D01*
Y635580D01*
X651500D02*
X718500D01*
X651500Y598579D02*
Y635580D01*
X633610Y681070D02*
Y689070D01*
X618610Y681070D02*
Y689070D01*
X610680Y642922D02*
X618680D01*
X610680Y657923D02*
X618680D01*
X561220Y688150D02*
Y696150D01*
X546220Y688150D02*
Y696150D01*
X283020Y543440D02*
X291020D01*
X283020Y528440D02*
X291020D01*
X101410Y335160D02*
X109410D01*
X101410Y320160D02*
X109410D01*
X156810Y396360D02*
X164810D01*
X156810Y411360D02*
X164810D01*
X955160Y435420D02*
Y443420D01*
X970160Y435420D02*
Y443420D01*
X970160Y486220D02*
Y494220D01*
X955160Y486220D02*
Y494220D01*
D13*
X743209Y553714D02*
X744732Y555237D01*
X747777D01*
X749300Y553714D01*
Y547623D01*
X747777Y546100D01*
X744732D01*
X743209Y547623D01*
X740163Y553714D02*
X738640Y555237D01*
X735594D01*
X734072Y553714D01*
Y552191D01*
X735594Y550668D01*
X737117D01*
X735594D01*
X734072Y549146D01*
Y547623D01*
X735594Y546100D01*
X738640D01*
X740163Y547623D01*
X731026Y546100D02*
X727980D01*
X729503D01*
Y555237D01*
X731026Y553714D01*
X512069Y570984D02*
X513591Y572507D01*
X516637D01*
X518160Y570984D01*
Y564893D01*
X516637Y563370D01*
X513591D01*
X512069Y564893D01*
X509023Y563370D02*
X505977D01*
X507500D01*
Y572507D01*
X509023Y570984D01*
X501409Y563370D02*
X498363D01*
X499886D01*
Y572507D01*
X501409Y570984D01*
X487703Y572507D02*
X493795D01*
Y567938D01*
X490749Y569461D01*
X489226D01*
X487703Y567938D01*
Y564893D01*
X489226Y563370D01*
X492272D01*
X493795Y564893D01*
X640074Y557271D02*
X641597Y555748D01*
Y552703D01*
X640074Y551180D01*
X633983D01*
X632460Y552703D01*
Y555748D01*
X633983Y557271D01*
X632460Y560317D02*
Y563363D01*
Y561840D01*
X641597D01*
X640074Y560317D01*
X632460Y567931D02*
Y570977D01*
Y569454D01*
X641597D01*
X640074Y567931D01*
X632460Y580114D02*
X641597D01*
X637029Y575546D01*
Y581637D01*
X603721Y623758D02*
X602198Y622235D01*
X599152D01*
X597630Y623758D01*
Y629850D01*
X599152Y631372D01*
X602198D01*
X603721Y629850D01*
X606767Y623758D02*
X608289Y622235D01*
X611335D01*
X612858Y623758D01*
Y625281D01*
X611335Y626804D01*
X609812D01*
X611335D01*
X612858Y628327D01*
Y629850D01*
X611335Y631372D01*
X608289D01*
X606767Y629850D01*
X615904Y623758D02*
X617426Y622235D01*
X620472D01*
X621995Y623758D01*
Y629850D01*
X620472Y631372D01*
X617426D01*
X615904Y629850D01*
Y623758D01*
X601986Y694327D02*
X600463Y695850D01*
Y698895D01*
X601986Y700418D01*
X608077D01*
X609600Y698895D01*
Y695850D01*
X608077Y694327D01*
X601986Y691281D02*
X600463Y689758D01*
Y686712D01*
X601986Y685190D01*
X603509D01*
X605032Y686712D01*
Y688235D01*
Y686712D01*
X606554Y685190D01*
X608077D01*
X609600Y686712D01*
Y689758D01*
X608077Y691281D01*
X609600Y676052D02*
Y682144D01*
X603509Y676052D01*
X601986D01*
X600463Y677575D01*
Y680621D01*
X601986Y682144D01*
X687583Y534156D02*
X689106Y535679D01*
X692151D01*
X693674Y534156D01*
Y528065D01*
X692151Y526542D01*
X689106D01*
X687583Y528065D01*
X684537Y526542D02*
X681491D01*
X683014D01*
Y535679D01*
X684537Y534156D01*
X676923Y526542D02*
X673877D01*
X675400D01*
Y535679D01*
X676923Y534156D01*
X669308D02*
X667786Y535679D01*
X664740D01*
X663217Y534156D01*
Y532633D01*
X664740Y531110D01*
X666263D01*
X664740D01*
X663217Y529588D01*
Y528065D01*
X664740Y526542D01*
X667786D01*
X669308Y528065D01*
X525531Y548888D02*
X527053Y550411D01*
X530099D01*
X531622Y548888D01*
Y542797D01*
X530099Y541274D01*
X527053D01*
X525531Y542797D01*
X522485Y541274D02*
X519439D01*
X520962D01*
Y550411D01*
X522485Y548888D01*
X514871Y541274D02*
X511825D01*
X513348D01*
Y550411D01*
X514871Y548888D01*
X501165Y550411D02*
X504211Y548888D01*
X507257Y545843D01*
Y542797D01*
X505734Y541274D01*
X502688D01*
X501165Y542797D01*
Y544320D01*
X502688Y545843D01*
X507257D01*
X558005Y616960D02*
X559528Y618483D01*
X562573D01*
X564096Y616960D01*
Y610869D01*
X562573Y609346D01*
X559528D01*
X558005Y610869D01*
X554959Y609346D02*
X551913D01*
X553436D01*
Y618483D01*
X554959Y616960D01*
X547345Y609346D02*
X544299D01*
X545822D01*
Y618483D01*
X547345Y616960D01*
X539730Y618483D02*
X533639D01*
Y616960D01*
X539730Y610869D01*
Y609346D01*
X594252Y733799D02*
Y724662D01*
X589683D01*
X588161Y726185D01*
Y732276D01*
X589683Y733799D01*
X594252D01*
X585115Y732276D02*
X583592Y733799D01*
X580546D01*
X579024Y732276D01*
Y730753D01*
X580546Y729230D01*
X579024Y727708D01*
Y726185D01*
X580546Y724662D01*
X583592D01*
X585115Y726185D01*
Y727708D01*
X583592Y729230D01*
X585115Y730753D01*
Y732276D01*
X583592Y729230D02*
X580546D01*
X561232Y720344D02*
Y729481D01*
X556664D01*
X555141Y727958D01*
Y724912D01*
X556664Y723390D01*
X561232D01*
X558186D02*
X555141Y720344D01*
X552095Y727958D02*
X550572Y729481D01*
X547527D01*
X546004Y727958D01*
Y726435D01*
X547527Y724912D01*
X549049D01*
X547527D01*
X546004Y723390D01*
Y721867D01*
X547527Y720344D01*
X550572D01*
X552095Y721867D01*
X536867Y720344D02*
X542958D01*
X536867Y726435D01*
Y727958D01*
X538390Y729481D01*
X541435D01*
X542958Y727958D01*
X716858Y683253D02*
Y675639D01*
X715335Y674116D01*
X712289D01*
X710766Y675639D01*
Y683253D01*
X707721Y681730D02*
X706198Y683253D01*
X703152D01*
X701629Y681730D01*
Y680207D01*
X703152Y678684D01*
X701629Y677162D01*
Y675639D01*
X703152Y674116D01*
X706198D01*
X707721Y675639D01*
Y677162D01*
X706198Y678684D01*
X707721Y680207D01*
Y681730D01*
X706198Y678684D02*
X703152D01*
X555752Y941070D02*
Y956305D01*
X548134D01*
X545595Y953766D01*
Y948688D01*
X548134Y946148D01*
X555752D01*
X530360Y956305D02*
X540517D01*
Y948688D01*
X535439Y951227D01*
X532899D01*
X530360Y948688D01*
Y943609D01*
X532899Y941070D01*
X537978D01*
X540517Y943609D01*
D14*
X416350Y567180D02*
X430350D01*
Y547020D02*
Y567020D01*
X382350D02*
X396350D01*
X382350Y547020D02*
Y567020D01*
X410160Y550670D02*
Y563370D01*
X416350Y546606D02*
X430350D01*
X402286Y557020D02*
X410160Y563370D01*
X402286Y557020D02*
Y563370D01*
Y557020D02*
X410160Y550670D01*
X402286D02*
Y557020D01*
X382350Y547020D02*
X396350D01*
X595884Y702050D02*
Y716050D01*
X575470D02*
X595470D01*
X575310Y702050D02*
Y716050D01*
X579120Y695860D02*
X591820D01*
X595470Y668051D02*
Y682050D01*
X575470Y668051D02*
X595470D01*
X585470Y687986D02*
X591820Y695860D01*
X585470Y687986D02*
X591820D01*
X579120Y695860D02*
X585470Y687986D01*
X579120D02*
X585470D01*
X575470Y668051D02*
Y682050D01*
X340360Y76200D02*
Y85341D01*
X335789D01*
X334266Y83818D01*
Y80771D01*
X335789Y79247D01*
X340360D01*
X337313D02*
X334266Y76200D01*
X331219D02*
X328172D01*
X329695D01*
Y85341D01*
X331219Y83818D01*
X319031Y76200D02*
Y85341D01*
X323601Y80771D01*
X317507D01*
X320040Y131000D02*
Y140141D01*
X315469D01*
X313946Y138617D01*
Y135570D01*
X315469Y134047D01*
X320040D01*
X316993D02*
X313946Y131000D01*
X310899D02*
X307852D01*
X309375D01*
Y140141D01*
X310899Y138617D01*
X303281D02*
X301758Y140141D01*
X298711D01*
X297187Y138617D01*
Y137094D01*
X298711Y135570D01*
X300234D01*
X298711D01*
X297187Y134047D01*
Y132523D01*
X298711Y131000D01*
X301758D01*
X303281Y132523D01*
X598094Y436671D02*
X596571Y435148D01*
X593523D01*
X592000Y436671D01*
Y442765D01*
X593523Y444289D01*
X596571D01*
X598094Y442765D01*
X605712Y444289D02*
Y435148D01*
X601141Y439718D01*
X607235D01*
X470806Y584798D02*
X472329Y586321D01*
X475377D01*
X476900Y584798D01*
Y578703D01*
X475377Y577180D01*
X472329D01*
X470806Y578703D01*
X467759Y586321D02*
X461665D01*
Y584798D01*
X467759Y578703D01*
Y577180D01*
X504446Y522650D02*
X505970Y524174D01*
X509016D01*
X510540Y522650D01*
Y516556D01*
X509016Y515033D01*
X505970D01*
X504446Y516556D01*
X501399D02*
X499875Y515033D01*
X496828D01*
X495305Y516556D01*
Y522650D01*
X496828Y524174D01*
X499875D01*
X501399Y522650D01*
Y521127D01*
X499875Y519603D01*
X495305D01*
X504446Y464818D02*
X505970Y466341D01*
X509016D01*
X510540Y464818D01*
Y458723D01*
X509016Y457200D01*
X505970D01*
X504446Y458723D01*
X501399Y464818D02*
X499875Y466341D01*
X496828D01*
X495305Y464818D01*
Y463294D01*
X496828Y461771D01*
X495305Y460247D01*
Y458723D01*
X496828Y457200D01*
X499875D01*
X501399Y458723D01*
Y460247D01*
X499875Y461771D01*
X501399Y463294D01*
Y464818D01*
X499875Y461771D02*
X496828D01*
X921618Y535474D02*
X923141Y533951D01*
Y530904D01*
X921618Y529380D01*
X915524D01*
X914000Y530904D01*
Y533951D01*
X915524Y535474D01*
X914000Y538521D02*
Y541568D01*
Y540045D01*
X923141D01*
X921618Y538521D01*
Y546139D02*
X923141Y547662D01*
Y550709D01*
X921618Y552233D01*
X915524D01*
X914000Y550709D01*
Y547662D01*
X915524Y546139D01*
X921618D01*
X856687Y471304D02*
X858210Y472827D01*
X861257D01*
X862781Y471304D01*
Y465210D01*
X861257Y463686D01*
X858210D01*
X856687Y465210D01*
X853640Y463686D02*
X850593D01*
X852116D01*
Y472827D01*
X853640Y471304D01*
X846022Y463686D02*
X842975D01*
X844499D01*
Y472827D01*
X846022Y471304D01*
X984065Y426414D02*
X985588Y424891D01*
Y421843D01*
X984065Y420320D01*
X977971D01*
X976447Y421843D01*
Y424891D01*
X977971Y426414D01*
X976447Y429461D02*
Y432508D01*
Y430985D01*
X985588D01*
X984065Y429461D01*
Y437079D02*
X985588Y438602D01*
Y441649D01*
X984065Y443173D01*
X982541D01*
X981018Y441649D01*
Y440126D01*
Y441649D01*
X979494Y443173D01*
X977971D01*
X976447Y441649D01*
Y438602D01*
X977971Y437079D01*
X940954Y503176D02*
X939430Y504700D01*
Y507747D01*
X940954Y509270D01*
X947048D01*
X948571Y507747D01*
Y504700D01*
X947048Y503176D01*
X948571Y500129D02*
Y497082D01*
Y498605D01*
X939430D01*
X940954Y500129D01*
X948571Y487941D02*
X939430D01*
X944001Y492511D01*
Y486417D01*
X437899Y563370D02*
X447040D01*
Y558799D01*
X445517Y557276D01*
X439422D01*
X437899Y558799D01*
Y563370D01*
Y554229D02*
Y548135D01*
X439422D01*
X445517Y554229D01*
X447040D01*
X27940Y398780D02*
Y407921D01*
X23370D01*
X21846Y406398D01*
Y403350D01*
X23370Y401827D01*
X27940D01*
X24893D02*
X21846Y398780D01*
X18799D02*
X15752D01*
X17275D01*
Y407921D01*
X18799Y406398D01*
X5087Y398780D02*
X11181D01*
X5087Y404874D01*
Y406398D01*
X6611Y407921D01*
X9658D01*
X11181Y406398D01*
X27940Y322580D02*
Y331721D01*
X23370D01*
X21846Y330197D01*
Y327150D01*
X23370Y325627D01*
X27940D01*
X24893D02*
X21846Y322580D01*
X18799D02*
X15752D01*
X17275D01*
Y331721D01*
X18799Y330197D01*
X5087Y331721D02*
X11181D01*
Y327150D01*
X8134Y328674D01*
X6611D01*
X5087Y327150D01*
Y324104D01*
X6611Y322580D01*
X9658D01*
X11181Y324104D01*
X359649Y589520D02*
Y580379D01*
X364220D01*
X365743Y581903D01*
Y584950D01*
X364220Y586473D01*
X359649D01*
X362696D02*
X365743Y589520D01*
X368791Y581903D02*
X370314Y580379D01*
X373361D01*
X374884Y581903D01*
Y583426D01*
X373361Y584950D01*
X371838D01*
X373361D01*
X374884Y586473D01*
Y587997D01*
X373361Y589520D01*
X370314D01*
X368791Y587997D01*
X377932Y589520D02*
X380979D01*
X379455D01*
Y580379D01*
X377932Y581903D01*
X453480Y539851D02*
Y532234D01*
X451956Y530710D01*
X448909D01*
X447386Y532234D01*
Y539851D01*
X444339D02*
X438245D01*
Y538328D01*
X444339Y532234D01*
Y530710D01*
X127256Y711198D02*
X128779Y712721D01*
X131826D01*
X133350Y711198D01*
Y705104D01*
X131826Y703580D01*
X128779D01*
X127256Y705104D01*
X118115Y703580D02*
X124209D01*
X118115Y709674D01*
Y711198D01*
X119638Y712721D01*
X122685D01*
X124209Y711198D01*
X115068D02*
X113544Y712721D01*
X110497D01*
X108974Y711198D01*
Y705104D01*
X110497Y703580D01*
X113544D01*
X115068Y705104D01*
Y711198D01*
X133606Y666239D02*
X135129Y667763D01*
X138176D01*
X139700Y666239D01*
Y660145D01*
X138176Y658622D01*
X135129D01*
X133606Y660145D01*
X124465Y658622D02*
X130559D01*
X124465Y664716D01*
Y666239D01*
X125988Y667763D01*
X129035D01*
X130559Y666239D01*
X121418Y658622D02*
X118371D01*
X119894D01*
Y667763D01*
X121418Y666239D01*
X24386Y507998D02*
X25910Y509521D01*
X28956D01*
X30480Y507998D01*
Y501903D01*
X28956Y500380D01*
X25910D01*
X24386Y501903D01*
X15245Y500380D02*
X21339D01*
X15245Y506474D01*
Y507998D01*
X16768Y509521D01*
X19815D01*
X21339Y507998D01*
X12198Y509521D02*
X6104D01*
Y507998D01*
X12198Y501903D01*
Y500380D01*
X115064Y599437D02*
X116587Y600961D01*
X119635D01*
X121158Y599437D01*
Y593344D01*
X119635Y591820D01*
X116587D01*
X115064Y593344D01*
X105923Y591820D02*
X112017D01*
X105923Y597914D01*
Y599437D01*
X107446Y600961D01*
X110493D01*
X112017Y599437D01*
X102876Y593344D02*
X101352Y591820D01*
X98305D01*
X96782Y593344D01*
Y599437D01*
X98305Y600961D01*
X101352D01*
X102876Y599437D01*
Y597914D01*
X101352Y596390D01*
X96782D01*
M02*
