G04 Layer_Color=8421504*
%FSLAX44Y44*%
%MOMM*%
G71*
G01*
G75*
%ADD10C,0.5000*%
%ADD11O,1.8000X0.3000*%
%ADD12O,0.3000X1.8000*%
%ADD13R,3.4500X1.5500*%
%ADD14R,1.1000X1.5500*%
%ADD15R,1.1000X1.5500*%
%ADD16R,2.0000X1.0000*%
%ADD17R,3.6000X3.6000*%
%ADD18O,0.2500X0.8500*%
%ADD19O,0.8500X0.2500*%
%ADD20O,0.6000X2.0000*%
%ADD21R,1.4000X1.5000*%
%ADD22O,1.7500X0.5500*%
%ADD23O,0.5500X1.7500*%
%ADD24R,1.1000X1.7000*%
%ADD25R,1.5000X1.9000*%
%ADD26R,0.4000X1.3500*%
%ADD28R,1.7000X1.1000*%
%ADD30C,0.2000*%
%ADD45R,1.6000X1.8000*%
%ADD46R,1.8000X1.6000*%
G36*
X221000Y779850D02*
X208000D01*
Y798850D01*
X221000D01*
Y779850D01*
D02*
G37*
G36*
X162000D02*
X149000D01*
Y798850D01*
X162000D01*
Y779850D01*
D02*
G37*
G36*
X226000Y784850D02*
X221000D01*
Y793850D01*
X226000D01*
X226000Y784850D01*
D02*
G37*
G36*
X149000Y784850D02*
X144000D01*
X144000Y793850D01*
X149000D01*
Y784850D01*
D02*
G37*
D10*
X223500Y793850D02*
G03*
X223500Y793850I-2500J0D01*
G01*
Y784850D02*
G03*
X218782Y786003I-2500J0D01*
G01*
D02*
G03*
X223500Y784850I2218J-1154D01*
G01*
X151500Y793850D02*
G03*
X151500Y793850I-2500J0D01*
G01*
Y784850D02*
G03*
X150274Y787001I-2500J0D01*
G01*
X151498Y784740D02*
G03*
X151500Y784850I-2498J110D01*
G01*
X150274Y787001D02*
G03*
X150000Y787141I-1274J-2151D01*
G01*
Y782559D02*
G03*
X151498Y784740I-1000J2291D01*
G01*
X150000Y787141D02*
G03*
X150000Y782559I-1000J-2291D01*
G01*
D11*
X192150Y521300D02*
D03*
Y526300D02*
D03*
Y531300D02*
D03*
Y536300D02*
D03*
Y541300D02*
D03*
Y546300D02*
D03*
Y551300D02*
D03*
Y556300D02*
D03*
Y561300D02*
D03*
Y566300D02*
D03*
Y571300D02*
D03*
Y576300D02*
D03*
Y581300D02*
D03*
Y586300D02*
D03*
Y591300D02*
D03*
Y596300D02*
D03*
X303150D02*
D03*
Y591300D02*
D03*
Y586300D02*
D03*
Y581300D02*
D03*
Y576300D02*
D03*
Y571300D02*
D03*
Y566300D02*
D03*
Y561300D02*
D03*
Y556300D02*
D03*
Y551300D02*
D03*
Y546300D02*
D03*
Y541300D02*
D03*
Y536300D02*
D03*
Y531300D02*
D03*
Y526300D02*
D03*
Y521300D02*
D03*
D12*
X210150Y614300D02*
D03*
X215150D02*
D03*
X220150D02*
D03*
X225150D02*
D03*
X230150D02*
D03*
X235150D02*
D03*
X240150D02*
D03*
X245150D02*
D03*
X250150D02*
D03*
X255150D02*
D03*
X260150D02*
D03*
X265150D02*
D03*
X270150D02*
D03*
X275150D02*
D03*
X280150D02*
D03*
X285150D02*
D03*
Y503300D02*
D03*
X280150D02*
D03*
X275150D02*
D03*
X270150D02*
D03*
X265150D02*
D03*
X260150D02*
D03*
X255150D02*
D03*
X250150D02*
D03*
X245150D02*
D03*
X240150D02*
D03*
X235150D02*
D03*
X230150D02*
D03*
X225150D02*
D03*
X220150D02*
D03*
X215150D02*
D03*
X210150D02*
D03*
D13*
X185000Y650099D02*
D03*
D14*
X162000Y717599D02*
D03*
X185000D02*
D03*
D15*
X208000D02*
D03*
D16*
X976000Y722850D02*
D03*
Y682851D02*
D03*
X910000D02*
D03*
Y722850D02*
D03*
D17*
X510250Y519350D02*
D03*
D18*
X527750Y495100D02*
D03*
X522750D02*
D03*
X517750D02*
D03*
X512750D02*
D03*
X507750D02*
D03*
X502750D02*
D03*
X497750D02*
D03*
X492750D02*
D03*
Y543600D02*
D03*
X497750D02*
D03*
X502750D02*
D03*
X507750D02*
D03*
X512750D02*
D03*
X517750D02*
D03*
X522750D02*
D03*
X527750D02*
D03*
D19*
X486000Y501850D02*
D03*
Y506850D02*
D03*
Y511850D02*
D03*
Y516850D02*
D03*
Y521850D02*
D03*
Y526850D02*
D03*
Y531850D02*
D03*
Y536850D02*
D03*
X534500D02*
D03*
Y531850D02*
D03*
Y526850D02*
D03*
Y521850D02*
D03*
Y516850D02*
D03*
Y511850D02*
D03*
Y506850D02*
D03*
Y501850D02*
D03*
D20*
X22900Y523850D02*
D03*
X35600D02*
D03*
X48300D02*
D03*
X61000D02*
D03*
X22900Y573850D02*
D03*
X35600D02*
D03*
X48300D02*
D03*
X61000D02*
D03*
D21*
X692750Y476350D02*
D03*
Y451350D02*
D03*
X667250Y476350D02*
D03*
Y451350D02*
D03*
D22*
X864500Y542850D02*
D03*
Y534850D02*
D03*
Y510850D02*
D03*
Y502850D02*
D03*
Y526850D02*
D03*
Y518850D02*
D03*
Y494850D02*
D03*
Y470850D02*
D03*
Y462850D02*
D03*
Y486850D02*
D03*
Y478850D02*
D03*
X751500Y542850D02*
D03*
Y534850D02*
D03*
Y526850D02*
D03*
Y502850D02*
D03*
Y494850D02*
D03*
Y518850D02*
D03*
Y510850D02*
D03*
Y486850D02*
D03*
Y470850D02*
D03*
Y462850D02*
D03*
Y478850D02*
D03*
D23*
X840000Y559350D02*
D03*
X848000D02*
D03*
X824000D02*
D03*
X832000D02*
D03*
X808000D02*
D03*
X816000D02*
D03*
X792000D02*
D03*
X800000D02*
D03*
X816000Y446350D02*
D03*
X824000D02*
D03*
X800000D02*
D03*
X808000D02*
D03*
X840000D02*
D03*
X848000D02*
D03*
X832000D02*
D03*
X776000Y559350D02*
D03*
X784000D02*
D03*
X768000D02*
D03*
Y446350D02*
D03*
X776000D02*
D03*
X784000D02*
D03*
X792000D02*
D03*
D24*
X322500Y642850D02*
D03*
X295500D02*
D03*
X703500Y510850D02*
D03*
X676500D02*
D03*
X826500Y594850D02*
D03*
X799500D02*
D03*
X838000Y295850D02*
D03*
X811000D02*
D03*
X666000Y295850D02*
D03*
X639000D02*
D03*
X534200Y127000D02*
D03*
X507200D02*
D03*
X489750Y635000D02*
D03*
X462750D02*
D03*
X828500Y396850D02*
D03*
X801500D02*
D03*
X323050Y476250D02*
D03*
X350050D02*
D03*
X323000Y665850D02*
D03*
X296000D02*
D03*
X267500Y444500D02*
D03*
X240500D02*
D03*
X65500Y491850D02*
D03*
X38500D02*
D03*
X652500Y653850D02*
D03*
X625500D02*
D03*
X489750Y660400D02*
D03*
X462750D02*
D03*
X625500Y628850D02*
D03*
X652500D02*
D03*
X504500Y401850D02*
D03*
X477500D02*
D03*
X503498Y429849D02*
D03*
X476497D02*
D03*
D25*
X195000Y789350D02*
D03*
X175000D02*
D03*
D26*
X198000Y762350D02*
D03*
X178500D02*
D03*
X185000D02*
D03*
X172000D02*
D03*
X191500D02*
D03*
D28*
X239000Y719350D02*
D03*
Y692350D02*
D03*
X124000Y721350D02*
D03*
Y694350D02*
D03*
Y675350D02*
D03*
Y648350D02*
D03*
X715000Y574350D02*
D03*
Y547350D02*
D03*
X900000Y479350D02*
D03*
Y452350D02*
D03*
X901000Y546350D02*
D03*
Y519350D02*
D03*
X76200Y413550D02*
D03*
Y386550D02*
D03*
X50800Y413550D02*
D03*
Y386550D02*
D03*
X25400Y413550D02*
D03*
Y386550D02*
D03*
X858000Y706350D02*
D03*
Y679350D02*
D03*
X35000Y681850D02*
D03*
Y654850D02*
D03*
D30*
X878000Y-150D02*
X1000000Y121850D01*
X692000Y-150D02*
X878000D01*
X617000Y74850D02*
X692000Y-150D01*
X393000Y74850D02*
X617000D01*
X377000Y58850D02*
X393000Y74850D01*
X318150Y0D02*
X377000Y58850D01*
X172850Y0D02*
X318150D01*
X0Y172850D02*
X172850Y0D01*
X0Y172850D02*
Y815850D01*
X1000000D01*
Y121850D02*
Y815850D01*
D45*
X374000Y639850D02*
D03*
X344000D02*
D03*
X375000Y665850D02*
D03*
X345000D02*
D03*
X709000Y652850D02*
D03*
X679000D02*
D03*
X709000Y625850D02*
D03*
X679000D02*
D03*
X557000Y399850D02*
D03*
X527000D02*
D03*
X557000Y429850D02*
D03*
X527000D02*
D03*
D46*
X61000Y685850D02*
D03*
Y655850D02*
D03*
M02*
